<svg width="50" height="50" viewBox="0 0 50 50" fill="none" xmlns="http://www.w3.org/2000/svg">
<g clip-path="url(#clip0_399_24450)">
<path d="M32.6028 4.79297H6.35283C5.20703 4.79297 4.26953 5.73047 4.26953 6.87627V47.918C4.26953 49.0638 5.20703 50.0013 6.35283 50.0013H38.957C40.1028 50.0013 41.0403 49.0638 41.0403 47.918V13.2305L32.6028 4.79297Z" fill="#4CDBC4"/>
<path d="M45.7278 43.125V8.9583L36.7694 0H11.0403C9.89453 0 8.95703 0.9375 8.95703 2.0833V43.125C8.95703 44.2708 9.89453 45.2083 11.0403 45.2083H43.6445C44.7903 45.2083 45.7278 44.2708 45.7278 43.125Z" fill="#F2F2F2"/>
<path d="M36.7695 7.3958C36.7695 8.3333 37.4987 9.0625 38.4362 9.0625H45.7279L36.7695 0V7.3958Z" fill="#CDD6E0"/>
<path d="M42.082 15.625H29.582V18.2292H42.082V15.625Z" fill="#FFD15C"/>
<path d="M42.085 21.457H12.6055V24.0612H42.085V21.457Z" fill="#CDD6E0"/>
<path d="M42.085 27.293H12.6055V29.8972H42.085V27.293Z" fill="#CDD6E0"/>
<path d="M42.085 33.125H12.6055V35.7292H42.085V33.125Z" fill="#ACB3BA"/>
<path d="M26.1475 38.957H12.6055V41.5612H26.1475V38.957Z" fill="#ACB3BA"/>
<path d="M26.1445 3.75H12.707V18.2295H26.1445V3.75Z" fill="#84DBFF"/>
</g>
<defs>
<clipPath id="clip0_399_24450">
<rect width="50" height="50" fill="white"/>
</clipPath>
</defs>
</svg>
