<svg width="45" height="45" viewBox="0 0 45 45" fill="none" xmlns="http://www.w3.org/2000/svg">
<path opacity="0.1" d="M44 22.5C44 34.3741 34.3741 44 22.5 44C10.6259 44 1 34.3741 1 22.5C1 10.6259 10.6259 1 22.5 1C34.3741 1 44 10.6259 44 22.5Z" stroke="white" stroke-width="2"/>
<path d="M25.8678 19.9418C26.2986 19.9418 26.6478 19.5926 26.6478 19.1618C26.6478 18.7311 26.2986 18.3818 25.8678 18.3818C25.437 18.3818 25.0878 18.7311 25.0878 19.1618C25.0878 19.5926 25.437 19.9418 25.8678 19.9418Z" fill="white"/>
<path fill-rule="evenodd" clip-rule="evenodd" d="M19.25 22.5C19.25 24.2924 20.7076 25.75 22.5 25.75C24.2924 25.75 25.75 24.2924 25.75 22.5C25.75 20.7076 24.2924 19.25 22.5 19.25C20.7076 19.25 19.25 20.7076 19.25 22.5ZM20.875 22.5C20.875 21.6038 21.6038 20.875 22.5 20.875C23.3962 20.875 24.125 21.6038 24.125 22.5C24.125 23.3962 23.3962 24.125 22.5 24.125C21.6038 24.125 20.875 23.3962 20.875 22.5Z" fill="white"/>
<path fill-rule="evenodd" clip-rule="evenodd" d="M19.25 29H25.75C27.4205 29 29 27.4205 29 25.75V19.25C29 17.5795 27.4205 16 25.75 16H19.25C17.5795 16 16 17.5795 16 19.25V25.75C16 27.4205 17.5795 29 19.25 29ZM17.625 19.25C17.625 18.4903 18.4903 17.625 19.25 17.625H25.75C26.5097 17.625 27.375 18.4903 27.375 19.25V25.75C27.375 26.5097 26.5097 27.375 25.75 27.375H19.25C18.4757 27.375 17.625 26.5243 17.625 25.75V19.25Z" fill="white"/>
</svg>
