<svg width="607" height="607" viewBox="0 0 607 607" fill="none" xmlns="http://www.w3.org/2000/svg">
<path d="M607 464.233H0V464.537H607V464.233Z" fill="#EBEBEB"/>
<path d="M546.179 483.767H505.971V484.071H546.179V483.767Z" fill="#EBEBEB"/>
<path d="M402.101 487.069H391.551V487.372H402.101V487.069Z" fill="#EBEBEB"/>
<path d="M504.757 472.501H481.46V472.805H504.757V472.501Z" fill="#EBEBEB"/>
<path d="M116.119 474.541H63.6864V474.844H116.119V474.541Z" fill="#EBEBEB"/>
<path d="M134.62 474.541H126.936V474.844H134.62V474.541Z" fill="#EBEBEB"/>
<path d="M273.332 479.664H159.605V479.967H273.332V479.664Z" fill="#EBEBEB"/>
<path d="M287.718 410.089H53.3067C51.4703 410.086 49.7103 409.354 48.4129 408.055C47.1156 406.755 46.3869 404.994 46.3869 403.157V73.6413C46.4029 71.8154 47.1386 70.0696 48.4342 68.7831C49.7299 67.4965 51.4808 66.7731 53.3067 66.77H287.718C289.556 66.77 291.32 67.5003 292.62 68.8003C293.92 70.1003 294.65 71.8635 294.65 73.702V403.157C294.65 404.996 293.92 406.759 292.62 408.059C291.32 409.359 289.556 410.089 287.718 410.089ZM53.3067 67.0128C51.5508 67.016 49.868 67.7158 48.6275 68.9585C47.3871 70.2013 46.6904 71.8854 46.6904 73.6413V403.157C46.6904 404.913 47.3871 406.597 48.6275 407.84C49.868 409.083 51.5508 409.783 53.3067 409.786H287.718C289.475 409.783 291.159 409.083 292.401 407.841C293.644 406.598 294.343 404.914 294.346 403.157V73.6413C294.343 71.8843 293.644 70.2002 292.401 68.9578C291.159 67.7154 289.475 67.016 287.718 67.0128H53.3067Z" fill="#EBEBEB"/>
<path d="M550.318 410.089H315.895C314.057 410.086 312.296 409.355 310.997 408.055C309.698 406.756 308.966 404.995 308.963 403.157V73.6413C308.982 71.8143 309.721 70.0686 311.018 68.7823C312.316 67.4961 314.068 66.7731 315.895 66.77H550.318C552.142 66.7763 553.89 67.5012 555.183 68.7874C556.476 70.0736 557.21 71.8175 557.226 73.6413V403.157C557.226 404.992 556.499 406.751 555.204 408.05C553.91 409.35 552.153 410.083 550.318 410.089ZM315.895 67.0128C314.138 67.016 312.454 67.7154 311.211 68.9578C309.969 70.2002 309.27 71.8843 309.267 73.6413V403.157C309.27 404.914 309.969 406.598 311.211 407.841C312.454 409.083 314.138 409.783 315.895 409.786H550.318C552.075 409.783 553.759 409.083 555.002 407.841C556.244 406.598 556.944 404.914 556.947 403.157V73.6413C556.944 71.8843 556.244 70.2002 555.002 68.9578C553.759 67.7154 552.075 67.016 550.318 67.0128H315.895Z" fill="#EBEBEB"/>
<path d="M502.377 420.044C502.377 419.571 504.004 371.885 511.762 364.346C519.313 357.062 527.969 364.067 528.333 364.346L529.11 363.411C529.013 363.326 519.24 355.35 510.9 363.411C502.802 371.29 501.188 417.968 501.188 419.947L502.377 420.044Z" fill="#E0E0E0"/>
<path d="M501.71 429.453C501.77 428.882 507.015 372.213 486.316 348.455L485.394 349.256C505.752 372.613 500.556 428.773 500.496 429.38L501.71 429.453Z" fill="#E0E0E0"/>
<path d="M502.475 423.467L503.689 423.382C503.689 422.739 499.634 358.943 514.821 344.982L513.995 344.084C498.383 358.446 502.305 420.809 502.475 423.467Z" fill="#E0E0E0"/>
<path d="M500.496 423.431H501.71C501.71 421.671 501.212 380.346 489.473 373.657C488.357 372.936 487.085 372.492 485.763 372.363C484.441 372.234 483.107 372.424 481.873 372.916C474.771 375.854 471.263 388.492 471.117 389.026L472.331 389.342C472.331 389.221 475.839 376.753 482.395 374.045C483.456 373.626 484.601 373.468 485.736 373.584C486.871 373.7 487.961 374.087 488.914 374.713C500.01 381.038 500.496 423.006 500.496 423.431Z" fill="#E0E0E0"/>
<path d="M505.024 423.456L506.238 423.383C506.238 423.067 504.466 390.726 513.194 379.327C515.307 376.571 517.601 375.26 520.029 375.43C525.747 375.83 530.542 384.195 530.579 384.28L531.647 383.685C531.429 383.309 526.475 374.665 520.114 374.216C517.261 374.009 514.602 375.49 512.223 378.598C503.276 390.35 505.024 422.108 505.024 423.456Z" fill="#E0E0E0"/>
<path d="M503.154 427.85C503.397 424.718 508.86 350.882 499.245 337.868L498.262 338.597C507.622 351.246 502.001 427 501.904 427.765L503.154 427.85Z" fill="#E0E0E0"/>
<path d="M479.263 380.346C479.263 380.346 485.029 382.471 483.318 387.497C481.606 392.523 463.347 400.778 463.347 400.778C463.347 400.778 455.711 393.773 462.728 382.386C469.745 370.998 479.105 376.753 479.263 380.346Z" fill="#EBEBEB"/>
<path d="M504.344 370.78C504.344 370.78 498.201 370.525 497.849 375.818C497.497 381.111 511.203 395.764 511.203 395.764C511.203 395.764 520.915 392.243 518.851 379.023C516.788 365.802 505.874 367.526 504.344 370.78Z" fill="#EBEBEB"/>
<path d="M509.552 345.431C509.552 345.431 505.449 344.994 505.777 342.494C506.104 339.993 521.704 333.571 530.906 343.963C530.906 343.963 525.019 354.087 516.496 354.221C507.974 354.354 509.552 345.431 509.552 345.431Z" fill="#EBEBEB"/>
<path d="M501.916 339.373C501.916 339.373 505.619 341.158 506.663 338.876C507.707 336.593 497.861 322.875 484.556 326.821C484.556 326.821 484.204 338.536 491.367 343.149C498.529 347.762 501.916 339.373 501.916 339.373Z" fill="#EBEBEB"/>
<path d="M521.316 378.319C521.316 378.319 518.487 376.037 521.534 374.92C524.582 373.803 539.562 374.131 539.744 388.966C539.744 388.966 522.299 391.855 520.138 386.21C517.977 380.565 521.316 378.319 521.316 378.319Z" fill="#EBEBEB"/>
<path d="M485.746 345.055C485.746 345.055 488.574 342.773 485.527 341.656C482.48 340.539 467.499 340.867 467.317 355.69C467.317 355.69 484.762 358.591 486.923 352.946C489.084 347.301 485.746 345.055 485.746 345.055Z" fill="#EBEBEB"/>
<path d="M494.972 357.001C494.972 357.001 495.215 354.233 492.981 355.314C490.747 356.394 482.929 364.831 491.027 372.82C491.027 372.82 501.953 364.746 499.949 360.546C497.946 356.346 494.972 357.001 494.972 357.001Z" fill="#EBEBEB"/>
<path d="M523.841 360.959C523.841 360.959 522.154 358.749 524.63 358.47C527.107 358.191 538.19 361.153 535.617 372.237C535.617 372.237 522.093 371.217 521.522 366.616C520.952 362.015 523.841 360.959 523.841 360.959Z" fill="#EBEBEB"/>
<path d="M478.182 464.537H524.557L529.559 413.768H473.181L478.182 464.537Z" fill="#F0F0F0"/>
<path d="M470.692 419.364H532.023V408.159H470.692V419.364Z" fill="#E6E6E6"/>
<path d="M183.156 141.492H63.3101V464.537H183.156V141.492Z" fill="#EBEBEB"/>
<path d="M101.478 177.025H73.8962V297.563H101.478V177.025Z" fill="#FAFAFA"/>
<path d="M83.2319 321.904C83.2318 322.99 82.9102 324.052 82.3075 324.956C81.7048 325.859 80.8481 326.564 79.8453 326.982C78.8425 327.399 77.7387 327.51 76.6729 327.301C75.6071 327.091 74.6272 326.571 73.8566 325.806C73.0861 325.04 72.5595 324.064 72.3432 322.999C72.1269 321.935 72.2306 320.83 72.6413 319.825C73.0519 318.819 73.7511 317.958 74.6507 317.349C75.5503 316.741 76.6099 316.412 77.696 316.405C78.4213 316.4 79.1403 316.539 79.8117 316.813C80.4832 317.087 81.0937 317.492 81.6083 318.003C82.1228 318.514 82.5311 319.122 82.8098 319.791C83.0884 320.461 83.2319 321.179 83.2319 321.904Z" fill="#E0E0E0"/>
<path d="M146.226 119.336H100.228V130.189H146.226V119.336Z" fill="#F5F5F5"/>
<path d="M514.348 280.495V145.049H407.734V280.495H514.348Z" fill="#E6E6E6"/>
<path d="M511.932 147.477H410.174V278.067H511.932V147.477Z" fill="#F0F0F0"/>
<path d="M485.709 208.699C481.764 213.057 480.78 204.401 480.78 204.401L469.502 185.244L467.074 204.911L475.572 265.854C475.572 265.854 483.342 268.161 483.84 269.496C484.337 270.831 470.486 271.147 469.053 269.496C467.621 267.845 470.534 265.854 470.534 265.854L459.863 215.473L459.693 216.274L449.18 265.866C449.18 265.866 452.13 267.833 450.649 269.508C449.168 271.184 435.34 270.722 435.826 269.508C436.312 268.294 444.081 265.866 444.081 265.866L452.579 204.923L450.151 185.257L438.873 204.414C438.873 204.414 437.89 213.069 433.944 208.711C429.999 204.353 436.906 200.419 436.906 200.419L449.18 179.138L455.942 176.795L457.435 174.913C457.435 174.913 448.755 159.338 459.681 159.034H460.009C470.935 159.338 462.267 174.913 462.267 174.913L463.76 176.795L470.522 179.138L482.783 200.407C482.783 200.407 489.643 204.353 485.709 208.699Z" fill="#FAFAFA"/>
<path d="M459.645 159.034V216.274L449.18 265.866C449.18 265.866 452.13 267.833 450.649 269.508C449.168 271.183 435.34 270.722 435.826 269.508C436.312 268.294 444.081 265.866 444.081 265.866L452.579 204.923L450.151 185.257L438.873 204.414C438.873 204.414 437.89 213.069 433.944 208.711C429.999 204.353 436.906 200.419 436.906 200.419L449.18 179.138L455.942 176.795L457.435 174.913C457.435 174.913 448.719 159.338 459.645 159.034Z" fill="#E6E6E6"/>
<path d="M496.222 162.676H482.14V168.164H496.222V162.676Z" fill="#E6E6E6"/>
<path d="M501.006 187.369H486.923V192.856H501.006V187.369Z" fill="#E6E6E6"/>
<path d="M434.114 213.275H420.032V218.763H434.114V213.275Z" fill="#E6E6E6"/>
<path d="M439.747 162.47H425.665V167.957H439.747V162.47Z" fill="#E6E6E6"/>
<path d="M496.222 222.393H482.14V227.88H496.222V222.393Z" fill="#E6E6E6"/>
<path d="M437.975 243.395H423.892V248.882H437.975V243.395Z" fill="#E6E6E6"/>
<path d="M503.276 248.882H489.193V254.37H503.276V248.882Z" fill="#E6E6E6"/>
<path d="M294.067 192.674V329.407H397.026V192.674H294.067Z" fill="#E6E6E6"/>
<path d="M394.599 195.102H296.495V326.979H394.599V195.102Z" fill="#F5F5F5"/>
<path d="M394.599 195.102H296.495V227.88H394.599V195.102Z" fill="#FAFAFA"/>
<path d="M394.599 258.206H296.495V294.249H394.599V258.206Z" fill="#FAFAFA"/>
<path d="M375.466 219.965C380.95 219.965 385.396 215.518 385.396 210.034C385.396 204.55 380.95 200.104 375.466 200.104C369.981 200.104 365.535 204.55 365.535 210.034C365.535 215.518 369.981 219.965 375.466 219.965Z" fill="#F5F5F5"/>
<path d="M321.427 244.433C322.306 239.02 318.63 233.919 313.216 233.04C307.802 232.161 302.701 235.837 301.823 241.251C300.944 246.665 304.62 251.766 310.034 252.644C315.447 253.523 320.548 249.847 321.427 244.433Z" fill="#FAFAFA"/>
<path d="M380.442 287.024C385.509 284.925 387.915 279.116 385.816 274.049C383.717 268.982 377.908 266.576 372.841 268.674C367.774 270.773 365.368 276.582 367.467 281.649C369.566 286.716 375.375 289.122 380.442 287.024Z" fill="#F5F5F5"/>
<path d="M312.787 320.569C318.272 320.569 322.718 316.123 322.718 310.639C322.718 305.154 318.272 300.708 312.787 300.708C307.303 300.708 302.857 305.154 302.857 310.639C302.857 316.123 307.303 320.569 312.787 320.569Z" fill="#FAFAFA"/>
<path d="M303.5 519.058C434.363 519.058 540.448 512.861 540.448 505.218C540.448 497.575 434.363 491.378 303.5 491.378C172.637 491.378 66.5514 497.575 66.5514 505.218C66.5514 512.861 172.637 519.058 303.5 519.058Z" fill="#F5F5F5"/>
<path d="M148.642 508.302H112.817C111.999 508.319 111.188 508.154 110.443 507.818C109.697 507.482 109.036 506.983 108.507 506.36C107.969 505.711 107.582 504.951 107.372 504.134C107.162 503.318 107.135 502.465 107.293 501.637L123.342 412.76H171.902L155.78 502.317C155.453 503.98 154.567 505.481 153.268 506.57C151.969 507.659 150.337 508.27 148.642 508.302ZM126.475 416.512L111.032 502.305C110.968 502.587 110.967 502.88 111.028 503.163C111.088 503.446 111.21 503.713 111.385 503.944C111.561 504.147 111.782 504.308 112.031 504.413C112.279 504.518 112.548 504.565 112.817 504.551H148.642C149.448 504.508 150.217 504.198 150.828 503.671C151.438 503.143 151.857 502.428 152.017 501.637L167.35 416.512H126.475Z" fill="#407BFF"/>
<g opacity="0.4">
<path opacity="0.4" d="M123.342 412.76L108.956 492.641L107.342 501.649C107.184 502.475 107.212 503.326 107.422 504.14C107.632 504.955 108.019 505.712 108.556 506.36C109.084 506.984 109.745 507.484 110.491 507.822C111.236 508.16 112.047 508.328 112.865 508.314H148.691C150.377 508.265 151.997 507.643 153.284 506.551C154.57 505.459 155.446 503.961 155.768 502.305L157.929 490.323L171.89 412.748L123.342 412.76ZM154.032 490.529L152.029 501.661C151.866 502.452 151.445 503.166 150.832 503.691C150.219 504.216 149.448 504.523 148.642 504.563H112.817C112.548 504.576 112.279 504.528 112.032 504.422C111.784 504.317 111.562 504.158 111.384 503.956C111.21 503.725 111.089 503.458 111.03 503.175C110.971 502.891 110.976 502.598 111.044 502.317L112.805 492.471L126.474 416.524H167.338L154.032 490.529Z" fill="white"/>
</g>
<path opacity="0.2" d="M171.842 412.76L157.881 490.335L154.032 490.529L167.386 416.475H126.474L112.805 492.459L108.956 492.641L123.342 412.76H171.842Z" fill="black"/>
<path d="M169.669 415.795H121.169L105.169 326.906C105.011 326.08 105.038 325.229 105.247 324.415C105.457 323.6 105.845 322.843 106.383 322.196C106.91 321.569 107.57 321.068 108.316 320.73C109.062 320.392 109.874 320.225 110.692 320.241H146.518C148.205 320.287 149.826 320.906 151.115 321.996C152.403 323.086 153.283 324.582 153.607 326.238L169.669 415.795ZM124.314 412.044H165.177L149.856 326.906C149.693 326.116 149.272 325.402 148.659 324.876C148.046 324.351 147.275 324.045 146.469 324.005H110.644C110.378 323.992 110.112 324.038 109.866 324.141C109.62 324.244 109.401 324.401 109.224 324.6C109.045 324.828 108.92 325.095 108.859 325.379C108.798 325.662 108.802 325.956 108.871 326.238L124.314 412.044Z" fill="#407BFF"/>
<g opacity="0.4">
<path opacity="0.4" d="M169.669 415.795H121.169L105.169 326.906C105.011 326.08 105.038 325.229 105.247 324.415C105.457 323.6 105.845 322.843 106.383 322.196C106.91 321.569 107.57 321.068 108.316 320.73C109.062 320.392 109.874 320.225 110.692 320.241H146.518C148.205 320.287 149.826 320.906 151.115 321.996C152.403 323.086 153.283 324.582 153.607 326.238L169.669 415.795ZM124.314 412.044H165.177L149.856 326.906C149.693 326.116 149.272 325.402 148.659 324.876C148.046 324.351 147.275 324.045 146.469 324.005H110.644C110.378 323.992 110.112 324.038 109.866 324.141C109.62 324.244 109.401 324.401 109.224 324.6C109.045 324.828 108.92 325.095 108.859 325.379C108.798 325.662 108.802 325.956 108.871 326.238L124.314 412.044Z" fill="white"/>
</g>
<path d="M165.007 508.302C164.566 508.305 164.139 508.152 163.801 507.87C163.463 507.588 163.236 507.194 163.162 506.76L147.38 419.413C147.221 418.587 147.248 417.736 147.458 416.922C147.668 416.107 148.056 415.349 148.594 414.703C149.127 414.069 149.798 413.564 150.555 413.228C151.312 412.891 152.136 412.731 152.964 412.76H188.789C190.475 412.806 192.095 413.426 193.381 414.516C194.668 415.606 195.544 417.102 195.867 418.757L211.588 506.105C211.664 506.59 211.547 507.086 211.262 507.487C210.977 507.888 210.547 508.161 210.063 508.248C209.579 508.335 209.08 508.23 208.673 507.954C208.267 507.678 207.984 507.254 207.885 506.772L192.164 419.425C192.001 418.636 191.582 417.924 190.971 417.399C190.361 416.874 189.593 416.566 188.789 416.524H152.964C152.696 416.51 152.428 416.557 152.181 416.66C151.933 416.763 151.711 416.919 151.531 417.118C151.358 417.35 151.237 417.616 151.176 417.899C151.115 418.182 151.116 418.475 151.179 418.757L166.961 506.105C167.007 506.348 167.004 506.598 166.952 506.84C166.9 507.082 166.8 507.311 166.659 507.514C166.518 507.718 166.338 507.891 166.129 508.024C165.921 508.157 165.688 508.247 165.444 508.29C165.3 508.315 165.152 508.319 165.007 508.302Z" fill="#407BFF"/>
<g opacity="0.4">
<path opacity="0.4" d="M165.007 508.302C164.566 508.305 164.139 508.152 163.801 507.87C163.463 507.588 163.236 507.194 163.162 506.76L147.38 419.413C147.221 418.587 147.248 417.736 147.458 416.922C147.668 416.107 148.056 415.349 148.594 414.703C149.127 414.069 149.798 413.564 150.555 413.228C151.312 412.891 152.136 412.731 152.964 412.76H188.789C190.475 412.806 192.095 413.426 193.381 414.516C194.668 415.606 195.544 417.102 195.867 418.757L211.588 506.105C211.664 506.59 211.547 507.086 211.262 507.487C210.977 507.888 210.547 508.161 210.063 508.248C209.579 508.335 209.08 508.23 208.673 507.954C208.267 507.678 207.984 507.254 207.885 506.772L192.164 419.425C192.001 418.636 191.582 417.924 190.971 417.399C190.361 416.874 189.593 416.566 188.789 416.524H152.964C152.696 416.51 152.428 416.557 152.181 416.66C151.933 416.763 151.711 416.919 151.531 417.118C151.358 417.35 151.237 417.616 151.176 417.899C151.115 418.182 151.116 418.475 151.179 418.757L166.961 506.105C167.007 506.348 167.004 506.598 166.952 506.84C166.9 507.082 166.8 507.311 166.659 507.514C166.518 507.718 166.338 507.891 166.129 508.024C165.921 508.157 165.688 508.247 165.444 508.29C165.3 508.315 165.152 508.319 165.007 508.302Z" fill="white"/>
</g>
<path d="M200.31 411.048H121.145C121.148 409.215 121.879 407.458 123.176 406.163C124.473 404.868 126.232 404.141 128.065 404.141H193.366C195.199 404.141 196.957 404.868 198.255 406.163C199.552 407.458 200.282 409.215 200.286 411.048H200.31Z" fill="#407BFF"/>
<path d="M201.026 410.696H120.404C119.714 410.696 119.154 411.256 119.154 411.947V417.313C119.154 418.003 119.714 418.563 120.404 418.563H201.026C201.717 418.563 202.277 418.003 202.277 417.313V411.947C202.277 411.256 201.717 410.696 201.026 410.696Z" fill="#407BFF"/>
<g opacity="0.6">
<path opacity="0.6" d="M201.026 410.696H120.404C119.714 410.696 119.154 411.256 119.154 411.947V417.313C119.154 418.003 119.714 418.563 120.404 418.563H201.026C201.717 418.563 202.277 418.003 202.277 417.313V411.947C202.277 411.256 201.717 410.696 201.026 410.696Z" fill="white"/>
</g>
<path d="M211.624 341.741L216.687 342.883C218.311 342.46 219.77 341.559 220.875 340.297C223.036 338.039 231.582 339.253 231.582 339.253C231.582 339.253 234.848 347.156 233.889 348.212C232.93 349.268 222.21 348.904 220.875 348.807C219.879 348.651 218.932 348.269 218.107 347.69L210.641 346.804L211.624 341.741Z" fill="#EBB376"/>
<path d="M217.306 341.571C215.932 340.627 214.705 339.486 213.664 338.184C210.823 334.421 204.996 315.009 200.31 310.153C200.31 310.153 192.31 319.537 194.786 331.276C195.046 332.542 195.42 333.781 195.903 334.979C198.926 342.579 203.794 346.403 208.274 347.799C210.539 348.409 212.891 348.631 215.23 348.455L217.306 341.571Z" fill="#407BFF"/>
<path opacity="0.2" d="M208.225 347.799C203.746 346.403 198.878 342.579 195.855 334.979C195.371 333.781 194.997 332.542 194.738 331.277L198.841 321.067C198.829 321.249 211.357 337.371 208.225 347.799Z" fill="black"/>
<path d="M137.777 356.066L197.056 362.403L197.506 382.01C199.023 382.422 200.528 382.799 202.034 383.163V407.904C186.252 407.079 139.731 412.833 130.906 400.365C125.807 393.191 137.777 356.066 137.777 356.066Z" fill="#263238"/>
<path d="M214.453 493.079L223 493.71L228.353 474.225L219.819 473.606L214.453 493.079Z" fill="#EBB376"/>
<path d="M224.189 494.098C224.184 494.109 224.181 494.122 224.181 494.134C224.181 494.147 224.184 494.159 224.189 494.171H224.25C224.92 494.537 225.623 494.838 226.35 495.069C226.887 495.265 227.476 495.265 228.013 495.069C228.187 494.967 228.328 494.818 228.422 494.641C228.517 494.463 228.56 494.262 228.548 494.062C228.561 493.935 228.541 493.806 228.49 493.689C228.439 493.572 228.358 493.471 228.256 493.394C227.482 493.078 226.62 493.052 225.828 493.321C226.422 492.9 226.851 492.287 227.042 491.585C227.058 491.418 227.016 491.251 226.923 491.112C226.83 490.973 226.692 490.87 226.532 490.82C226.398 490.755 226.251 490.721 226.101 490.721C225.952 490.721 225.805 490.755 225.67 490.82C224.639 491.391 224.238 493.77 224.202 493.904H224.056C224.03 493.921 224.012 493.949 224.007 493.979C224.001 494.01 224.008 494.042 224.025 494.068C224.043 494.093 224.07 494.111 224.101 494.117C224.132 494.122 224.164 494.116 224.189 494.098ZM224.821 493.625H224.626C224.833 492.835 225.258 491.549 225.84 491.197C225.908 491.154 225.985 491.126 226.064 491.116C226.144 491.105 226.225 491.112 226.302 491.136H226.399C226.666 491.245 226.69 491.403 226.678 491.524C226.642 492.192 225.658 493.151 224.821 493.612V493.625ZM224.821 494.074C225.95 493.722 227.504 493.418 227.989 493.782C228.04 493.82 228.08 493.87 228.105 493.927C228.131 493.984 228.141 494.048 228.135 494.11C228.139 494.236 228.11 494.361 228.053 494.474C227.996 494.586 227.911 494.682 227.807 494.754C227.346 495.009 226.253 494.754 224.857 494.098L224.821 494.074Z" fill="#407BFF"/>
<path opacity="0.2" d="M219.819 473.606L228.353 474.237L225.282 485.37L216.857 484.338L219.819 473.606Z" fill="black"/>
<path d="M231.243 483.998L216.201 479.53C216.201 479.53 237.556 416.524 234.302 411.303C233.926 410.696 157.589 390.787 157.589 390.787L177.839 371.897C177.839 371.897 258.461 384.195 260.124 405.476C260.925 415.662 231.243 483.998 231.243 483.998Z" fill="#263238"/>
<path d="M214.259 479.906L232.372 485.03L235.625 477.491L215.643 472.258L214.259 479.906Z" fill="#407BFF"/>
<path opacity="0.2" d="M214.259 479.906L232.372 485.03L235.625 477.491L215.643 472.258L214.259 479.906Z" fill="white"/>
<path d="M223.837 492.884L214.587 490.298C214.432 490.248 214.264 490.261 214.119 490.333C213.973 490.406 213.862 490.533 213.81 490.687L211.321 497.886C211.265 498.076 211.248 498.274 211.27 498.471C211.292 498.667 211.353 498.857 211.449 499.03C211.545 499.203 211.674 499.355 211.829 499.477C211.984 499.6 212.162 499.69 212.353 499.743C215.594 500.593 217.209 500.836 221.264 501.941C224.836 503.099 228.488 504 232.19 504.636C235.759 505.048 236.062 501.504 234.618 500.994C230.876 499.428 227.605 496.918 225.124 493.71C224.795 493.303 224.344 493.014 223.837 492.884Z" fill="#263238"/>
<path d="M181.092 500.617L189.578 499.452L190.756 479.275L182.282 480.453L181.092 500.617Z" fill="#EBB376"/>
<path opacity="0.2" d="M182.282 480.453L190.756 479.288L190.076 490.821L181.614 491.561L182.282 480.453Z" fill="black"/>
<path d="M154.239 381.039C154.239 381.039 126.717 393.179 130.602 400.378C137.546 413.222 164.885 406.812 179.417 410.09C183.059 410.879 179.988 487.069 179.988 487.069L195.612 488.283C195.612 488.283 203.321 425.544 203.6 398.666C203.721 387.861 197.481 381.039 154.239 381.039Z" fill="#263238"/>
<path d="M178.154 487.774L196.935 489.012L198.55 480.963L177.912 480.004L178.154 487.774Z" fill="#407BFF"/>
<path opacity="0.2" d="M178.154 487.774L196.935 489.012L198.55 480.963L177.912 480.004L178.154 487.774Z" fill="white"/>
<path d="M190.416 499.476H190.598C190.598 499.476 190.792 499.537 190.816 499.549C190.841 499.561 190.816 499.549 190.816 499.61H190.889C191.616 499.835 192.365 499.981 193.123 500.047C193.686 500.146 194.265 500.033 194.75 499.731C194.9 499.595 195.008 499.419 195.062 499.223C195.116 499.027 195.113 498.821 195.053 498.627C195.037 498.5 194.989 498.38 194.915 498.276C194.841 498.172 194.743 498.088 194.628 498.032C193.813 497.905 192.978 498.059 192.261 498.469C192.764 497.938 193.061 497.245 193.099 496.514C193.063 496.343 192.972 496.188 192.841 496.072C192.71 495.956 192.545 495.885 192.37 495.871C192.206 495.84 192.037 495.844 191.874 495.881C191.711 495.919 191.558 495.99 191.423 496.089C190.525 496.866 190.379 499.282 190.379 499.428L190.416 499.476ZM191.338 498.979L191.168 499.076C191.118 498.147 191.369 497.227 191.885 496.454C191.944 496.401 192.013 496.361 192.088 496.336C192.163 496.311 192.243 496.301 192.322 496.308H192.419C192.698 496.308 192.771 496.502 192.783 496.611C192.59 497.537 192.078 498.366 191.338 498.954V498.979ZM191.46 499.404C192.492 498.833 193.961 498.19 194.507 498.457C194.564 498.483 194.612 498.524 194.648 498.575C194.684 498.626 194.707 498.686 194.713 498.748C194.746 498.871 194.747 499.001 194.715 499.124C194.683 499.247 194.62 499.36 194.531 499.452C194.094 499.816 193.026 499.804 191.46 499.404Z" fill="#407BFF"/>
<path d="M190.222 498.432L180.631 497.825C180.551 497.817 180.471 497.824 180.394 497.847C180.317 497.87 180.245 497.908 180.183 497.959C180.121 498.01 180.07 498.072 180.032 498.143C179.994 498.214 179.971 498.292 179.963 498.371L179.029 505.935C179.005 506.331 179.138 506.721 179.399 507.021C179.66 507.321 180.028 507.506 180.425 507.537C183.775 507.695 185.378 507.598 189.602 507.828C193.344 508.217 197.11 508.334 200.868 508.181C204.51 507.841 204.013 504.32 202.471 504.15C198.488 503.388 194.767 501.616 191.666 499.003C191.264 498.654 190.754 498.452 190.222 498.432Z" fill="#263238"/>
<path d="M197.251 342.008C197.056 346.561 196.935 351.417 196.971 356.455C196.971 358.41 196.971 360.4 197.056 362.404C197.056 362.404 176.103 382.313 137.194 357.96C140.483 344.785 144.702 331.86 149.82 319.282C150.803 316.939 151.823 314.621 152.915 312.35C154.815 308.265 156.985 304.311 159.41 300.514C159.41 300.514 168.588 296.046 180.983 300.514C187.835 302.831 194.337 306.074 200.31 310.153C198.724 320.709 197.702 331.343 197.251 342.008Z" fill="#407BFF"/>
<path d="M168.746 304.071C168.746 304.071 167.666 294.723 176.03 297.273C184.394 299.822 189.991 301.254 191.193 309.024L187.114 307.082L181.044 311.998L172.959 302.541L168.746 304.071Z" fill="#407BFF"/>
<path opacity="0.7" d="M168.746 304.071C168.746 304.071 167.666 294.723 176.03 297.273C184.394 299.822 189.991 301.254 191.193 309.024L187.114 307.082L181.044 311.998L172.959 302.541L168.746 304.071Z" fill="white"/>
<path d="M173.917 299.858L181.104 310.845L186.628 305.03C186.342 303.97 186.267 302.865 186.41 301.776C186.598 299.936 187.268 298.177 188.352 296.678L182.513 285.873L180.461 282.061C179.283 288.702 177.827 295.136 173.917 299.858Z" fill="#EBB376"/>
<path opacity="0.3" d="M186.41 301.776C186.598 299.936 187.268 298.177 188.352 296.678L182.513 285.873C182.513 285.873 179.915 296.326 186.41 301.776Z" fill="black"/>
<path d="M197.433 270.601C193.39 272.434 194.313 276.877 201.378 284.817C205.445 281.078 207.448 272.798 205.166 270.249C202.884 267.699 200.953 269.022 197.433 270.601Z" fill="#263238"/>
<path d="M180.692 274.643C180.692 274.643 175.168 287.997 183.265 295.342C189.153 300.659 197.275 301.776 203.284 295.196C207.982 290.049 205.19 283.506 205.19 283.506C206.149 276.768 205.057 269.35 199.582 265.806C197.833 264.662 195.821 263.984 193.738 263.836C191.654 263.689 189.566 264.076 187.674 264.961C185.782 265.846 184.147 267.201 182.925 268.895C181.703 270.59 180.934 272.568 180.692 274.643Z" fill="#EBB376"/>
<path opacity="0.2" d="M205.166 292.198C204.717 293.307 204.067 294.324 203.248 295.196C197.251 301.776 189.129 300.659 183.241 295.342C182.511 294.691 181.862 293.953 181.311 293.145C179.478 286.832 181.821 278.103 183.265 277.363C182.962 278.956 183.121 280.603 183.723 282.109C184.326 283.614 185.346 284.916 186.665 285.861C186.665 285.861 192.188 284.647 193.33 285.861C194.471 287.075 196.972 289.806 198.562 290.268C200.152 290.729 200.565 293.8 200.565 293.8C202.175 293.519 203.729 292.978 205.166 292.198Z" fill="black"/>
<path d="M193.39 279.572C193.257 280.288 193.524 280.944 193.997 281.029C194.471 281.114 194.944 280.616 195.078 279.9C195.211 279.184 194.956 278.528 194.495 278.443C194.033 278.358 193.572 278.88 193.39 279.572Z" fill="#263238"/>
<path d="M201.524 281.138C201.39 281.855 201.67 282.51 202.131 282.607C202.592 282.704 203.09 282.194 203.236 281.466C203.381 280.738 203.102 280.094 202.629 280.009C202.155 279.924 201.682 280.434 201.524 281.138Z" fill="#263238"/>
<path d="M198.817 280.968C199.256 283.327 200.016 285.614 201.075 287.767C200.518 288.025 199.911 288.159 199.296 288.159C198.682 288.159 198.075 288.025 197.518 287.767L198.817 280.968Z" fill="#D58745"/>
<path d="M191.654 276.574C191.606 276.574 191.559 276.564 191.515 276.545C191.472 276.526 191.432 276.499 191.399 276.464C191.321 276.383 191.277 276.274 191.277 276.161C191.277 276.048 191.321 275.939 191.399 275.857C191.893 275.388 192.493 275.044 193.149 274.856C193.804 274.668 194.495 274.641 195.163 274.777C195.216 274.788 195.267 274.81 195.311 274.842C195.356 274.873 195.393 274.914 195.422 274.96C195.45 275.007 195.469 275.059 195.476 275.113C195.484 275.167 195.48 275.222 195.466 275.275C195.452 275.329 195.427 275.38 195.393 275.425C195.359 275.47 195.317 275.507 195.268 275.535C195.22 275.564 195.166 275.582 195.111 275.589C195.055 275.597 194.998 275.593 194.944 275.578C194.415 275.481 193.871 275.511 193.356 275.665C192.841 275.819 192.37 276.093 191.982 276.464C191.938 276.505 191.887 276.536 191.83 276.555C191.773 276.574 191.713 276.58 191.654 276.574Z" fill="#263238"/>
<path d="M205.773 279.099C205.694 279.084 205.62 279.048 205.56 278.995C205.5 278.941 205.456 278.872 205.433 278.795C205.32 278.259 205.078 277.758 204.729 277.335C204.381 276.912 203.935 276.58 203.43 276.367C203.324 276.331 203.237 276.255 203.187 276.155C203.137 276.055 203.128 275.939 203.163 275.833C203.178 275.78 203.204 275.73 203.239 275.687C203.273 275.645 203.316 275.609 203.365 275.583C203.414 275.557 203.467 275.541 203.522 275.536C203.577 275.531 203.632 275.537 203.685 275.554C204.318 275.805 204.882 276.203 205.329 276.717C205.777 277.23 206.096 277.842 206.259 278.504C206.275 278.557 206.281 278.613 206.275 278.669C206.269 278.724 206.252 278.778 206.225 278.827C206.197 278.876 206.161 278.919 206.116 278.953C206.072 278.987 206.021 279.012 205.967 279.026C205.911 279.069 205.844 279.094 205.773 279.099Z" fill="#263238"/>
<path d="M185.159 267.311C189.093 269.35 187.915 273.745 180.413 281.26C176.552 277.29 175.022 268.901 177.462 266.485C179.903 264.07 181.724 265.526 185.159 267.311Z" fill="#263238"/>
<path d="M175.156 280.895C175.254 282.01 175.572 283.095 176.091 284.086C176.61 285.078 177.319 285.957 178.179 286.674C180.497 288.568 182.853 286.783 183.217 283.979C183.545 281.442 182.719 277.399 179.915 276.598C177.11 275.797 174.913 278.128 175.156 280.895Z" fill="#EBB376"/>
<path d="M195.855 292.38C195.487 291.288 194.825 290.319 193.943 289.578C193.061 288.837 191.992 288.353 190.853 288.18" stroke="#263238" stroke-width="0.526291" stroke-linecap="round" stroke-linejoin="round"/>
<path d="M194.677 267.007C193.933 269.284 192.442 271.242 190.445 272.564C188.449 273.886 186.064 274.495 183.678 274.291C175.047 273.672 173.845 268.646 173.845 268.646C174.527 268.834 175.22 268.98 175.921 269.083C175.373 267.835 175.178 266.461 175.358 265.11C175.538 263.76 176.085 262.484 176.94 261.423C179.939 257.975 188.983 255.183 195.041 258.036C195.041 258.036 201.633 256.47 206.89 260.67C214.854 267.044 210.459 271.208 210.459 271.208C210.459 271.208 211.673 268.683 208.65 265.611C208.65 265.611 210.957 274.546 205.518 276.125C205.518 276.076 206.113 267.663 194.677 267.007Z" fill="#263238"/>
<path opacity="0.2" d="M197.251 342.008C197.056 346.561 196.935 351.417 196.971 356.455C193.271 359.799 188.691 362.017 183.773 362.847C178.854 363.677 173.801 363.085 169.207 361.141C150.997 353.796 145.801 336.254 149.783 319.306C150.247 316.762 151.341 314.375 152.964 312.362C157.662 307.239 164.266 315.737 164.266 315.737C164.266 316.223 168.03 332.733 171.72 336.934C175.156 340.879 194.713 341.899 197.251 342.008Z" fill="black"/>
<path d="M180.886 342.907L185.948 344.048C187.572 343.626 189.031 342.725 190.137 341.462C192.298 339.216 200.844 340.43 200.844 340.43C200.844 340.43 204.11 348.321 203.151 349.389C202.192 350.458 191.472 350.081 190.137 349.972C189.146 349.819 188.203 349.441 187.381 348.867L179.903 347.969L180.886 342.907Z" fill="#EBB376"/>
<path d="M159.41 300.526C147.27 305.722 148.351 331.349 152.272 340.345C156.193 349.341 181.578 349.887 181.578 349.887L183.314 342.348C183.314 342.348 167.532 338.439 165.201 334.943C162.87 331.446 163.562 322.73 164.145 317.024C164.498 314.097 164.261 311.129 163.448 308.296C162.635 305.462 161.262 302.82 159.41 300.526Z" fill="#407BFF"/>
<path d="M402.49 346.257V508.544H394.878V360.825H308.514V508.544H300.89V360.825H271.45V508.544H263.814V360.825H177.463V508.544H169.839V346.257H402.49Z" fill="#407BFF"/>
<path opacity="0.4" d="M402.49 346.257V508.544H394.878V360.825H308.514V508.544H300.89V360.825H271.45V508.544H263.814V360.825H177.463V508.544H169.839V346.257H402.49Z" fill="white"/>
<path opacity="0.3" d="M300.781 346.257V360.825H271.45H263.814H177.463V508.544H169.839V346.257H300.781Z" fill="white"/>
<path d="M266.752 329.637H250.278V339.543H266.752V329.637Z" fill="#263238"/>
<path d="M266.874 342.142H253.483L257.247 315.251H270.637L266.874 342.142Z" fill="#407BFF"/>
<path opacity="0.3" d="M266.874 342.142H253.483L257.247 315.251H270.637L266.874 342.142Z" fill="white"/>
<path d="M263.669 343.962H250.278L254.042 317.072H267.42L263.669 343.962Z" fill="#407BFF"/>
<path opacity="0.6" d="M263.669 343.962H250.278L254.042 317.072H267.42L263.669 343.962Z" fill="white"/>
<path d="M271.208 346.257H247.911L251.468 329.637H252.354L250.727 333.607H264.081L265.708 329.637H269.095C269.095 329.637 271.584 346.245 271.208 346.257Z" fill="#263238"/>
<path d="M267.833 329.637L261.047 346.257H243.431L250.218 329.637H252.354L250.728 333.607H264.082L265.708 329.637H267.833Z" fill="#263238"/>
<path opacity="0.3" d="M267.833 329.637L261.047 346.257H243.431L250.218 329.637H252.354L250.728 333.607H264.082L265.708 329.637H267.833Z" fill="white"/>
<path d="M281.867 340.903H310.687C311.279 340.903 311.848 341.139 312.266 341.558C312.685 341.977 312.921 342.545 312.921 343.137V346.257H279.633V343.137C279.633 342.545 279.868 341.977 280.287 341.558C280.706 341.139 281.274 340.903 281.867 340.903Z" fill="#263238"/>
<path opacity="0.3" d="M281.867 340.903H298.547C299.139 340.903 299.708 341.139 300.126 341.558C300.545 341.977 300.781 342.545 300.781 343.137V346.257H279.633V343.137C279.633 342.545 279.868 341.977 280.287 341.558C280.706 341.139 281.274 340.903 281.867 340.903Z" fill="white"/>
<path d="M371.326 270.576H368.036C367.56 270.576 367.174 270.962 367.174 271.438V274.728C367.174 275.204 367.56 275.59 368.036 275.59H371.326C371.802 275.59 372.188 275.204 372.188 274.728V271.438C372.188 270.962 371.802 270.576 371.326 270.576Z" stroke="#263238" stroke-width="0.5" stroke-miterlimit="10"/>
<path d="M370.27 325.158L365.05 317.461C365.05 317.461 364.613 313.394 364.176 313.115C363.739 312.835 351.55 309.473 351.55 309.473C351.55 309.473 349.96 317.157 350.822 318.323C351.684 319.488 359.101 321.516 359.101 321.516L360.57 320.787L365.341 328.63L370.27 325.158Z" fill="#E4897B"/>
<path d="M396.055 303.767C400.479 309.559 402.722 316.724 402.392 324.004C402.392 324.004 385.494 346.257 377.056 346.257C368.619 346.257 361.954 326.032 361.954 326.032L369.299 321.576C369.299 321.576 374.835 330.499 379.545 329.504C384.255 328.508 396.055 303.767 396.055 303.767Z" fill="#407BFF"/>
<path opacity="0.6" d="M396.055 303.767C400.479 309.559 402.722 316.724 402.392 324.004C402.392 324.004 385.494 346.257 377.056 346.257C368.619 346.257 361.954 326.032 361.954 326.032L369.299 321.576C369.299 321.576 374.835 330.499 379.545 329.504C384.255 328.508 396.055 303.767 396.055 303.767Z" fill="white"/>
<path d="M345.189 325.158L339.92 317.461C339.92 317.461 339.483 313.394 339.058 313.115C338.633 312.835 326.432 309.473 326.432 309.473C326.432 309.473 324.83 317.157 325.704 318.323C326.578 319.488 333.971 321.516 333.971 321.516L335.44 320.787L340.211 328.63L345.189 325.158Z" fill="#E4897B"/>
<path d="M371.023 284.149C371.198 284.565 371.396 284.97 371.617 285.363C372.839 287.565 374.702 289.344 376.959 290.462C377.525 290.752 378.114 290.996 378.719 291.19C381.041 291.974 383.555 291.977 385.878 291.199C388.202 290.421 390.207 288.904 391.588 286.88C395.23 281.672 394.295 276.525 393.336 267.711C393.149 265.645 392.436 263.662 391.265 261.95C390.094 260.237 388.504 258.854 386.646 257.931C384.788 257.008 382.725 256.577 380.653 256.678C378.581 256.779 376.569 257.41 374.81 258.509C366.834 263.438 367.842 276.598 371.023 284.149Z" fill="#E4897B"/>
<path opacity="0.2" d="M376.959 290.425C377.525 290.715 378.114 290.959 378.719 291.154C380.315 291.682 382.008 291.846 383.676 291.636C385.344 291.426 386.943 290.847 388.358 289.94C387.789 288.956 387.1 288.046 386.307 287.232C382.949 287.379 379.705 288.488 376.959 290.425Z" fill="black"/>
<path d="M401.348 298.498C397.706 303.124 381.924 303.767 381.924 303.767C381.924 303.767 375.041 303.063 376.085 300.781C379.861 299.494 381.427 297.369 381.815 294.929C382.007 293.424 381.892 291.896 381.475 290.437C381.275 289.615 381.027 288.804 380.735 288.009L392.17 276.185C388.359 289.976 396.371 294.577 401.348 298.498Z" fill="#E4897B"/>
<path d="M370.804 257.647C374.13 253.265 376.68 254.296 376.68 254.296C378.865 250.582 389.9 251.334 395.181 255.595C400.462 259.857 401.822 267.165 400.984 272.81C399.77 281.017 393.894 288.98 393.894 288.98C387.229 290.194 381.9 288.301 381.754 284.816C381.609 281.332 378.343 278.504 378.343 278.504C375.053 279.317 372.443 275.505 372.443 275.505C372.443 275.505 369.08 271.997 370.416 267.638C371.751 263.28 368 261.326 370.804 257.647Z" fill="#263238"/>
<path d="M379.703 276.319C379.677 277.17 379.461 278.004 379.07 278.76C378.679 279.517 378.124 280.176 377.445 280.689C375.794 281.733 374.203 279.475 374.021 276.756C373.888 274.388 374.543 270.904 376.522 271.026C378.501 271.147 379.982 273.866 379.703 276.319Z" fill="#E4897B"/>
<path d="M376.461 301.74C376.461 301.74 379.096 289.867 395.048 289.976L399.09 295.864L376.461 301.74Z" fill="#407BFF"/>
<path opacity="0.8" d="M376.461 301.74C376.461 301.74 379.096 289.867 395.048 289.976L399.09 295.864L376.461 301.74Z" fill="white"/>
<path d="M404.505 499.148L395.339 499.318L390.774 478.194L399.928 478.037L404.505 499.148Z" fill="#EBB376"/>
<path opacity="0.2" d="M399.928 478.037L390.786 478.207L393.397 490.286L402.453 489.679L399.928 478.037Z" fill="black"/>
<path d="M375.126 447.444C378.621 460.884 383.084 474.054 388.48 486.85L405.124 485.6C405.124 485.6 398.265 458.819 395.788 434.296C394.246 419.158 394.38 406.617 398.811 405.658C401.603 405.039 408.135 405.063 416.499 405.257V374.045C393.02 378.901 369.675 387.958 367.939 395.254C365.414 405.476 369.748 427.243 375.126 447.444Z" fill="#263238"/>
<path d="M406.896 486.353L386.999 487.676L384.073 479.069L405.998 478.049L406.896 486.353Z" fill="#407BFF"/>
<path opacity="0.2" d="M406.896 486.353L386.999 487.676L384.073 479.069L405.998 478.049L406.896 486.353Z" fill="white"/>
<path d="M393.967 498.857C393.967 498.699 393.809 496.113 392.862 495.288C392.718 495.181 392.553 495.104 392.377 495.062C392.202 495.02 392.02 495.015 391.843 495.045C391.656 495.062 391.48 495.138 391.34 495.263C391.2 495.387 391.104 495.554 391.066 495.737C391.102 496.519 391.421 497.261 391.964 497.825C391.198 497.38 390.3 497.217 389.427 497.364C389.305 497.424 389.199 497.513 389.119 497.623C389.039 497.733 388.986 497.861 388.965 497.995C388.906 498.209 388.906 498.436 388.966 498.65C389.025 498.864 389.143 499.057 389.305 499.209C389.821 499.537 390.441 499.658 391.041 499.549C391.865 499.479 392.68 499.321 393.469 499.076H393.542C393.542 499.076 393.542 499.075 393.542 499.015C393.542 498.954 393.761 499.015 393.773 498.918H393.967V498.857ZM391.442 495.822C391.442 495.701 391.527 495.543 391.831 495.482H391.928C392.014 495.475 392.101 495.486 392.183 495.516C392.264 495.545 392.339 495.592 392.401 495.652C392.951 496.476 393.223 497.454 393.178 498.444L392.984 498.347C392.19 497.712 391.645 496.818 391.442 495.822ZM389.572 498.845C389.48 498.746 389.414 498.625 389.38 498.493C389.346 498.362 389.345 498.224 389.378 498.092C389.385 498.025 389.409 497.962 389.447 497.906C389.485 497.851 389.537 497.807 389.597 497.777C390.179 497.509 391.746 498.177 392.85 498.784C391.236 499.209 390.034 499.233 389.572 498.845Z" fill="#407BFF"/>
<path d="M394.186 497.74L404.444 497.109C404.614 497.092 404.784 497.142 404.918 497.248C405.052 497.355 405.139 497.51 405.16 497.679L406.168 505.765C406.191 506.191 406.047 506.611 405.766 506.933C405.485 507.255 405.089 507.454 404.663 507.488C401.081 507.646 399.37 507.488 394.853 507.792C390.853 508.206 386.829 508.336 382.811 508.18C378.986 507.804 379.448 504.041 381.099 503.859C385.02 503.409 390.204 500.544 392.644 498.359C393.076 497.99 393.618 497.772 394.186 497.74Z" fill="#263238"/>
<path opacity="0.2" d="M375.126 447.444C381.366 443.498 388.662 438.849 395.837 434.26C394.295 419.121 394.428 406.581 398.86 405.622C401.652 405.002 408.183 405.027 416.548 405.221V374.045C393.069 378.901 369.724 387.958 367.988 395.254C365.414 405.476 369.748 427.243 375.126 447.444Z" fill="black"/>
<path d="M350.955 499.148L341.802 499.318L337.237 478.194L346.378 478.037L350.955 499.148Z" fill="#EBB376"/>
<path opacity="0.2" d="M346.378 478.037L337.237 478.207L339.847 490.286L348.916 489.679L346.378 478.037Z" fill="black"/>
<path d="M384.219 370.986L384.364 357.923L433.629 348.563C433.629 348.563 446.218 382.276 438.557 397.463C431.541 411.4 356.782 403.096 345.274 405.609C333.765 408.122 351.574 485.6 351.574 485.6L334.87 486.814C334.87 486.814 309.048 417.142 314.353 395.23C316.672 385.688 356.078 373.026 384.219 370.986Z" fill="#263238"/>
<path d="M353.359 486.353L333.449 487.676L330.524 479.069L352.448 478.049L353.359 486.353Z" fill="#407BFF"/>
<path opacity="0.2" d="M353.359 486.353L333.449 487.676L330.524 479.069L352.448 478.049L353.359 486.353Z" fill="white"/>
<path d="M340.418 498.857C340.418 498.699 340.272 496.113 339.313 495.288C339.169 495.179 339.004 495.102 338.828 495.06C338.653 495.018 338.471 495.013 338.293 495.045C338.107 495.064 337.932 495.141 337.792 495.265C337.653 495.389 337.556 495.554 337.516 495.737C337.558 496.52 337.881 497.262 338.427 497.825C337.66 497.382 336.763 497.219 335.889 497.364C335.765 497.421 335.657 497.509 335.577 497.619C335.496 497.73 335.445 497.859 335.428 497.995C335.367 498.208 335.365 498.434 335.423 498.648C335.48 498.862 335.596 499.056 335.756 499.209C336.275 499.54 336.899 499.661 337.504 499.549C338.328 499.479 339.142 499.32 339.932 499.075H339.92C339.92 499.075 339.92 499.075 339.92 499.015C339.92 498.954 340.138 499.015 340.151 498.918H340.333L340.418 498.857ZM337.905 495.822C337.905 495.701 337.978 495.543 338.281 495.482H338.39C338.475 495.476 338.56 495.488 338.639 495.517C338.719 495.546 338.791 495.592 338.852 495.652C339.407 496.474 339.68 497.454 339.629 498.444L339.434 498.347C338.639 497.715 338.096 496.819 337.905 495.822ZM336.035 498.845C335.941 498.746 335.873 498.626 335.837 498.494C335.801 498.363 335.798 498.225 335.829 498.092C335.838 498.025 335.864 497.96 335.904 497.905C335.945 497.85 335.998 497.806 336.059 497.777C336.642 497.509 338.208 498.177 339.313 498.784C337.698 499.209 336.496 499.233 336.035 498.845Z" fill="#407BFF"/>
<path d="M340.648 497.74L350.894 497.109C351.065 497.092 351.235 497.142 351.369 497.248C351.503 497.355 351.589 497.51 351.611 497.679L352.618 505.765C352.645 506.19 352.504 506.61 352.224 506.932C351.945 507.254 351.55 507.454 351.125 507.488C347.483 507.646 345.82 507.488 341.316 507.792C337.312 508.206 333.283 508.336 329.261 508.18C325.437 507.804 325.91 504.041 327.561 503.859C331.47 503.409 336.654 500.544 339.106 498.359C339.538 497.988 340.08 497.77 340.648 497.74Z" fill="#263238"/>
<path d="M435.462 361.517L412.214 364.43L411.461 361.153L434.745 357.923L435.462 361.517Z" fill="black"/>
<path d="M409.531 361.177L409.81 364.431L388.334 367.235V364.03L409.531 361.177Z" fill="black"/>
<path d="M386.999 364.212V367.235L383.879 367.635V364.71L386.999 364.212Z" fill="black"/>
<path d="M437.04 360.825L436.251 357.923H437.04L437.975 360.181L437.04 360.825Z" fill="black"/>
<path d="M370.998 303.767C370.998 303.767 384.668 293.387 399.066 293.557C413.464 293.727 444.664 343.708 443.765 385.821L380.989 387.132V350.47C379.947 334.499 376.582 318.766 370.998 303.767Z" fill="#407BFF"/>
<path opacity="0.9" d="M370.998 303.767C370.998 303.767 384.668 293.387 399.066 293.557C413.464 293.727 444.664 343.708 443.765 385.821L380.989 387.132V350.47C379.947 334.499 376.582 318.766 370.998 303.767Z" fill="white"/>
<path d="M370.998 303.767C375.416 309.562 377.659 316.725 377.335 324.004C377.335 324.004 360.424 346.257 352.06 346.257C343.695 346.257 336.958 326.032 336.958 326.032L344.302 321.576C344.302 321.576 349.826 330.499 354.536 329.504C359.247 328.508 370.998 303.767 370.998 303.767Z" fill="#407BFF"/>
<path opacity="0.8" d="M370.998 303.767C375.416 309.562 377.659 316.725 377.335 324.004C377.335 324.004 360.424 346.257 352.06 346.257C343.695 346.257 336.958 326.032 336.958 326.032L344.302 321.576C344.302 321.576 349.826 330.499 354.536 329.504C359.247 328.508 370.998 303.767 370.998 303.767Z" fill="white"/>
<path d="M353.089 304.726L352.596 304.896L353.21 306.675L353.704 306.504L353.089 304.726Z" fill="#263238"/>
<path d="M357.984 306.11L361.262 315.579C361.383 315.937 361.36 316.328 361.196 316.668C361.033 317.008 360.743 317.271 360.388 317.4L354.184 319.537C353.827 319.661 353.435 319.639 353.094 319.475C352.752 319.312 352.49 319.02 352.363 318.663L349.086 309.181C349.025 309.004 349 308.816 349.012 308.628C349.024 308.441 349.074 308.258 349.157 308.09C349.241 307.921 349.357 307.771 349.499 307.648C349.641 307.525 349.806 307.432 349.984 307.373L356.175 305.224C356.352 305.163 356.54 305.137 356.726 305.149C356.913 305.16 357.096 305.209 357.264 305.291C357.432 305.373 357.582 305.488 357.706 305.629C357.83 305.769 357.924 305.933 357.984 306.11Z" fill="#407BFF"/>
<path opacity="0.2" d="M357.984 306.11L361.262 315.579C361.383 315.937 361.36 316.328 361.196 316.668C361.033 317.008 360.743 317.271 360.388 317.4L356.309 318.808C355.95 318.932 355.557 318.909 355.215 318.742C354.874 318.576 354.612 318.281 354.488 317.922L351.222 308.453C351.159 308.276 351.132 308.089 351.141 307.901C351.151 307.713 351.198 307.529 351.279 307.36C351.361 307.191 351.475 307.039 351.615 306.914C351.755 306.789 351.919 306.693 352.096 306.632L356.175 305.224C356.352 305.163 356.54 305.137 356.727 305.149C356.913 305.16 357.096 305.209 357.264 305.291C357.432 305.373 357.582 305.488 357.706 305.629C357.83 305.769 357.924 305.933 357.984 306.11Z" fill="white"/>
<path d="M357.451 307.536L352.552 309.23C352.387 309.287 352.3 309.467 352.357 309.631L353.404 312.66C353.461 312.825 353.64 312.913 353.805 312.856L358.704 311.162C358.869 311.105 358.957 310.925 358.9 310.76L357.852 307.731C357.796 307.567 357.616 307.479 357.451 307.536Z" fill="#263238"/>
<path d="M356.083 314.417L355.188 314.726C355.024 314.783 354.936 314.963 354.993 315.128L355.303 316.023C355.359 316.188 355.539 316.275 355.704 316.218L356.599 315.909C356.764 315.852 356.851 315.672 356.794 315.507L356.485 314.612C356.428 314.447 356.248 314.36 356.083 314.417Z" fill="#407BFF"/>
<path d="M359.036 313.376L358.141 313.685C357.976 313.742 357.889 313.922 357.946 314.086L358.255 314.981C358.312 315.146 358.492 315.233 358.657 315.177L359.552 314.867C359.716 314.81 359.804 314.63 359.747 314.466L359.437 313.571C359.38 313.406 359.201 313.319 359.036 313.376Z" fill="#407BFF"/>
<path d="M490.796 404.663H357.292V508.545H490.796V404.663Z" fill="#407BFF"/>
<path opacity="0.2" d="M429.319 404.663H357.292V508.545H429.319V404.663Z" fill="white"/>
<path d="M504.113 292.38H441.459C439.003 292.382 436.623 293.227 434.716 294.774C432.809 296.321 431.491 298.476 430.982 300.878L406.471 416.208H491.027L514.59 305.345C514.925 303.783 514.906 302.165 514.535 300.611C514.164 299.057 513.451 297.605 512.446 296.362C511.442 295.119 510.173 294.117 508.731 293.428C507.289 292.739 505.711 292.381 504.113 292.38Z" fill="#407BFF"/>
<path opacity="0.2" d="M428.372 416.183H406.52L431.031 300.853C431.54 298.451 432.858 296.297 434.765 294.75C436.672 293.203 439.052 292.358 441.507 292.355C443.103 292.357 444.678 292.715 446.118 293.402C447.557 294.09 448.825 295.09 449.829 296.33C450.833 297.57 451.547 299.019 451.92 300.57C452.293 302.121 452.315 303.736 451.984 305.297L428.372 416.183Z" fill="white"/>
<path d="M400.292 370.391H346.415C343.891 370.391 341.47 371.394 339.685 373.179C337.9 374.964 336.897 377.385 336.897 379.909V508.593H355.933V508.35H390.787V508.593H409.81V379.909C409.81 377.385 408.807 374.964 407.022 373.179C405.237 371.394 402.816 370.391 400.292 370.391Z" fill="#407BFF"/>
<path opacity="0.2" d="M400.292 370.391H346.415C343.891 370.391 341.47 371.394 339.685 373.179C337.9 374.964 336.897 377.385 336.897 379.909V508.593H355.933V508.35H390.787V508.593H409.81V379.909C409.81 377.385 408.807 374.964 407.022 373.179C405.237 371.394 402.816 370.391 400.292 370.391Z" fill="white"/>
<path d="M400.292 370.391C399.043 370.391 397.806 370.637 396.652 371.116C395.498 371.594 394.449 372.296 393.566 373.18C392.684 374.063 391.984 375.113 391.507 376.267C391.03 377.422 390.785 378.66 390.787 379.909V508.593H409.81V379.909C409.81 377.385 408.807 374.964 407.022 373.179C405.237 371.394 402.816 370.391 400.292 370.391Z" fill="#407BFF"/>
<path d="M289.15 174.573L289.927 176.212" stroke="#407BFF" stroke-miterlimit="10"/>
<path d="M291.518 179.526L344.703 290.522" stroke="#407BFF" stroke-miterlimit="10" stroke-dasharray="3.03 3.03"/>
<path d="M345.492 292.173L346.281 293.824" stroke="#407BFF" stroke-miterlimit="10"/>
<path d="M348.527 293.788C348.527 294.233 348.395 294.667 348.149 295.036C347.902 295.405 347.551 295.693 347.141 295.863C346.73 296.033 346.279 296.078 345.843 295.991C345.407 295.904 345.007 295.691 344.693 295.376C344.379 295.062 344.165 294.662 344.079 294.227C343.992 293.791 344.036 293.339 344.206 292.929C344.376 292.519 344.664 292.168 345.034 291.921C345.403 291.674 345.837 291.542 346.281 291.542C346.877 291.542 347.448 291.779 347.869 292.2C348.291 292.621 348.527 293.193 348.527 293.788Z" fill="#407BFF"/>
<path d="M342.537 227.951C372.021 198.467 372.021 150.663 342.537 121.179C313.053 91.6953 265.25 91.6953 235.766 121.179C206.282 150.663 206.282 198.466 235.766 227.951C265.25 257.435 313.053 257.435 342.537 227.951Z" fill="#407BFF"/>
<path opacity="0.7" d="M359.728 181.539C363.586 142.547 335.104 107.811 296.112 103.953C257.119 100.096 222.383 128.578 218.525 167.57C214.668 206.562 243.15 241.299 282.142 245.156C321.134 249.014 355.871 220.532 359.728 181.539Z" fill="white"/>
<path d="M262.782 142.451C262.782 142.451 300.696 199.982 262.782 199.982C224.869 199.982 262.782 142.451 262.782 142.451Z" fill="#407BFF"/>
<path opacity="0.7" d="M253.568 170.288C254.135 168.636 254.841 167.036 255.68 165.505" stroke="white" stroke-width="2" stroke-linecap="round" stroke-linejoin="round"/>
<path opacity="0.7" d="M262.782 196.073C258.351 195.624 253.07 194.337 251.189 189.797C249.44 185.487 250.849 180.085 251.966 175.763" stroke="white" stroke-width="2" stroke-linecap="round" stroke-linejoin="round"/>
<path d="M289.138 103.627V173.116H289.053L269.726 177.766L289.053 182.416H289.138V245.544C307.954 245.544 326 238.069 339.305 224.764C352.61 211.459 360.084 193.413 360.084 174.597C360.084 155.781 352.61 137.736 339.305 124.431C326 111.126 307.954 103.651 289.138 103.651V103.627Z" fill="#263238"/>
<path d="M337.395 155.149H327.889L323.13 163.392L327.889 171.636H337.395L342.154 163.392L337.395 155.149Z" fill="#407BFF"/>
<path opacity="0.7" d="M337.395 155.149H327.889L323.13 163.392L327.889 171.636H337.395L342.154 163.392L337.395 155.149Z" fill="white"/>
<path opacity="0.4" d="M323.13 163.392H332.636L337.395 155.149H327.889L323.13 163.392Z" fill="white"/>
<path d="M332.393 196.729L326.396 194.811L321.734 199.06L323.082 205.215L329.079 207.121L333.741 202.884L332.393 196.729Z" fill="#407BFF"/>
<path opacity="0.7" d="M332.393 196.729L326.396 194.811L321.734 199.06L323.082 205.215L329.079 207.121L333.741 202.884L332.393 196.729Z" fill="white"/>
<path opacity="0.4" d="M321.734 199.06L327.731 200.966L332.393 196.729L326.396 194.811L321.734 199.06Z" fill="white"/>
<path d="M333.425 135.713L330.863 134.9L328.885 136.709L329.455 139.331L332.017 140.144L333.996 138.336L333.425 135.713Z" fill="#407BFF"/>
<path opacity="0.7" d="M333.425 135.713L330.863 134.9L328.885 136.709L329.455 139.331L332.017 140.144L333.996 138.336L333.425 135.713Z" fill="white"/>
<path opacity="0.4" d="M328.885 136.709L331.434 137.522L333.425 135.713L330.863 134.9L328.885 136.709Z" fill="white"/>
<path d="M309.946 194.714L307.336 190.416L302.322 190.513L299.894 194.92L302.492 199.218L307.518 199.108L309.946 194.714Z" fill="#407BFF"/>
<path opacity="0.7" d="M309.946 194.714L307.336 190.416L302.322 190.513L299.894 194.92L302.492 199.218L307.518 199.108L309.946 194.714Z" fill="white"/>
<path opacity="0.4" d="M302.322 190.513L304.92 194.811L309.946 194.714L307.336 190.416L302.322 190.513Z" fill="white"/>
<path d="M350.093 178.895L347.495 174.598L342.469 174.695L340.053 179.102L342.651 183.399L347.665 183.29L350.093 178.895Z" fill="#407BFF"/>
<path opacity="0.7" d="M350.093 178.895L347.495 174.598L342.469 174.695L340.053 179.102L342.651 183.399L347.665 183.29L350.093 178.895Z" fill="white"/>
<path opacity="0.4" d="M342.469 174.695L345.067 178.992L350.093 178.895L347.495 174.598L342.469 174.695Z" fill="white"/>
<path d="M307.858 123.67L302.917 124.532L301.181 129.243L304.398 133.103L309.339 132.241L311.075 127.531L307.858 123.67Z" fill="#407BFF"/>
<path opacity="0.7" d="M307.858 123.67L302.917 124.532L301.181 129.243L304.398 133.103L309.339 132.241L311.075 127.531L307.858 123.67Z" fill="white"/>
<path opacity="0.4" d="M301.181 129.243L306.134 128.381L307.858 123.67L302.917 124.532L301.181 129.243Z" fill="white"/>
<path d="M305.09 226.436L307.858 227.965L310.553 226.326L310.493 223.182L307.725 221.652L305.03 223.291L305.09 226.436Z" fill="#407BFF"/>
<path opacity="0.7" d="M305.09 226.436L307.858 227.965L310.553 226.326L310.493 223.182L307.725 221.652L305.03 223.291L305.09 226.436Z" fill="white"/>
<path opacity="0.2" d="M310.553 226.326L307.785 224.809L305.09 226.435L307.858 227.965L310.553 226.326Z" fill="black"/>
<path d="M307.785 181.226L315.591 183.812L321.734 178.349L320.071 170.3L312.265 167.714L306.134 173.177L307.785 181.226Z" fill="#407BFF"/>
<path opacity="0.7" d="M307.785 181.226L315.591 183.812L321.734 178.349L320.071 170.3L312.265 167.714L306.134 173.177L307.785 181.226Z" fill="white"/>
<path opacity="0.2" d="M321.734 178.349L313.928 175.763L307.785 181.226L315.591 183.812L321.734 178.349Z" fill="black"/>
<path d="M297.503 151.046L300.271 156.715L306.571 157.14L310.092 151.908L307.312 146.238L301.023 145.813L297.503 151.046Z" fill="#407BFF"/>
<path opacity="0.7" d="M297.503 151.046L300.271 156.715L306.571 157.14L310.092 151.908L307.312 146.238L301.023 145.813L297.503 151.046Z" fill="white"/>
<path opacity="0.2" d="M306.571 157.14L303.791 151.471L297.503 151.046L300.271 156.715L306.571 157.14Z" fill="black"/>
</svg>
