<svg width="50" height="50" viewBox="0 0 50 50" fill="none" xmlns="http://www.w3.org/2000/svg">
<g clip-path="url(#clip0_658_31855)">
<path d="M5.20833 33.4577C2.3375 33.4577 0 31.1223 0 28.2493C0 25.3764 2.3375 23.041 5.20833 23.041V25.1243C3.48542 25.1243 2.08333 26.5264 2.08333 28.2493C2.08333 30.0056 3.55208 31.4056 5.30208 31.3743C5.39583 31.3743 5.48958 31.3723 5.58333 31.3618L5.83542 33.4285C5.62708 33.4556 5.41667 33.4577 5.20833 33.4577Z" fill="#666666"/>
<path d="M44.792 33.4577C44.5837 33.4577 44.3733 33.4556 44.1649 33.4285L44.417 31.3618C44.542 31.3764 44.667 31.3743 44.792 31.3743C46.5149 31.3743 47.917 29.9723 47.917 28.2493C47.917 26.5264 46.5149 25.1243 44.792 25.1243V23.041C47.6628 23.041 50.0003 25.3764 50.0003 28.2493C50.0003 31.1223 47.6628 33.4577 44.792 33.4577Z" fill="#666666"/>
<path d="M29.1665 40.6242C29.0102 40.6242 28.8519 40.5888 28.7019 40.5138C26.2123 39.268 23.7915 39.268 21.2998 40.5138C20.7852 40.7742 20.1602 40.5617 19.9019 40.0471C19.6435 39.5325 19.854 38.9076 20.3685 38.6492C23.4436 37.1117 26.5602 37.1117 29.6331 38.6492C30.1477 38.9076 30.3561 39.5325 30.0998 40.0471C29.9144 40.4117 29.5477 40.6242 29.1665 40.6242Z" fill="#666666"/>
<path d="M24.9996 50C13.8017 50 6.62459 40.9958 4.69334 32.6292C4.34334 31.0771 4.16626 29.4521 4.16626 27.7917V16.6458C4.16626 5.20833 14.9663 0 24.9996 0C35.0329 0 45.8329 5.20833 45.8329 16.6458V27.7917C45.8329 29.4521 45.6558 31.0771 45.3079 32.625C43.3746 40.9958 36.1975 50 24.9996 50ZM24.9996 2.08333C15.9704 2.08333 6.24959 6.64167 6.24959 16.6458V27.7917C6.24959 29.2979 6.41001 30.7708 6.72459 32.1667C8.47459 39.75 14.9392 47.9167 24.9996 47.9167C35.06 47.9167 41.5246 39.75 43.2746 32.1604C43.5892 30.7708 43.7496 29.2979 43.7496 27.7917V16.6458C43.7496 6.64167 34.0288 2.08333 24.9996 2.08333Z" fill="#666666"/>
<path d="M45.2006 20.828L34.7173 19.6947C29.2235 19.1009 24.0214 16.7509 19.9423 13.0426C17.1152 16.753 13.0818 19.2801 8.46309 20.2051L5.41309 20.8134L5.00476 18.7718L8.05476 18.1613C12.5318 17.2634 16.3923 14.6801 18.9256 10.8822C19.0985 10.6218 19.3798 10.4551 19.6902 10.4218C20.0131 10.4051 20.3089 10.5009 20.5298 10.7218C24.3923 14.5843 29.5131 17.0363 34.9423 17.6238L45.4256 18.7572L45.2006 20.828Z" fill="#666666"/>
<path d="M17.7078 29.1664C17.4411 29.1664 17.1744 29.0643 16.9703 28.8622L12.8036 24.6956C12.3973 24.2893 12.3973 23.6289 12.8036 23.2227C13.2098 22.8164 13.8703 22.8164 14.2765 23.2227L18.4432 27.3893C18.8494 27.7956 18.8494 28.456 18.4432 28.8622C18.2411 29.0643 17.9744 29.1664 17.7078 29.1664Z" fill="#666666"/>
<path d="M13.5411 29.1664C13.2744 29.1664 13.0078 29.0643 12.8036 28.8622C12.3973 28.456 12.3973 27.7956 12.8036 27.3893L16.9703 23.2227C17.3765 22.8164 18.0369 22.8164 18.4432 23.2227C18.8494 23.6289 18.8494 24.2893 18.4432 24.6956L14.2765 28.8622C14.0744 29.0643 13.8078 29.1664 13.5411 29.1664Z" fill="#666666"/>
<path d="M36.4578 29.1664C36.1911 29.1664 35.9244 29.0643 35.7203 28.8622L31.5536 24.6956C31.1473 24.2893 31.1473 23.6289 31.5536 23.2227C31.9598 22.8164 32.6203 22.8164 33.0265 23.2227L37.1932 27.3893C37.5994 27.7956 37.5994 28.456 37.1932 28.8622C36.9911 29.0643 36.7244 29.1664 36.4578 29.1664Z" fill="#666666"/>
<path d="M32.2911 29.1664C32.0244 29.1664 31.7578 29.0643 31.5536 28.8622C31.1473 28.456 31.1473 27.7956 31.5536 27.3893L35.7203 23.2227C36.1265 22.8164 36.7869 22.8164 37.1932 23.2227C37.5994 23.6289 37.5994 24.2893 37.1932 24.6956L33.0265 28.8622C32.8244 29.0643 32.5578 29.1664 32.2911 29.1664Z" fill="#666666"/>
<path d="M31.2499 43.751C31.0333 43.751 30.8145 43.6843 30.627 43.5426C28.9687 42.2968 28.127 40.9655 28.127 39.5843C28.127 38.203 28.9687 36.8697 30.627 35.6259C31.0853 35.2801 31.7395 35.3759 32.0853 35.8364C32.4312 36.2968 32.3374 36.9489 31.877 37.2947C31.1166 37.8634 30.2103 38.7259 30.2103 39.5864C30.2103 40.4468 31.1166 41.3072 31.877 41.878C32.3374 42.2239 32.4312 42.876 32.0853 43.3364C31.8791 43.6072 31.5666 43.751 31.2499 43.751Z" fill="#666666"/>
<path d="M18.7503 43.7515C18.4336 43.7515 18.1211 43.6078 17.917 43.3348C17.5711 42.8744 17.6649 42.2223 18.1253 41.8765C18.8857 41.3078 19.792 40.4453 19.792 39.5848C19.792 38.7244 18.8857 37.864 18.1253 37.2932C17.6649 36.9473 17.5711 36.2953 17.917 35.8349C18.2628 35.3765 18.9149 35.2807 19.3753 35.6244C21.0336 36.8703 21.8753 38.2015 21.8753 39.5828C21.8753 40.964 21.0336 42.2973 19.3753 43.5411C19.1878 43.6848 18.9691 43.7515 18.7503 43.7515Z" fill="#666666"/>
</g>
<defs>
<clipPath id="clip0_658_31855">
<rect width="50" height="50" fill="white"/>
</clipPath>
</defs>
</svg>
