<svg width="649" height="649" viewBox="0 0 649 649" fill="none" xmlns="http://www.w3.org/2000/svg">
<path d="M178.67 141.483C178.67 141.483 116.937 201.308 98.6479 269.18C80.3591 337.052 106.812 408.3 169.025 447.733C231.239 487.166 314.246 452.925 396.798 464.192C479.351 475.458 555.907 443.346 566.123 360.611C576.338 277.877 516.617 267.155 480.61 186.679C444.604 106.203 327.304 8.85313 178.67 141.483Z" fill="#1F56C3"/>
<path opacity="0.7" d="M178.67 141.483C178.67 141.483 116.937 201.308 98.6479 269.18C80.3591 337.052 106.812 408.3 169.025 447.733C231.239 487.166 314.246 452.925 396.798 464.192C479.351 475.458 555.907 443.346 566.123 360.611C576.338 277.877 516.617 267.155 480.61 186.679C444.604 106.203 327.304 8.85313 178.67 141.483Z" fill="white"/>
<path d="M331.613 574.833C469.968 574.833 582.127 554.911 582.127 530.337C582.127 505.763 469.968 485.842 331.613 485.842C193.258 485.842 81.0991 505.763 81.0991 530.337C81.0991 554.911 193.258 574.833 331.613 574.833Z" fill="#1F56C3"/>
<path opacity="0.5" d="M331.613 574.833C469.968 574.833 582.127 554.911 582.127 530.337C582.127 505.763 469.968 485.842 331.613 485.842C193.258 485.842 81.0991 505.763 81.0991 530.337C81.0991 554.911 193.258 574.833 331.613 574.833Z" fill="white"/>
<path d="M577.272 300.266C577.272 300.266 577.272 294.815 569.64 287.169C562.008 279.524 557.089 275.176 557.089 275.176C557.089 275.176 553.272 287.714 560.359 295.36C565.566 300.726 571.21 305.649 577.233 310.079L577.272 300.266Z" fill="#1F56C3"/>
<path d="M566.187 334.325C566.187 334.325 566.187 328.873 558.555 321.241C550.923 313.609 546.017 309.234 546.017 309.234C546.017 309.234 542.123 321.786 549.287 329.418C554.492 334.787 560.136 339.71 566.161 344.138L566.187 334.325Z" fill="#1F56C3"/>
<path d="M576.792 309.559C576.792 309.559 577.363 304.133 585.774 297.345C594.185 290.556 599.507 286.74 599.507 286.74C599.507 286.74 601.986 299.616 594.121 306.457C588.366 311.244 582.223 315.542 575.754 319.307L576.792 309.559Z" fill="#1F56C3"/>
<path d="M563.41 349.786C563.41 349.786 564.552 344.451 573.612 338.584C582.672 332.717 588.396 329.498 588.396 329.498C588.396 329.498 589.5 342.569 580.972 348.553C574.741 352.707 568.177 356.336 561.346 359.404L563.41 349.786Z" fill="#1F56C3"/>
<path d="M565.928 393.645C565.928 393.645 565.928 388.18 573.56 380.548C581.192 372.916 586.099 368.555 586.099 368.555C586.099 368.555 589.915 381.093 582.828 388.726C577.626 394.1 571.981 399.028 565.954 403.458L565.928 393.645Z" fill="#1F56C3"/>
<path d="M565.798 404.34C565.798 404.34 566.564 398.94 560.1 390.296C553.636 381.651 549.391 376.641 549.391 376.641C549.391 376.641 543.823 388.517 549.755 397.084C554.152 403.143 559.05 408.822 564.396 414.062L565.798 404.34Z" fill="#1F56C3"/>
<path d="M558.27 436.128C558.27 436.128 558.27 430.677 565.902 423.044C573.534 415.412 578.441 411.051 578.441 411.051C578.441 411.051 582.27 423.589 575.17 431.222C569.967 436.596 564.323 441.524 558.296 445.954L558.27 436.128Z" fill="#1F56C3"/>
<path d="M563.332 464.84C563.332 464.84 561.943 459.557 567.395 450.237C572.846 440.918 576.481 435.453 576.481 435.453C576.481 435.453 583.347 446.616 578.428 455.806C574.739 462.319 570.514 468.515 565.798 474.328L563.332 464.84Z" fill="#1F56C3"/>
<path d="M577.96 298.865C577.579 304.546 576.881 310.201 575.871 315.804C572.859 331.38 565.305 341.453 562.294 355.549C559.282 369.645 567.94 387.778 565.616 405.872C563.293 423.966 556.258 434.026 558.27 446.11C560.282 458.195 571.081 492.06 571.081 492.06" stroke="#263238" stroke-width="0.75" stroke-linecap="round" stroke-linejoin="round"/>
<path d="M576.714 313.181L584.944 306.859" stroke="#263238" stroke-width="0.75" stroke-linecap="round" stroke-linejoin="round"/>
<path d="M577.104 305.912L573.651 299.785" stroke="#263238" stroke-width="0.75" stroke-linecap="round" stroke-linejoin="round"/>
<path d="M562.748 354.9C562.748 354.9 569.64 349.708 576.714 344.516" stroke="#263238" stroke-width="0.75" stroke-linecap="round" stroke-linejoin="round"/>
<path d="M565.824 343.179C562.467 336.878 558.488 330.93 553.947 325.422" stroke="#263238" stroke-width="0.75" stroke-linecap="round" stroke-linejoin="round"/>
<path d="M566.188 401.393C570.122 394.145 575.089 387.508 580.933 381.689" stroke="#263238" stroke-width="0.75" stroke-linecap="round" stroke-linejoin="round"/>
<path d="M564.851 409.052C562.762 404.132 560.266 399.395 557.387 394.891C553.376 388.959 552.792 388.193 552.792 388.193" stroke="#263238" stroke-width="0.75" stroke-linecap="round" stroke-linejoin="round"/>
<path d="M558.27 446.096C560.012 441.759 562.086 437.562 564.474 433.544C566.859 429.821 569.546 426.3 572.509 423.018" stroke="#263238" stroke-width="0.75" stroke-linecap="round" stroke-linejoin="round"/>
<path d="M565.85 474.329C565.453 470.193 566.165 466.026 567.914 462.257C570.783 456.702 574.041 449.433 575.378 446.564" stroke="#263238" stroke-width="0.75" stroke-linecap="round" stroke-linejoin="round"/>
<path d="M527.274 373.124C527.274 373.124 526.676 369.71 530.635 364.038C534.594 358.366 537.203 355.146 537.203 355.146C537.203 355.146 540.954 362.61 537.346 368.126C534.656 372.061 531.643 375.764 528.338 379.198L527.274 373.124Z" fill="#1F56C3"/>
<path d="M537.917 393.294C537.917 393.294 537.333 389.88 541.292 384.208C545.251 378.535 547.847 375.316 547.847 375.316C547.847 375.316 551.611 382.767 547.99 388.296C545.301 392.228 542.288 395.927 538.981 399.355L537.917 393.294Z" fill="#1F56C3"/>
<path d="M528.585 378.898C528.585 378.898 527.637 375.562 521.627 372.213C515.618 368.865 511.853 367.021 511.853 367.021C511.853 367.021 511.711 375.368 517.383 378.794C521.51 381.177 525.83 383.209 530.298 384.869L528.585 378.898Z" fill="#1F56C3"/>
<path d="M541.344 402.666C541.344 402.666 540.046 399.447 533.725 396.76C527.403 394.073 523.47 392.658 523.47 392.658C523.47 392.658 524.197 400.965 530.194 403.795C534.552 405.725 539.063 407.288 543.68 408.468L541.344 402.666Z" fill="#1F56C3"/>
<path d="M544.524 430.442C544.524 430.442 543.94 427.029 538.319 423.07C532.699 419.111 529.142 416.904 529.142 416.904C529.142 416.904 528.117 425.186 533.387 429.209C537.244 432.007 541.325 434.481 545.588 436.608L544.524 430.442Z" fill="#1F56C3"/>
<path d="M545.77 437.14C545.77 437.14 544.693 433.843 547.821 427.716C550.949 421.59 553.013 417.994 553.013 417.994C553.013 417.994 557.789 424.835 554.999 430.844C552.901 435.122 550.447 439.216 547.665 443.084L545.77 437.14Z" fill="#1F56C3"/>
<path d="M555.349 464.684C555.349 464.684 555.752 461.232 561.125 456.896C566.499 452.561 569.926 450.225 569.926 450.225C569.926 450.225 571.431 458.428 566.395 462.737C562.71 465.76 558.776 468.465 554.635 470.824L555.349 464.684Z" fill="#1F56C3"/>
<path d="M553.934 456.222C553.934 456.222 553.337 452.808 547.73 448.849C542.123 444.89 538.553 442.684 538.553 442.684C538.553 442.684 537.528 450.965 542.797 454.976C546.65 457.783 550.731 460.262 554.999 462.387L553.934 456.222Z" fill="#1F56C3"/>
<path d="M553.856 474.82C553.856 474.82 554.155 471.355 549.716 466.098C545.277 460.841 542.408 457.816 542.408 457.816C542.408 457.816 539.319 465.604 543.407 470.796C546.424 474.483 549.745 477.909 553.337 481.038L553.856 474.82Z" fill="#1F56C3"/>
<path d="M526.689 372.332C527.55 375.847 528.599 379.313 529.83 382.716C533.426 392.165 539.241 397.656 542.668 406.171C546.094 414.686 542.668 426.939 546.042 438.089C549.417 449.239 554.973 454.716 555.025 462.504C555.077 470.292 552 491.943 552 491.943" stroke="#263238" stroke-width="0.75" stroke-linecap="round" stroke-linejoin="round"/>
<path d="M529.026 381.17L523.172 378.094" stroke="#263238" stroke-width="0.75" stroke-linecap="round" stroke-linejoin="round"/>
<path d="M527.987 376.641L529.493 372.436" stroke="#263238" stroke-width="0.75" stroke-linecap="round" stroke-linejoin="round"/>
<path d="M542.317 405.806C542.317 405.806 537.424 403.314 532.427 400.848" stroke="#263238" stroke-width="0.75" stroke-linecap="round" stroke-linejoin="round"/>
<path d="M538.943 398.369C540.499 394.219 542.401 390.207 544.628 386.375" stroke="#263238" stroke-width="0.75" stroke-linecap="round" stroke-linejoin="round"/>
<path d="M545.16 435.337C541.903 431.22 538.069 427.596 533.776 424.576" stroke="#263238" stroke-width="0.75" stroke-linecap="round" stroke-linejoin="round"/>
<path d="M546.874 440.022C547.648 436.708 548.698 433.465 550.015 430.326C551.884 426.173 552.169 425.641 552.169 425.641" stroke="#263238" stroke-width="0.75" stroke-linecap="round" stroke-linejoin="round"/>
<path d="M554.752 468.422C556.656 466.077 558.762 463.905 561.047 461.932C562.499 460.856 563.861 459.667 565.123 458.375" stroke="#263238" stroke-width="0.75" stroke-linecap="round" stroke-linejoin="round"/>
<path d="M555.025 462.503C553.459 459.975 551.702 457.571 549.768 455.312C547.868 453.239 545.801 451.324 543.589 449.588" stroke="#263238" stroke-width="0.75" stroke-linecap="round" stroke-linejoin="round"/>
<path d="M553.337 481.038C553.139 478.402 552.243 475.867 550.741 473.691C548.34 470.524 545.549 466.319 544.355 464.605" stroke="#263238" stroke-width="0.75" stroke-linecap="round" stroke-linejoin="round"/>
<path d="M542.356 489.139H579.596V508.388C579.596 509.245 579.255 510.067 578.649 510.673C578.043 511.28 577.221 511.62 576.364 511.62H545.588C544.731 511.62 543.909 511.28 543.303 510.673C542.697 510.067 542.356 509.245 542.356 508.388V489.139Z" fill="#263238" stroke="#263238" stroke-linecap="round" stroke-linejoin="round"/>
<path d="M104.151 326.005C104.151 326.005 104.151 321.358 97.6614 314.868C91.1714 308.378 86.9659 304.666 86.9659 304.666C86.9659 304.666 83.7209 315.336 89.7436 321.826C94.1822 326.392 98.9927 330.582 104.125 334.351L104.151 326.005Z" fill="#1F56C3"/>
<path d="M94.7538 354.964C94.7538 354.964 94.7538 350.33 88.2638 343.84C81.7738 337.35 77.5683 333.586 77.5683 333.586C77.5683 333.586 74.3233 344.243 80.346 350.745C84.7891 355.329 89.6085 359.532 94.7538 363.31V354.964Z" fill="#1F56C3"/>
<path d="M103.749 333.898C103.749 333.898 104.229 329.29 111.381 323.514C118.533 317.738 123.063 314.506 123.063 314.506C123.063 314.506 125.166 325.448 118.482 331.276C113.601 335.344 108.391 339 102.906 342.205L103.749 333.898Z" fill="#1F56C3"/>
<path d="M92.3656 368.112C92.3656 368.112 93.3391 363.569 101.036 358.585C108.733 353.601 113.614 350.797 113.614 350.797C113.614 350.797 114.548 361.895 107.293 366.983C102 370.522 96.4206 373.614 90.6133 376.225L92.3656 368.112Z" fill="#1F56C3"/>
<path d="M94.5074 405.404C94.5074 405.404 94.5074 400.77 100.997 394.267C107.487 387.764 111.628 384.064 111.628 384.064C111.628 384.064 114.873 394.734 108.837 401.224C104.409 405.796 99.6022 409.986 94.4685 413.75L94.5074 405.404Z" fill="#1F56C3"/>
<path d="M94.3907 414.504C94.3907 414.504 95.0527 409.922 89.5492 402.562C84.0456 395.203 80.4632 390.945 80.4632 390.945C80.4632 390.945 75.7384 401.044 80.7747 408.339C84.5183 413.489 88.6864 418.317 93.2355 422.772L94.3907 414.504Z" fill="#1F56C3"/>
<path d="M87.9915 441.488C87.9915 441.488 87.9915 436.854 94.4815 430.351C100.972 423.848 105.138 420.148 105.138 420.148C105.138 420.148 108.383 430.818 102.36 437.308C97.9217 441.874 93.1112 446.064 87.9785 449.834L87.9915 441.488Z" fill="#1F56C3"/>
<path d="M92.3267 465.983C92.3267 465.983 91.1455 461.505 95.7923 453.574C100.439 445.643 103.58 440.996 103.58 440.996C103.58 440.996 109.369 450.407 105.138 458.272C102.003 463.809 98.4122 469.076 94.4035 474.017L92.3267 465.983Z" fill="#1F56C3"/>
<path d="M104.736 324.811C104.412 329.643 103.819 334.453 102.957 339.218C100.361 352.471 93.9752 361.025 91.4181 372.966C88.861 384.908 96.2207 400.38 94.2477 415.8C92.2748 431.221 86.278 439.735 87.9914 450.003C89.7047 460.27 98.8946 489.085 98.8946 489.085" stroke="#263238" stroke-width="0.75" stroke-linecap="round" stroke-linejoin="round"/>
<path d="M103.684 336.987L110.68 331.613" stroke="#263238" stroke-width="0.75" stroke-linecap="round" stroke-linejoin="round"/>
<path d="M104.009 330.795L101.075 325.59" stroke="#263238" stroke-width="0.75" stroke-linecap="round" stroke-linejoin="round"/>
<path d="M91.8074 372.526C91.8074 372.526 97.6613 368.126 103.684 363.738" stroke="#263238" stroke-width="0.75" stroke-linecap="round" stroke-linejoin="round"/>
<path d="M94.4165 362.492C91.5782 357.139 88.2127 352.082 84.37 347.396" stroke="#263238" stroke-width="0.75" stroke-linecap="round" stroke-linejoin="round"/>
<path d="M94.754 411.997C98.1006 405.834 102.324 400.19 107.293 395.24" stroke="#263238" stroke-width="0.75" stroke-linecap="round" stroke-linejoin="round"/>
<path d="M93.5858 418.513C91.8123 414.329 89.6936 410.3 87.2515 406.468C83.8248 401.419 83.3575 400.77 83.3575 400.77" stroke="#263238" stroke-width="0.75" stroke-linecap="round" stroke-linejoin="round"/>
<path d="M87.9915 450.003C89.4771 446.319 91.2388 442.753 93.2613 439.334C95.2933 436.171 97.5811 433.18 100.102 430.391" stroke="#263238" stroke-width="0.75" stroke-linecap="round" stroke-linejoin="round"/>
<path d="M94.4426 474.017C94.1028 470.5 94.7077 466.955 96.1949 463.75C98.6351 459.025 101.387 452.846 102.542 450.406" stroke="#263238" stroke-width="0.75" stroke-linecap="round" stroke-linejoin="round"/>
<path d="M61.6289 387.959C61.6289 387.959 61.1357 385.052 64.4975 380.275C67.8593 375.498 70.0789 372.721 70.0789 372.721C70.0789 372.721 73.272 379.055 70.1957 383.78C67.9102 387.125 65.3485 390.273 62.5375 393.19L61.6289 387.959Z" fill="#1F56C3"/>
<path d="M70.6892 405.105C70.6892 405.105 70.183 402.197 73.5578 397.421C76.9326 392.644 79.1392 389.854 79.1392 389.854C79.1392 389.854 82.3323 396.201 79.256 400.925C76.9705 404.271 74.4088 407.418 71.5978 410.336L70.6892 405.105Z" fill="#1F56C3"/>
<path d="M62.7453 392.866C62.7453 392.866 61.9405 390.036 56.8394 387.194C51.7383 384.351 48.5322 382.807 48.5322 382.807C48.5322 382.807 48.4024 389.894 53.218 392.827C56.7276 394.86 60.4007 396.597 64.1991 398.019L62.7453 392.866Z" fill="#1F56C3"/>
<path d="M73.5966 413.088C73.5966 413.088 72.4933 410.35 67.1066 408.052C61.7199 405.755 58.41 404.561 58.41 404.561C58.41 404.561 59.0331 411.635 64.1342 414.036C67.8374 415.68 71.6711 417.013 75.5956 418.021L73.5966 413.088Z" fill="#1F56C3"/>
<path d="M76.3093 436.7C76.3093 436.7 75.8031 433.792 71.0264 430.43C66.2498 427.068 63.2384 425.238 63.2384 425.238C63.2384 425.238 62.3039 432.235 66.8339 435.648C70.1152 438.03 73.5885 440.136 77.2179 441.944L76.3093 436.7Z" fill="#1F56C3"/>
<path d="M77.3609 442.398C77.3609 442.398 76.4523 439.594 79.1003 434.389C81.7482 429.184 83.5524 426.121 83.5524 426.121C83.5524 426.121 87.6151 431.936 85.2398 437.05C83.4575 440.68 81.3733 444.153 79.0094 447.434L77.3609 442.398Z" fill="#1F56C3"/>
<path d="M85.5123 465.865C85.5123 465.865 85.8498 462.932 90.4317 459.297C95.0136 455.663 97.9082 453.625 97.9082 453.625C97.9082 453.625 99.2062 460.595 94.9098 464.269C91.7724 466.845 88.4248 469.155 84.9022 471.174L85.5123 465.865Z" fill="#1F56C3"/>
<path d="M84.37 458.621C84.37 458.621 83.8638 455.714 79.0872 452.352C74.3105 448.99 71.2992 447.16 71.2992 447.16C71.2992 447.16 70.4165 454.208 74.9076 457.622C78.1875 460.006 81.6609 462.112 85.2916 463.917L84.37 458.621Z" fill="#1F56C3"/>
<path d="M84.2403 474.431C84.2403 474.431 84.4869 471.498 80.7227 467.02C76.9585 462.541 74.5053 459.984 74.5053 459.984C74.5053 459.984 71.9093 466.565 75.349 471.017C77.9184 474.151 80.7448 477.064 83.799 479.727L84.2403 474.431Z" fill="#1F56C3"/>
<path d="M61.1357 387.283C61.87 390.275 62.7625 393.226 63.8096 396.123C66.8599 404.157 71.8183 408.817 74.7258 416.06C77.6333 423.303 74.7258 433.765 77.5944 443.201C80.463 452.638 85.1877 457.349 85.2266 463.969C85.2656 470.589 82.6306 489.007 82.6306 489.007" stroke="#263238" stroke-width="0.75" stroke-linecap="round" stroke-linejoin="round"/>
<path d="M63.1217 394.8L58.1504 392.191" stroke="#263238" stroke-width="0.75" stroke-linecap="round" stroke-linejoin="round"/>
<path d="M62.2521 390.957L63.5241 387.375" stroke="#263238" stroke-width="0.75" stroke-linecap="round" stroke-linejoin="round"/>
<path d="M74.4274 415.75C74.4274 415.75 70.2738 413.634 66.0164 411.531" stroke="#263238" stroke-width="0.75" stroke-linecap="round" stroke-linejoin="round"/>
<path d="M71.5587 409.429C72.8883 405.9 74.5077 402.488 76.4003 399.227" stroke="#263238" stroke-width="0.75" stroke-linecap="round" stroke-linejoin="round"/>
<path d="M76.8805 440.865C74.1072 437.386 70.8458 434.326 67.1974 431.779" stroke="#263238" stroke-width="0.75" stroke-linecap="round" stroke-linejoin="round"/>
<path d="M78.2954 444.824C78.9576 442.008 79.8519 439.251 80.9693 436.582C82.5658 433.051 82.7995 432.584 82.7995 432.584" stroke="#263238" stroke-width="0.75" stroke-linecap="round" stroke-linejoin="round"/>
<path d="M85.0061 468.993C86.6205 466.99 88.4101 465.135 90.3539 463.45C91.5883 462.537 92.7472 461.525 93.8195 460.426" stroke="#263238" stroke-width="0.75" stroke-linecap="round" stroke-linejoin="round"/>
<path d="M85.2266 463.971C83.8981 461.821 82.4052 459.777 80.7615 457.857C79.1674 456.091 77.4309 454.458 75.5695 452.977" stroke="#263238" stroke-width="0.75" stroke-linecap="round" stroke-linejoin="round"/>
<path d="M83.7989 479.728C83.624 477.484 82.8582 475.325 81.5793 473.472C79.5415 470.785 77.1272 467.203 76.1537 465.801" stroke="#263238" stroke-width="0.75" stroke-linecap="round" stroke-linejoin="round"/>
<path d="M72.4802 489.139H109.72V508.388C109.72 508.817 109.635 509.241 109.469 509.637C109.303 510.032 109.061 510.391 108.755 510.692C108.449 510.993 108.087 511.23 107.689 511.389C107.291 511.548 106.865 511.627 106.436 511.62H75.7122C74.8551 511.62 74.033 511.279 73.4269 510.673C72.8207 510.067 72.4802 509.245 72.4802 508.388V489.139Z" fill="#263238" stroke="#263238" stroke-linecap="round" stroke-linejoin="round"/>
<path d="M427.224 247.918C422.68 253.574 419.596 260.26 418.242 267.388C415.853 279.498 409.973 302.252 410.713 310.144C411.453 318.036 413.309 322.436 420.435 323.721C427.561 325.006 431.624 318.763 433.104 313.441C434.042 309.939 434.774 306.385 435.297 302.797L436.764 273.878C436.764 273.878 434.168 256.498 432.935 252.837C431.702 249.177 427.224 247.918 427.224 247.918Z" fill="#1F56C3" stroke="#263238" stroke-linecap="round" stroke-linejoin="round"/>
<path d="M522.678 242.129C522.678 242.129 525.274 241.558 527.741 250.566C530.207 259.574 533.179 272.502 538.047 288.442C542.914 304.381 543.862 309.638 543.485 313.195C543.109 316.751 540.305 320.697 530.505 320.697C520.706 320.697 516.227 316.946 513.631 308.509C511.035 300.072 511.412 274.008 511.23 270.633C511.048 267.258 519.667 240.442 522.678 242.129Z" fill="#1F56C3" stroke="#263238" stroke-linecap="round" stroke-linejoin="round"/>
<path d="M455.728 522.108C455.728 522.108 449.354 528.858 445.603 533.18C441.852 537.502 440.541 540.111 446.72 542.733C452.898 545.355 462.477 541.435 465.294 537.113C468.111 532.791 474.107 527.923 474.107 527.923C474.107 527.923 477.287 524.367 473.16 519.304C469.032 514.242 457.597 520.044 455.728 522.108Z" fill="white" stroke="#263238" stroke-linecap="round" stroke-linejoin="round"/>
<path d="M493.98 527.742C493.98 527.742 500.353 528.676 503.728 531.636C507.102 534.595 518.927 541.202 526.793 538.009C534.659 534.816 529.61 529.572 525.3 525.821C522.88 523.674 520.239 521.79 517.422 520.2C517.422 520.2 504.857 519.266 499.25 522.069C493.642 524.873 493.98 527.742 493.98 527.742Z" fill="white" stroke="#263238" stroke-linecap="round" stroke-linejoin="round"/>
<path d="M448.407 440.529C448.407 440.529 451.418 463.036 449.913 469.786C448.407 476.536 444.098 480.482 447.317 487.05C449.699 492.128 451.443 497.482 452.509 502.989C452.885 505.235 450.821 505.793 452.509 508.181C453.739 509.721 454.748 511.425 455.507 513.243C455.507 513.814 453.262 516.994 453.262 517.747C453.262 518.5 454.391 523.186 454.391 523.186C454.391 523.186 460.388 521.888 464.697 523.562C467.819 524.907 470.776 526.605 473.51 528.624C473.51 528.624 477.404 527.119 478.767 524.873C479.502 523.696 479.947 522.362 480.065 520.979C480.247 520.226 482.129 516.28 481.947 513.282C481.766 510.284 479.689 503.911 479.689 500.159C479.689 496.408 482.505 492.28 482.505 486.284C482.505 480.287 479.689 441.84 479.689 441.84L482.285 440.893C482.285 440.893 486.412 463.776 486.412 474.472C486.412 485.167 483.232 498.472 485.296 501.094C487.36 503.716 489.787 505.974 489.787 506.532C489.787 507.091 487.347 511.218 487.918 513.282C488.809 515.993 489.558 518.749 490.164 521.537C490.164 522.667 492.227 526.976 493.915 527.729C495.602 528.482 496.511 526.781 506.48 524.73C516.448 522.68 522.056 523.225 521.108 520.226C520.16 517.228 519.239 513.282 518.11 512.529C516.98 511.776 518.486 511.231 518.11 508.415C517.733 505.598 515.669 502.6 513.8 498.095C511.931 493.591 514.54 488.724 515.293 484.025C516.046 479.326 514.917 472.343 513.047 464.711C511.178 457.079 512.853 438.271 512.853 438.271L513.8 430.963C513.8 430.963 485.101 433.559 467.475 433.39L448.537 433.208C448.537 433.208 447.291 434.532 448.407 440.529Z" fill="#263238" stroke="#263238" stroke-linecap="round" stroke-linejoin="round"/>
<path d="M521.173 362.143C521.173 362.143 523.769 396.28 527.17 414.063C529.127 424.099 530.367 434.262 530.882 444.475H517.24C516.669 444.475 518.175 381.275 518.538 375.681C519.033 371.102 519.914 366.573 521.173 362.143Z" fill="#1F56C3" stroke="#263238" stroke-linecap="round" stroke-linejoin="round"/>
<path d="M464.684 223.257C464.684 223.257 448.745 233.94 440.502 237.691C432.26 241.442 427.743 246.323 427.185 248.075C426.627 249.827 436.18 276.761 436.18 276.761C436.18 276.761 435.622 365.842 435.622 380.847C435.622 395.852 430.936 441.036 431.494 441.036C432.052 441.036 447.07 450.797 467.682 451.355C488.295 451.913 494.94 448.914 501.43 448.914C507.92 448.914 520.9 448.914 521.121 447.045C521.342 445.176 521.498 403.718 521.679 384.404C521.861 365.09 522.056 351.396 521.679 348.216C521.303 345.035 516.059 276.384 516.059 276.384C516.059 276.384 519.953 264.949 522.25 255.759C524.548 246.569 524.496 245.44 521.679 241.325C518.863 237.211 497.731 225.996 493.98 224.555C489.37 222.942 484.571 221.934 479.702 221.557C476.171 221.31 464.684 223.257 464.684 223.257Z" fill="#1F56C3" stroke="#263238" stroke-linecap="round" stroke-linejoin="round"/>
<path d="M429.469 299.514C429.469 299.514 431.909 305.134 434.908 307.574C437.906 310.015 444.851 311.144 446.343 314.895C447.836 318.646 446.343 321.45 444.656 325.954C442.968 330.458 443.916 337.96 437.725 338.934C431.533 339.907 429.664 337.636 424.589 334.053C419.514 330.471 416.346 329.926 413.348 324.487C410.35 319.049 409.454 311.507 412.05 307.431" fill="#1F56C3"/>
<path d="M429.469 299.514C429.469 299.514 431.909 305.134 434.908 307.574C437.906 310.015 444.851 311.144 446.343 314.895C447.836 318.646 446.343 321.45 444.656 325.954C442.968 330.458 443.916 337.96 437.725 338.934C431.533 339.907 429.664 337.636 424.589 334.053C419.514 330.471 416.346 329.926 413.348 324.487C410.35 319.049 409.454 311.507 412.05 307.431" stroke="#263238" stroke-linecap="round" stroke-linejoin="round"/>
<path d="M463.983 215.871L463.386 231.629C463.386 231.629 461.893 233.874 470.888 234.432C476.67 234.736 482.467 234.299 488.139 233.134L486.646 216.079C486.646 216.079 477.262 219.973 471.823 218.143C469.273 217.183 466.651 216.424 463.983 215.871Z" fill="white" stroke="#263238" stroke-linecap="round" stroke-linejoin="round"/>
<path d="M460.413 211.938C460.413 211.938 459.116 230.109 458.168 235.561C457.22 241.013 457.415 244.375 459.466 245.686C461.517 246.996 473.523 251.695 479.715 251.319C485.906 250.942 495.291 245.309 496.031 243.622C496.77 241.934 490.423 215.468 490.423 215.468L489.476 216.597C489.476 216.597 491.163 230.473 490.605 230.875C490.047 231.278 468.292 229.746 464.346 229.577C460.4 229.409 461.543 229.201 461.543 229.201L461.348 213.261L460.413 211.938Z" fill="white" stroke="#263238" stroke-linecap="round" stroke-linejoin="round"/>
<path d="M459.817 233.562C459.817 233.562 480.312 236.587 492.604 234.211" stroke="#263238" stroke-width="0.5" stroke-miterlimit="10"/>
<path d="M458.96 238.312C458.96 238.312 473.238 244.348 492.604 238.949" stroke="#263238" stroke-width="0.5" stroke-miterlimit="10"/>
<path d="M460.466 243.92C460.466 243.92 474.056 251.254 492.604 243.479" stroke="#263238" stroke-width="0.5" stroke-miterlimit="10"/>
<path d="M493.617 192.805C494.084 187.042 494.473 181.123 493.045 178.177C490.8 173.491 484.037 168.052 474.289 168.429C464.541 168.805 456.286 172.556 456.481 184.55C456.481 184.55 456.896 188.119 457.376 192.494C456.483 194.404 456.172 196.534 456.481 198.62C456.783 200.622 457.485 202.542 458.545 204.266C458.635 205.383 458.7 206.343 458.726 207.057C458.908 212.119 462.283 218.116 465.294 220.18C468.306 222.244 473.913 225.437 477.482 225.437C481.052 225.437 487.412 222.062 490.462 217.182C492.825 213.288 493.058 210.692 493.058 206.11H493.24C493.777 203.703 494.094 201.253 494.188 198.789C494.264 196.778 494.072 194.765 493.617 192.805Z" fill="white" stroke="#263238" stroke-linecap="round" stroke-linejoin="round"/>
<path d="M458.194 193.934C458.194 193.934 458.752 198.62 459.687 198.425C460.621 198.231 461.75 191.494 461.75 191.494L458.194 193.934Z" fill="#263238" stroke="#263238" stroke-linecap="round" stroke-linejoin="round"/>
<path d="M490.047 193.402C490.047 193.402 490.047 198.659 491.345 199.412C492.643 200.165 493.591 194.908 493.591 194.908C492.527 194.165 491.32 193.652 490.047 193.402Z" fill="#263238" stroke="#263238" stroke-linecap="round" stroke-linejoin="round"/>
<path d="M493.045 178.177C490.8 173.491 484.037 168.052 474.289 168.429C464.541 168.805 456.286 172.556 456.481 184.55C456.481 184.55 456.896 188.119 457.376 192.494C456.785 193.762 456.446 195.133 456.377 196.53C460.024 193.61 466.852 189.43 475.418 190.183C482.085 190.943 488.492 193.202 494.161 196.79C494.102 195.448 493.92 194.114 493.616 192.805C494.084 187.042 494.538 181.162 493.045 178.177Z" fill="#1F56C3" stroke="#263238" stroke-linecap="round" stroke-linejoin="round"/>
<path d="M472.978 197.296L471.849 204.045C471.849 204.045 469.785 204.227 470.551 205.538C471.317 206.849 475.237 208.355 477.119 207.797C479.001 207.238 480.87 205.356 480.675 204.603C480.618 204.378 480.5 204.173 480.336 204.008C480.172 203.844 479.966 203.727 479.741 203.669L477.301 196.725" stroke="#263238" stroke-linecap="round" stroke-linejoin="round"/>
<path d="M470.914 211.185C474.515 211.962 478.253 211.833 481.792 210.809" stroke="#263238" stroke-linecap="round" stroke-linejoin="round"/>
<path d="M468.851 197.024C468.851 198.011 468.344 198.803 467.721 198.803C467.098 198.803 466.605 198.011 466.605 197.024C466.605 196.038 467.111 195.246 467.721 195.246C468.331 195.246 468.851 195.999 468.851 197.024Z" fill="#263238"/>
<path d="M483.103 196.933C483.103 197.919 482.596 198.711 481.986 198.711C481.376 198.711 480.857 197.919 480.857 196.933C480.857 195.946 481.363 195.154 481.986 195.154C482.609 195.154 483.103 195.998 483.103 196.933Z" fill="#263238"/>
<path d="M464.541 194.311C464.541 194.311 465.839 191.118 469.98 192.248" stroke="#263238" stroke-linecap="round" stroke-linejoin="round"/>
<path d="M478.417 192.428C478.417 192.428 482.311 189.611 485.167 194.492" stroke="#263238" stroke-linecap="round" stroke-linejoin="round"/>
<path d="M442.968 322.956C442.968 322.956 454.417 325.552 457.039 325.02C460.475 324.378 463.623 322.671 466.034 320.139C469.422 316.764 472.225 313.948 472.225 316.764C472.237 317.876 472.027 318.979 471.608 320.008C471.189 321.038 470.57 321.974 469.785 322.761C468.487 324.267 466.034 325.954 465.476 328.395C464.918 330.835 465.67 332.704 468.669 333.833C471.667 334.962 481.039 336.637 481.039 339.025C481.039 341.413 480.286 347.099 476.911 348.968C473.536 350.837 465.294 349.526 465.294 349.526C465.294 349.526 472.044 353.277 470.733 354.225C469.422 355.172 465.476 353.848 463.607 352.161C461.738 350.473 461.011 350.279 455.533 346.346C450.056 342.413 445.409 337.714 442.787 336.221C441.366 335.556 440.053 334.681 438.893 333.625C437.387 332.327 436.829 329.731 437.945 326.694C438.326 325.794 438.889 324.984 439.6 324.313C440.31 323.643 441.153 323.128 442.073 322.8L442.968 322.956Z" fill="white" stroke="#263238" stroke-linecap="round" stroke-linejoin="round"/>
<path d="M532.05 301.578C532.05 301.578 518.551 304.174 517.24 305.135C515.929 306.095 517.24 310.015 517.24 310.015C517.24 310.015 505.792 315.454 501.482 318.452C497.173 321.451 501.106 327.46 501.301 328.2C501.301 328.2 504.675 339.272 510.296 343.023C515.916 346.775 521.731 345.451 527.364 339.454C532.998 333.457 536.554 325.176 539.176 322.385C541.798 319.594 544.615 316.946 543.68 310.703C542.746 304.46 537.865 303.759 537.865 303.759" fill="#1F56C3"/>
<path d="M532.05 301.578C532.05 301.578 518.551 304.174 517.24 305.135C515.929 306.095 517.24 310.015 517.24 310.015C517.24 310.015 505.792 315.454 501.482 318.452C497.173 321.451 501.106 327.46 501.301 328.2C501.301 328.2 504.675 339.272 510.296 343.023C515.916 346.775 521.731 345.451 527.364 339.454C532.998 333.457 536.554 325.176 539.176 322.385C541.798 319.594 544.615 316.946 543.68 310.703C542.746 304.46 537.865 303.759 537.865 303.759" stroke="#263238" stroke-linecap="round" stroke-linejoin="round"/>
<path d="M504.481 326.33C504.481 326.33 495.862 328.575 493.422 328.77C490.982 328.965 490.605 329.328 489.112 328.199C487.62 327.07 480.662 323.007 477.43 319.204C474.198 315.401 471.797 314.7 472.174 316.763C472.55 318.827 471.797 320.32 474.056 321.826C476.314 323.331 478.547 327.459 478.547 329.146C478.547 330.834 478.365 331.392 473.679 333.04C468.993 334.689 458.298 336.792 459.401 338.103C460.504 339.414 462.776 339.79 465.216 339.608C467.656 339.427 477.781 337.921 478.521 338.479C478.765 338.729 478.948 339.033 479.054 339.366C479.161 339.699 479.188 340.052 479.134 340.397C479.08 340.743 478.945 341.071 478.742 341.355C478.539 341.639 478.272 341.873 477.963 342.036C476.275 343.165 470.278 343.165 466.709 343.541C463.139 343.918 462.958 344.839 464.463 345.605C466.881 346.507 469.452 346.926 472.031 346.838C475.029 346.838 478.521 346.54 477.028 347.474C475.535 348.409 473.459 348.603 469.707 349.162C465.956 349.72 464.645 348.045 465.216 349.538C465.787 351.031 470.278 351.044 475.899 350.836C481.015 350.575 485.983 349.03 490.346 346.345C494.097 344.086 507.778 340.712 508.725 339.972C509.673 339.232 511.152 334.897 510.218 329.653C509.283 324.409 504.481 326.33 504.481 326.33Z" fill="white" stroke="#263238" stroke-linecap="round" stroke-linejoin="round"/>
<path d="M519.304 304.382C522.958 301.357 526.917 298.721 531.116 296.516" stroke="#263238" stroke-linecap="round" stroke-linejoin="round"/>
<path d="M467.54 339.714C467.54 339.714 478.209 338.493 479.287 338.338C480.364 338.182 482.337 339.402 481.415 340.778C480.494 342.154 480.04 341.842 476.223 342.608C472.435 343.184 468.606 343.44 464.775 343.374" fill="white"/>
<path d="M467.54 339.714C467.54 339.714 478.209 338.493 479.287 338.338C480.364 338.182 482.337 339.402 481.415 340.778C480.494 342.154 480.04 341.842 476.223 342.608C472.435 343.184 468.606 343.44 464.775 343.374" stroke="#263238" stroke-linecap="round" stroke-linejoin="round"/>
<path d="M468.76 347.033C468.76 347.033 480.649 346.267 480.351 347.189C480.052 348.11 479.286 349.317 475.016 349.629C470.746 349.94 465.93 350.239 461.893 348.253" fill="white"/>
<path d="M468.76 347.033C468.76 347.033 480.649 346.267 480.351 347.189C480.052 348.11 479.286 349.317 475.016 349.629C470.746 349.94 465.93 350.239 461.893 348.253" stroke="#263238" stroke-linecap="round" stroke-linejoin="round"/>
<path d="M349.837 512.866C349.837 512.866 351.862 514.878 343.788 519.81C335.715 524.742 328.978 526.988 328.978 529.908C328.978 532.829 337.947 535.737 347.15 533.491C356.353 531.245 360.13 530.583 365.322 529.688C370.514 528.792 372.059 524.301 372.059 518.006C372.059 511.711 358.378 510.218 356.807 509.932C355.237 509.647 350.966 510.4 349.837 512.866Z" fill="white" stroke="#263238" stroke-linecap="round" stroke-linejoin="round"/>
<path d="M370.021 518.019C366.623 523.11 362.464 527.649 357.69 531.479C350.733 536.671 349.837 539.098 353.432 540.448C357.028 541.798 367.334 542.239 374.291 539.552C381.249 536.866 384.61 532.829 386.622 531.025C388.634 529.22 389.763 530.35 389.763 523.172C389.763 515.994 382.131 513.528 375.862 513.982C369.592 514.436 370.021 518.019 370.021 518.019Z" fill="white" stroke="#263238" stroke-linecap="round" stroke-linejoin="round"/>
<path d="M342.672 371.786C342.672 371.786 344.697 412.609 345.372 424.498C346.047 436.388 350.979 481.013 351.862 491.553C352.744 502.093 352.757 505.234 352.757 505.234C352.757 505.234 348.721 508.154 348.721 508.829C348.721 509.504 348.266 515.774 348.266 515.774C351.245 517.414 354.409 518.695 357.69 519.59C361.295 520.402 365.007 520.63 368.684 520.265C368.684 520.265 376.083 522.731 382.365 524.522C388.647 526.313 391.113 525.418 391.113 525.418C391.113 525.418 392.905 516.449 393.346 513.528C393.787 510.608 401.419 479.663 401.419 465.502C401.419 451.341 399.628 444.864 396.941 436.57C394.255 428.275 400.524 398.655 402.769 387.895C404.057 381.892 405.032 375.826 405.69 369.723C405.69 369.723 386.402 379.639 342.672 371.786Z" fill="#263238" stroke="#263238" stroke-linecap="round" stroke-linejoin="round"/>
<path d="M367.788 385.506C367.788 385.506 366.659 415.36 366.659 426.769C366.659 438.179 369.58 452.119 370.917 465.579C372.254 479.04 371.371 501.015 369.8 504.831C368.23 508.647 367.113 510.023 367.334 512.905C367.555 515.786 367.788 519.849 367.788 519.849" stroke="white" stroke-linecap="round" stroke-linejoin="round"/>
<path d="M364.193 211.86C364.193 211.86 362.895 207.824 360.818 209.394C358.741 210.965 360.156 213.885 361.947 216.806C363.739 219.726 365.75 220.388 365.984 218.818C366.218 217.247 364.193 211.86 364.193 211.86Z" fill="white" stroke="#263238" stroke-linecap="round" stroke-linejoin="round"/>
<path d="M364.193 213.664L361.947 207.174C361.947 207.174 352.537 203.358 355.457 193.934C358.378 184.511 380.807 175.996 386.856 175.996C392.905 175.996 404.574 184.07 406.599 193.493C408.623 202.917 401.887 211.431 401.887 211.431C401.887 211.431 398.966 219.726 396.695 219.284C394.423 218.843 395.786 212.327 392.879 207.174C389.971 202.021 388.167 199.386 385.026 200.684C381.885 201.982 368.879 205.876 367.762 207.628C366.646 209.381 364.647 214.78 364.193 213.664Z" fill="#263238" stroke="#263238" stroke-linecap="round" stroke-linejoin="round"/>
<path d="M409.727 306.068L410.843 311.896L396.942 333.43L400.083 338.362C406.678 333.965 412.703 328.768 418.021 322.89C426.99 313.025 427.886 311.675 427.886 307.639C427.886 303.602 424.758 296.645 424.758 296.645C424.758 296.645 418.475 306.068 409.727 306.068Z" fill="white" stroke="#263238" stroke-linecap="round" stroke-linejoin="round"/>
<path d="M333.69 293.062C333.69 293.062 329.199 303.823 330.107 307.185C331.016 310.547 346.475 330.289 346.475 330.289L349.162 322.891C349.162 322.891 343.334 310.78 343.334 306.743C343.334 302.707 345.359 294.854 345.359 294.854L333.69 293.062Z" stroke="#263238" stroke-linecap="round" stroke-linejoin="round"/>
<path d="M373.396 239.676C373.396 239.676 354.107 247.074 350.512 248.204C346.917 249.333 344.45 249.995 344.23 251.111C344.009 252.227 333.249 279.823 331.25 283.639C329.251 287.455 326.538 291.713 326.538 291.713C329.151 293.346 331.845 294.845 334.612 296.204C337.433 297.437 340.361 298.41 343.36 299.111L344.658 314.596L331.418 372.903C331.418 372.903 357.885 380.301 375.55 379.639C386.798 379.256 397.919 377.137 408.52 373.357C411.894 372.228 417.047 370.216 417.047 370.216L400.173 306.743L401.471 297.32L402.367 306.523C402.367 306.523 411.336 308.535 416.489 307.185C421.642 305.835 428.171 300.695 428.171 300.695L411.57 248.892L380.626 240.364L373.396 239.676Z" fill="#1F56C3" stroke="#263238" stroke-linecap="round" stroke-linejoin="round"/>
<path d="M395.189 244.31L380.794 240.351L373.396 239.676L366.737 242.272C366.607 245.802 366.438 251.812 366.438 259.016C366.438 270.698 367.736 281.004 371.15 278.979C374.564 276.954 390.62 255.213 393.346 249.125C394.083 247.57 394.699 245.96 395.189 244.31Z" fill="#1F56C3" stroke="#263238" stroke-linecap="round" stroke-linejoin="round"/>
<path d="M401.653 297.321C401.199 296.879 399.187 277.578 399.187 277.578" stroke="#263238" stroke-linecap="round" stroke-linejoin="round"/>
<path d="M343.334 299.112C343.334 299.112 341.764 291.493 342.218 288.573C342.672 285.652 345.8 268.389 345.8 268.389" stroke="#263238" stroke-linecap="round" stroke-linejoin="round"/>
<path d="M350.966 331.418C350.966 331.418 340.647 334.78 340.647 335.455C340.647 336.13 340.414 339.258 340.414 339.258L350.966 334.325V331.418Z" stroke="#263238" stroke-linecap="round" stroke-linejoin="round"/>
<path d="M378.328 332.988L377.874 335.896L400.303 341.724L401.42 339.491L378.328 332.988Z" stroke="#263238" stroke-linecap="round" stroke-linejoin="round"/>
<path d="M385.727 288.389C385.42 288.389 385.126 288.267 384.91 288.051C384.693 287.834 384.571 287.54 384.571 287.234C384.571 283.34 386.505 273.942 388.387 264.856C389.88 257.627 391.295 250.786 391.295 248.644C391.353 247.464 391.158 246.285 390.724 245.186C390.289 244.087 389.626 243.093 388.777 242.271C386.09 239.779 381.313 238.767 374.59 239.26C360.558 240.298 359.533 271.71 359.52 272.008C359.513 272.31 359.389 272.597 359.173 272.809C358.957 273.02 358.667 273.138 358.365 273.138C358.213 273.133 358.064 273.098 357.926 273.035C357.787 272.972 357.663 272.883 357.559 272.772C357.455 272.661 357.375 272.531 357.321 272.389C357.268 272.246 357.243 272.095 357.248 271.943C357.248 270.568 358.352 238.195 374.46 236.897C381.859 236.365 387.219 237.572 390.386 240.532C391.466 241.571 392.313 242.826 392.875 244.215C393.436 245.604 393.698 247.095 393.644 248.592C393.644 250.968 392.281 257.601 390.698 265.272C388.92 273.826 386.921 283.522 386.921 287.182C386.928 287.341 386.902 287.5 386.845 287.649C386.788 287.798 386.7 287.934 386.588 288.047C386.476 288.16 386.341 288.249 386.193 288.308C386.045 288.367 385.886 288.395 385.727 288.389Z" fill="#263238" stroke="#263238" stroke-linecap="round" stroke-linejoin="round"/>
<path d="M370.917 232.731C370.917 232.731 370.917 239.221 370.696 240.519C370.475 241.817 370.696 247.476 370.696 255.109C370.696 262.741 371.994 267.881 373.837 266.09C375.68 264.299 387.518 248.372 388.193 245.231C388.589 243.465 388.815 241.666 388.868 239.857L389.764 230.875C389.764 230.875 375.862 234.912 370.021 233.121" fill="white"/>
<path d="M370.917 232.731C370.917 232.731 370.917 239.221 370.696 240.519C370.475 241.817 370.696 247.476 370.696 255.109C370.696 262.741 371.994 267.881 373.837 266.09C375.68 264.299 387.518 248.372 388.193 245.231C388.589 243.465 388.815 241.666 388.868 239.857L389.764 230.875C389.764 230.875 375.862 234.912 370.021 233.121" stroke="#263238" stroke-linecap="round" stroke-linejoin="round"/>
<path d="M394.021 219.272C395.189 227.063 395.49 234.96 394.917 242.818C394.021 256.499 392.398 262.911 388.427 264.884C384.455 266.857 389.582 269.089 395.631 269.31C401.679 269.531 410.661 268.635 412.232 250.697C413.803 232.758 400.797 221.089 399.667 218.844C399.378 218.322 398.946 217.895 398.421 217.612C397.896 217.329 397.301 217.202 396.707 217.247C396.112 217.292 395.543 217.507 395.067 217.866C394.591 218.225 394.228 218.713 394.021 219.272Z" fill="#263238" stroke="#263238" stroke-linecap="round" stroke-linejoin="round"/>
<path d="M350.291 287.716H350.2C350.043 287.706 349.889 287.665 349.749 287.593C349.608 287.521 349.484 287.421 349.384 287.3C349.284 287.178 349.21 287.036 349.168 286.884C349.125 286.733 349.114 286.574 349.136 286.418C349.136 285.782 350.434 270.764 358.365 270.764C366.296 270.764 366.477 285.21 366.477 285.833C366.477 286.14 366.356 286.434 366.139 286.65C365.922 286.867 365.628 286.989 365.322 286.989C365.016 286.989 364.722 286.867 364.505 286.65C364.289 286.434 364.167 286.14 364.167 285.833C364.167 285.704 363.998 273.087 358.378 273.087C353.549 273.087 351.745 282.835 351.459 286.599C351.446 286.9 351.317 287.184 351.1 287.392C350.882 287.6 350.592 287.716 350.291 287.716Z" fill="#263238"/>
<path d="M350.291 285.664C350.291 285.664 350.291 296.879 350.733 299.111C351.174 301.344 356.794 306.069 363.518 308.989" stroke="#263238" stroke-width="2" stroke-linecap="round" stroke-linejoin="round"/>
<path d="M364.868 284.262C364.868 284.262 365.309 295.476 363.077 300.409C360.844 305.341 354.108 307.366 351.187 308.482" stroke="#263238" stroke-width="2" stroke-linecap="round" stroke-linejoin="round"/>
<path d="M366.659 309.431C366.618 308.924 366.388 308.45 366.014 308.105C365.64 307.76 365.15 307.568 364.641 307.568C364.132 307.568 363.641 307.76 363.267 308.105C362.893 308.45 362.663 308.924 362.622 309.431C362.6 309.71 362.636 309.99 362.727 310.254C362.818 310.519 362.963 310.761 363.153 310.967C363.342 311.172 363.572 311.336 363.829 311.448C364.085 311.56 364.361 311.618 364.641 311.618C364.92 311.618 365.197 311.56 365.453 311.448C365.709 311.336 365.939 311.172 366.129 310.967C366.318 310.761 366.463 310.519 366.555 310.254C366.646 309.99 366.681 309.71 366.659 309.431Z" fill="white" stroke="#263238" stroke-linecap="round" stroke-linejoin="round"/>
<path d="M352.757 308.989C352.76 308.588 352.644 308.195 352.423 307.861C352.202 307.526 351.886 307.264 351.517 307.109C351.147 306.954 350.739 306.912 350.346 306.989C349.952 307.065 349.59 307.257 349.305 307.54C349.021 307.822 348.827 308.183 348.748 308.576C348.668 308.969 348.708 309.377 348.861 309.748C349.014 310.119 349.273 310.436 349.606 310.659C349.94 310.882 350.332 311.001 350.733 311.001C351.267 311.001 351.78 310.789 352.16 310.412C352.539 310.036 352.754 309.524 352.757 308.989Z" fill="white" stroke="#263238" stroke-linecap="round" stroke-linejoin="round"/>
<path d="M392.45 291.492C392.453 290.115 392.047 288.768 391.283 287.622C390.52 286.475 389.433 285.582 388.161 285.054C386.89 284.525 385.49 284.387 384.139 284.655C382.788 284.923 381.547 285.585 380.573 286.559C379.6 287.533 378.937 288.774 378.669 290.125C378.401 291.475 378.54 292.875 379.068 294.147C379.596 295.419 380.49 296.505 381.636 297.269C382.782 298.032 384.129 298.439 385.506 298.436C387.347 298.433 389.111 297.7 390.412 296.398C391.714 295.097 392.447 293.332 392.45 291.492Z" fill="white" stroke="#263238" stroke-linecap="round" stroke-linejoin="round"/>
<path d="M389.309 291.492C389.309 290.737 389.085 289.998 388.665 289.37C388.245 288.743 387.649 288.253 386.951 287.965C386.253 287.677 385.485 287.602 384.744 287.75C384.003 287.898 383.323 288.263 382.79 288.798C382.257 289.333 381.895 290.014 381.749 290.755C381.603 291.496 381.681 292.264 381.971 292.961C382.262 293.658 382.753 294.253 383.383 294.671C384.012 295.089 384.751 295.311 385.506 295.308C386.516 295.305 387.483 294.901 388.196 294.186C388.909 293.47 389.309 292.502 389.309 291.492Z" fill="white" stroke="#263238" stroke-linecap="round" stroke-linejoin="round"/>
<path d="M389.309 196.168C389.309 196.168 369.8 203.787 367.334 205.085C366.273 205.727 365.146 206.253 363.972 206.656C363.972 206.656 365.089 223.699 365.543 228.19C365.997 232.681 373.162 236.938 379.444 236.717C385.727 236.497 390.88 233.122 392.009 231.11C393.138 229.098 396.267 223.037 396.267 223.037C396.267 223.037 403.665 221.739 404.055 215.184C404.444 208.629 402.263 209.992 399.797 211.368C397.331 212.743 395.981 213.613 395.981 213.613C396.461 211.234 396.059 208.761 394.852 206.656C392.905 203.346 389.764 199.309 389.309 196.168Z" fill="white" stroke="#263238" stroke-linecap="round" stroke-linejoin="round"/>
<path d="M373.396 217.025C373.396 217.025 375.187 219.712 376.757 219.492" stroke="#263238" stroke-linecap="round" stroke-linejoin="round"/>
<path d="M372.721 221.062C372.721 221.062 376.524 224.658 383.105 221.737" stroke="#263238" stroke-linecap="round" stroke-linejoin="round"/>
<path d="M382.365 211.639C382.365 211.639 386.96 209.627 389.543 213.21" stroke="#263238" stroke-width="1.5" stroke-linecap="round" stroke-linejoin="round"/>
<path d="M373.396 211.198C373.396 211.198 369.8 208.953 367.113 210.744" stroke="#263238" stroke-width="1.5" stroke-linecap="round" stroke-linejoin="round"/>
<path d="M376.031 210.354C376.033 211.608 375.664 212.835 374.969 213.878C374.274 214.922 373.285 215.736 372.127 216.217C370.969 216.698 369.694 216.825 368.464 216.581C367.234 216.337 366.104 215.733 365.218 214.846C364.331 213.96 363.727 212.83 363.483 211.6C363.239 210.37 363.366 209.095 363.847 207.937C364.328 206.779 365.142 205.79 366.186 205.095C367.229 204.4 368.456 204.031 369.71 204.033C371.385 204.037 372.991 204.704 374.176 205.888C375.36 207.073 376.027 208.679 376.031 210.354Z" stroke="#263238" stroke-linecap="round" stroke-linejoin="round"/>
<path d="M391.801 212.132C391.804 213.385 391.435 214.611 390.74 215.654C390.046 216.698 389.057 217.512 387.9 217.993C386.743 218.475 385.469 218.602 384.239 218.359C383.01 218.116 381.88 217.514 380.993 216.628C380.105 215.743 379.501 214.614 379.255 213.385C379.01 212.156 379.135 210.882 379.614 209.724C380.093 208.566 380.905 207.576 381.947 206.879C382.989 206.182 384.214 205.811 385.467 205.811C387.144 205.814 388.751 206.481 389.938 207.665C391.124 208.849 391.794 210.455 391.801 212.132V212.132Z" stroke="#263238" stroke-linecap="round" stroke-linejoin="round"/>
<path d="M376.031 210.354C376.484 210.201 376.969 210.172 377.437 210.27C377.905 210.368 378.339 210.59 378.692 210.912" stroke="#263238" stroke-linecap="round" stroke-linejoin="round"/>
<path d="M392.022 213.133L398.24 212.25" stroke="#263238" stroke-linecap="round" stroke-linejoin="round"/>
<path d="M128.32 514.501C126.601 518.153 124.486 521.604 122.012 524.794C118.261 529.402 117.313 532.686 121.389 535.541C125.465 538.397 132.889 537.956 136.628 533.348C140.366 528.74 146.389 516.032 146.389 516.032C146.389 516.032 133.253 512.087 128.32 514.501Z" fill="white" stroke="#263238" stroke-linecap="round" stroke-linejoin="round"/>
<path d="M174.036 517.344C174.036 517.344 180.526 525.898 184.42 530.324C188.314 534.75 195.674 536.892 199.606 536.671C203.539 536.451 209.186 535.14 205.37 528.13C201.553 521.121 193.584 514.32 193.584 514.32C193.584 514.32 185.251 514.32 179.526 513.658C173.802 512.996 173.75 516.033 174.036 517.344Z" fill="white" stroke="#263238" stroke-linecap="round" stroke-linejoin="round"/>
<path d="M131.903 356.235C131.903 356.235 129.307 386.089 130.19 407.091C131.072 428.092 127.204 470.005 125.906 480.259C124.608 490.513 127.087 507.439 127.204 511.164C127.321 514.89 127.451 516.875 127.451 516.875C127.451 516.875 129.372 515.577 136.446 516.875C139.64 517.558 142.881 517.992 146.142 518.173C149.061 513.237 151.474 508.018 153.346 502.597C155.462 495.588 154.268 488.319 154.099 484.62C153.93 480.921 153.32 476.949 153.735 476.287C154.151 475.625 162.821 412.945 163.289 399.134C163.82 389.771 165.21 380.478 167.442 371.37C167.442 371.37 171.583 390.658 171.907 398.108C172.232 405.559 171.167 466.279 171.7 478.584C172.232 490.89 171.284 494.161 169.882 497.224C168.481 500.287 168.987 501.819 169.973 504.233C170.96 506.647 174.062 517.382 174.062 517.382C174.062 517.382 189.885 518.264 192.026 517.161C194.168 516.058 194.999 514.98 194.96 514.318C194.921 513.656 202.579 497.873 201.852 491.305C201.125 484.737 200.295 485.827 199.555 473.99C198.815 462.152 203.656 362.362 203.643 357.17C203.63 351.978 202.761 361.985 170.493 355.872C138.224 349.758 132.825 352.068 131.903 356.235Z" fill="#1F56C3" stroke="#263238" stroke-linecap="round" stroke-linejoin="round"/>
<path d="M174.971 508.816C174.971 508.816 185.108 500.041 193.558 497.848L174.971 508.816Z" fill="white"/>
<path d="M174.971 508.816C174.971 508.816 185.108 500.041 193.558 497.848" stroke="#263238" stroke-linecap="round" stroke-linejoin="round"/>
<path d="M133.577 504.636C133.577 504.636 146.246 498.496 149.906 496.965L133.577 504.636Z" fill="white"/>
<path d="M133.577 504.636C133.577 504.636 146.246 498.496 149.906 496.965" stroke="#263238" stroke-linecap="round" stroke-linejoin="round"/>
<path d="M154.838 194.036C154.838 194.036 151.438 186.365 148.92 189C146.401 191.635 148.31 195.127 151.775 199.293C155.241 203.46 157.98 200.825 157.253 199.073C156.526 197.32 154.838 194.036 154.838 194.036Z" fill="white" stroke="#263238" stroke-linecap="round" stroke-linejoin="round"/>
<path d="M187.756 189.87C187.756 189.87 191.156 182.419 193.934 185.976C196.712 189.532 190.741 198.255 189.274 199.786C187.808 201.318 186.86 189.701 186.86 189.701L187.756 189.87Z" fill="white" stroke="#263238" stroke-linecap="round" stroke-linejoin="round"/>
<path d="M113.926 285.883C113.926 285.883 112.978 299.473 111.823 302.977C109.465 311.237 108.362 319.805 108.552 328.392C109.006 338.685 113.043 361.05 113.121 367.839C113.199 374.627 111.083 376.172 113.354 377.924C115.626 379.676 120.455 384.946 122.207 384.946C123.959 384.946 126.633 385.816 126.568 384.505C126.503 383.194 125.647 383.402 124.907 381.649C123.962 379.095 123.19 376.48 122.596 373.822C123.129 371.887 123.775 369.984 124.53 368.124C124.53 368.124 126.088 373.602 126.386 375.367C126.685 377.132 129.125 377.768 128.982 374.484C128.84 371.2 128.775 369.876 128.619 366.372C128.463 362.867 125.698 359.804 124.53 358.039C123.362 356.273 122.44 355.196 122.402 354.534C122.363 353.872 126.179 330.651 126.296 322.538C126.412 314.426 126.529 307.845 127.113 306.313C127.697 304.782 130.605 290.971 130.605 290.971L113.926 285.883Z" fill="white" stroke="#263238" stroke-linecap="round" stroke-linejoin="round"/>
<path d="M222.334 286.533C222.334 286.533 223.269 300.201 224.437 303.81C226.767 312.177 227.865 320.839 227.695 329.523C227.241 339.79 223.178 361.791 223.1 368.58C223.022 375.368 225.151 377.082 222.88 378.639C220.608 380.197 215.767 385.025 214.014 384.883C212.262 384.74 209.601 385.363 209.653 384.052C209.705 382.741 210.575 383.039 211.314 381.352C212.273 378.85 213.05 376.282 213.638 373.668C213.1 371.673 212.45 369.71 211.691 367.788C211.691 367.788 210.133 373.136 209.835 374.862C209.536 376.588 207.109 377.03 207.239 373.759C207.369 370.488 207.433 369.177 207.589 365.685C207.745 362.194 210.51 359.364 211.691 357.716C212.872 356.067 213.781 355.042 213.82 354.393C213.859 353.744 210.042 330.172 209.926 322.046C209.809 313.921 209.705 307.34 209.108 305.757C208.511 304.173 205.616 290.103 205.616 290.103L222.334 286.533Z" fill="white" stroke="#263238" stroke-linecap="round" stroke-linejoin="round"/>
<path d="M161.861 219.244C161.861 219.244 149.4 225.163 141.872 228.447C134.343 231.731 124.881 235.677 124.998 237.222C125.114 238.766 116.976 269.438 114.406 275.798C111.836 282.159 109.435 287.195 109.435 287.195C109.435 287.195 118.637 293.347 124.608 294.645C128.456 295.46 132.362 295.972 136.29 296.177L129.19 359.312C129.19 359.312 143.468 365.01 165.833 365.231C179.709 365.333 193.58 364.6 207.369 363.037C207.369 363.037 209.471 311.117 209.251 306.042C209.098 303.261 209.198 300.472 209.549 297.709C212.956 298.452 216.496 298.304 219.829 297.28C222.761 296.189 225.634 294.946 228.435 293.555C228.435 293.555 217.545 250.15 215.754 244.231C213.963 238.312 214.793 237.442 213.236 236.78C211.678 236.118 194.467 228.668 188.846 225.384C183.226 222.1 181.058 222.087 176.139 220.555C171.219 219.024 164.392 217.051 161.861 219.244Z" fill="#1F56C3" stroke="#263238" stroke-linecap="round" stroke-linejoin="round"/>
<path d="M209.575 297.708L206.797 258.781" stroke="#263238" stroke-linecap="round" stroke-linejoin="round"/>
<path d="M136.809 318.099L161.121 317.438C161.121 317.438 160.044 347.915 159.304 351.185C158.564 354.456 153.632 356.663 147.258 356.442C140.885 356.222 137.03 353.158 136.303 351.627" stroke="#263238" stroke-linecap="round" stroke-linejoin="round"/>
<path d="M135.446 322.047L161.082 321.826" stroke="#263238" stroke-linecap="round" stroke-linejoin="round"/>
<path d="M202.943 356.456C200.554 357.118 194.856 357.118 193.61 353.613C192.364 350.108 193.182 318.762 193.182 318.762L205.694 319.19" stroke="#263238" stroke-linecap="round" stroke-linejoin="round"/>
<path d="M193.078 321.385L204.98 323.137" stroke="#263238" stroke-linecap="round" stroke-linejoin="round"/>
<path d="M136.29 296.176C136.29 296.176 137.173 266.154 136.822 258.262" stroke="#263238" stroke-linecap="round" stroke-linejoin="round"/>
<path d="M158.149 204.551C158.149 204.551 160.044 222.723 160.122 224.722C160.199 226.721 162.419 232.172 164.522 235.028C166.625 237.883 172.504 247.086 174.841 245.321C177.177 243.556 183.758 233.704 184.394 228.226C185.03 222.749 185.342 209.821 185.342 209.821C185.342 209.821 176.814 210.262 170.35 208.068C163.886 205.875 158.149 204.551 158.149 204.551Z" fill="white" stroke="#263238" stroke-linecap="round" stroke-linejoin="round"/>
<path d="M149.062 177.371L153.904 192.726C153.904 192.726 155.721 204.123 158.992 208.718C162.263 213.312 173.724 219.906 178.929 218.582C184.134 217.258 190.274 212.443 190.04 207.186C189.807 201.929 188.742 186.587 188.885 180.668C189.028 174.749 187.587 162.69 184.004 159.406C180.422 156.123 168.428 154.137 159.823 157.654C151.217 161.172 145.376 167.727 149.062 177.371Z" fill="#263238" stroke="#263238" stroke-linecap="round" stroke-linejoin="round"/>
<path d="M154.177 194.038C154.177 194.038 153.748 194.259 154.877 189.871C156.007 185.484 159.407 183.291 159.745 181.11C160.082 178.929 155.462 178.254 155.968 174.97C156.474 171.686 160.991 169.272 170.583 168.169C180.175 167.066 186.562 172.777 186.25 175.619C185.939 178.462 185.082 178.916 186.484 180.889C187.886 182.862 188.483 186.588 188.586 188.781C188.69 190.975 189.884 198.854 187.808 201.268C185.731 203.682 184.173 203.241 182.109 201.268C180.046 199.295 179.28 196.673 174.685 196.673C170.09 196.673 168.623 198.425 167.818 200.178C167.014 201.93 166.235 204.072 163.613 204.072C160.991 204.072 159.122 201.657 157.253 199.022C156.114 197.434 155.086 195.768 154.177 194.038Z" fill="white" stroke="#263238" stroke-linecap="round" stroke-linejoin="round"/>
<path d="M173.932 183.289C173.932 183.289 178.177 195.127 177.995 196.009C177.813 196.892 175.736 199.514 173.309 199.293C170.882 199.073 169.675 196.23 169.675 196.23" stroke="#263238" stroke-linecap="round" stroke-linejoin="round"/>
<path d="M175.126 181.719C175.01 181.323 174.985 180.906 175.053 180.498C175.121 180.091 175.28 179.705 175.519 179.368C175.757 179.03 176.069 178.752 176.43 178.552C176.791 178.352 177.193 178.237 177.605 178.214C178.962 178.149 180.317 178.369 181.582 178.861C182.848 179.353 183.996 180.106 184.952 181.07" stroke="#263238" stroke-width="2" stroke-linecap="round" stroke-linejoin="round"/>
<path d="M168.74 180.422C168.114 179.956 167.392 179.635 166.626 179.483C165.861 179.33 165.071 179.349 164.314 179.539C161.718 180.201 158.59 184.147 158.629 184.809" stroke="#263238" stroke-width="2" stroke-linecap="round" stroke-linejoin="round"/>
<path d="M167.896 186.807C167.896 187.897 167.442 188.78 166.767 188.78C166.092 188.78 165.469 187.897 165.469 186.807C165.469 185.717 165.923 184.834 166.585 184.834C167.247 184.834 167.844 185.717 167.896 186.807Z" fill="#263238"/>
<path d="M180.578 186.145C180.578 187.235 180.124 188.118 179.462 188.118C178.8 188.118 178.164 187.235 178.164 186.145C178.164 185.055 178.618 184.172 179.28 184.172C179.942 184.172 180.526 185.055 180.578 186.145Z" fill="#263238"/>
<path d="M169.311 204.123C169.311 204.123 173.556 206.096 180.007 203.24" stroke="white" stroke-width="2" stroke-linecap="round" stroke-linejoin="round"/>
<path d="M153.696 223.256C153.696 223.256 160.186 245.607 167.156 260.301C174.127 274.994 179.656 285.287 179.656 285.287C179.656 285.287 190.157 249.995 190.105 238.559C190.053 227.124 189.988 225.852 189.988 225.852" stroke="#263238" stroke-linecap="round" stroke-linejoin="round"/>
<path d="M187.431 307.572H174.049L173.076 285.221H186.445L187.431 307.572Z" fill="white" stroke="#263238" stroke-linecap="round" stroke-linejoin="round"/>
<path d="M285.742 524.145C285.742 524.145 292.751 529.843 297.787 531.374C302.824 532.906 305.459 533.789 304.368 536.203C303.278 538.617 299.76 539.487 289.467 539.708C279.174 539.928 277.188 537.735 273.242 536.631C269.296 535.528 263.819 536.631 262.066 534.451C260.314 532.27 260.963 528.96 260.963 525.456C260.963 521.951 276.098 520.419 280.044 521.73C282.024 522.328 283.935 523.138 285.742 524.145Z" fill="white" stroke="#263238" stroke-linecap="round" stroke-linejoin="round"/>
<path d="M265.791 528.531C265.791 528.531 272.372 535.54 277.85 538.604C283.327 541.667 286.391 543.874 285.08 545.405C283.769 546.937 279.602 548.91 268.634 547.82C257.666 546.729 255.485 544.302 250.228 540.577C244.971 536.851 242.557 537.293 240.805 535.32C239.053 533.347 239.053 528.96 239.053 528.96L265.791 528.531Z" fill="white" stroke="#263238" stroke-linecap="round" stroke-linejoin="round"/>
<path d="M298.67 366.322C298.67 366.322 294.776 418.488 293.192 427.912C291.609 437.335 290.116 442.605 290.337 449.173C290.558 455.741 292.53 474.601 288.585 485.789C284.639 496.978 284.691 510.555 285.08 514.501C285.469 518.447 286.832 523.704 286.612 524.587C286.391 525.469 280.044 528.961 275.436 529.844C272.54 530.376 269.605 530.667 266.661 530.713C262.202 532.288 257.569 533.321 252.864 533.79C246.283 534.231 237.288 532.258 237.288 532.258C237.288 532.258 237.288 516.033 236.405 505.506C235.522 494.979 232.511 478.118 236.184 465.398C239.858 452.677 239.04 445.928 238.78 441.722C238.521 437.517 238.78 418.709 238.56 418.047C238.339 417.385 237.028 362.596 237.028 362.596C237.028 362.596 260.911 366.101 276.916 364.569C292.92 363.038 297.086 363.038 297.086 363.038C297.086 363.038 300.643 359.092 298.67 366.322Z" fill="#263238" stroke="#263238" stroke-linecap="round" stroke-linejoin="round"/>
<path d="M267.765 527.649C267.752 524.101 267.317 520.567 266.467 517.123C265.169 512.748 264.922 497.185 265.584 490.825C266.246 484.465 269.478 468.474 269.478 459.478C269.478 450.483 270.361 436.686 270.361 436.686" stroke="white" stroke-linecap="round" stroke-linejoin="round"/>
<path d="M313.13 431.856L288.156 431.636C287.066 431.636 287.066 414.982 287.066 414.982L313.13 431.856Z" fill="white" stroke="#263238" stroke-linecap="round" stroke-linejoin="round"/>
<path d="M260.314 369.397C260.314 369.397 285.301 370.929 299.332 368.515L294.503 250.591C294.503 250.591 291.219 245.114 282.445 242.038C273.671 238.961 263.157 243.336 259.431 247.515C255.706 251.695 258.341 368.956 258.341 368.956L260.314 369.397Z" fill="#1F56C3" stroke="#263238" stroke-linecap="round" stroke-linejoin="round"/>
<path d="M261.404 242.037C261.404 242.037 236.639 254.537 232.913 256.731C229.188 258.924 229.019 266.803 229.019 270.542C229.019 274.28 230.11 440.19 230.11 440.19C239.484 440.802 248.895 439.842 257.952 437.348C266.884 435.01 275.289 430.993 282.718 425.51L278.551 336.298L273.878 258.042C273.878 258.042 271.049 236.339 261.404 242.037Z" fill="white" stroke="#263238" stroke-linecap="round" stroke-linejoin="round"/>
<path d="M268.855 233.924C268.855 233.924 263.157 234.586 260.742 237.818C259.328 239.725 258.288 241.883 257.679 244.178L255.485 263.908L262.936 262.155L259.211 270.917C259.211 270.917 262.936 281.885 267.102 291.088C271.269 300.291 277.409 319.138 277.409 319.138L274.553 260.182C274.553 260.182 274.553 243.088 273.255 239.414C271.957 235.741 270.607 233.924 268.855 233.924Z" fill="white" stroke="#263238" stroke-linecap="round" stroke-linejoin="round"/>
<path d="M283.107 245.983L287.494 424.627L313.13 431.856L309.404 295.748C309.404 295.748 310.066 260.702 307.873 255.848C305.679 250.993 285.963 241.167 283.99 241.427C282.017 241.687 283.107 245.983 283.107 245.983Z" fill="white" stroke="#263238" stroke-linecap="round" stroke-linejoin="round"/>
<path d="M283.107 237C284.703 237.389 286.196 238.12 287.482 239.142C288.768 240.163 289.818 241.452 290.557 242.919C292.751 247.734 298.449 262.648 298.449 262.648L291.219 263.518L298.891 268.996L285.301 320.072L283.769 264.79L282.471 241.997C282.471 241.997 280.913 238.311 283.107 237Z" fill="white" stroke="#263238" stroke-linecap="round" stroke-linejoin="round"/>
<path d="M267.103 226.475C267.103 226.475 267.985 232.835 266.661 236.339C265.337 239.844 270.828 250.812 273.022 257.601C275.215 264.389 277.409 269.88 278.72 269.218C280.031 268.556 284.639 242.92 284.418 239.623C284.197 236.326 286.391 226.475 286.391 226.475C286.391 226.475 274.333 229.979 267.103 226.475Z" fill="white" stroke="#263238" stroke-linecap="round" stroke-linejoin="round"/>
<path d="M251.708 219.79C258.612 219.79 264.208 213.943 264.208 206.732C264.208 199.52 258.612 193.674 251.708 193.674C244.805 193.674 239.208 199.52 239.208 206.732C239.208 213.943 244.805 219.79 251.708 219.79Z" fill="#263238" stroke="#263238" stroke-linecap="round" stroke-linejoin="round"/>
<path d="M258.12 212.87C258.12 212.87 255.927 207.172 253.292 209.366C250.657 211.559 253.292 216.375 255.265 219.231C257.238 222.086 260.963 220.762 260.535 217.933C260.181 216.065 259.349 214.321 258.12 212.87Z" fill="white" stroke="#263238" stroke-linecap="round" stroke-linejoin="round"/>
<path d="M292.05 209.328C292.05 209.328 293.153 203.85 294.646 207.575C295.307 209.035 295.611 210.63 295.534 212.23C295.458 213.83 295.002 215.389 294.205 216.778C292.907 218.972 293.114 218.751 292.673 216.778C292.328 214.308 292.12 211.821 292.05 209.328Z" fill="white" stroke="#263238" stroke-linecap="round" stroke-linejoin="round"/>
<path d="M255.044 202.318C255.044 202.318 259.211 222.476 261.846 227.305C264.481 232.133 273.242 240.285 281.134 236.949C289.026 233.613 293.413 227.525 293.413 220.075C293.413 212.624 294.503 203.201 293.192 195.075C292.531 191.376 290.626 188.012 287.794 185.541C284.962 183.07 281.372 181.639 277.616 181.485C270.594 181.265 259.639 185.211 257.445 192.233C256.308 195.505 255.504 198.884 255.044 202.318Z" fill="white" stroke="#263238" stroke-linecap="round" stroke-linejoin="round"/>
<path d="M255.265 209.769C255.265 209.769 267.544 204.94 275.436 199.021C283.328 193.103 285.742 188.728 285.742 188.728C285.742 188.728 289.467 198.801 290.999 202.098C292.531 205.395 293.842 209.107 293.842 209.107C293.842 209.107 296.256 204.94 296.256 196.127C296.256 187.314 293.842 180.343 284.574 175.735C275.306 171.127 260.249 173.983 253.422 180.564C246.594 187.145 247.944 197.879 249.697 202.046C251.068 204.937 252.955 207.554 255.265 209.769Z" fill="#263238" stroke="#263238" stroke-linecap="round" stroke-linejoin="round"/>
<path d="M282.445 201.656C282.445 201.656 281.147 201.877 281.147 205.823C281.147 209.769 282.445 216.337 282.237 217.219C282.03 218.102 279.641 220.724 278.084 219.192" stroke="#263238" stroke-linecap="round" stroke-linejoin="round"/>
<path d="M272.58 223.139C272.58 223.139 278.278 225.553 285.56 221.166" stroke="#263238" stroke-linecap="round" stroke-linejoin="round"/>
<path d="M283.328 201.19C283.328 201.19 287.948 199.424 290.999 202.072" stroke="#263238" stroke-linecap="round" stroke-linejoin="round"/>
<path d="M275.656 202.097C273.65 201.501 271.531 201.389 269.474 201.77C267.416 202.152 265.478 203.015 263.819 204.291" stroke="#263238" stroke-linecap="round" stroke-linejoin="round"/>
<path d="M272.58 208.444C272.58 209.742 272.048 210.859 271.386 210.859C270.724 210.859 270.179 209.781 270.179 208.444C270.179 207.107 270.711 206.043 271.386 206.043C272.061 206.043 272.58 207.12 272.58 208.444Z" fill="#263238"/>
<path d="M286.858 207.574C286.858 208.872 286.313 209.989 285.651 209.989C284.989 209.989 284.444 208.911 284.444 207.574C284.444 206.237 284.989 205.16 285.651 205.16C286.313 205.16 286.858 206.237 286.858 207.574Z" fill="#263238"/>
<path d="M300.863 296.397L296.97 290.037C295.866 288.285 290.83 288.947 288.416 288.947C287.161 289.078 285.954 289.497 284.889 290.173C283.823 290.848 282.929 291.762 282.276 292.841C281.407 294.593 277.461 297.449 278.992 299.201C280.524 300.953 284.69 299.85 285.352 300.291C286.014 300.733 291.492 304.458 293.465 305.12C294.514 305.505 295.636 305.651 296.749 305.548L300.863 296.397Z" stroke="#263238" stroke-linecap="round" stroke-linejoin="round"/>
<path d="M306.782 254.537C308.987 255.555 310.96 257.012 312.581 258.82C314.201 260.628 315.435 262.749 316.206 265.051C318.62 272.722 326.72 323.798 324.967 328.653C323.215 333.507 318.841 337.194 311.17 334.572C303.499 331.95 291.7 319.437 291.7 319.437L300.903 296.424L308.132 300.149L306.601 279.55" fill="white"/>
<path d="M306.782 254.537C308.987 255.555 310.96 257.012 312.581 258.82C314.201 260.628 315.435 262.749 316.206 265.051C318.62 272.722 326.72 323.798 324.967 328.653C323.215 333.507 318.841 337.194 311.17 334.572C303.499 331.95 291.7 319.437 291.7 319.437L300.903 296.424L308.132 300.149L306.601 279.55" stroke="#263238" stroke-linecap="round" stroke-linejoin="round"/>
<path d="M308.093 300.123C308.093 300.123 319.71 306.925 320.814 309.339" stroke="#263238" stroke-linecap="round" stroke-linejoin="round"/>
<path d="M293.4 269.438H251.098V328.626H293.4V269.438Z" fill="#263238" stroke="#263238" stroke-linecap="round" stroke-linejoin="round"/>
<path d="M270.179 310.65C270.179 310.65 278.278 306.263 280.693 303.848C283.107 301.434 283.548 301.252 284.859 301.252C288.085 301.252 291.308 301.031 294.503 300.59C295.801 300.149 295.165 303.186 294.503 303.874C293.841 304.562 289.688 305.419 289.688 305.419C289.688 305.419 296.697 304.757 296.918 306.951C297.075 307.58 297.055 308.24 296.86 308.858C296.665 309.477 296.303 310.03 295.814 310.455L295.165 311.117C295.165 311.117 295.814 315.712 295.165 317.906C294.516 320.099 293.192 320.761 290.337 321.19C286.526 321.433 282.699 321.215 278.94 320.541C276.747 320.099 269.296 321.631 269.296 321.631L270.179 310.65Z" fill="white" stroke="#263238" stroke-linecap="round" stroke-linejoin="round"/>
<path d="M241.026 252.785C241.026 252.785 228.046 255.628 225.891 256.939C223.736 258.25 216.468 310.429 214.936 319.243C213.404 328.056 228.526 329.77 233.108 331.522C237.69 333.274 271.282 335.857 271.282 335.857L271.723 308.677L248.489 302.758L248.269 265.272" fill="white"/>
<path d="M241.026 252.785C241.026 252.785 228.046 255.628 225.891 256.939C223.736 258.25 216.468 310.429 214.936 319.243C213.404 328.056 228.526 329.77 233.108 331.522C237.69 333.274 271.282 335.857 271.282 335.857L271.723 308.677L248.489 302.758L248.269 265.272" stroke="#263238" stroke-linecap="round" stroke-linejoin="round"/>
<path d="M248.476 302.758C248.476 302.758 240.364 299.033 235.107 301.006C229.85 302.979 225.463 313.064 225.463 313.064" stroke="#263238" stroke-linecap="round" stroke-linejoin="round"/>
<path d="M239.481 300.123C239.481 300.123 231.81 299.681 228.085 301.226C225.793 302.195 223.765 303.694 222.166 305.6" stroke="#263238" stroke-linecap="round" stroke-linejoin="round"/>
<path d="M281.134 267.465H266.233V272.293H281.134V267.465Z" fill="white" stroke="#263238" stroke-linecap="round" stroke-linejoin="round"/>
</svg>
