<svg width="658" height="658" viewBox="0 0 658 658" fill="none" xmlns="http://www.w3.org/2000/svg">
<path d="M0 503.238H658V503.567H0V503.238Z" fill="#EBEBEB"/>
<path d="M65.9316 524.413H109.518V524.742H65.9316V524.413Z" fill="#EBEBEB"/>
<path d="M222.115 527.992H233.551V528.321H222.115V527.992Z" fill="#EBEBEB"/>
<path d="M110.834 512.2H173.567V512.529H110.834V512.2Z" fill="#EBEBEB"/>
<path d="M557.8 514.411H588.963V514.74H557.8V514.411Z" fill="#EBEBEB"/>
<path d="M512.069 514.411H546.087V514.74H512.069V514.411Z" fill="#EBEBEB"/>
<path d="M399.919 519.965H484.985V520.294H399.919V519.965Z" fill="#EBEBEB"/>
<path d="M346.108 444.545H600.214C602.205 444.541 604.113 443.748 605.519 442.339C606.926 440.93 607.716 439.021 607.716 437.03V79.8284C607.698 77.8492 606.901 75.9567 605.496 74.5621C604.092 73.1675 602.194 72.3833 600.214 72.3799H346.108C344.115 72.3799 342.204 73.1716 340.795 74.5808C339.385 75.99 338.594 77.9013 338.594 79.8942V437.03C338.594 439.023 339.385 440.935 340.795 442.344C342.204 443.753 344.115 444.545 346.108 444.545ZM600.214 72.6431C602.118 72.6466 603.942 73.4051 605.287 74.7523C606.631 76.0994 607.387 77.925 607.387 79.8284V437.03C607.387 438.934 606.631 440.759 605.287 442.106C603.942 443.454 602.118 444.212 600.214 444.216H346.108C344.203 444.212 342.378 443.454 341.031 442.107C339.684 440.761 338.926 438.935 338.923 437.03V79.8284C338.926 77.9238 339.684 76.0982 341.031 74.7515C342.378 73.4047 344.203 72.6466 346.108 72.6431H600.214Z" fill="#EBEBEB"/>
<path d="M61.444 444.545H315.564C317.556 444.541 319.465 443.748 320.873 442.34C322.282 440.931 323.075 439.022 323.078 437.03V79.8284C323.057 77.848 322.257 75.9556 320.85 74.5613C319.444 73.167 317.544 72.3832 315.564 72.3799H61.444C59.467 72.3867 57.5723 73.1724 56.1707 74.5667C54.769 75.961 53.9733 77.8515 53.956 79.8284V437.03C53.956 439.019 54.744 440.926 56.1476 442.334C57.5511 443.743 59.4557 444.538 61.444 444.545ZM315.564 72.6431C317.468 72.6466 319.294 73.4047 320.641 74.7515C321.987 76.0982 322.746 77.9238 322.749 79.8284V437.03C322.746 438.935 321.987 440.761 320.641 442.107C319.294 443.454 317.468 444.212 315.564 444.216H61.444C59.5394 444.212 57.7138 443.454 56.3671 442.107C55.0203 440.761 54.2621 438.935 54.2587 437.03V79.8284C54.2621 77.9238 55.0203 76.0982 56.3671 74.7515C57.7138 73.4047 59.5394 72.6466 61.444 72.6431H315.564Z" fill="#EBEBEB"/>
<path d="M77.1044 106.596H284.993V503.238H77.1044V106.596Z" fill="#EBEBEB"/>
<path d="M92.5675 119.532H269.53V503.238H92.5675V119.532Z" fill="#F5F5F5"/>
<path d="M156.157 151.353H205.915V165.105H156.157V151.353Z" fill="white"/>
<path d="M133.745 287.967H106.754C105.637 287.967 104.566 288.411 103.776 289.201C102.986 289.99 102.543 291.062 102.543 292.178C102.543 293.295 102.986 294.366 103.776 295.156C104.566 295.946 105.637 296.39 106.754 296.39H133.745C134.862 296.39 135.933 295.946 136.723 295.156C137.513 294.366 137.956 293.295 137.956 292.178C137.956 291.062 137.513 289.99 136.723 289.201C135.933 288.411 134.862 287.967 133.745 287.967Z" fill="white"/>
<path d="M427.121 148.8H565.38V260.226H427.121V148.8Z" fill="#EBEBEB"/>
<path d="M434.556 252.803V156.222H557.971V252.803H434.556Z" fill="#FAFAFA"/>
<path d="M448.94 205.783V201.164H543.574V205.783H448.94Z" fill="#E0E0E0"/>
<path d="M448.94 216.297V211.678H543.574V216.297H448.94Z" fill="#E0E0E0"/>
<path d="M448.94 226.799V222.18H543.574V226.799H448.94Z" fill="#E0E0E0"/>
<path d="M472.668 237.314V232.695H519.846V237.314H472.668Z" fill="#E0E0E0"/>
<path d="M543.508 156.223C543.508 158.119 543.883 159.997 544.612 161.748C545.34 163.5 546.408 165.089 547.753 166.426C549.099 167.763 550.695 168.821 552.451 169.538C554.207 170.256 556.087 170.619 557.984 170.606C560.601 170.613 563.169 169.898 565.406 168.54V148.8H545.666C544.283 151.031 543.537 153.598 543.508 156.223Z" fill="#EBEBEB"/>
<path d="M427.121 148.8V168.54C429.872 170.195 433.098 170.882 436.285 170.492C439.471 170.101 442.436 168.656 444.706 166.385C446.976 164.115 448.422 161.151 448.812 157.964C449.203 154.777 448.516 151.551 446.861 148.8H427.121Z" fill="#EBEBEB"/>
<path d="M543.508 252.817C543.503 255.428 544.213 257.99 545.561 260.226H565.301V240.486C563.118 239.179 560.627 238.473 558.082 238.442C555.538 238.411 553.03 239.054 550.815 240.308C548.6 241.561 546.757 243.379 545.474 245.576C544.19 247.774 543.512 250.272 543.508 252.817Z" fill="#EBEBEB"/>
<path d="M427.121 240.472V260.212H446.861C448.219 257.98 448.934 255.416 448.927 252.803C448.924 250.255 448.246 247.753 446.961 245.553C445.676 243.352 443.83 241.531 441.613 240.277C439.395 239.022 436.884 238.378 434.335 238.41C431.787 238.442 429.293 239.149 427.108 240.459L427.121 240.472Z" fill="#EBEBEB"/>
<path d="M484.158 181.718C483.074 175.039 487.61 168.745 494.289 167.661C500.968 166.577 507.261 171.112 508.346 177.792C509.43 184.471 504.894 190.764 498.215 191.848C491.536 192.933 485.242 188.397 484.158 181.718Z" fill="#E0E0E0"/>
<path d="M315.393 344.989H588.963V354.833H315.393V344.989Z" fill="#EBEBEB"/>
<path d="M317.761 354.833H406.644V503.238H317.761V354.833Z" fill="#F5F5F5"/>
<path d="M496.698 354.833H585.581V503.238H496.698V354.833Z" fill="#F5F5F5"/>
<path d="M582.541 354.833H585.581V503.238H582.541V354.833Z" fill="#EBEBEB"/>
<path d="M403.604 354.833H406.644V503.238H403.604V354.833Z" fill="#EBEBEB"/>
<path d="M538.902 321.262H555.247L553.931 344.989H540.218L538.902 321.262Z" fill="#F0F0F0"/>
<path d="M396.998 334.698H482.393V344.989H396.998V334.698Z" fill="#F0F0F0"/>
<path d="M396.985 335.909H436.359V343.792H396.985V335.909Z" fill="#FAFAFA"/>
<path d="M329 562.669C188.079 562.669 73.8408 556 73.8408 547.772C73.8408 539.545 188.079 532.875 329 532.875C469.921 532.875 584.159 539.545 584.159 547.772C584.159 556 469.921 562.669 329 562.669Z" fill="#F5F5F5"/>
<path d="M209.626 455.625C186.601 455.625 167.935 436.96 167.935 413.935C167.935 390.909 186.601 372.244 209.626 372.244C232.651 372.244 251.317 390.909 251.317 413.935C251.317 436.96 232.651 455.625 209.626 455.625Z" fill="white"/>
<path d="M209.626 456.139C217.973 456.141 226.135 453.668 233.077 449.032C240.019 444.397 245.43 437.806 248.627 430.095C251.823 422.383 252.661 413.897 251.034 405.709C249.407 397.521 245.388 390 239.486 384.096C233.585 378.193 226.064 374.172 217.877 372.542C209.69 370.913 201.204 371.748 193.491 374.942C185.779 378.136 179.186 383.545 174.548 390.486C169.91 397.427 167.435 405.587 167.435 413.935C167.445 425.122 171.893 435.849 179.803 443.761C187.713 451.673 198.438 456.125 209.626 456.139ZM209.626 372.77C217.77 372.77 225.732 375.185 232.504 379.711C239.276 384.236 244.554 390.668 247.67 398.193C250.786 405.718 251.601 413.998 250.011 421.986C248.421 429.974 244.498 437.311 238.738 443.069C232.978 448.828 225.64 452.748 217.651 454.336C209.662 455.923 201.383 455.106 193.859 451.987C186.335 448.869 179.904 443.589 175.381 436.815C170.858 430.042 168.445 422.079 168.448 413.935C168.459 403.018 172.801 392.552 180.521 384.834C188.242 377.116 198.709 372.777 209.626 372.77Z" fill="#407BFF"/>
<path d="M202.914 390.299H216.337V437.57H202.914V390.299Z" fill="#407BFF"/>
<path d="M185.99 420.66V407.236H233.261V420.66H185.99Z" fill="#407BFF"/>
<path d="M492.039 98.7922L492.934 97.8315C486.842 92.0727 479.112 88.348 470.812 87.1719L470.628 88.4879C478.661 89.6207 486.143 93.2215 492.039 98.7922Z" fill="#407BFF"/>
<path d="M501.778 113.176L503.002 112.702C501.673 109.35 499.903 106.19 497.738 103.306L496.685 104.096C498.773 106.886 500.485 109.939 501.778 113.176Z" fill="#407BFF"/>
<path d="M465.061 163.592C445.118 163.592 428.95 147.425 428.95 127.481C428.95 107.538 445.118 91.3701 465.061 91.3701C485.005 91.3701 501.172 107.538 501.172 127.481C501.172 147.425 485.005 163.592 465.061 163.592Z" fill="#407BFF"/>
<path d="M443.492 111.215C444.883 109.771 446.548 108.619 448.389 107.826C450.23 107.034 452.211 106.616 454.215 106.597C456.22 106.579 458.208 106.96 460.064 107.719C461.919 108.478 463.605 109.6 465.022 111.018C466.438 109.6 468.122 108.479 469.977 107.72C471.831 106.961 473.818 106.58 475.822 106.598C477.825 106.617 479.805 107.035 481.645 107.827C483.485 108.62 485.149 109.772 486.538 111.215C489.262 114.161 490.729 118.053 490.628 122.063C490.527 126.074 488.867 129.887 485.999 132.692L468.891 149.8C468.378 150.314 467.768 150.721 467.098 150.999C466.427 151.276 465.708 151.419 464.982 151.419C464.256 151.419 463.538 151.276 462.867 150.999C462.196 150.721 461.587 150.314 461.074 149.8L443.966 132.692C441.107 129.878 439.458 126.06 439.37 122.05C439.281 118.039 440.76 114.153 443.492 111.215Z" fill="white"/>
<path d="M465.061 143.26C465.327 143.251 465.583 143.162 465.797 143.004C466.01 142.847 466.172 142.629 466.259 142.378L473.879 120.098L477.063 129.415C477.154 129.674 477.323 129.899 477.547 130.057C477.771 130.215 478.039 130.299 478.314 130.297H491.066C491.415 130.297 491.749 130.159 491.996 129.912C492.243 129.665 492.382 129.33 492.382 128.981C492.382 128.632 492.243 128.297 491.996 128.051C491.749 127.804 491.415 127.665 491.066 127.665H479.222L475.089 115.597C475 115.339 474.832 115.115 474.609 114.956C474.386 114.797 474.119 114.712 473.846 114.712C473.572 114.712 473.305 114.797 473.082 114.956C472.859 115.115 472.692 115.339 472.602 115.597L464.851 138.272L457.323 120.546C457.228 120.32 457.072 120.125 456.872 119.983C456.672 119.841 456.436 119.758 456.192 119.743C455.945 119.729 455.7 119.784 455.483 119.903C455.267 120.022 455.088 120.199 454.968 120.414L450.993 127.652H439.005C438.656 127.652 438.321 127.791 438.074 128.037C437.827 128.284 437.689 128.619 437.689 128.968C437.689 129.317 437.827 129.652 438.074 129.899C438.321 130.145 438.656 130.284 439.005 130.284H451.757C451.992 130.286 452.224 130.225 452.427 130.107C452.631 129.989 452.799 129.818 452.915 129.613L456.034 124.033L463.851 142.457C463.951 142.695 464.12 142.898 464.335 143.041C464.551 143.183 464.803 143.26 465.061 143.26Z" fill="#407BFF"/>
<path d="M264.7 501.659H402.051C404.289 501.684 406.508 501.243 408.566 500.364C410.625 499.485 412.478 498.187 414.008 496.553C415.537 494.92 416.71 492.985 417.452 490.874C418.194 488.762 418.489 486.519 418.317 484.288L396.116 155.288C395.728 150.589 393.608 146.202 390.166 142.98C386.725 139.758 382.209 137.929 377.495 137.851H240.117C237.873 137.825 235.649 138.268 233.585 139.151C231.522 140.034 229.666 141.337 228.135 142.978C226.604 144.619 225.433 146.562 224.695 148.681C223.958 150.801 223.67 153.051 223.852 155.288L246.092 484.288C246.492 488.973 248.617 493.344 252.054 496.553C255.492 499.762 259.998 501.581 264.7 501.659Z" fill="#263238"/>
<path d="M234.248 271.833H237.709C238.336 271.841 238.957 271.717 239.533 271.471C240.109 271.224 240.628 270.86 241.055 270.402C241.483 269.944 241.81 269.401 242.015 268.809C242.221 268.217 242.3 267.588 242.249 266.964L237.998 204.072C237.9 202.757 237.311 201.527 236.348 200.625C235.385 199.723 234.119 199.216 232.8 199.203H229.339C228.713 199.195 228.091 199.319 227.515 199.565C226.939 199.812 226.42 200.176 225.993 200.634C225.565 201.092 225.238 201.635 225.033 202.227C224.827 202.819 224.748 203.448 224.799 204.072L229.05 266.964C229.149 268.279 229.738 269.509 230.7 270.411C231.663 271.313 232.929 271.82 234.248 271.833Z" fill="#263238"/>
<path d="M398.116 229.879H401.564C402.074 229.886 402.58 229.786 403.05 229.587C403.52 229.388 403.943 229.094 404.293 228.723C404.644 228.352 404.913 227.912 405.084 227.431C405.255 226.951 405.325 226.44 405.288 225.931L403.749 203.217C403.652 202.15 403.164 201.157 402.379 200.429C401.595 199.7 400.569 199.287 399.498 199.269H396.037C395.528 199.266 395.025 199.368 394.557 199.568C394.09 199.769 393.669 200.063 393.321 200.434C392.973 200.804 392.704 201.243 392.533 201.721C392.362 202.2 392.291 202.709 392.326 203.217L393.866 225.931C393.96 226.998 394.447 227.993 395.232 228.722C396.017 229.451 397.045 229.863 398.116 229.879Z" fill="#407BFF"/>
<path d="M400.854 270.438H404.315C404.824 270.443 405.328 270.342 405.797 270.142C406.265 269.943 406.687 269.648 407.035 269.277C407.384 268.906 407.652 268.467 407.822 267.987C407.993 267.507 408.062 266.998 408.026 266.49L406.486 243.776C406.389 242.709 405.901 241.717 405.117 240.988C404.332 240.259 403.306 239.846 402.235 239.828H398.748C398.239 239.825 397.736 239.927 397.268 240.127C396.801 240.328 396.38 240.622 396.032 240.993C395.684 241.363 395.415 241.802 395.244 242.281C395.073 242.759 395.002 243.268 395.037 243.776L396.577 266.49C396.671 267.562 397.162 268.56 397.953 269.29C398.743 270.02 399.777 270.429 400.854 270.438Z" fill="#407BFF"/>
<path d="M267.609 501.659H404.959C407.198 501.684 409.416 501.243 411.475 500.364C413.533 499.485 415.386 498.187 416.916 496.553C418.446 494.92 419.619 492.985 420.361 490.874C421.103 488.762 421.397 486.519 421.225 484.288L399.011 155.288C398.61 150.587 396.474 146.204 393.02 142.991C389.567 139.778 385.041 137.965 380.324 137.903H243.026C240.786 137.878 238.567 138.32 236.507 139.199C234.448 140.079 232.594 141.378 231.064 143.013C229.534 144.648 228.361 146.584 227.62 148.698C226.879 150.811 226.586 153.055 226.76 155.288L248.987 484.288C249.388 488.976 251.514 493.348 254.954 496.557C258.395 499.767 262.904 501.585 267.609 501.659Z" fill="#407BFF"/>
<path opacity="0.3" d="M419.778 480.603L398.09 159.552H228.247L249.935 480.603H419.778Z" fill="white"/>
<path opacity="0.1" d="M352.727 480.603L292.112 159.552H254.067L314.682 480.603H352.727Z" fill="white"/>
<path opacity="0.1" d="M381.469 480.603L320.854 159.552H301.575L362.189 480.603H381.469Z" fill="white"/>
<path d="M328.816 145.971H295.692C295.415 145.966 295.141 146.019 294.887 146.127C294.632 146.235 294.403 146.396 294.214 146.598C294.026 146.8 293.882 147.04 293.792 147.301C293.702 147.563 293.668 147.84 293.692 148.116C293.737 148.695 293.997 149.238 294.42 149.636C294.843 150.035 295.4 150.263 295.981 150.274H329.105C329.382 150.277 329.657 150.222 329.911 150.112C330.166 150.002 330.395 149.841 330.583 149.638C330.772 149.434 330.915 149.194 331.005 148.932C331.095 148.67 331.129 148.392 331.106 148.116C331.06 147.537 330.799 146.996 330.376 146.6C329.952 146.203 329.396 145.979 328.816 145.971Z" fill="white"/>
<path d="M335.712 533.309L347.319 534.414L351.504 507.634L339.897 506.515L335.712 533.309Z" fill="#FFB573"/>
<path d="M348.648 528.742L336.488 524.965C336.278 524.893 336.049 524.904 335.847 524.997C335.646 525.091 335.489 525.258 335.409 525.466L331.461 535.112C331.363 535.37 331.319 535.646 331.333 535.923C331.347 536.199 331.418 536.469 331.542 536.716C331.666 536.964 331.839 537.183 332.052 537.359C332.264 537.536 332.511 537.667 332.777 537.744C337.172 539.06 341.357 539.362 346.661 541.692C352.859 544.324 355.452 547.851 362.124 547.851C366.901 547.851 367.98 543.468 365.953 542.863C356.741 540.073 357.952 537.783 351.267 530.585C350.571 529.75 349.668 529.115 348.648 528.742Z" fill="#263238"/>
<path opacity="0.2" d="M351.504 507.634L349.345 521.452L337.725 520.333L339.883 506.515L351.504 507.634Z" fill="black"/>
<path d="M343.107 169.237C358.333 167.448 373.481 168.645 388.68 171.593C391.213 172.085 393.524 173.37 395.277 175.263C397.03 177.156 398.135 179.558 398.432 182.121C400.077 196.676 401.959 229.3 394.616 277.965L332.395 272.701C332.277 263.871 338.554 223.641 333.369 181.897C333.157 180.424 333.242 178.923 333.619 177.483C333.997 176.042 334.659 174.692 335.567 173.512C336.474 172.332 337.609 171.346 338.904 170.612C340.2 169.878 341.629 169.41 343.107 169.237Z" fill="white"/>
<path d="M379.337 181.713L377.113 186.161C377.009 186.386 376.844 186.576 376.637 186.711C376.43 186.846 376.189 186.92 375.942 186.924L373.533 187.056C373.104 187.075 372.681 186.944 372.336 186.688L368.19 183.595L373.31 179.871L379.337 181.713Z" fill="#263238"/>
<path d="M373.454 185.779C374.332 185.373 375.326 185.293 376.257 185.556C378.218 192.465 380.363 212.297 380.587 221.088C374.639 238.419 372.691 240.17 372.691 240.17L369.677 219.311C369.677 219.311 373.06 197.979 373.454 185.779Z" fill="#263238"/>
<path d="M356.281 139.232C357.702 147.813 358.913 163.486 352.754 169.027C357.268 173.764 363.176 179.252 373.31 179.87C383.443 180.489 381.877 173.475 379.311 169.724C369.849 167.197 370.309 160.144 372.165 153.551L356.281 139.232Z" fill="#FFB573"/>
<path d="M350.174 168.277C350.892 167.967 351.636 167.725 352.398 167.553C352.585 167.503 352.782 167.517 352.961 167.59C353.139 167.664 353.288 167.794 353.385 167.961C354.359 169.619 357.333 177.028 373.31 179.871C370.678 181.423 367.19 186.24 365.69 188.556C360.9 186.069 348.437 178.633 349.622 169.014C349.646 168.855 349.709 168.704 349.805 168.576C349.902 168.447 350.029 168.344 350.174 168.277Z" fill="#F5F5F5"/>
<path d="M379.218 170.119C379.185 169.969 379.189 169.813 379.231 169.666C379.273 169.518 379.351 169.383 379.458 169.273C379.565 169.163 379.698 169.082 379.845 169.037C379.991 168.991 380.147 168.983 380.298 169.013C380.851 169.121 381.396 169.266 381.929 169.448C382.053 169.496 382.168 169.562 382.272 169.645C383.495 170.777 390.168 180.41 383.917 188.201C382.601 186.082 378.06 181.279 373.31 179.87C377.81 177.844 380.021 174.067 379.218 170.119Z" fill="#F5F5F5"/>
<path opacity="0.2" d="M362.755 145.076L372.152 153.551C371.699 155.081 371.382 156.649 371.204 158.236C367.572 157.617 362.69 153.498 362.426 149.682C362.249 148.139 362.36 146.577 362.755 145.076Z" fill="black"/>
<path d="M375.31 113.294C383.417 116.466 383.943 123.125 383.206 130.402C382.469 137.68 374.547 132.863 372.783 128.31C371.02 123.757 364.085 108.899 375.31 113.294Z" fill="#263238"/>
<path d="M349.451 127.81C351.701 139.272 352.451 146.076 359.005 151.353C368.888 159.249 382.272 152.432 383.456 140.614C384.522 129.968 380.666 112.978 368.862 109.662C366.287 108.904 363.56 108.831 360.948 109.45C358.337 110.069 355.932 111.358 353.972 113.191C352.012 115.024 350.564 117.336 349.771 119.9C348.978 122.464 348.867 125.19 349.451 127.81Z" fill="#FFB573"/>
<path d="M349.924 137.298C359.571 137.811 357.531 132.337 355.781 129.192C354.03 126.046 357.597 120.848 355.267 118.15C359.426 119.808 363.808 118.44 369.375 114.571C373.691 111.557 379.1 123.599 384.364 117.558C389.339 111.86 384.719 103.266 372.77 101.885C360.821 100.503 358.649 108.951 350.806 108.201C342.963 107.451 345.687 113.913 347.227 115.229C340.647 115.663 337.054 121.954 349.924 137.298Z" fill="#263238"/>
<path d="M348.74 116.032C347.231 115.204 345.97 113.988 345.089 112.509C344.207 111.031 343.737 109.344 343.726 107.623C341.12 112.189 341.397 117.374 348.74 116.032Z" fill="#263238"/>
<path d="M373.744 140.049C372.695 140.23 371.621 140.198 370.585 139.954C369.549 139.709 368.574 139.258 367.717 138.628C367.691 138.603 367.67 138.573 367.656 138.541C367.642 138.508 367.635 138.472 367.635 138.437C367.635 138.401 367.642 138.366 367.656 138.333C367.67 138.3 367.691 138.27 367.717 138.246C367.768 138.197 367.836 138.169 367.908 138.169C367.979 138.169 368.047 138.197 368.098 138.246C369.058 138.926 370.163 139.374 371.325 139.555C372.488 139.735 373.676 139.643 374.797 139.286C374.868 139.268 374.944 139.277 375.009 139.311C375.075 139.344 375.125 139.401 375.152 139.47C375.173 139.54 375.165 139.615 375.13 139.679C375.096 139.743 375.037 139.791 374.968 139.812C374.568 139.927 374.158 140.007 373.744 140.049Z" fill="#263238"/>
<path d="M347.121 140.812C348.923 143.134 351.565 144.656 354.478 145.049C358.307 145.549 359.584 141.983 357.978 138.653C356.518 135.653 352.714 131.784 349.187 132.824C345.661 133.863 344.91 137.917 347.121 140.812Z" fill="#FFB573"/>
<path d="M350.925 390.023C350.464 355.662 346.069 273.82 346.069 273.82L394.576 277.913C394.576 277.913 384.93 362.255 379.113 397.313C373.06 433.753 354.491 519.122 354.491 519.122L334.751 517.438C334.751 517.438 341.963 416.593 350.925 390.023Z" fill="#263238"/>
<path d="M355.675 519.662L332.264 517.675L333.185 510.121L357.583 511.753L355.675 519.662Z" fill="#407BFF"/>
<path d="M366.743 128.494C366.861 129.429 367.467 130.139 368.059 130.073C368.651 130.008 369.059 129.192 368.927 128.244C368.796 127.297 368.204 126.599 367.611 126.665C367.019 126.731 366.611 127.56 366.743 128.494Z" fill="#263238"/>
<path d="M377.481 127.652C377.6 128.599 378.205 129.297 378.797 129.231C379.39 129.165 379.798 128.349 379.666 127.415C379.534 126.481 378.942 125.77 378.35 125.836C377.758 125.902 377.35 126.665 377.481 127.652Z" fill="#263238"/>
<path d="M374.455 128.757C376.04 131.193 377.943 133.405 380.113 135.337C378.718 136.798 375.836 136.403 375.836 136.403L374.455 128.757Z" fill="#ED893E"/>
<path opacity="0.4" d="M384.272 127.889C384.469 129.389 382.956 130.639 380.864 130.902C378.771 131.166 376.837 130.021 376.652 128.52" fill="#407BFF"/>
<path opacity="0.4" d="M371.836 129.284C372.125 130.771 370.664 132.113 368.612 132.508C366.559 132.903 364.545 131.85 364.269 130.376" fill="#407BFF"/>
<path d="M367.796 132.916C368.032 132.929 368.27 132.929 368.506 132.916C369.518 132.795 370.468 132.368 371.23 131.692C371.563 131.407 371.823 131.048 371.987 130.642C372.152 130.237 372.218 129.798 372.178 129.362C372.846 129.072 373.557 128.894 374.284 128.836C375.014 128.654 375.777 128.654 376.508 128.836C376.692 130.441 378.692 131.547 380.929 131.271C381.941 131.16 382.893 130.737 383.653 130.06C383.984 129.774 384.243 129.414 384.408 129.009C384.572 128.604 384.639 128.166 384.601 127.73L383.969 127.809C383.996 128.146 383.942 128.484 383.811 128.795C383.681 129.107 383.478 129.382 383.219 129.599C382.556 130.183 381.729 130.546 380.85 130.639C378.955 130.889 377.271 130.007 377.1 128.691C377.008 127.954 375.481 128.007 374.218 128.165C372.954 128.323 371.454 128.678 371.586 129.402C371.613 129.738 371.56 130.077 371.429 130.388C371.299 130.7 371.095 130.975 370.836 131.192C370.165 131.767 369.34 132.134 368.463 132.246C367.586 132.358 366.695 132.211 365.901 131.823C365.594 131.681 365.326 131.466 365.12 131.198C364.914 130.93 364.775 130.616 364.716 130.284V129.968L348.477 132.06L348.556 132.692L364.19 130.678C364.303 131.045 364.49 131.384 364.739 131.676C364.988 131.968 365.294 132.206 365.637 132.376C366.302 132.728 367.043 132.913 367.796 132.916Z" fill="#263238"/>
<path d="M362.611 124.362C362.517 124.362 362.425 124.335 362.347 124.283C362.22 124.209 362.126 124.087 362.086 123.944C362.047 123.802 362.065 123.649 362.137 123.52C362.545 122.754 363.135 122.101 363.856 121.619C364.577 121.137 365.406 120.841 366.269 120.756C366.417 120.749 366.562 120.8 366.673 120.898C366.783 120.997 366.851 121.135 366.861 121.282C366.869 121.427 366.819 121.568 366.723 121.677C366.627 121.785 366.492 121.851 366.348 121.861C365.665 121.942 365.012 122.187 364.446 122.577C363.879 122.967 363.416 123.489 363.098 124.099C363.048 124.182 362.976 124.251 362.89 124.297C362.805 124.344 362.708 124.366 362.611 124.362Z" fill="#263238"/>
<path d="M380.956 122.874C380.865 122.883 380.773 122.87 380.688 122.836C380.603 122.801 380.528 122.747 380.469 122.677C380.043 122.12 379.493 121.67 378.862 121.364C378.231 121.057 377.538 120.903 376.837 120.914C376.764 120.921 376.691 120.914 376.621 120.892C376.551 120.871 376.486 120.836 376.43 120.79C376.373 120.743 376.327 120.686 376.293 120.621C376.259 120.557 376.238 120.486 376.231 120.413C376.222 120.343 376.227 120.27 376.246 120.201C376.265 120.132 376.297 120.068 376.341 120.012C376.386 119.955 376.44 119.908 376.503 119.873C376.565 119.838 376.634 119.816 376.705 119.808C377.589 119.785 378.466 119.969 379.266 120.346C380.066 120.724 380.766 121.283 381.311 121.979C381.405 122.091 381.451 122.236 381.438 122.381C381.426 122.527 381.357 122.661 381.245 122.756C381.159 122.818 381.06 122.858 380.956 122.874Z" fill="#263238"/>
<path d="M310.51 384.483C320.578 332.737 322.841 292.27 332.395 272.623L379.39 277.887C379.39 277.887 351.398 354.991 337.725 387.904C323.525 422.12 295.495 480.577 295.495 480.577H272.017C272.017 480.577 293.929 408.052 310.51 384.483Z" fill="#263238"/>
<path d="M459.468 188.596L464.548 185.385C465.372 184.853 466.356 184.625 467.33 184.738C468.304 184.85 469.21 185.298 469.891 186.003L473.339 189.635C473.71 190.027 473.997 190.491 474.182 190.999C474.367 191.506 474.446 192.046 474.414 192.585C474.382 193.124 474.239 193.651 473.996 194.133C473.752 194.614 473.412 195.041 472.997 195.386L470.536 197.492C468.395 199.306 465.898 200.651 463.206 201.44L455.77 203.638L450.888 198.374C449.401 192.886 459.468 188.596 459.468 188.596Z" fill="#FFB573"/>
<path d="M384.272 186.135C386.114 190.635 387.917 194.82 389.878 199.097C391.839 203.374 393.826 207.599 396.024 211.797C398.222 215.995 400.564 220.166 403.222 224.351C404.538 226.431 405.999 228.51 407.657 230.602C409.44 232.909 411.47 235.014 413.711 236.88C415.191 238.089 416.823 239.098 418.567 239.88C419.12 240.091 419.633 240.301 420.238 240.485L421.159 240.735C421.623 240.849 422.093 240.933 422.568 240.986C424.172 241.166 425.796 241.05 427.358 240.643C429.311 240.097 431.167 239.249 432.859 238.13C434.126 237.339 435.335 236.46 436.478 235.498C440.276 232.182 443.776 228.54 446.94 224.614C450.006 220.93 452.901 217.232 455.678 213.455C458.455 209.678 461.126 205.967 463.864 202.006L449.309 192.609C444.715 200.024 439.633 207.124 434.096 213.863C431.55 216.984 428.746 219.885 425.713 222.535C425.125 223.016 424.505 223.456 423.857 223.851C423.37 224.18 422.883 224.312 423.226 224.193C423.688 224.066 424.173 224.039 424.647 224.114C424.838 224.132 425.028 224.167 425.213 224.22H425.318C425.384 224.22 425.384 224.22 425.397 224.22C425.098 224.024 424.812 223.809 424.542 223.575C423.34 222.485 422.251 221.277 421.291 219.969C420.172 218.469 419.054 216.784 417.988 215.034C415.809 211.395 413.824 207.643 412.04 203.795C410.197 199.847 408.421 195.899 406.776 191.793C405.131 187.688 403.565 183.516 402.235 179.528L384.272 186.135Z" fill="#407BFF"/>
<g opacity="0.6">
<path opacity="0.6" d="M384.272 186.135C386.114 190.635 387.917 194.82 389.878 199.097C391.839 203.374 393.826 207.599 396.024 211.797C398.222 215.995 400.564 220.166 403.222 224.351C404.538 226.431 405.999 228.51 407.657 230.602C409.44 232.909 411.47 235.014 413.711 236.88C415.191 238.089 416.823 239.098 418.567 239.88C419.12 240.091 419.633 240.301 420.238 240.485L421.159 240.735C421.623 240.849 422.093 240.933 422.568 240.986C424.172 241.166 425.796 241.05 427.358 240.643C429.311 240.097 431.167 239.249 432.859 238.13C434.126 237.339 435.335 236.46 436.478 235.498C440.276 232.182 443.776 228.54 446.94 224.614C450.006 220.93 452.901 217.232 455.678 213.455C458.455 209.678 461.126 205.967 463.864 202.006L449.309 192.609C444.715 200.024 439.633 207.124 434.096 213.863C431.55 216.984 428.746 219.885 425.713 222.535C425.125 223.016 424.505 223.456 423.857 223.851C423.37 224.18 422.883 224.312 423.226 224.193C423.688 224.066 424.173 224.039 424.647 224.114C424.838 224.132 425.028 224.167 425.213 224.22H425.318C425.384 224.22 425.384 224.22 425.397 224.22C425.098 224.024 424.812 223.809 424.542 223.575C423.34 222.485 422.251 221.277 421.291 219.969C420.172 218.469 419.054 216.784 417.988 215.034C415.809 211.395 413.824 207.643 412.04 203.795C410.197 199.847 408.421 195.899 406.776 191.793C405.131 187.688 403.565 183.516 402.235 179.528L384.272 186.135Z" fill="white"/>
</g>
<path d="M349.819 165.934C354.754 175.146 372.323 210.244 374.455 231.905C382.232 212.165 380.534 168.5 380.534 168.5C386.077 169.041 391.515 170.37 396.682 172.448C398.347 173.132 399.79 174.264 400.852 175.718C401.913 177.172 402.552 178.892 402.696 180.686C404.211 203.28 403.497 225.968 400.564 248.421C395.103 290.928 390.036 357.03 390.036 357.03C390.036 357.03 346.542 355.214 312.984 348.134C317.077 315.642 331.079 261.186 331.211 246.605C331.369 227.839 330.934 191.149 330.342 175.83C330.243 173.668 330.921 171.541 332.253 169.834C333.585 168.128 335.484 166.954 337.607 166.526C341.632 165.78 345.74 165.581 349.819 165.934Z" fill="#407BFF"/>
<path opacity="0.7" d="M349.819 165.934C354.754 175.146 372.323 210.244 374.455 231.905C382.232 212.165 380.534 168.5 380.534 168.5C386.077 169.041 391.515 170.37 396.682 172.448C398.347 173.132 399.79 174.264 400.852 175.718C401.913 177.172 402.552 178.892 402.696 180.686C404.211 203.28 403.497 225.968 400.564 248.421C395.103 290.928 390.036 357.03 390.036 357.03C390.036 357.03 346.542 355.214 312.984 348.134C317.077 315.642 331.079 261.186 331.211 246.605C331.369 227.839 330.934 191.136 330.342 175.817C330.218 173.72 330.837 171.647 332.092 169.962C333.346 168.277 335.154 167.088 337.199 166.605C341.353 165.791 345.602 165.565 349.819 165.934Z" fill="white"/>
<path d="M360.071 349.977C367.625 308.299 373.612 247.145 374.099 239.788H373.428C372.941 247.145 366.94 308.22 359.4 349.898L360.071 349.977Z" fill="white"/>
<path d="M363.835 275.833H403.946C404.756 275.797 405.533 275.499 406.159 274.984C406.785 274.469 407.228 273.765 407.42 272.978L420.831 210.639C420.929 210.298 420.945 209.94 420.877 209.592C420.81 209.244 420.661 208.918 420.442 208.639C420.224 208.36 419.942 208.137 419.621 207.988C419.299 207.839 418.947 207.769 418.593 207.783H378.495C377.683 207.817 376.903 208.113 376.274 208.629C375.645 209.144 375.201 209.849 375.007 210.639L361.597 272.978C361.499 273.318 361.483 273.677 361.551 274.024C361.618 274.372 361.767 274.699 361.986 274.978C362.204 275.256 362.486 275.479 362.807 275.628C363.128 275.777 363.481 275.847 363.835 275.833Z" fill="white"/>
<path d="M365.085 276.36H405.881C406.705 276.322 407.496 276.018 408.134 275.493C408.772 274.969 409.223 274.253 409.421 273.452L423.068 210.06C423.165 209.712 423.18 209.347 423.109 208.993C423.039 208.639 422.886 208.307 422.662 208.023C422.439 207.74 422.152 207.513 421.825 207.361C421.497 207.21 421.138 207.138 420.778 207.152H379.982C379.157 207.19 378.367 207.494 377.729 208.018C377.091 208.542 376.639 209.258 376.442 210.06L362.808 273.452C362.708 273.798 362.691 274.163 362.76 274.517C362.828 274.872 362.98 275.204 363.202 275.488C363.424 275.772 363.711 276 364.038 276.151C364.366 276.303 364.724 276.374 365.085 276.36Z" fill="#407BFF"/>
<path d="M360.413 240.591L370.559 240.209C371.779 240.167 372.994 240.382 374.126 240.841L379.39 242.947C379.883 243.142 380.333 243.435 380.711 243.809C381.088 244.182 381.387 244.628 381.589 245.119C381.79 245.611 381.89 246.138 381.883 246.669C381.876 247.2 381.762 247.725 381.548 248.211L379.442 252.764C379.017 253.647 378.301 254.357 377.414 254.774C376.528 255.191 375.524 255.29 374.573 255.054L368.769 253.606C368.769 253.606 357.873 252.738 357.478 247.026L360.413 240.591Z" fill="#FFB573"/>
<path d="M332.395 171.58C329.882 175.528 327.579 179.134 325.315 183.003C323.052 186.872 320.828 190.702 318.735 194.702C316.643 198.703 314.656 202.835 312.853 207.257C311.917 209.572 311.117 211.941 310.458 214.35C309.609 217.286 309.219 220.336 309.3 223.391V223.904C309.295 223.992 309.295 224.08 309.3 224.167C309.3 224.641 309.431 225.115 309.523 225.589C309.615 226.062 309.734 226.431 309.865 226.905C309.997 227.378 310.142 227.629 310.287 227.997C310.79 229.136 311.435 230.206 312.208 231.182C313.283 232.525 314.506 233.744 315.853 234.814C317.923 236.444 320.124 237.901 322.433 239.17C326.496 241.391 330.678 243.386 334.962 245.144C339.107 246.908 343.239 248.513 347.398 250.027C351.556 251.54 355.649 253.001 359.979 254.449L364.993 237.867C361.045 236.788 357.018 235.459 353.083 234.116C349.148 232.774 345.187 231.274 341.449 229.708C337.782 228.193 334.205 226.466 330.737 224.536C329.274 223.725 327.879 222.796 326.565 221.759C326.22 221.498 325.911 221.192 325.644 220.851C325.758 220.979 325.847 221.126 325.907 221.285C325.907 221.404 325.973 221.483 326.039 221.628C326.091 221.782 326.13 221.941 326.158 222.101C326.213 222.304 326.248 222.511 326.263 222.72C326.263 222.799 326.263 222.812 326.263 222.786V222.694C326.355 221.445 326.598 220.212 326.987 219.022C327.513 217.299 328.137 215.607 328.855 213.955C330.464 210.313 332.283 206.767 334.304 203.335C336.357 199.808 338.541 196.281 340.884 192.807C343.226 189.333 345.621 185.872 348.029 182.713L332.395 171.58Z" fill="#407BFF"/>
<g opacity="0.7">
<path opacity="0.7" d="M332.395 171.58C329.882 175.528 327.579 179.134 325.315 183.003C323.052 186.872 320.828 190.702 318.735 194.702C316.643 198.703 314.656 202.835 312.853 207.257C311.917 209.572 311.117 211.941 310.458 214.35C309.609 217.286 309.219 220.336 309.3 223.391V223.904C309.295 223.992 309.295 224.08 309.3 224.167C309.3 224.641 309.431 225.115 309.523 225.589C309.615 226.062 309.734 226.431 309.865 226.905C309.997 227.378 310.142 227.629 310.287 227.997C310.79 229.136 311.435 230.206 312.208 231.182C313.283 232.525 314.506 233.744 315.853 234.814C317.923 236.444 320.124 237.901 322.433 239.17C326.496 241.391 330.678 243.386 334.962 245.144C339.107 246.908 343.239 248.513 347.398 250.027C351.556 251.54 355.649 253.001 359.979 254.449L364.993 237.867C361.045 236.788 357.018 235.459 353.083 234.116C349.148 232.774 345.187 231.274 341.449 229.708C337.782 228.193 334.205 226.466 330.737 224.536C329.274 223.725 327.879 222.796 326.565 221.759C326.22 221.498 325.911 221.192 325.644 220.851C325.758 220.979 325.847 221.126 325.907 221.285C325.907 221.404 325.973 221.483 326.039 221.628C326.091 221.782 326.13 221.941 326.158 222.101C326.213 222.304 326.248 222.511 326.263 222.72C326.263 222.799 326.263 222.812 326.263 222.786V222.694C326.355 221.445 326.598 220.212 326.987 219.022C327.513 217.299 328.137 215.607 328.855 213.955C330.464 210.313 332.283 206.767 334.304 203.335C336.357 199.808 338.541 196.281 340.884 192.807C343.226 189.333 345.621 185.872 348.029 182.713L332.395 171.58Z" fill="white"/>
</g>
<path d="M345.713 217.245C345.801 217.244 345.887 217.221 345.963 217.177C346.039 217.133 346.102 217.07 346.147 216.995C346.186 216.938 346.213 216.873 346.226 216.805C346.239 216.737 346.238 216.667 346.223 216.6C346.208 216.532 346.18 216.468 346.14 216.412C346.1 216.355 346.049 216.307 345.99 216.271L343.937 214.955C342.02 213.747 340.516 211.985 339.623 209.903C338.73 207.821 338.491 205.517 338.936 203.296L343.068 182.371C343.37 180.807 344.192 179.39 345.399 178.35C346.607 177.31 348.13 176.708 349.722 176.641C351.314 176.574 352.882 177.046 354.173 177.981C355.463 178.916 356.401 180.259 356.833 181.792L362.69 202.309C363.329 204.477 363.294 206.789 362.589 208.938C361.884 211.086 360.542 212.969 358.742 214.337L356.794 215.811C356.684 215.896 356.613 216.022 356.596 216.16C356.578 216.298 356.617 216.438 356.702 216.548C356.743 216.602 356.795 216.647 356.853 216.681C356.912 216.714 356.977 216.736 357.044 216.745C357.112 216.753 357.18 216.748 357.246 216.73C357.311 216.712 357.372 216.682 357.426 216.64L359.268 215.179C361.247 213.689 362.726 211.632 363.509 209.282C364.291 206.931 364.341 204.398 363.65 202.019L357.781 181.503C357.277 179.751 356.199 178.219 354.72 177.153C353.242 176.087 351.448 175.549 349.626 175.625C347.805 175.701 346.062 176.386 344.677 177.571C343.292 178.757 342.345 180.373 341.989 182.161L337.857 203.098C337.369 205.525 337.63 208.042 338.605 210.317C339.58 212.592 341.224 214.517 343.318 215.837L345.384 217.153C345.43 217.19 345.483 217.217 345.539 217.233C345.596 217.249 345.655 217.253 345.713 217.245Z" fill="#263238"/>
<path d="M342.555 182.805L357.333 182.187C357.403 182.183 357.47 182.166 357.533 182.137C357.596 182.107 357.652 182.065 357.698 182.014C357.745 181.963 357.78 181.903 357.804 181.837C357.827 181.772 357.837 181.703 357.834 181.634C357.82 181.497 357.756 181.369 357.654 181.277C357.552 181.184 357.419 181.133 357.281 181.134L342.515 181.752C342.446 181.756 342.378 181.773 342.316 181.802C342.253 181.832 342.197 181.874 342.151 181.925C342.104 181.976 342.068 182.036 342.045 182.101C342.022 182.167 342.012 182.236 342.015 182.305C342.017 182.374 342.032 182.441 342.06 182.504C342.089 182.566 342.129 182.622 342.179 182.669C342.23 182.716 342.289 182.752 342.353 182.775C342.418 182.798 342.486 182.809 342.555 182.805Z" fill="#263238"/>
<path d="M349.74 176.673C349.876 176.67 350.006 176.615 350.104 176.52C350.202 176.425 350.26 176.296 350.266 176.16C350.266 173.528 351.082 168.961 353.543 167.961C353.611 167.938 353.674 167.902 353.727 167.854C353.781 167.806 353.824 167.747 353.854 167.682C353.884 167.617 353.9 167.546 353.902 167.474C353.904 167.402 353.891 167.331 353.864 167.264C353.837 167.198 353.796 167.137 353.745 167.087C353.694 167.036 353.633 166.997 353.566 166.971C353.499 166.945 353.427 166.933 353.355 166.936C353.284 166.939 353.213 166.956 353.148 166.987C349.503 168.487 349.2 175.357 349.2 176.199C349.2 176.338 349.253 176.471 349.349 176.572C349.445 176.672 349.575 176.732 349.714 176.739L349.74 176.673Z" fill="#263238"/>
<path d="M394.945 194.557H395.05C395.186 194.529 395.305 194.448 395.381 194.332C395.458 194.216 395.485 194.075 395.458 193.939C393.721 185.293 386.536 171.646 380.206 167.619C380.148 167.583 380.083 167.559 380.016 167.548C379.949 167.537 379.881 167.54 379.814 167.556C379.748 167.572 379.686 167.601 379.631 167.641C379.576 167.681 379.53 167.732 379.495 167.79C379.457 167.846 379.43 167.91 379.417 167.977C379.405 168.044 379.406 168.113 379.42 168.179C379.435 168.246 379.463 168.309 379.503 168.364C379.543 168.419 379.594 168.466 379.653 168.501C385.772 172.37 392.747 185.609 394.432 194.123C394.453 194.244 394.516 194.354 394.61 194.433C394.704 194.512 394.822 194.556 394.945 194.557Z" fill="#263238"/>
<path d="M390.628 195.913C391.444 198.005 393.26 199.269 394.576 198.729C395.892 198.19 396.405 196.097 395.589 193.952C394.774 191.807 392.957 190.596 391.641 191.149C390.325 191.702 389.799 193.82 390.628 195.913Z" fill="white"/>
<path d="M355.886 216.297C355.886 217.271 356.491 218.048 357.136 218.021C357.781 217.995 358.281 217.179 358.241 216.192C358.202 215.205 357.636 214.429 356.991 214.468C356.346 214.508 355.846 215.31 355.886 216.297Z" fill="white"/>
<path d="M344.542 216.771C344.542 217.745 345.134 218.522 345.792 218.495C346.45 218.469 346.924 217.653 346.884 216.666C346.845 215.679 346.292 214.916 345.568 214.942C344.845 214.968 344.502 215.824 344.542 216.771Z" fill="white"/>
<path d="M121.375 198.519L122.691 198.44C122.472 195.638 122.838 192.821 123.765 190.168C124.692 187.515 126.161 185.084 128.078 183.029C129.994 180.973 132.317 179.339 134.899 178.229C137.481 177.119 140.265 176.558 143.076 176.581V175.265C140.085 175.24 137.122 175.836 134.374 177.016C131.626 178.197 129.154 179.935 127.113 182.121C125.073 184.308 123.509 186.894 122.521 189.717C121.534 192.54 121.143 195.537 121.375 198.519Z" fill="#407BFF"/>
<path d="M120.681 204.037L121.443 214.933L120.127 215.025L119.365 204.129L120.681 204.037Z" fill="#407BFF"/>
<path d="M143.076 179.871H233.88C238.838 179.953 243.59 181.876 247.209 185.266C250.828 188.657 253.057 193.273 253.462 198.216L254.291 210.442C254.479 212.794 254.175 215.16 253.399 217.388C252.622 219.617 251.39 221.659 249.78 223.385C248.171 225.111 246.219 226.483 244.05 227.413C241.882 228.343 239.543 228.811 237.183 228.787H146.379L128.771 239.644L125.981 198.216C125.79 195.864 126.092 193.499 126.867 191.27C127.642 189.042 128.873 186.999 130.482 185.273C132.09 183.547 134.041 182.175 136.209 181.245C138.378 180.315 140.716 179.847 143.076 179.871Z" fill="#407BFF"/>
<path d="M147.682 197.387H231.787V200.44H147.682V197.387Z" fill="white"/>
<path d="M148.418 208.218H210.863V211.271H148.418V208.218Z" fill="white"/>
<path d="M279.676 245.276H186.872C184.459 245.25 182.067 245.728 179.849 246.678C177.631 247.628 175.636 249.03 173.99 250.794C172.344 252.559 171.085 254.647 170.291 256.926C169.498 259.205 169.188 261.624 169.382 264.029L170.225 276.531C170.642 281.583 172.921 286.299 176.62 289.764C180.319 293.23 185.173 295.197 190.241 295.284H283.059L302.562 306.405L299.693 264.029C299.279 258.977 297 254.259 293.301 250.793C289.601 247.327 284.745 245.361 279.676 245.276Z" fill="white"/>
<path opacity="0.15" d="M279.676 245.276H186.872C184.459 245.25 182.067 245.728 179.849 246.678C177.631 247.628 175.636 249.03 173.99 250.794C172.344 252.559 171.085 254.647 170.291 256.926C169.498 259.205 169.188 261.624 169.382 264.029L170.225 276.531C170.642 281.583 172.921 286.299 176.62 289.764C180.319 293.23 185.173 295.197 190.241 295.284H283.059L302.562 306.405L299.693 264.029C299.279 258.977 297 254.259 293.301 250.793C289.601 247.327 284.745 245.361 279.676 245.276Z" fill="#407BFF"/>
<path opacity="0.5" d="M191.583 263.187H277.597V266.319H191.583V263.187Z" fill="#407BFF"/>
<path opacity="0.5" d="M244.355 274.254H278.347V277.386H244.355V274.254Z" fill="#407BFF"/>
<path opacity="0.5" d="M214.311 274.254H236.025V277.386H214.311V274.254Z" fill="#407BFF"/>
</svg>
