<svg width="17" height="15" viewBox="0 0 17 15" fill="none" xmlns="http://www.w3.org/2000/svg">
<path d="M14.6145 5.17167L10.7825 4.63114L9.06955 1.26053C9.02276 1.16825 8.94579 1.09354 8.85071 1.04813C8.61225 0.933874 8.32247 1.02909 8.20325 1.26053L6.49027 4.63114L2.65832 5.17167C2.55268 5.18632 2.45608 5.23465 2.38213 5.3079C2.29273 5.39709 2.24346 5.51708 2.24516 5.6415C2.24686 5.76593 2.29938 5.88461 2.39119 5.97147L5.16365 8.59501L4.50864 12.2996C4.49328 12.3858 4.50311 12.4744 4.537 12.5554C4.5709 12.6365 4.62751 12.7067 4.70042 12.7581C4.77332 12.8095 4.85961 12.84 4.94949 12.8462C5.03937 12.8524 5.12924 12.8341 5.20893 12.7932L8.6364 11.0442L12.0639 12.7932C12.1574 12.8416 12.2661 12.8577 12.3702 12.8401C12.6328 12.7962 12.8094 12.5545 12.7641 12.2996L12.1091 8.59501L14.8816 5.97147C14.9571 5.89969 15.0069 5.80594 15.022 5.7034C15.0627 5.44706 14.8786 5.20975 14.6145 5.17167Z" fill="#F0F0F0"/>
</svg>
