<svg width="16" height="15" viewBox="0 0 16 15" fill="none" xmlns="http://www.w3.org/2000/svg">
<path d="M14.2508 5.17167L10.4189 4.63114L8.7059 1.26053C8.65911 1.16825 8.58214 1.09354 8.48706 1.04813C8.2486 0.933874 7.95882 1.02909 7.8396 1.26053L6.12662 4.63114L2.29467 5.17167C2.18903 5.18632 2.09244 5.23465 2.01848 5.3079C1.92908 5.39709 1.87981 5.51708 1.88151 5.6415C1.88321 5.76593 1.93573 5.88461 2.02754 5.97147L4.8 8.59501L4.14499 12.2996C4.12963 12.3858 4.13946 12.4744 4.17336 12.5554C4.20725 12.6365 4.26386 12.7067 4.33677 12.7581C4.40968 12.8095 4.49596 12.84 4.58584 12.8462C4.67572 12.8524 4.7656 12.8341 4.84528 12.7932L8.27275 11.0442L11.7002 12.7932C11.7938 12.8416 11.9025 12.8577 12.0066 12.8401C12.2692 12.7962 12.4458 12.5545 12.4005 12.2996L11.7455 8.59501L14.518 5.97147C14.5934 5.89969 14.6432 5.80594 14.6583 5.7034C14.6991 5.44706 14.5149 5.20975 14.2508 5.17167Z" fill="#F0F0F0"/>
<mask id="mask0_1642_9492" style="mask-type:alpha" maskUnits="userSpaceOnUse" x="0" y="0" width="16" height="15">
<path d="M14.2508 5.17167L10.4189 4.63114L8.7059 1.26053C8.65911 1.16825 8.58214 1.09354 8.48706 1.04813C8.2486 0.933874 7.95882 1.02909 7.8396 1.26053L6.12662 4.63114L2.29467 5.17167C2.18903 5.18632 2.09244 5.23465 2.01848 5.3079C1.92908 5.39709 1.87981 5.51708 1.88151 5.6415C1.88321 5.76593 1.93573 5.88461 2.02754 5.97147L4.8 8.59501L4.14499 12.2996C4.12963 12.3858 4.13946 12.4744 4.17336 12.5554C4.20725 12.6365 4.26386 12.7067 4.33677 12.7581C4.40968 12.8095 4.49596 12.84 4.58584 12.8462C4.67572 12.8524 4.7656 12.8341 4.84528 12.7932L8.27275 11.0442L11.7002 12.7932C11.7938 12.8416 11.9025 12.8577 12.0066 12.8401C12.2692 12.7962 12.4458 12.5545 12.4005 12.2996L11.7455 8.59501L14.518 5.97147C14.5934 5.89969 14.6432 5.80594 14.6583 5.7034C14.6991 5.44706 14.5149 5.20975 14.2508 5.17167Z" fill="#262626"/>
</mask>
<g mask="url(#mask0_1642_9492)">
<rect x="0.54541" width="7.72727" height="15" fill="#FADB14"/>
</g>
</svg>
