<svg width="24" height="25" viewBox="0 0 24 25" fill="none" xmlns="http://www.w3.org/2000/svg">
<g clip-path="url(#clip0_1508_10177)">
<path d="M19.5 24.064H4.5C2.019 24.064 0 22.045 0 19.564V18.064C0 15.583 2.019 13.564 4.5 13.564C4.776 13.564 5 13.788 5 14.064C5 14.34 4.776 14.564 4.5 14.564C2.57 14.564 1 16.134 1 18.064V19.564C1 21.494 2.57 23.064 4.5 23.064H19.5C21.43 23.064 23 21.494 23 19.564V18.064C23 16.134 21.43 14.564 19.5 14.564C19.224 14.564 19 14.34 19 14.064C19 13.788 19.224 13.564 19.5 13.564C21.981 13.564 24 15.583 24 18.064V19.564C24 22.045 21.981 24.064 19.5 24.064Z" fill="#E5E5E5"/>
<path d="M16.4999 18.0642H7.49994C5.56994 18.0642 3.99994 16.4942 3.99994 14.5642V13.5642C3.99994 11.6342 5.56994 10.0642 7.49994 10.0642H16.4999C18.4299 10.0642 19.9999 11.6342 19.9999 13.5642V14.5642C19.9999 16.4942 18.4299 18.0642 16.4999 18.0642ZM7.49994 11.0642C6.12094 11.0642 4.99994 12.1862 4.99994 13.5642V14.5642C4.99994 15.9432 6.12094 17.0642 7.49994 17.0642H16.4999C17.8789 17.0642 18.9999 15.9432 18.9999 14.5642V13.5642C18.9999 12.1862 17.8789 11.0642 16.4999 11.0642H7.49994Z" fill="#E5E5E5"/>
<path d="M13.5001 8.06438C13.4951 8.06438 13.4901 8.06438 13.4851 8.06438C13.2911 8.05838 13.1171 7.94038 13.0401 7.76138L10.4651 1.75238L8.94706 4.78838C8.86206 4.95738 8.68906 5.06438 8.50006 5.06438H5.50006C5.22406 5.06438 5.00006 4.84038 5.00006 4.56438C5.00006 4.28838 5.22406 4.06438 5.50006 4.06438H8.19106L10.0521 0.340377C10.1401 0.166377 10.3151 0.0593769 10.5151 0.0643769C10.7091 0.0703769 10.8831 0.188377 10.9601 0.367377L13.5351 6.37638L15.0531 3.34038C15.1381 3.17138 15.3111 3.06438 15.5001 3.06438H18.5001C18.7761 3.06438 19.0001 3.28838 19.0001 3.56438C19.0001 3.84038 18.7761 4.06438 18.5001 4.06438H15.8091L13.9481 7.78838C13.8621 7.95838 13.6891 8.06438 13.5001 8.06438Z" fill="#E5E5E5"/>
<path d="M12.0001 15.0642C12.5524 15.0642 13.0001 14.6165 13.0001 14.0642C13.0001 13.5119 12.5524 13.0642 12.0001 13.0642C11.4478 13.0642 11.0001 13.5119 11.0001 14.0642C11.0001 14.6165 11.4478 15.0642 12.0001 15.0642Z" fill="#E5E5E5"/>
<path d="M7.99994 15.0642C8.55222 15.0642 8.99994 14.6165 8.99994 14.0642C8.99994 13.5119 8.55222 13.0642 7.99994 13.0642C7.44765 13.0642 6.99994 13.5119 6.99994 14.0642C6.99994 14.6165 7.44765 15.0642 7.99994 15.0642Z" fill="#E5E5E5"/>
<path d="M16 15.0642C16.5523 15.0642 17 14.6165 17 14.0642C17 13.5119 16.5523 13.0642 16 13.0642C15.4477 13.0642 15 13.5119 15 14.0642C15 14.6165 15.4477 15.0642 16 15.0642Z" fill="#E5E5E5"/>
</g>
<defs>
<clipPath id="clip0_1508_10177">
<rect width="24" height="24" fill="white" transform="translate(0 0.0639648)"/>
</clipPath>
</defs>
</svg>
