<svg width="24" height="25" viewBox="0 0 24 25" fill="none" xmlns="http://www.w3.org/2000/svg">
<g clip-path="url(#clip0_1571_10113)">
<path d="M15.5 19.064C15.224 19.064 15 18.84 15 18.564V13.064H14.5C14.224 13.064 14 12.84 14 12.564C14 12.288 14.224 12.064 14.5 12.064H15.5C15.776 12.064 16 12.288 16 12.564V18.564C16 18.84 15.776 19.064 15.5 19.064Z" fill="#E5E5E5"/>
<path d="M10.0001 18.5854C9.72412 18.5854 9.50012 18.3614 9.50012 18.0854V13.0854C9.50012 12.8094 9.72412 12.5854 10.0001 12.5854C10.2761 12.5854 10.5001 12.8094 10.5001 13.0854V18.0854C10.5001 18.3614 10.2761 18.5854 10.0001 18.5854Z" fill="#E5E5E5"/>
<path d="M12.5001 16.0859H7.50006C7.22406 16.0859 7.00006 15.8619 7.00006 15.5859C7.00006 15.3099 7.22406 15.0859 7.50006 15.0859H12.5001C12.7761 15.0859 13.0001 15.3099 13.0001 15.5859C13.0001 15.8619 12.7761 16.0859 12.5001 16.0859Z" fill="#E5E5E5"/>
<path d="M21.5 24.0634H2.5C1.121 24.0634 0 22.9415 0 21.5635V4.56347C0 3.18548 1.121 2.06348 2.5 2.06348H21.5C22.879 2.06348 24 3.18548 24 4.56347V21.5635C24 22.9415 22.879 24.0634 21.5 24.0634ZM2.5 3.06348C1.673 3.06348 1 3.73647 1 4.56347V21.5635C1 22.3904 1.673 23.0634 2.5 23.0634H21.5C22.327 23.0634 23 22.3904 23 21.5635V4.56347C23 3.73647 22.327 3.06348 21.5 3.06348H2.5Z" fill="#E5E5E5"/>
<path d="M23.5 8.06446H0.5C0.224 8.06446 0 7.84046 0 7.56446C0 7.28845 0.224 7.06445 0.5 7.06445H23.5C23.776 7.06445 24 7.28845 24 7.56446C24 7.84046 23.776 8.06446 23.5 8.06446Z" fill="#E5E5E5"/>
<path d="M5.49994 5.06396C5.22394 5.06396 4.99994 4.83996 4.99994 4.56396V0.563965C4.99994 0.287965 5.22394 0.0639648 5.49994 0.0639648C5.77594 0.0639648 5.99994 0.287965 5.99994 0.563965V4.56396C5.99994 4.83996 5.77594 5.06396 5.49994 5.06396Z" fill="#E5E5E5"/>
<path d="M18.5 5.06396C18.224 5.06396 18 4.83996 18 4.56396V0.563965C18 0.287965 18.224 0.0639648 18.5 0.0639648C18.776 0.0639648 19 0.287965 19 0.563965V4.56396C19 4.83996 18.776 5.06396 18.5 5.06396Z" fill="#E5E5E5"/>
</g>
<defs>
<clipPath id="clip0_1571_10113">
<rect width="24" height="24" fill="white" transform="translate(0 0.0639648)"/>
</clipPath>
</defs>
</svg>
