<svg width="24" height="25" viewBox="0 0 24 25" fill="none" xmlns="http://www.w3.org/2000/svg">
<g clip-path="url(#clip0_1508_10116)">
<path d="M8.17687 8.96721C8.13312 8.96722 8.08982 8.95837 8.04958 8.9412C8.00934 8.92403 7.97298 8.8989 7.94271 8.86732C7.61838 8.52937 6.55914 7.32127 6.51049 5.96494C6.50761 5.8838 6.53527 5.80452 6.58801 5.74278C6.62685 5.69595 6.6508 5.63857 6.65676 5.57802C6.65449 5.56083 6.62433 5.53813 6.6133 5.52905C6.56965 5.49749 6.53455 5.45555 6.51116 5.40702C6.48778 5.3585 6.47685 5.30491 6.47936 5.2511C6.49137 5.00718 6.59286 4.77625 6.76444 4.60245C6.73162 4.55284 6.69508 4.50578 6.65514 4.4617C6.60653 4.40974 6.57635 4.34324 6.56926 4.27244C6.56217 4.20165 6.57856 4.13048 6.6159 4.06991L6.72357 3.89673C6.76217 3.60029 6.94249 2.59943 7.66411 2.11067C7.85353 1.98647 8.06601 1.9017 8.2889 1.86142C8.51179 1.82113 8.74051 1.82615 8.96141 1.87618C9.13486 1.46775 9.42318 1.11847 9.79136 0.870779C10.4656 0.418996 11.3731 0.302888 12.4907 0.52505C15.3425 1.09554 16.0168 2.13305 16.3781 2.81024C16.6266 2.91252 16.832 3.09787 16.9592 3.33467C17.0489 3.5215 17.0734 3.73293 17.029 3.93532C17.2542 4.16455 17.4096 4.45305 17.4772 4.76721C17.592 5.27121 17.5278 7.59597 16.0229 8.79921C15.972 8.83979 15.9101 8.86413 15.8453 8.86907C15.7804 8.874 15.7155 8.8593 15.6591 8.82687C15.6026 8.79444 15.5573 8.74579 15.5289 8.68724C15.5005 8.62869 15.4903 8.56295 15.4998 8.49856C15.5186 8.371 15.5339 8.24537 15.5458 8.1217C15.5694 7.86843 15.5402 7.61303 15.4602 7.37157C15.3802 7.13011 15.2511 6.90782 15.0811 6.71867C14.911 6.52953 14.7036 6.37763 14.472 6.27253C14.2404 6.16743 13.9895 6.1114 13.7351 6.10797C12.8697 6.08304 12.0229 5.85057 11.2661 5.43013L11.1885 5.38927C10.9092 5.24334 10.5967 5.17242 10.2817 5.18345C9.9667 5.19448 9.65995 5.28707 9.39146 5.45218C9.11845 5.61666 8.89285 5.84925 8.73678 6.12716C8.58072 6.40507 8.49953 6.71875 8.50119 7.03748V8.64289C8.50118 8.70766 8.48177 8.77094 8.44547 8.82458C8.40917 8.87822 8.35764 8.91977 8.29752 8.94386C8.25919 8.95938 8.21822 8.96731 8.17687 8.96721ZM7.16498 6.0457C7.24953 6.65651 7.48593 7.23637 7.85255 7.73218V7.03748C7.85191 6.60987 7.96125 6.18927 8.17005 5.8161C8.37885 5.44293 8.68011 5.12972 9.04487 4.90656C9.40964 4.6834 9.82566 4.55779 10.253 4.54179C10.6803 4.5258 11.1045 4.61995 11.485 4.81521L11.5706 4.86029C12.2364 5.23158 12.9816 5.43777 13.7436 5.46159C14.349 5.46987 14.9307 5.69827 15.38 6.10413C15.8293 6.50999 16.1155 7.06554 16.1851 7.667C16.6917 6.83814 16.9215 5.86959 16.8412 4.90148C16.7801 4.66297 16.6462 4.44941 16.4582 4.29045C16.4042 4.24661 16.3657 4.1867 16.3482 4.11943C16.3307 4.05217 16.3351 3.98108 16.3609 3.91651C16.3859 3.87185 16.4003 3.82205 16.403 3.77095C16.4058 3.71984 16.3968 3.66879 16.3768 3.6217C16.301 3.50817 16.1886 3.42404 16.0583 3.38332C16.0161 3.37108 15.9768 3.35039 15.9429 3.32251C15.9089 3.29464 15.881 3.26015 15.8608 3.22116C15.5445 2.61597 15.0681 1.70364 12.3649 1.163C11.4243 0.976185 10.6803 1.05889 10.1569 1.41078C9.83361 1.62625 9.59874 1.95092 9.49525 2.32537C9.48647 2.37004 9.46838 2.41235 9.44217 2.44956C9.41596 2.48677 9.38221 2.51805 9.34311 2.54136C9.30402 2.56467 9.26045 2.57949 9.21525 2.58486C9.17005 2.59023 9.12423 2.58602 9.08076 2.57251C8.91221 2.50276 8.72975 2.47313 8.54778 2.48596C8.36581 2.4988 8.18932 2.55374 8.03222 2.64646C7.4533 3.03564 7.36314 4.02289 7.36217 4.03294C7.35785 4.08413 7.34151 4.13358 7.31449 4.17727L7.28952 4.21748C7.41236 4.37216 7.46975 4.56879 7.44941 4.76527C7.43508 4.83607 7.40406 4.90243 7.35894 4.95883C7.31381 5.01524 7.25588 5.06007 7.18995 5.08959C7.17385 5.10836 7.16221 5.13054 7.1559 5.15446C7.23617 5.25363 7.28677 5.37348 7.30184 5.50018C7.31784 5.69216 7.2697 5.88401 7.16498 6.0457ZM6.90779 4.50775L6.89838 4.51262L6.90779 4.50775Z" fill="#E5E5E5"/>
<path d="M12.0086 14.2406C10.7237 14.2059 9.85868 13.292 9.02225 12.4082C8.93273 12.3135 8.84322 12.2188 8.75338 12.1257C8.15089 11.4805 7.82755 10.6234 7.85371 9.74097V8.54584C7.85371 8.45982 7.88787 8.37733 7.9487 8.3165C8.00952 8.25568 8.09201 8.22151 8.17803 8.22151C8.26405 8.22151 8.34654 8.25568 8.40736 8.3165C8.46818 8.37733 8.50235 8.45982 8.50235 8.54584V9.76432C8.48683 10.4697 8.74417 11.1539 9.22073 11.6743C9.31187 11.769 9.40268 11.865 9.49349 11.961C10.2719 12.7851 11.01 13.5635 12.0086 13.591C12.9894 13.5635 13.7275 12.7851 14.5059 11.9606C14.5967 11.865 14.6875 11.769 14.7784 11.6743C15.2512 11.1597 15.5088 10.4835 15.4984 9.78476V8.54454C15.4984 8.45852 15.5325 8.37603 15.5933 8.31521C15.6542 8.25439 15.7367 8.22021 15.8227 8.22021C15.9087 8.22021 15.9912 8.25439 16.052 8.31521C16.1128 8.37603 16.147 8.45852 16.147 8.54454V9.76303C16.1676 10.6377 15.8442 11.4856 15.2464 12.1244C15.1565 12.2175 15.0673 12.3122 14.9778 12.4066C14.1407 13.292 13.2761 14.2059 12.0086 14.2406Z" fill="#E5E5E5"/>
<path d="M8.03294 10.2002C7.37068 10.2002 6.83297 9.55151 6.83297 8.75497C6.82897 8.53861 6.86985 8.32376 6.95302 8.12398C7.03619 7.9242 7.15985 7.74382 7.3162 7.59422C7.38037 7.53689 7.46468 7.5074 7.55059 7.51223C7.6365 7.51707 7.71697 7.55583 7.7743 7.62C7.83162 7.68417 7.86111 7.76848 7.85628 7.8544C7.85144 7.94031 7.81268 8.02078 7.74851 8.07811C7.65992 8.16655 7.5905 8.2723 7.54458 8.38875C7.49866 8.5052 7.47722 8.62987 7.4816 8.75497C7.4816 9.21681 7.78646 9.59822 8.09521 9.54632C8.18006 9.53209 8.26709 9.55215 8.33716 9.60208C8.40722 9.65202 8.45458 9.72774 8.46882 9.8126C8.48305 9.89745 8.463 9.98448 8.41306 10.0546C8.36313 10.1246 8.28741 10.172 8.20255 10.1862C8.14649 10.1955 8.08976 10.2002 8.03294 10.2002Z" fill="#E5E5E5"/>
<path d="M15.9666 10.2002C15.91 10.2002 15.8535 10.1954 15.7977 10.1859C15.7135 10.1709 15.6386 10.1233 15.5894 10.0533C15.5401 9.98344 15.5205 9.89691 15.5347 9.81259C15.549 9.72828 15.5959 9.653 15.6654 9.60313C15.7349 9.55327 15.8212 9.53285 15.9057 9.54632C16.2128 9.59854 16.519 9.21681 16.519 8.75497C16.5234 8.62989 16.502 8.50523 16.4562 8.38878C16.4103 8.27232 16.3409 8.16657 16.2524 8.07811C16.2206 8.04972 16.1947 8.01536 16.1762 7.97697C16.1577 7.93859 16.147 7.89693 16.1446 7.8544C16.1398 7.76848 16.1693 7.68417 16.2266 7.62C16.2839 7.55583 16.3644 7.51707 16.4503 7.51223C16.5362 7.5074 16.6206 7.53689 16.6847 7.59422C16.841 7.74389 16.9646 7.92429 17.0477 8.12406C17.1308 8.32383 17.1716 8.53864 17.1677 8.75497C17.1677 9.55184 16.6289 10.2002 15.9666 10.2002Z" fill="#E5E5E5"/>
<path d="M10.6026 17.5602C10.5932 17.5602 10.5834 17.5602 10.5737 17.5602C10.5245 17.5557 10.4769 17.5401 10.4346 17.5145C10.3924 17.4888 10.3565 17.4539 10.3298 17.4123L8.85799 15.118C8.82262 15.0628 8.80477 14.9983 8.8068 14.9328C8.80882 14.8673 8.83063 14.804 8.86934 14.7512L9.42071 14.0013C9.47002 13.934 9.54338 13.8883 9.62553 13.8737C9.70768 13.8591 9.7923 13.8767 9.8618 13.9228L12.1805 15.4657C12.2192 15.4918 12.2518 15.5261 12.2761 15.5661C12.3004 15.606 12.3157 15.6508 12.3211 15.6972C12.3265 15.7437 12.3217 15.7907 12.3072 15.8352C12.2926 15.8796 12.2687 15.9204 12.2369 15.9547L10.84 17.4564C10.8097 17.4891 10.7729 17.5152 10.7321 17.533C10.6913 17.5509 10.6472 17.5601 10.6026 17.5602ZM9.52417 14.9539L10.6499 16.7088L11.5023 15.7926L9.75931 14.6331L9.52417 14.9539Z" fill="#E5E5E5"/>
<path d="M13.3965 17.5564C13.3519 17.5564 13.3078 17.5472 13.267 17.5294C13.2262 17.5116 13.1894 17.4856 13.1591 17.453L11.7625 15.951C11.7305 15.9166 11.7063 15.8756 11.6917 15.831C11.6771 15.7863 11.6723 15.739 11.6778 15.6924C11.6833 15.6457 11.6988 15.6008 11.7233 15.5607C11.7479 15.5206 11.7808 15.4864 11.8199 15.4603L14.1386 13.9175C14.2081 13.8713 14.2927 13.8537 14.3748 13.8683C14.457 13.8829 14.5303 13.9286 14.5796 13.9959L15.131 14.7458C15.1698 14.7986 15.1916 14.8619 15.1937 14.9274C15.1958 14.9929 15.178 15.0574 15.1427 15.1126L13.6696 17.4072C13.6429 17.4488 13.607 17.4838 13.5647 17.5094C13.5225 17.5351 13.4749 17.5507 13.4257 17.5551C13.4159 17.5558 13.4062 17.5564 13.3965 17.5564ZM12.4971 15.7888L13.3495 16.7047L14.4752 14.9498L14.2401 14.6294L12.4971 15.7888Z" fill="#E5E5E5"/>
<path d="M19.9058 23.8547H3.76869C3.45043 23.8547 3.14521 23.7283 2.92016 23.5033C2.69512 23.2782 2.56869 22.973 2.56869 22.6547V19.7608C2.56547 18.8485 2.85613 17.9595 3.39762 17.2254C3.93912 16.4912 4.70267 15.951 5.57518 15.6847L9.09669 14.6546C9.17927 14.6305 9.26805 14.6402 9.3435 14.6815C9.41895 14.7228 9.47489 14.7924 9.49902 14.875C9.52314 14.9576 9.51348 15.0464 9.47215 15.1218C9.43082 15.1973 9.36121 15.2532 9.27864 15.2773L5.76264 16.3058C5.02379 16.5322 4.37742 16.9904 3.9191 17.6126C3.46079 18.2348 3.21486 18.988 3.21766 19.7608V22.6547C3.21766 22.801 3.27575 22.9412 3.37915 23.0446C3.48255 23.148 3.62279 23.2061 3.76902 23.2061H19.9058C20.052 23.2061 20.1922 23.148 20.2956 23.0446C20.399 22.9412 20.4571 22.801 20.4571 22.6547V19.4365C20.4599 18.6628 20.2134 17.9089 19.7541 17.2864C19.2949 16.6638 18.6473 16.2058 17.9073 15.9801L14.798 15.2991C14.714 15.2806 14.6407 15.2296 14.5943 15.1572C14.5479 15.0847 14.5321 14.9968 14.5505 14.9128C14.5689 14.8287 14.62 14.7555 14.6924 14.7091C14.7649 14.6626 14.8528 14.6469 14.9368 14.6653L18.0724 15.3519C18.9505 15.6148 19.7201 16.1543 20.2667 16.8901C20.8133 17.6259 21.1075 18.5186 21.1055 19.4352V22.6547C21.1055 22.9729 20.9791 23.2781 20.7541 23.5031C20.5291 23.7282 20.224 23.8546 19.9058 23.8547Z" fill="#E5E5E5"/>
<path d="M12 16.0552C11.9361 16.0554 11.8736 16.0365 11.8204 16.0011L9.50276 14.4608C9.45122 14.4265 9.41058 14.3782 9.38564 14.3215C9.3607 14.2648 9.35249 14.2022 9.362 14.141L9.57508 12.7788C9.58119 12.7363 9.59566 12.6955 9.61767 12.6587C9.63968 12.6218 9.66878 12.5897 9.70328 12.5642C9.73779 12.5387 9.77701 12.5203 9.81869 12.51C9.86036 12.4998 9.90365 12.4979 9.94605 12.5045C9.98845 12.5111 10.0291 12.5261 10.0657 12.5485C10.1023 12.571 10.134 12.6004 10.1591 12.6352C10.1842 12.6701 10.2022 12.7095 10.2119 12.7513C10.2217 12.7931 10.2231 12.8364 10.2159 12.8787L10.0346 14.0376L12 15.3417L13.9667 14.0346L13.7838 12.8761C13.7767 12.8338 13.7781 12.7905 13.7878 12.7487C13.7976 12.7069 13.8155 12.6675 13.8406 12.6327C13.8657 12.5978 13.8975 12.5684 13.934 12.5459C13.9706 12.5235 14.0113 12.5085 14.0537 12.5019C14.0961 12.4953 14.1394 12.4972 14.1811 12.5074C14.2227 12.5177 14.262 12.5361 14.2965 12.5616C14.331 12.5871 14.3601 12.6192 14.3821 12.6561C14.4041 12.6929 14.4186 12.7337 14.4247 12.7762L14.6377 14.1384C14.6473 14.1997 14.6391 14.2623 14.6142 14.3191C14.5893 14.3758 14.5486 14.4242 14.497 14.4585L12.1778 15.9994C12.1252 16.035 12.0635 16.0544 12 16.0552Z" fill="#E5E5E5"/>
<path d="M18.7428 20.8286C18.7187 20.829 18.6947 20.8268 18.6711 20.8221L18.1431 20.7024C18.1007 20.6938 18.0605 20.6769 18.0248 20.6525C17.9891 20.6282 17.9586 20.5969 17.9351 20.5606C17.9116 20.5244 17.8957 20.4837 17.8881 20.4412C17.8806 20.3986 17.8816 20.355 17.8911 20.3128C17.9007 20.2707 17.9186 20.2309 17.9437 20.1957C17.9689 20.1606 18.0008 20.1308 18.0377 20.1082C18.0745 20.0856 18.1155 20.0705 18.1582 20.064C18.2009 20.0574 18.2445 20.0594 18.2864 20.07L18.4979 20.1176L18.7295 19.096C18.7678 18.9411 18.7749 18.78 18.7503 18.6223C18.7257 18.4646 18.6698 18.3133 18.586 18.1775C18.5022 18.0416 18.3921 17.9238 18.2623 17.831C18.1324 17.7382 17.9852 17.6723 17.8295 17.637C17.6738 17.6018 17.5127 17.598 17.3555 17.6258C17.1983 17.6536 17.0482 17.7126 16.9141 17.7991C16.7799 17.8857 16.6644 17.9981 16.5743 18.1299C16.4841 18.2616 16.4212 18.41 16.3891 18.5664L16.1579 19.5877L16.3693 19.6357C16.4533 19.6547 16.5262 19.7062 16.5721 19.7789C16.618 19.8517 16.6332 19.9397 16.6142 20.0236C16.5952 20.1075 16.5437 20.1804 16.471 20.2264C16.3982 20.2723 16.3102 20.2874 16.2263 20.2685L15.6973 20.1475C15.6557 20.1381 15.6163 20.1205 15.5814 20.0958C15.5466 20.0712 15.517 20.0399 15.4942 20.0037C15.4715 19.9675 15.4562 19.9272 15.449 19.8851C15.4419 19.843 15.4432 19.7999 15.4528 19.7583L15.7557 18.4202C15.8094 18.1834 15.9092 17.9594 16.0494 17.7612C16.1897 17.563 16.3675 17.3943 16.573 17.2648C16.7784 17.1353 17.0073 17.0476 17.2466 17.0066C17.4859 16.9655 17.731 16.9721 17.9678 17.0257C18.2046 17.0794 18.4285 17.1792 18.6267 17.3194C18.825 17.4597 18.9936 17.6376 19.1231 17.843C19.2526 18.0484 19.3404 18.2773 19.3814 18.5166C19.4224 18.7559 19.4159 19.001 19.3622 19.2378L19.0593 20.5756C19.0431 20.6474 19.003 20.7115 18.9455 20.7575C18.8881 20.8035 18.8167 20.8285 18.7431 20.8286H18.7428Z" fill="#E5E5E5"/>
<path d="M5.87676 18.1762C5.803 18.1761 5.73147 18.1509 5.67399 18.1047C5.6165 18.0584 5.57649 17.994 5.56056 17.922L5.16458 16.1317C5.15538 16.0901 5.15446 16.0471 5.16188 16.0052C5.16929 15.9632 5.1849 15.9232 5.2078 15.8873C5.2307 15.8513 5.26045 15.8203 5.29536 15.7959C5.33026 15.7715 5.36963 15.7542 5.41121 15.745C5.4528 15.7358 5.4958 15.7348 5.53774 15.7423C5.57968 15.7497 5.61975 15.7653 5.65566 15.7882C5.69158 15.8111 5.72263 15.8408 5.74704 15.8757C5.77145 15.9106 5.78875 15.95 5.79795 15.9916L6.19394 17.7819C6.21247 17.8659 6.19688 17.9538 6.1506 18.0263C6.10432 18.0988 6.03113 18.1499 5.94714 18.1685C5.92405 18.1737 5.90044 18.1763 5.87676 18.1762Z" fill="#E5E5E5"/>
<path d="M17.9124 17.6677C17.889 17.6676 17.8656 17.6651 17.8427 17.6602C17.8011 17.6511 17.7617 17.6339 17.7267 17.6096C17.6917 17.5852 17.6619 17.5542 17.6389 17.5184C17.616 17.4825 17.6003 17.4424 17.5928 17.4005C17.5853 17.3586 17.5861 17.3156 17.5952 17.274L17.9422 15.6881C17.9606 15.604 18.0117 15.5308 18.0841 15.4843C18.1565 15.4379 18.2444 15.4222 18.3285 15.4406C18.4125 15.459 18.4858 15.5101 18.5322 15.5825C18.5786 15.6549 18.5943 15.7428 18.5759 15.8269L18.2289 17.4128C18.2131 17.485 18.1731 17.5496 18.1155 17.596C18.058 17.6423 17.9863 17.6676 17.9124 17.6677Z" fill="#E5E5E5"/>
<path d="M6.34453 20.4536C6.04509 20.4537 5.75235 20.365 5.50334 20.1986C5.25433 20.0323 5.06023 19.7959 4.9456 19.5193C4.83096 19.2427 4.80093 18.9382 4.85931 18.6446C4.91769 18.3509 5.06186 18.0811 5.27357 17.8693C5.48529 17.6576 5.75505 17.5133 6.04873 17.4549C6.34242 17.3965 6.64684 17.4264 6.9235 17.541C7.20015 17.6556 7.43662 17.8496 7.60299 18.0986C7.76935 18.3476 7.85815 18.6403 7.85815 18.9397C7.85781 19.3411 7.69824 19.7259 7.41446 20.0097C7.13069 20.2935 6.74589 20.4532 6.34453 20.4536ZM6.34453 18.0747C6.17337 18.0747 6.00602 18.1254 5.86368 18.2204C5.72133 18.3155 5.61037 18.4506 5.54484 18.6088C5.47931 18.7669 5.46214 18.9409 5.49552 19.1088C5.5289 19.2766 5.61132 19.4308 5.73235 19.5519C5.85338 19.6729 6.0076 19.7553 6.17548 19.7887C6.34336 19.8221 6.51737 19.8049 6.67549 19.7394C6.83362 19.6739 6.96876 19.5629 7.06381 19.4206C7.15887 19.2782 7.20957 19.1109 7.20951 18.9397C7.20925 18.7104 7.11803 18.4905 6.95588 18.3284C6.79372 18.1662 6.57386 18.075 6.34453 18.0747Z" fill="#E5E5E5"/>
<path d="M6.34431 19.4313C6.61497 19.4313 6.83438 19.2119 6.83438 18.9412C6.83438 18.6706 6.61497 18.4512 6.34431 18.4512C6.07366 18.4512 5.85425 18.6706 5.85425 18.9412C5.85425 19.2119 6.07366 19.4313 6.34431 19.4313Z" fill="#E5E5E5"/>
<path d="M6.34385 19.5976C6.21477 19.5977 6.08858 19.5594 5.98123 19.4878C5.87387 19.4161 5.79018 19.3142 5.74074 19.195C5.69131 19.0758 5.67834 18.9445 5.70348 18.8179C5.72862 18.6913 5.79074 18.575 5.88199 18.4837C5.97324 18.3924 6.08951 18.3302 6.2161 18.305C6.34269 18.2798 6.47391 18.2927 6.59317 18.3421C6.71243 18.3915 6.81436 18.4751 6.88608 18.5825C6.95779 18.6898 6.99607 18.816 6.99607 18.945C6.9959 19.118 6.92714 19.2838 6.80487 19.4062C6.6826 19.5285 6.51681 19.5973 6.34385 19.5976ZM6.34385 18.6171C6.27891 18.6171 6.2154 18.6363 6.16138 18.6723C6.10735 18.7084 6.06524 18.7596 6.04035 18.8196C6.01547 18.8796 6.00894 18.9456 6.0216 19.0093C6.03425 19.073 6.06552 19.1315 6.11144 19.1775C6.15736 19.2234 6.21587 19.2546 6.27957 19.2673C6.34327 19.2799 6.40929 19.2734 6.46928 19.2485C6.52927 19.2237 6.58052 19.1815 6.61656 19.1275C6.65261 19.0735 6.67181 19.01 6.67174 18.945C6.67166 18.8581 6.63709 18.7747 6.57561 18.7133C6.51414 18.6518 6.43079 18.6172 6.34385 18.6171Z" fill="#E5E5E5"/>
</g>
<defs>
<clipPath id="clip0_1508_10116">
<rect width="24" height="24" fill="white" transform="translate(0 0.0639648)"/>
</clipPath>
</defs>
</svg>
