<svg width="24" height="25" viewBox="0 0 24 25" fill="none" xmlns="http://www.w3.org/2000/svg">
<g clip-path="url(#clip0_1571_10099)">
<path d="M19 24.0639H5C3.897 24.0639 3 23.1669 3 22.0639V13.0639H1C0.439 13.0639 0 12.6249 0 12.0639C0 11.7989 0.108 11.5389 0.296 11.3509L11.65 0.206953C11.844 0.0169532 12.156 0.0169532 12.35 0.206953L23.7 11.3469C23.892 11.5389 24 11.7989 24 12.0639C24 12.6249 23.561 13.0639 23 13.0639H21V22.0639C21 23.1669 20.103 24.0639 19 24.0639ZM12 1.26495L1 12.0609L3.5 12.0639C3.776 12.0639 4 12.2879 4 12.5639V22.0639C4 22.6149 4.449 23.0639 5 23.0639H19C19.551 23.0639 20 22.6149 20 22.0639V12.5639C20 12.2879 20.224 12.0639 20.5 12.0639H23C23 12.0619 22.998 12.0589 22.997 12.0579L12 1.26495Z" fill="white"/>
</g>
<defs>
<clipPath id="clip0_1571_10099">
<rect width="24" height="24" fill="white" transform="translate(0 0.0639648)"/>
</clipPath>
</defs>
</svg>
