<svg width="24" height="25" viewBox="0 0 24 25" fill="none" xmlns="http://www.w3.org/2000/svg">
<path d="M17.5809 23.092H3.14848C3.06247 23.092 2.97997 23.0579 2.91915 22.997C2.85833 22.9362 2.82416 22.8537 2.82416 22.7677V19.7945C2.82416 19.7085 2.85833 19.626 2.91915 19.5652C2.97997 19.5044 3.06247 19.4702 3.14848 19.4702H17.5809C17.6669 19.4702 17.7494 19.5044 17.8102 19.5652C17.8711 19.626 17.9052 19.7085 17.9052 19.7945V22.7677C17.9052 22.8537 17.8711 22.9362 17.8102 22.997C17.7494 23.0579 17.6669 23.092 17.5809 23.092ZM3.47281 22.4434H17.2566V20.1189H3.47281V22.4434Z" fill="#E5E5E5"/>
<path d="M15.5001 20.1185H11.6351C11.549 20.1185 11.4665 20.0844 11.4057 20.0235C11.3449 19.9627 11.3107 19.8802 11.3107 19.7942V16.0781C11.3107 15.4796 11.5485 14.9055 11.9717 14.4823C12.395 14.0591 12.969 13.8213 13.5676 13.8213C14.1661 13.8213 14.7401 14.0591 15.1634 14.4823C15.5866 14.9055 15.8244 15.4796 15.8244 16.0781V19.7942C15.8244 19.8802 15.7902 19.9627 15.7294 20.0235C15.6686 20.0844 15.5861 20.1185 15.5001 20.1185ZM11.9594 19.4699H15.1757V16.0781C15.1757 15.6516 15.0063 15.2425 14.7047 14.941C14.4031 14.6394 13.9941 14.4699 13.5676 14.4699C13.141 14.4699 12.732 14.6394 12.4304 14.941C12.1288 15.2425 11.9594 15.6516 11.9594 16.0781V19.4699Z" fill="#E5E5E5"/>
<path d="M15.8301 16.7813H15.5C15.414 16.7813 15.3315 16.7471 15.2706 16.6863C15.2098 16.6255 15.1757 16.543 15.1757 16.457C15.1757 16.371 15.2098 16.2885 15.2706 16.2276C15.3315 16.1668 15.414 16.1326 15.5 16.1326H15.8301C17.075 16.1316 18.2686 15.6368 19.1491 14.7568C20.0296 13.8769 20.5252 12.6835 20.527 11.4387C20.5261 10.1932 20.031 8.99898 19.1504 8.11828C18.2697 7.23757 17.0756 6.74237 15.8301 6.74143H10.4464C10.3604 6.74143 10.2779 6.70726 10.2171 6.64643C10.1562 6.58561 10.1221 6.50312 10.1221 6.4171C10.1221 6.33108 10.1562 6.24859 10.2171 6.18777C10.2779 6.12694 10.3604 6.09277 10.4464 6.09277H15.8301C16.5319 6.09277 17.2269 6.23101 17.8753 6.49958C18.5236 6.76816 19.1128 7.16181 19.609 7.65807C20.1053 8.15433 20.4989 8.74348 20.7675 9.39187C21.0361 10.0403 21.1743 10.7352 21.1743 11.437C21.1743 12.1389 21.0361 12.8338 20.7675 13.4822C20.4989 14.1306 20.1053 14.7197 19.609 15.216C19.1128 15.7123 18.5236 16.1059 17.8753 16.3745C17.2269 16.6431 16.5319 16.7813 15.8301 16.7813Z" fill="#E5E5E5"/>
<path d="M11.6348 16.7844H7.47276C7.38675 16.7844 7.30425 16.7503 7.24343 16.6894C7.18261 16.6286 7.14844 16.5461 7.14844 16.4601C7.14844 16.3741 7.18261 16.2916 7.24343 16.2307C7.30425 16.1699 7.38675 16.1357 7.47276 16.1357H11.6348C11.7208 16.1357 11.8033 16.1699 11.8641 16.2307C11.925 16.2916 11.9591 16.3741 11.9591 16.4601C11.9591 16.5461 11.925 16.6286 11.8641 16.6894C11.8033 16.7503 11.7208 16.7844 11.6348 16.7844Z" fill="#E5E5E5"/>
<path d="M13.7166 16.8494H13.4192C13.3332 16.8494 13.2507 16.8152 13.1899 16.7544C13.1291 16.6936 13.0949 16.6111 13.0949 16.525C13.0949 16.439 13.1291 16.3565 13.1899 16.2957C13.2507 16.2349 13.3332 16.2007 13.4192 16.2007H13.7166C13.8026 16.2007 13.8851 16.2349 13.9459 16.2957C14.0067 16.3565 14.0409 16.439 14.0409 16.525C14.0409 16.6111 14.0067 16.6936 13.9459 16.7544C13.8851 16.8152 13.8026 16.8494 13.7166 16.8494Z" fill="#E5E5E5"/>
<path d="M10.446 10.6036H6.28398C6.19796 10.6036 6.11547 10.5694 6.05465 10.5086C5.99383 10.4478 5.95966 10.3653 5.95966 10.2792V3.44151C5.95966 3.3555 5.99383 3.273 6.05465 3.21218C6.11547 3.15136 6.19796 3.11719 6.28398 3.11719H10.446C10.5321 3.11719 10.6145 3.15136 10.6754 3.21218C10.7362 3.273 10.7704 3.3555 10.7704 3.44151V10.2792C10.7704 10.3653 10.7362 10.4478 10.6754 10.5086C10.6145 10.5694 10.5321 10.6036 10.446 10.6036ZM6.6083 9.95492H10.1217V3.76584H6.6083V9.95492Z" fill="#E5E5E5"/>
<path d="M10.4454 12.6844H6.28334C6.23208 12.6844 6.18154 12.6723 6.13588 12.649C6.09023 12.6256 6.05075 12.5918 6.02068 12.5503C5.99061 12.5088 5.97082 12.4607 5.96292 12.4101C5.95502 12.3594 5.95924 12.3076 5.97523 12.2589L6.65891 10.1777C6.68022 10.1128 6.72149 10.0563 6.77681 10.0162C6.83214 9.97617 6.89871 9.9546 6.96702 9.95459H9.76172C9.83003 9.9546 9.8966 9.97617 9.95193 10.0162C10.0073 10.0563 10.0485 10.1128 10.0698 10.1777L10.7535 12.2573C10.7695 12.306 10.7737 12.3578 10.7658 12.4085C10.7579 12.4591 10.7381 12.5072 10.7081 12.5487C10.678 12.5902 10.6385 12.624 10.5929 12.6473C10.5472 12.6706 10.4967 12.6828 10.4454 12.6828V12.6844ZM6.73124 12.0358H9.99751L9.52724 10.6032H7.20183L6.73124 12.0358Z" fill="#E5E5E5"/>
<path d="M9.55436 3.76646H7.17613C7.09011 3.76646 7.00762 3.73229 6.9468 3.67147C6.88598 3.61064 6.85181 3.52815 6.85181 3.44213V1.36095C6.85181 1.27493 6.88598 1.19244 6.9468 1.13161C7.00762 1.07079 7.09011 1.03662 7.17613 1.03662H9.55436C9.64038 1.03662 9.72287 1.07079 9.78369 1.13161C9.84451 1.19244 9.87868 1.27493 9.87868 1.36095V3.44213C9.87868 3.52815 9.84451 3.61064 9.78369 3.67147C9.72287 3.73229 9.64038 3.76646 9.55436 3.76646ZM7.50045 3.11781H9.23004V1.68527H7.50045V3.11781Z" fill="#E5E5E5"/>
</svg>
