<svg width="24" height="25" viewBox="0 0 24 25" fill="none" xmlns="http://www.w3.org/2000/svg">
<g clip-path="url(#clip0_1571_10258)">
<path d="M14.0868 24.2217H2.6086C1.1697 24.2217 0 23.0509 0 21.6129V2.83052C0 1.39277 1.1697 0.221924 2.6086 0.221924H14.0868C15.5257 0.221924 16.6954 1.39277 16.6954 2.83052V9.09132C16.6954 9.37944 16.4617 9.61312 16.1738 9.61312C15.8857 9.61312 15.652 9.37944 15.652 9.09132V2.83052C15.652 1.96768 14.9498 1.26533 14.0868 1.26533H2.6086C1.74576 1.26533 1.0434 1.96768 1.0434 2.83052V21.6129C1.0434 22.4759 1.74576 23.1781 2.6086 23.1781H14.0868C14.9498 23.1781 15.652 22.4759 15.652 21.6129V15.3521C15.652 15.0642 15.8857 14.8305 16.1738 14.8305C16.4617 14.8305 16.6954 15.0642 16.6954 15.3521V21.6129C16.6954 23.0509 15.5257 24.2217 14.0868 24.2217Z" fill="#E5E5E5"/>
<path d="M23.478 12.7434H6.7826C6.49448 12.7434 6.2608 12.5097 6.2608 12.2216C6.2608 11.9336 6.49448 11.7 6.7826 11.7H23.478C23.766 11.7 23.9998 11.9336 23.9998 12.2216C23.9998 12.5097 23.766 12.7434 23.478 12.7434Z" fill="#E5E5E5"/>
<path d="M20.3477 15.8735C20.2141 15.8735 20.0806 15.8223 19.9784 15.7212C19.7749 15.5177 19.7749 15.1868 19.9784 14.9833L22.7404 12.2213L19.9793 9.46043C19.7758 9.25695 19.7758 8.92602 19.9793 8.72254C20.1828 8.51925 20.5135 8.51925 20.717 8.72254L23.8474 11.8529C24.0509 12.0564 24.0509 12.3873 23.8474 12.5908L20.717 15.7212C20.6148 15.8223 20.4812 15.8735 20.3477 15.8735Z" fill="#E5E5E5"/>
</g>
<defs>
<clipPath id="clip0_1571_10258">
<rect width="24" height="24" fill="white" transform="translate(0 0.188965)"/>
</clipPath>
</defs>
</svg>
