<svg width="24" height="25" viewBox="0 0 24 25" fill="none" xmlns="http://www.w3.org/2000/svg">
<g clip-path="url(#clip0_1571_10214)">
<path d="M9.50006 24.0634C9.43606 24.0634 9.37106 24.0514 9.30906 24.0254C9.12206 23.9484 9.00006 23.7654 9.00006 23.5634V21.0635H7.50006C6.12206 21.0635 5.00006 19.9415 5.00006 18.5635V14.5635C5.00006 14.2875 5.22406 14.0635 5.50006 14.0635C5.77606 14.0635 6.00006 14.2875 6.00006 14.5635V18.5635C6.00006 19.3905 6.67306 20.0635 7.50006 20.0635H9.50006C9.77606 20.0635 10.0001 20.2875 10.0001 20.5635V22.3565L12.1461 20.2105C12.2401 20.1165 12.3671 20.0635 12.5001 20.0635H21.5001C22.3271 20.0635 23.0001 19.3905 23.0001 18.5635V10.5635C23.0001 9.73647 22.3271 9.06347 21.5001 9.06347H20.5001C20.2241 9.06347 20.0001 8.83948 20.0001 8.56348C20.0001 8.28748 20.2241 8.06348 20.5001 8.06348H21.5001C22.8781 8.06348 24.0001 9.18547 24.0001 10.5635V18.5635C24.0001 19.9415 22.8781 21.0635 21.5001 21.0635H12.7071L9.85306 23.9174C9.75806 24.0124 9.63006 24.0634 9.50006 24.0634Z" fill="#E5E5E5"/>
<path d="M17.079 13.064H1.921C0.862 13.064 0 12.167 0 11.064V2.06396C0 0.960965 0.862 0.0639648 1.921 0.0639648H17.079C18.138 0.0639648 19 0.960965 19 2.06396V11.064C19 12.167 18.138 13.064 17.079 13.064ZM1.921 1.06396C1.413 1.06396 1 1.51296 1 2.06396V11.064C1 11.615 1.413 12.064 1.921 12.064H17.079C17.587 12.064 18 11.615 18 11.064V2.06396C18 1.51296 17.587 1.06396 17.079 1.06396H1.921Z" fill="#E5E5E5"/>
<path d="M9.50005 8.05921C9.17005 8.05921 8.84105 7.97921 8.54105 7.81921L0.265047 3.40521C0.0210469 3.27521 -0.0709531 2.97221 0.0590469 2.72821C0.189047 2.48521 0.492047 2.39321 0.736047 2.52221L9.01205 6.93621C9.31805 7.09922 9.68405 7.09922 9.99005 6.93621L18.266 2.52221C18.51 2.39421 18.812 2.48521 18.943 2.72821C19.073 2.97221 18.981 3.27421 18.737 3.40521L10.461 7.81921C10.159 7.97921 9.83005 8.05921 9.50005 8.05921Z" fill="#E5E5E5"/>
</g>
<defs>
<clipPath id="clip0_1571_10214">
<rect width="24" height="24" fill="white" transform="translate(0 0.0639648)"/>
</clipPath>
</defs>
</svg>
