<svg width="24" height="25" viewBox="0 0 24 25" fill="none" xmlns="http://www.w3.org/2000/svg">
<path d="M8.64323 5.25926C8.56054 5.2594 8.48126 5.2923 8.42278 5.35078C8.36418 5.40939 8.33125 5.48887 8.33125 5.57176C8.33125 5.65464 8.36418 5.73412 8.42278 5.79273C8.48139 5.85133 8.56087 5.88426 8.64375 5.88426L8.64469 5.88425C14.8944 5.83753 19.0443 5.83222 20.1115 5.86955C20.041 7.49649 19.3481 9.03613 18.1734 10.1684C16.9692 11.3292 15.3559 11.9682 13.6835 11.9469C12.0111 11.9256 10.4145 11.2457 9.24027 10.0547C8.06603 8.86363 7.40882 7.2576 7.41125 5.58506V5.58488C7.41125 5.502 7.37833 5.42251 7.31973 5.36391C7.26112 5.3053 7.18163 5.27238 7.09875 5.27238C7.01588 5.27238 6.93639 5.3053 6.87778 5.36391C6.81918 5.42251 6.78625 5.502 6.78625 5.58488L6.78625 5.58498C6.78777 7.43537 7.52338 9.20957 8.83162 10.5182C10.1399 11.8268 11.9139 12.5629 13.7642 12.5649L13.7644 12.5649C15.6155 12.5639 17.3905 11.8282 18.6995 10.5195C20.0085 9.21088 20.7447 7.43624 20.7463 5.58531M8.64323 5.25926C8.6434 5.25926 8.64358 5.25926 8.64375 5.25926V5.38426M8.64323 5.25926C8.64309 5.25926 8.64295 5.25926 8.64282 5.25926L8.64375 5.38426M8.64323 5.25926C14.5265 5.2152 17.4873 5.21097 18.9877 5.22809C19.7368 5.23664 20.1255 5.25053 20.3327 5.26786C20.435 5.27641 20.5012 5.28636 20.5471 5.29985C20.5714 5.30703 20.5936 5.3162 20.6138 5.32905C20.6335 5.34157 20.6468 5.35486 20.6526 5.36073L20.6534 5.36149L20.565 5.44988M8.64375 5.38426C8.59403 5.38426 8.54634 5.40401 8.51117 5.43917C8.47601 5.47434 8.45625 5.52203 8.45625 5.57176C8.45625 5.62148 8.47601 5.66917 8.51117 5.70434C8.54634 5.7395 8.59403 5.75926 8.64375 5.75926L20.565 5.44988M8.64375 5.38426C20.4113 5.29613 20.4825 5.36738 20.565 5.44988M20.565 5.44988L20.6525 5.36061C20.6824 5.38992 20.7061 5.42494 20.7222 5.46359C20.7383 5.50215 20.7465 5.54353 20.7463 5.58531M20.7463 5.58531C20.7463 5.5852 20.7463 5.58509 20.7463 5.58498L20.6213 5.58488L20.7463 5.58561C20.7463 5.58551 20.7463 5.58541 20.7463 5.58531Z" fill="#E5E5E5" stroke="#E5E5E5" stroke-width="0.25"/>
<path d="M15.5312 22.9573C15.6139 22.9572 15.6931 22.9243 15.7516 22.8658C15.8102 22.8072 15.8432 22.7277 15.8432 22.6448C15.8432 22.3709 15.7892 22.0996 15.6844 21.8465C15.5795 21.5934 15.4258 21.3634 15.2321 21.1696C15.0384 20.9759 14.8084 20.8222 14.5553 20.7174C14.3022 20.6126 14.0309 20.5586 13.7569 20.5586C13.4829 20.5586 13.2116 20.6126 12.9585 20.7174C12.7054 20.8222 12.4754 20.9759 12.2817 21.1696C12.088 21.3634 11.9343 21.5934 11.8295 21.8465C11.7246 22.0996 11.6707 22.3709 11.6707 22.6448L11.6707 22.6454C11.6708 22.6867 11.6792 22.7276 11.6953 22.7657C11.7114 22.8038 11.7349 22.8383 11.7644 22.8672L11.7642 22.8674L11.77 22.8724L11.7707 22.873C11.7881 22.8881 11.8149 22.9113 11.8643 22.9279C11.9057 22.9418 11.9591 22.9498 12.0327 22.9556C12.1817 22.9673 12.4541 22.9723 12.9769 22.9723C13.5137 22.9723 14.3222 22.9667 15.5312 22.9573ZM15.5312 22.9573C15.531 22.9573 15.5308 22.9573 15.5307 22.9573V22.8323M15.5312 22.9573C15.5313 22.9573 15.5315 22.9573 15.5316 22.9573L15.5307 22.8323M15.5307 22.8323C14.3213 22.8417 13.5132 22.8473 12.9769 22.8473C11.9319 22.8473 11.9083 22.8268 11.8524 22.7784L11.8519 22.778C11.8342 22.7606 11.8201 22.7399 11.8104 22.717C11.8008 22.6942 11.7958 22.6697 11.7957 22.6448C11.7957 22.3873 11.8464 22.1323 11.9449 21.8943C12.0435 21.6564 12.188 21.4401 12.3701 21.258C12.5522 21.0759 12.7684 20.9314 13.0064 20.8329C13.2443 20.7343 13.4994 20.6836 13.7569 20.6836C14.0145 20.6836 14.2695 20.7343 14.5074 20.8329C14.7454 20.9314 14.9616 21.0759 15.1437 21.258C15.3258 21.4401 15.4703 21.6564 15.5689 21.8943C15.6674 22.1323 15.7182 22.3873 15.7182 22.6448C15.7182 22.6946 15.6984 22.7423 15.6632 22.7774C15.6281 22.8126 15.5804 22.8323 15.5307 22.8323ZM12.3345 22.3473C12.3992 22.0451 12.5583 21.7698 12.7908 21.5624C13.0585 21.3236 13.4047 21.1917 13.7635 21.1917C14.1222 21.1917 14.4684 21.3236 14.7361 21.5624C14.9686 21.7698 15.1278 22.0451 15.1924 22.3473H15.1916H15.1848H15.178H15.1712H15.1644H15.1575H15.1507H15.1438H15.137H15.1301H15.1233H15.1164H15.1095H15.1026H15.0957H15.0888H15.0819H15.075H15.068H15.0611H15.0542H15.0472H15.0403H15.0333H15.0264H15.0194H15.0124H15.0055H14.9985H14.9915H14.9845H14.9775H14.9705H14.9635H14.9564H14.9494H14.9424H14.9354H14.9283H14.9213H14.9142H14.9072H14.9001H14.8931H14.886H14.8789H14.8718H14.8648H14.8577H14.8506H14.8435H14.8364H14.8293H14.8222H14.8151H14.808H14.8008H14.7937H14.7866H14.7795H14.7723H14.7652H14.758H14.7509H14.7437H14.7366H14.7294H14.7223H14.7151H14.7079H14.7008H14.6936H14.6864H14.6793H14.6721H14.6649H14.6577H14.6505H14.6433H14.6361H14.6289H14.6217H14.6145H14.6073H14.6001H14.5929H14.5857H14.5785H14.5713H14.5641H14.5568H14.5496H14.5424H14.5352H14.5279H14.5207H14.5135H14.5063H14.499H14.4918H14.4846H14.4773H14.4701H14.4629H14.4556H14.4484H14.4411H14.4339H14.4267H14.4194H14.4122H14.4049H14.3977H14.3904H14.3832H14.3759H14.3687H14.3615H14.3542H14.347H14.3397H14.3325H14.3252H14.318H14.3107H14.3035H14.2962H14.289H14.2818H14.2745H14.2673H14.26H14.2528H14.2455H14.2383H14.2311H14.2238H14.2166H14.2093H14.2021H14.1949H14.1876H14.1804H14.1732H14.166H14.1587H14.1515H14.1443H14.1371H14.1298H14.1226H14.1154H14.1082H14.101H14.0938H14.0866H14.0794H14.0722H14.065H14.0578H14.0506H14.0434H14.0362H14.029H14.0218H14.0146H14.0074H14.0003H13.9931H13.9859H13.9788H13.9716H13.9644H13.9573H13.9501H13.943H13.9358H13.9287H13.9215H13.9144H13.9073H13.9001H13.893H13.8859H13.8788H13.8717H13.8646H13.8574H13.8503H13.8432H13.8362H13.8291H13.822H13.8149H13.8078H13.8008H13.7937H13.7866H13.7796H13.7725H13.7655H13.7584H13.7514H13.7444H13.7373H13.7303H13.7233H13.7163H13.7093H13.7023H13.6953H13.6883H13.6813H13.6744H13.6674H13.6604H13.6535H13.6465H13.6396H13.6326H13.6257H13.6188H13.6119H13.6049H13.598H13.5911H13.5842H13.5774H13.5705H13.5636H13.5567H13.5499H13.543H13.5362H13.5293H13.5225H13.5157H13.5089H13.502H13.4952H13.4884H13.4817H13.4749H13.4681H13.4613H13.4546H13.4478H13.4411H13.4343H13.4276H13.4209H13.4142H13.4075H13.4008H13.3941H13.3874H13.3808H13.3741H13.3675H13.3608H13.3542H13.3476H13.3409H13.3343H13.3277H13.3211H13.3146H13.308H13.3014H13.2949H13.2883H13.2818H13.2753H13.2688H13.2623H13.2558H13.2493H13.2428H13.2363H13.2299H13.2234H13.217H13.2106H13.2042H13.1977H13.1913H13.185H13.1786H13.1722H13.1659H13.1595H13.1532H13.1469H13.1406H13.1343H13.128H13.1217H13.1154H13.1092H13.1029H13.0967H13.0905H13.0842H13.078H13.0719H13.0657H13.0595H13.0534H13.0472H13.0411H13.035H13.0289H13.0228H13.0167H13.0106H13.0045H12.9985H12.9925H12.9864H12.9804H12.9744H12.9685H12.9625H12.9565H12.9506H12.9446H12.9387H12.9328H12.9269H12.921H12.9152H12.9093H12.9035H12.8976H12.8918H12.886H12.8802H12.8744H12.8687H12.8629H12.8572H12.8515H12.8458H12.8401H12.8344H12.8287H12.8231H12.8174H12.8118H12.8062H12.8006H12.795H12.7895H12.7839H12.7784H12.7728H12.7673H12.7618H12.7564H12.7509H12.7454H12.74H12.7346H12.7292H12.7238H12.7184H12.7131H12.7077H12.7024H12.6971H12.6918H12.6865H12.6812H12.676H12.6708H12.6655H12.6603H12.6552H12.65H12.6448H12.6397H12.6346H12.6295H12.6244H12.6193H12.6143H12.6092H12.6042H12.5992H12.5942H12.5892H12.5843H12.5793H12.5744H12.5695H12.5646H12.5597H12.5549H12.5501H12.5452H12.5404H12.5357H12.5309H12.5261H12.5214H12.5167H12.512H12.5073H12.5027H12.498H12.4934H12.4888H12.4842H12.4796H12.4751H12.4706H12.466H12.4616H12.4571H12.4526H12.4482H12.4438H12.4394H12.435H12.4306H12.4263H12.4219H12.4176H12.4133H12.4091H12.4048H12.4006H12.3964H12.3922H12.388H12.3839H12.3797H12.3756H12.3715H12.3675H12.3634H12.3594H12.3554H12.3514H12.3474H12.3434H12.3395H12.3356H12.3345Z" fill="#E5E5E5" stroke="#E5E5E5" stroke-width="0.25"/>
<path d="M7.51123 7.62109H16.7981C16.881 7.62109 16.9605 7.58817 17.0191 7.52956C17.0777 7.47096 17.1106 7.39147 17.1106 7.30859C17.1106 7.22571 17.0777 7.14623 17.0191 7.08762C16.9605 7.02902 16.881 6.99609 16.7981 6.99609H7.51123C7.42835 6.99609 7.34886 7.02902 7.29026 7.08762C7.23165 7.14623 7.19873 7.22571 7.19873 7.30859C7.19873 7.39147 7.23165 7.47096 7.29026 7.52956C7.34886 7.58817 7.42835 7.62109 7.51123 7.62109Z" fill="#E5E5E5" stroke="#E5E5E5" stroke-width="0.25"/>
<path d="M13.7642 11.8051C13.8445 11.8052 13.9217 11.7744 13.9799 11.7191C14.038 11.6639 14.0727 11.5883 14.0767 11.5082L14.0769 11.5082V11.502V8.68945C14.0769 8.60657 14.044 8.52709 13.9854 8.46848C13.9268 8.40988 13.8473 8.37695 13.7644 8.37695C13.6815 8.37695 13.602 8.40988 13.5434 8.46848C13.4848 8.52709 13.4519 8.60657 13.4519 8.68945V11.4926C13.4519 11.5755 13.4848 11.6549 13.5434 11.7135C13.602 11.7721 13.6814 11.805 13.7642 11.8051ZM13.7642 11.8051L13.7644 11.6801M13.7642 11.8051C13.7643 11.8051 13.7644 11.8051 13.7644 11.8051V11.6801M13.7644 11.6801C13.8125 11.6801 13.8589 11.6617 13.8938 11.6285C13.9287 11.5954 13.9495 11.55 13.9519 11.502V8.68945C13.9519 8.63973 13.9321 8.59203 13.897 8.55687C13.8618 8.52171 13.8141 8.50195 13.7644 8.50195C13.7147 8.50195 13.667 8.52171 13.6318 8.55687C13.5967 8.59203 13.5769 8.63973 13.5769 8.68945V11.4926C13.5769 11.5423 13.5967 11.59 13.6318 11.6252C13.667 11.6603 13.7147 11.6801 13.7644 11.6801Z" fill="#E5E5E5" stroke="#E5E5E5" stroke-width="0.25"/>
<path d="M12.3544 10.4023H15.1669C15.2498 10.4023 15.3292 10.3694 15.3878 10.3108C15.4464 10.2522 15.4794 10.1727 15.4794 10.0898C15.4794 10.007 15.4464 9.92748 15.3878 9.86887C15.3292 9.81027 15.2497 9.77734 15.1669 9.77734H12.3544C12.2715 9.77734 12.192 9.81027 12.1334 9.86887C12.0748 9.92748 12.0419 10.007 12.0419 10.0898C12.0419 10.1727 12.0748 10.2522 12.1334 10.3108C12.192 10.3694 12.2715 10.4023 12.3544 10.4023Z" fill="#E5E5E5" stroke="#E5E5E5" stroke-width="0.25"/>
<path d="M13.5434 21.0979C13.602 21.1565 13.6815 21.1895 13.7644 21.1895C13.8473 21.1895 13.9268 21.1565 13.9854 21.0979C14.044 21.0393 14.0769 20.9598 14.0769 20.877V12.252C14.0769 12.1691 14.044 12.0896 13.9854 12.031C13.9268 11.9724 13.8473 11.9395 13.7644 11.9395C13.6815 11.9395 13.602 11.9724 13.5434 12.031C13.4848 12.0896 13.4519 12.1691 13.4519 12.252V20.877C13.4519 20.9598 13.4848 21.0393 13.5434 21.0979Z" fill="#E5E5E5" stroke="#E5E5E5" stroke-width="0.25"/>
<path d="M10.1119 14.8379H12.7501C12.8329 14.8379 12.9124 14.805 12.971 14.7464C13.0296 14.6878 13.0626 14.6083 13.0626 14.5254C13.0626 14.4425 13.0296 14.363 12.971 14.3044C12.9124 14.2458 12.8329 14.2129 12.7501 14.2129H10.1119C10.0291 14.2129 9.94957 14.2458 9.89097 14.3044C9.83236 14.363 9.79944 14.4425 9.79944 14.5254C9.79944 14.6083 9.83236 14.6878 9.89097 14.7464C9.94957 14.805 10.0291 14.8379 10.1119 14.8379Z" fill="#E5E5E5" stroke="#E5E5E5" stroke-width="0.25"/>
<path d="M18.3716 17.553C18.4302 17.6116 18.5096 17.6445 18.5925 17.6445C19.0484 17.6445 19.4855 17.4635 19.8079 17.1411C20.1302 16.8188 20.3113 16.3816 20.3113 15.9258C20.3113 15.4699 20.1302 15.0328 19.8079 14.7104C19.4855 14.3881 19.0484 14.207 18.5925 14.207H14.4675C14.3846 14.207 14.3052 14.24 14.2466 14.2986C14.188 14.3572 14.155 14.4367 14.155 14.5195C14.155 14.6024 14.188 14.6819 14.2466 14.7405C14.3052 14.7991 14.3846 14.832 14.4675 14.832H18.5925C18.8826 14.832 19.1608 14.9473 19.3659 15.1524C19.571 15.3575 19.6863 15.6357 19.6863 15.9258C19.6863 16.2159 19.571 16.4941 19.3659 16.6992C19.1608 16.9043 18.8826 17.0195 18.5925 17.0195C18.5096 17.0195 18.4302 17.0525 18.3716 17.1111C18.313 17.1697 18.28 17.2492 18.28 17.332C18.28 17.4149 18.313 17.4944 18.3716 17.553Z" fill="#E5E5E5" stroke="#E5E5E5" stroke-width="0.25"/>
<path d="M10.89 20.2637H17.2125C17.2954 20.2637 17.3749 20.2307 17.4335 20.1721C17.4921 20.1135 17.525 20.0341 17.525 19.9512C17.525 19.8683 17.4921 19.7888 17.4335 19.7302C17.3749 19.6716 17.2954 19.6387 17.2125 19.6387H10.89C10.6248 19.6387 10.3704 19.5333 10.1829 19.3458C9.99537 19.1582 9.89001 18.9039 9.89001 18.6387C9.89001 18.3735 9.99537 18.1191 10.1829 17.9316C10.3704 17.744 10.6248 17.6387 10.89 17.6387H18.5906C18.6735 17.6387 18.753 17.6057 18.8116 17.5471C18.8702 17.4885 18.9031 17.4091 18.9031 17.3262C18.9031 17.2433 18.8702 17.1638 18.8116 17.1052C18.753 17.0466 18.6735 17.0137 18.5906 17.0137H10.89C10.459 17.0137 10.0457 17.1849 9.74097 17.4896C9.43622 17.7944 9.26501 18.2077 9.26501 18.6387C9.26501 19.0696 9.43622 19.483 9.74097 19.7877C10.0457 20.0925 10.459 20.2637 10.89 20.2637Z" fill="#E5E5E5" stroke="#E5E5E5" stroke-width="0.25"/>
<path d="M10.0983 14.8388H10.0988C10.1817 14.8388 10.2612 14.8059 10.3198 14.7473C10.3784 14.6887 10.4113 14.6092 10.4113 14.5263C10.4113 14.4434 10.3784 14.364 10.3198 14.3054C10.2613 14.2469 10.182 14.214 10.0993 14.2138C8.47346 14.2077 6.91404 13.5682 5.75196 12.4312C4.59005 11.2943 3.91679 9.7495 3.87502 8.12447C3.86358 7.30891 4.01658 6.49939 4.32489 5.74426C4.63328 4.9889 5.09074 4.30344 5.66996 3.72882L5.66996 3.72882L5.67108 3.72769C6.27169 3.11647 6.98721 2.63001 7.77649 2.29631C8.56566 1.96265 9.413 1.78827 10.2698 1.7832H11.0276C10.9929 1.79864 10.9609 1.82044 10.9334 1.84786C10.8748 1.90646 10.8419 1.98595 10.8419 2.06883L10.8419 2.29945L10.8419 2.29961C10.8425 2.72377 11.0113 3.13037 11.3115 3.43011C11.6116 3.72985 12.0184 3.8982 12.4425 3.8982H15.1538C15.2367 3.8982 15.3162 3.86528 15.3748 3.80667C15.4334 3.74807 15.4663 3.66858 15.4663 3.5857V3.07945V3.07932C15.4658 2.56997 15.2632 2.08164 14.903 1.72147C14.5429 1.36131 14.0545 1.15873 13.5452 1.1582H13.545L10.2694 1.1582L10.2689 1.1582C9.32749 1.16222 8.39622 1.35267 7.52883 1.71855C6.66164 2.08436 5.87548 2.61828 5.21572 3.2895C4.58023 3.92292 4.0787 4.67775 3.741 5.50904C3.40321 6.34053 3.23625 7.2315 3.25005 8.12888L3.25008 8.12997C3.29334 9.91977 4.03306 11.6221 5.31196 12.875C6.59086 14.1278 8.30804 14.8324 10.0983 14.8388ZM11.3754 1.84786C11.348 1.82044 11.316 1.79864 11.2812 1.7832H13.545C13.8886 1.78368 14.2181 1.92041 14.4611 2.16341C14.7041 2.40644 14.8408 2.73593 14.8413 3.07962V3.2732H12.4425C12.1841 3.2732 11.9362 3.17064 11.7533 2.98804C11.5703 2.80543 11.4674 2.5577 11.4669 2.29924V2.06883C11.4669 1.98595 11.434 1.90646 11.3754 1.84786ZM10.2314 14.6589C10.1962 14.6941 10.1485 14.7138 10.0988 14.7138V14.3388C10.1485 14.3388 10.1962 14.3586 10.2314 14.3937C10.2665 14.4289 10.2863 14.4766 10.2863 14.5263C10.2863 14.5761 10.2665 14.6237 10.2314 14.6589Z" fill="#E5E5E5" stroke="#E5E5E5" stroke-width="0.25"/>
</svg>
