<svg width="24" height="25" viewBox="0 0 24 25" fill="none" xmlns="http://www.w3.org/2000/svg">
<g clip-path="url(#clip0_3156_12537)">
<path d="M15.4999 24.0645H4.49988C3.12188 24.0645 1.99988 22.9435 1.99988 21.5645V2.56445C1.99988 1.18645 3.12188 0.0644531 4.49988 0.0644531H15.4999C16.8779 0.0644531 17.9999 1.18645 17.9999 2.56445V3.56445C17.9999 3.84045 17.7759 4.06445 17.4999 4.06445C17.2239 4.06445 16.9999 3.84045 16.9999 3.56445V2.56445C16.9999 1.73745 16.3269 1.06445 15.4999 1.06445H4.49988C3.67288 1.06445 2.99988 1.73745 2.99988 2.56445V21.5645C2.99988 22.3915 3.67288 23.0645 4.49988 23.0645H15.4999C16.3269 23.0645 16.9999 22.3915 16.9999 21.5645V18.5645C16.9999 18.2885 17.2239 18.0645 17.4999 18.0645C17.7759 18.0645 17.9999 18.2885 17.9999 18.5645V21.5645C17.9999 22.9435 16.8779 24.0645 15.4999 24.0645Z" fill="#E5E5E5"/>
<path d="M12 3.06445H8C7.173 3.06445 6.5 2.39145 6.5 1.56445C6.5 1.28845 6.276 1.06445 6 1.06445H5C4.724 1.06445 4.5 0.840453 4.5 0.564453C4.5 0.288453 4.724 0.0644531 5 0.0644531H6C6.827 0.0644531 7.5 0.737453 7.5 1.56445C7.5 1.84045 7.724 2.06445 8 2.06445H12C12.276 2.06445 12.5 1.84045 12.5 1.56445C12.5 0.737453 13.173 0.0644531 14 0.0644531H15C15.276 0.0644531 15.5 0.288453 15.5 0.564453C15.5 0.840453 15.276 1.06445 15 1.06445H14C13.724 1.06445 13.5 1.28845 13.5 1.56445C13.5 2.39145 12.827 3.06445 12 3.06445Z" fill="#E5E5E5"/>
<path d="M12.5 19.0645C10.57 19.0645 9 17.4945 9 15.5645C9 14.6295 9.364 13.7515 10.025 13.0895L16.025 7.08945C16.686 6.42845 17.565 6.06445 18.5 6.06445C20.43 6.06445 22 7.63445 22 9.56445C22 10.4995 21.636 11.3785 20.975 12.0395L14.975 18.0395C14.314 18.7005 13.435 19.0645 12.5 19.0645ZM18.5 7.06445C17.832 7.06445 17.205 7.32445 16.732 7.79645L10.732 13.7965C10.26 14.2695 10 14.8975 10 15.5645C10 16.9435 11.122 18.0645 12.5 18.0645C13.168 18.0645 13.795 17.8045 14.268 17.3325L20.268 11.3325C20.74 10.8595 21 10.2325 21 9.56445C21 8.18645 19.878 7.06445 18.5 7.06445Z" fill="#E5E5E5"/>
<path d="M13.0225 10.7969L13.7296 10.0898L17.9715 14.3317L17.2644 15.0388L13.0225 10.7969Z" fill="#E5E5E5"/>
</g>
<defs>
<clipPath id="clip0_3156_12537">
<rect width="24" height="24" fill="white" transform="translate(0 0.0644531)"/>
</clipPath>
</defs>
</svg>
