<svg width="24" height="25" viewBox="0 0 24 25" fill="none" xmlns="http://www.w3.org/2000/svg">
<g clip-path="url(#clip0_1508_10095)">
<path d="M15.4999 24.064H4.49994C3.12194 24.064 1.99994 22.943 1.99994 21.564V2.56396C1.99994 1.18596 3.12194 0.0639648 4.49994 0.0639648H15.4999C16.8779 0.0639648 17.9999 1.18596 17.9999 2.56396V3.56396C17.9999 3.83996 17.7759 4.06396 17.4999 4.06396C17.2239 4.06396 16.9999 3.83996 16.9999 3.56396V2.56396C16.9999 1.73696 16.3269 1.06396 15.4999 1.06396H4.49994C3.67294 1.06396 2.99994 1.73696 2.99994 2.56396V21.564C2.99994 22.391 3.67294 23.064 4.49994 23.064H15.4999C16.3269 23.064 16.9999 22.391 16.9999 21.564V18.564C16.9999 18.288 17.2239 18.064 17.4999 18.064C17.7759 18.064 17.9999 18.288 17.9999 18.564V21.564C17.9999 22.943 16.8779 24.064 15.4999 24.064Z" fill="#E5E5E5"/>
<path d="M12 3.06396H8C7.173 3.06396 6.5 2.39096 6.5 1.56396C6.5 1.28796 6.276 1.06396 6 1.06396H5C4.724 1.06396 4.5 0.839965 4.5 0.563965C4.5 0.287965 4.724 0.0639648 5 0.0639648H6C6.827 0.0639648 7.5 0.736965 7.5 1.56396C7.5 1.83996 7.724 2.06396 8 2.06396H12C12.276 2.06396 12.5 1.83996 12.5 1.56396C12.5 0.736965 13.173 0.0639648 14 0.0639648H15C15.276 0.0639648 15.5 0.287965 15.5 0.563965C15.5 0.839965 15.276 1.06396 15 1.06396H14C13.724 1.06396 13.5 1.28796 13.5 1.56396C13.5 2.39096 12.827 3.06396 12 3.06396Z" fill="#E5E5E5"/>
<path d="M12.5 19.064C10.57 19.064 9 17.494 9 15.564C9 14.629 9.364 13.751 10.025 13.089L16.025 7.08896C16.686 6.42796 17.565 6.06396 18.5 6.06396C20.43 6.06396 22 7.63396 22 9.56396C22 10.499 21.636 11.378 20.975 12.039L14.975 18.039C14.314 18.7 13.435 19.064 12.5 19.064ZM18.5 7.06396C17.832 7.06396 17.205 7.32396 16.732 7.79596L10.732 13.796C10.26 14.269 10 14.897 10 15.564C10 16.943 11.122 18.064 12.5 18.064C13.168 18.064 13.795 17.804 14.268 17.332L20.268 11.332C20.74 10.859 21 10.232 21 9.56396C21 8.18596 19.878 7.06396 18.5 7.06396Z" fill="#E5E5E5"/>
<path d="M13.0225 10.7964L13.7296 10.0893L17.9715 14.3312L17.2644 15.0383L13.0225 10.7964Z" fill="#E5E5E5"/>
</g>
<defs>
<clipPath id="clip0_1508_10095">
<rect width="24" height="24" fill="white" transform="translate(0 0.0639648)"/>
</clipPath>
</defs>
</svg>
