<svg width="24" height="25" viewBox="0 0 24 25" fill="none" xmlns="http://www.w3.org/2000/svg">
<g clip-path="url(#clip0_1508_10196)">
<path d="M23.904 10.6838C23.825 10.0808 23.484 9.55781 22.967 9.24581C22.458 8.93883 21.848 8.8838 21.279 9.09581C20.819 9.26981 20.291 9.0308 20.079 8.5568C19.835 8.01281 19.536 7.4918 19.188 7.00781C18.878 6.57783 18.936 6.01383 19.322 5.69583C19.782 5.31783 20.039 4.75884 20.027 4.16381C20.015 3.5588 19.729 3.00183 19.245 2.63381C18.447 2.0288 17.577 1.52681 16.658 1.13981C16.093 0.901827 15.466 0.934827 14.936 1.22681C14.415 1.51481 14.061 2.01483 13.963 2.6018C13.88 3.0968 13.422 3.42778 12.888 3.3728C12.304 3.31078 11.6961 3.31078 11.113 3.3728C10.584 3.42881 10.121 3.0968 10.038 2.6018C9.94003 2.01478 9.58603 1.51378 9.06506 1.22681C8.53406 0.933796 7.90608 0.901827 7.34306 1.13981C6.42305 1.52681 5.55305 2.0288 4.75505 2.63381C4.27102 3.00178 3.98602 3.5588 3.97402 4.16278C3.96202 4.7588 4.21903 5.3168 4.68 5.6978C5.06498 6.01481 5.12301 6.57881 4.81401 7.0088C4.46503 7.49278 4.16602 8.0138 3.92203 8.55778C3.71105 9.03277 3.18202 9.2708 2.71102 9.09277C2.15503 8.88577 1.54402 8.94075 1.03402 9.24675C0.516 9.55777 0.175031 10.0817 0.0970312 10.6847C0.033 11.1808 0 11.6878 0 12.1888C0 12.6898 0.033 13.1968 0.096 13.6938C0.174984 14.2968 0.516 14.8198 1.03298 15.1318C1.542 15.4378 2.151 15.4938 2.721 15.2818C3.18 15.1068 3.708 15.3458 3.921 15.8208C4.16498 16.3648 4.464 16.8858 4.812 17.3698C5.12198 17.7998 5.064 18.3638 4.67798 18.6818C4.218 19.0598 3.96098 19.6187 3.97298 20.2138C3.98498 20.8188 4.27097 21.3758 4.755 21.7438C5.553 22.3488 6.423 22.8508 7.34198 23.2378C7.90697 23.4758 8.53298 23.4428 9.06398 23.1508C9.585 22.8628 9.939 22.3628 10.037 21.7758C10.12 21.2808 10.582 20.9498 11.112 21.0048C11.6949 21.0668 12.303 21.0668 12.887 21.0048C13.422 20.9518 13.879 21.2808 13.962 21.7758C14.06 22.3628 14.414 22.8638 14.9349 23.1508C15.231 23.3138 15.555 23.3958 15.8829 23.3958C16.1449 23.3958 16.407 23.3428 16.656 23.2378C17.5749 22.8508 18.4449 22.3478 19.2429 21.7438C19.728 21.3768 20.013 20.8188 20.025 20.2148C20.037 19.6187 19.7799 19.0598 19.32 18.6808C18.935 18.3638 18.8769 17.7998 19.1859 17.3698C19.5349 16.8858 19.8339 16.3648 20.0779 15.8208C20.2899 15.3458 20.8199 15.1088 21.2779 15.2818L21.2889 15.2858C21.8469 15.4948 22.4569 15.4378 22.9659 15.1318C23.484 14.8198 23.8249 14.2968 23.9029 13.6928C23.9669 13.1918 23.9999 12.6868 23.9999 12.1888C24 11.6908 23.967 11.1858 23.904 10.6838ZM22.911 13.5658C22.873 13.8628 22.705 14.1218 22.451 14.2748C22.206 14.4238 21.91 14.4497 21.63 14.3447L21.624 14.3427C20.67 13.9897 19.593 14.4587 19.166 15.4127C18.95 15.8948 18.684 16.3577 18.375 16.7867C17.754 17.6507 17.888 18.7977 18.686 19.4537C18.908 19.6367 19.032 19.9067 19.026 20.1947C19.02 20.4917 18.88 20.7657 18.64 20.9477C17.91 21.5018 17.112 21.9627 16.269 22.3167C15.99 22.4347 15.678 22.4187 15.418 22.2757C15.167 22.1367 14.996 21.8957 14.949 21.6127C14.79 20.6617 13.976 19.9997 13.009 19.9997C12.935 19.9997 12.859 20.0027 12.783 20.0087C12.268 20.0627 11.732 20.0627 11.217 20.0087C10.153 19.8877 9.222 20.5857 9.051 21.6097C9.00398 21.8927 8.83298 22.1347 8.58202 22.2727C8.32101 22.4167 8.01 22.4317 7.73001 22.3137C6.88701 21.9587 6.08902 21.4987 5.35903 20.9447C5.11903 20.7638 4.97902 20.4887 4.97302 20.1927C4.96702 19.9047 5.091 19.6347 5.31403 19.4517C6.11203 18.7957 6.24502 17.6487 5.62401 16.7847C5.31501 16.3547 5.05003 15.8927 4.83403 15.4107C4.40602 14.4547 3.32503 13.9877 2.35805 14.3477C2.09105 14.4477 1.79405 14.4227 1.54903 14.2737C1.29502 14.1217 1.12702 13.8627 1.08905 13.5647C1.03003 13.1108 1.00003 12.6467 1.00003 12.1887C1.00003 11.7307 1.03003 11.2667 1.09003 10.8117C1.12805 10.5147 1.29605 10.2557 1.55002 10.1027C1.794 9.95475 2.091 9.92775 2.37 10.0328C3.32498 10.3888 4.40602 9.92175 4.83398 8.96475C5.04998 8.48273 5.316 8.02073 5.625 7.59173C6.246 6.72773 6.11198 5.58075 5.31398 4.92473C5.09198 4.74173 4.968 4.47173 4.974 4.18373C4.98 3.88673 5.12002 3.61275 5.36002 3.43073C6.09 2.87672 6.888 2.41673 7.731 2.06175C8.01 1.94376 8.32101 1.95876 8.58202 2.10276C8.83303 2.24076 9.00403 2.48278 9.051 2.76675C9.222 3.79073 10.153 4.48177 11.217 4.36777C11.731 4.31377 12.267 4.31377 12.783 4.36777C13.841 4.48078 14.778 3.79078 14.949 2.76675C14.996 2.48377 15.167 2.24175 15.418 2.10375C15.679 1.95876 15.989 1.94376 16.27 2.06273C17.113 2.41772 17.911 2.87775 18.641 3.43172C18.881 3.6127 19.021 3.88772 19.027 4.18373C19.033 4.47173 18.909 4.74173 18.686 4.92473C17.888 5.58075 17.755 6.72773 18.376 7.59173C18.685 8.02172 18.95 8.48372 19.166 8.96573C19.594 9.92175 20.676 10.3898 21.642 10.0287C21.9099 9.9277 22.205 9.9547 22.451 10.1027C22.705 10.2557 22.873 10.5147 22.911 10.8117C22.97 11.2707 23 11.7337 23 12.1887C23 12.6438 22.97 13.1068 22.911 13.5658Z" fill="#E5E5E5"/>
<path d="M12 7.18896C9.24302 7.18896 7 9.43198 7 12.189C7 14.946 9.24302 17.1889 12 17.1889C14.757 17.1889 17 14.9459 17 12.1889C17 9.43193 14.757 7.18896 12 7.18896ZM12 16.189C9.79404 16.189 8.00003 14.395 8.00003 12.189C8.00003 9.98299 9.79404 8.18899 12 8.18899C14.206 8.18899 16 9.98299 16 12.189C16 14.395 14.206 16.189 12 16.189Z" fill="#E5E5E5"/>
</g>
<defs>
<clipPath id="clip0_1508_10196">
<rect width="24" height="24" fill="white" transform="translate(0 0.188965)"/>
</clipPath>
</defs>
</svg>
