<svg width="309" height="134" viewBox="0 0 309 134" fill="none" xmlns="http://www.w3.org/2000/svg">
<circle cx="39" cy="59" r="7" fill="#1F56C3"/>
<circle cx="175" cy="15" r="5" fill="#1F56C3" fill-opacity="0.07"/>
<circle cx="241" cy="49" r="3" fill="#1F56C3"/>
<circle cx="105" cy="38" r="3" fill="#1F56C3" fill-opacity="0.2"/>
<circle cx="14" cy="99" r="4" fill="#1F56C3"/>
<circle cx="129" cy="126" r="4" fill="#1F56C3" fill-opacity="0.2"/>
<circle cx="203" cy="76" r="2" fill="#1F56C3" fill-opacity="0.07"/>
<path d="M182.52 74.9062C182.786 74.9062 183.051 74.9062 183.317 74.9307V42.8054H105.024V98.3531C105.028 102.757 108.597 106.325 113.001 106.33H157.26C156.861 104.504 156.659 102.64 156.655 100.77C156.672 86.4927 168.242 74.9222 182.52 74.9062ZM123.033 65.0202H160.499C161.433 65.0202 162.191 65.7774 162.191 66.7122C162.191 67.646 161.433 68.4042 160.499 68.4042H123.033C122.098 68.4042 121.341 67.646 121.341 66.7122C121.341 65.7774 122.098 65.0202 123.033 65.0202ZM145.464 84.1161H123.033C122.098 84.1161 121.341 83.3579 121.341 82.4241C121.341 81.4893 122.098 80.732 123.033 80.732H145.464C146.398 80.732 147.156 81.4893 147.156 82.4241C147.156 83.3579 146.398 84.1161 145.464 84.1161Z" fill="#55ADFF"/>
<path d="M182.52 78.291C170.105 78.291 160.04 88.3554 160.04 100.771C160.04 113.187 170.105 123.251 182.52 123.251C194.936 123.251 205 113.187 205 100.771C204.99 88.3601 194.931 78.3013 182.52 78.291ZM196.564 95.066L180.514 110.415C180.2 110.712 179.785 110.876 179.354 110.875C178.905 110.871 178.473 110.7 178.146 110.392L169.032 101.254C168.372 100.593 168.372 99.5218 169.032 98.8618C169.693 98.2008 170.765 98.2008 171.425 98.8618L179.378 106.814L194.244 92.6252C194.567 92.3127 195.001 92.1418 195.45 92.1503C195.9 92.1597 196.327 92.3476 196.637 92.6734C197.269 93.357 197.237 94.4221 196.564 95.066Z" fill="#55ADFF"/>
<path d="M183.318 32.8714C183.313 28.4675 179.745 24.8984 175.341 24.8946H164.705V30.2361C164.705 31.1708 163.948 31.9281 163.013 31.9281C162.078 31.9281 161.321 31.1708 161.321 30.2361V24.8946H126.997V30.2361C126.997 31.1708 126.239 31.9281 125.305 31.9281C124.37 31.9281 123.613 31.1708 123.613 30.2361V24.8946H112.977C108.573 24.8984 105.005 28.4675 105 32.8714V39.446H183.293V32.8714H183.318Z" fill="#55ADFF"/>
</svg>
