<svg width="24" height="24" viewBox="0 0 24 24" fill="none" xmlns="http://www.w3.org/2000/svg">
<path d="M23.8717 3.63425C23.8717 3.48506 23.8125 3.34199 23.707 3.2365C23.6015 3.13101 23.4584 3.07175 23.3092 3.07175H20.8054C20.6789 2.53795 20.376 2.06245 19.9457 1.72219C19.5153 1.38194 18.9828 1.19684 18.4342 1.19684C17.8856 1.19684 17.3531 1.38194 16.9227 1.72219C16.4924 2.06245 16.1895 2.53795 16.063 3.07175H15.1804C15.0539 2.53795 14.751 2.06245 14.3207 1.72219C13.8903 1.38194 13.3578 1.19684 12.8092 1.19684C12.2606 1.19684 11.7281 1.38194 11.2977 1.72219C10.8674 2.06245 10.5645 2.53795 10.438 3.07175H9.55544C9.42892 2.53795 9.12599 2.06245 8.69566 1.72219C8.26534 1.38194 7.73279 1.19684 7.1842 1.19684C6.63561 1.19684 6.10306 1.38194 5.67274 1.72219C5.24241 2.06245 4.93948 2.53795 4.81296 3.07175H3.80899C3.68307 3.07248 3.56098 3.11514 3.462 3.19298C3.36302 3.27083 3.2928 3.37943 3.26243 3.50164L0.262425 15.8766C0.242361 15.9594 0.241341 16.0456 0.25944 16.1288C0.27754 16.212 0.314288 16.29 0.366915 16.3569C0.419541 16.4238 0.486673 16.4779 0.563249 16.5151C0.639826 16.5523 0.72385 16.5717 0.808988 16.5717H3.24649V18.6342C3.24649 18.7834 3.30575 18.9265 3.41124 19.0319C3.51673 19.1374 3.6598 19.1967 3.80899 19.1967H13.7657C13.9082 20.4721 14.5298 21.6457 15.5046 22.4802C16.4795 23.3148 17.7349 23.748 19.017 23.6922C20.2991 23.6364 21.5121 23.0958 22.4108 22.1797C23.3095 21.2636 23.8267 20.0404 23.8579 18.7575C23.8578 18.6983 23.8717 3.63425 23.8717 3.63425ZM22.7467 15.4716C22.5238 15.1937 22.2724 14.9398 21.9967 14.7142V11.1342C21.9967 10.985 21.9375 10.8419 21.832 10.7365C21.7265 10.631 21.5834 10.5717 21.4342 10.5717C21.285 10.5717 21.142 10.631 21.0365 10.7365C20.931 10.8419 20.8717 10.985 20.8717 11.1342V14.0167C20.463 13.8323 20.0315 13.7036 19.5886 13.6338L21.8765 4.19675H22.7466L22.7467 15.4716ZM4.25149 4.19675H4.81282C4.94001 4.73021 5.24313 5.2053 5.67331 5.54545C6.10349 5.8856 6.63567 6.07099 7.18408 6.07175C7.33327 6.07175 7.47634 6.01249 7.58183 5.907C7.68732 5.80151 7.74658 5.65843 7.74658 5.50925C7.74658 5.36006 7.68732 5.21699 7.58183 5.1115C7.47634 5.00601 7.33327 4.94675 7.18408 4.94675C6.93579 4.94652 6.69264 4.87595 6.48281 4.74322C6.27298 4.61048 6.10505 4.42101 5.99847 4.19675H10.4378C10.565 4.73021 10.8681 5.2053 11.2983 5.54545C11.7285 5.8856 12.2607 6.07099 12.8091 6.07175C12.9583 6.07175 13.1013 6.01249 13.2068 5.907C13.3123 5.80151 13.3716 5.65843 13.3716 5.50925C13.3716 5.36006 13.3123 5.21699 13.2068 5.1115C13.1013 5.00601 12.9583 4.94675 12.8091 4.94675C12.5608 4.94652 12.3176 4.87595 12.1078 4.74322C11.898 4.61048 11.73 4.42101 11.6235 4.19675H16.0628C16.19 4.73021 16.4931 5.2053 16.9233 5.54545C17.3535 5.8856 17.8857 6.07099 18.4341 6.07175C18.5833 6.07175 18.7263 6.01249 18.8318 5.907C18.9373 5.80151 18.9966 5.65843 18.9966 5.50925C18.9966 5.36006 18.9373 5.21699 18.8318 5.1115C18.7263 5.00601 18.5833 4.94675 18.4341 4.94675C18.1858 4.94652 17.9426 4.87595 17.7328 4.74322C17.523 4.61048 17.355 4.42101 17.2485 4.19675H20.7187L20.0823 6.82175H3.6153L4.25149 4.19675ZM18.4341 2.32175C18.6824 2.32199 18.9255 2.39257 19.1353 2.52531C19.3451 2.65804 19.5131 2.84751 19.6196 3.07175H17.2487C17.3552 2.84749 17.5231 2.65802 17.733 2.52529C17.9428 2.39255 18.1859 2.32198 18.4342 2.32175H18.4341ZM12.8091 2.32175C13.0574 2.32199 13.3005 2.39257 13.5103 2.52531C13.7201 2.65804 13.8881 2.84751 13.9946 3.07175H11.6237C11.7302 2.84749 11.8981 2.65802 12.108 2.52529C12.3178 2.39255 12.5609 2.32198 12.8092 2.32175H12.8091ZM7.18408 2.32175C7.43236 2.32199 7.6755 2.39257 7.88532 2.52531C8.09514 2.65804 8.26307 2.84751 8.36964 3.07175H5.99866C6.10522 2.84749 6.27315 2.65802 6.48297 2.52529C6.6928 2.39255 6.93594 2.32198 7.18422 2.32175H7.18408ZM3.34216 7.94675H19.8093L18.4428 13.5844C17.7509 13.633 17.0764 13.8234 16.4613 14.1438C15.8461 14.4642 15.3034 14.9077 14.867 15.4467H1.52416L3.34216 7.94675ZM4.37135 16.5717H14.1739C13.9608 17.0475 13.8231 17.5536 13.7657 18.0717H4.37149L4.37135 16.5717ZM19.3593 22.5309V22.0092C19.3593 21.8601 19.3 21.717 19.1945 21.6115C19.0891 21.506 18.946 21.4467 18.7968 21.4467C18.6476 21.4467 18.5045 21.506 18.3991 21.6115C18.2936 21.717 18.2343 21.8601 18.2343 22.0092V22.5309C17.3937 22.4082 16.6151 22.0174 16.0144 21.4167C15.4136 20.816 15.0228 20.0374 14.9001 19.1967H15.4218C15.571 19.1967 15.7141 19.1375 15.8195 19.032C15.925 18.9265 15.9843 18.7834 15.9843 18.6342C15.9843 18.4851 15.925 18.342 15.8195 18.2365C15.7141 18.131 15.571 18.0717 15.4218 18.0717H14.9001C15.0229 17.2311 15.4136 16.4525 16.0144 15.8518C16.6151 15.2511 17.3937 14.8603 18.2343 14.7376V15.2592C18.2343 15.4084 18.2936 15.5515 18.3991 15.657C18.5045 15.7625 18.6476 15.8217 18.7968 15.8217C18.946 15.8217 19.0891 15.7625 19.1945 15.657C19.3 15.5515 19.3593 15.4084 19.3593 15.2592V14.7376C20.1999 14.8603 20.9785 15.2511 21.5792 15.8518C22.18 16.4525 22.5707 17.2311 22.6935 18.0717H22.1718C22.0226 18.0717 21.8795 18.131 21.7741 18.2365C21.6686 18.342 21.6093 18.4851 21.6093 18.6342C21.6093 18.7834 21.6686 18.9265 21.7741 19.032C21.8795 19.1375 22.0226 19.1967 22.1718 19.1967H22.6935C22.5708 20.0374 22.18 20.816 21.5793 21.4167C20.9785 22.0174 20.1999 22.4082 19.3593 22.5309Z" fill="#333333"/>
<path d="M12.2468 10.0093H13.7468C13.896 10.0093 14.0391 9.95001 14.1446 9.84453C14.2501 9.73904 14.3093 9.59596 14.3093 9.44678C14.3093 9.29759 14.2501 9.15452 14.1446 9.04903C14.0391 8.94354 13.896 8.88428 13.7468 8.88428H12.2468C12.0976 8.88428 11.9546 8.94354 11.8491 9.04903C11.7436 9.15452 11.6843 9.29759 11.6843 9.44678C11.6843 9.59596 11.7436 9.73904 11.8491 9.84453C11.9546 9.95001 12.0976 10.0093 12.2468 10.0093Z" fill="#333333"/>
<path d="M8.49683 10.0093H9.99683C10.146 10.0093 10.2891 9.95001 10.3946 9.84453C10.5001 9.73904 10.5593 9.59596 10.5593 9.44678C10.5593 9.29759 10.5001 9.15452 10.3946 9.04903C10.2891 8.94354 10.146 8.88428 9.99683 8.88428H8.49683C8.34764 8.88428 8.20457 8.94354 8.09908 9.04903C7.99359 9.15452 7.93433 9.29759 7.93433 9.44678C7.93433 9.59596 7.99359 9.73904 8.09908 9.84453C8.20457 9.95001 8.34764 10.0093 8.49683 10.0093Z" fill="#333333"/>
<path d="M4.74683 10.0093H6.24683C6.39601 10.0093 6.53908 9.95001 6.64457 9.84453C6.75006 9.73904 6.80933 9.59596 6.80933 9.44678C6.80933 9.29759 6.75006 9.15452 6.64457 9.04903C6.53908 8.94354 6.39601 8.88428 6.24683 8.88428H4.74683C4.59764 8.88428 4.45457 8.94354 4.34908 9.04903C4.24359 9.15452 4.18433 9.29759 4.18433 9.44678C4.18433 9.59596 4.24359 9.73904 4.34908 9.84453C4.45457 9.95001 4.59764 10.0093 4.74683 10.0093Z" fill="#333333"/>
<path d="M15.9968 10.0093H17.4968C17.646 10.0093 17.7891 9.95001 17.8946 9.84453C18.0001 9.73904 18.0593 9.59596 18.0593 9.44678C18.0593 9.29759 18.0001 9.15452 17.8946 9.04903C17.7891 8.94354 17.646 8.88428 17.4968 8.88428H15.9968C15.8476 8.88428 15.7046 8.94354 15.5991 9.04903C15.4936 9.15452 15.4343 9.29759 15.4343 9.44678C15.4343 9.59596 15.4936 9.73904 15.5991 9.84453C15.7046 9.95001 15.8476 10.0093 15.9968 10.0093Z" fill="#333333"/>
<path d="M11.4968 12.2593H12.9968C13.146 12.2593 13.2891 12.2 13.3946 12.0945C13.5001 11.989 13.5593 11.846 13.5593 11.6968C13.5593 11.5476 13.5001 11.4045 13.3946 11.299C13.2891 11.1935 13.146 11.1343 12.9968 11.1343H11.4968C11.3476 11.1343 11.2046 11.1935 11.0991 11.299C10.9936 11.4045 10.9343 11.5476 10.9343 11.6968C10.9343 11.846 10.9936 11.989 11.0991 12.0945C11.2046 12.2 11.3476 12.2593 11.4968 12.2593Z" fill="#333333"/>
<path d="M7.74683 12.2593H9.24683C9.39601 12.2593 9.53908 12.2 9.64457 12.0945C9.75006 11.989 9.80933 11.846 9.80933 11.6968C9.80933 11.5476 9.75006 11.4045 9.64457 11.299C9.53908 11.1935 9.39601 11.1343 9.24683 11.1343H7.74683C7.59764 11.1343 7.45457 11.1935 7.34908 11.299C7.24359 11.4045 7.18433 11.5476 7.18433 11.6968C7.18433 11.846 7.24359 11.989 7.34908 12.0945C7.45457 12.2 7.59764 12.2593 7.74683 12.2593Z" fill="#333333"/>
<path d="M3.99683 12.2593H5.49683C5.64601 12.2593 5.78908 12.2 5.89457 12.0945C6.00006 11.989 6.05933 11.846 6.05933 11.6968C6.05933 11.5476 6.00006 11.4045 5.89457 11.299C5.78908 11.1935 5.64601 11.1343 5.49683 11.1343H3.99683C3.84764 11.1343 3.70457 11.1935 3.59908 11.299C3.49359 11.4045 3.43433 11.5476 3.43433 11.6968C3.43433 11.846 3.49359 11.989 3.59908 12.0945C3.70457 12.2 3.84764 12.2593 3.99683 12.2593Z" fill="#333333"/>
<path d="M15.2468 12.2593H16.7468C16.896 12.2593 17.0391 12.2 17.1446 12.0945C17.2501 11.989 17.3093 11.846 17.3093 11.6968C17.3093 11.5476 17.2501 11.4045 17.1446 11.299C17.0391 11.1935 16.896 11.1343 16.7468 11.1343H15.2468C15.0976 11.1343 14.9546 11.1935 14.8491 11.299C14.7436 11.4045 14.6843 11.5476 14.6843 11.6968C14.6843 11.846 14.7436 11.989 14.8491 12.0945C14.9546 12.2 15.0976 12.2593 15.2468 12.2593Z" fill="#333333"/>
<path d="M11.1218 14.5093H12.6218C12.771 14.5093 12.9141 14.45 13.0196 14.3445C13.1251 14.239 13.1843 14.096 13.1843 13.9468C13.1843 13.7976 13.1251 13.6545 13.0196 13.549C12.9141 13.4435 12.771 13.3843 12.6218 13.3843H11.1218C10.9726 13.3843 10.8296 13.4435 10.7241 13.549C10.6186 13.6545 10.5593 13.7976 10.5593 13.9468C10.5593 14.096 10.6186 14.239 10.7241 14.3445C10.8296 14.45 10.9726 14.5093 11.1218 14.5093Z" fill="#333333"/>
<path d="M7.37183 14.5093H8.87183C9.02101 14.5093 9.16408 14.45 9.26957 14.3445C9.37506 14.239 9.43433 14.096 9.43433 13.9468C9.43433 13.7976 9.37506 13.6545 9.26957 13.549C9.16408 13.4435 9.02101 13.3843 8.87183 13.3843H7.37183C7.22264 13.3843 7.07957 13.4435 6.97408 13.549C6.86859 13.6545 6.80933 13.7976 6.80933 13.9468C6.80933 14.096 6.86859 14.239 6.97408 14.3445C7.07957 14.45 7.22264 14.5093 7.37183 14.5093Z" fill="#333333"/>
<path d="M5.68433 13.9468C5.68433 13.7976 5.62506 13.6545 5.51957 13.549C5.41408 13.4435 5.27101 13.3843 5.12183 13.3843H3.62183C3.47264 13.3843 3.32957 13.4435 3.22408 13.549C3.11859 13.6545 3.05933 13.7976 3.05933 13.9468C3.05933 14.096 3.11859 14.239 3.22408 14.3445C3.32957 14.45 3.47264 14.5093 3.62183 14.5093H5.12183C5.27101 14.5093 5.41408 14.45 5.51957 14.3445C5.62506 14.239 5.68433 14.096 5.68433 13.9468Z" fill="#333333"/>
<path d="M19.8989 16.7367L18.6856 17.95L17.5482 17.3813C17.4147 17.3146 17.2603 17.3036 17.1187 17.3508C16.9772 17.398 16.8602 17.4994 16.7935 17.6329C16.7268 17.7663 16.7158 17.9208 16.763 18.0623C16.8102 18.2038 16.9117 18.3208 17.0451 18.3875L18.5451 19.1375C18.6507 19.1903 18.7702 19.2085 18.8867 19.1896C19.0033 19.1707 19.1109 19.1156 19.1944 19.0322L20.6944 17.5322C20.7994 17.4266 20.8583 17.2837 20.8581 17.1347C20.8579 16.9858 20.7986 16.8431 20.6933 16.7378C20.588 16.6325 20.4453 16.5732 20.2963 16.573C20.1474 16.5728 20.0045 16.6316 19.8989 16.7367Z" fill="#333333"/>
</svg>
