<svg width="24" height="24" viewBox="0 0 24 24" fill="none" xmlns="http://www.w3.org/2000/svg">
<path d="M23.1233 4.68484C22.9663 3.92585 22.5999 3.24537 22.0764 2.72192C21.9194 2.56489 21.7362 2.40785 21.5268 2.27699L21.5006 2.25082C21.4745 2.22465 21.4483 2.22465 21.4221 2.19847C21.3436 2.14613 21.2651 2.09378 21.1866 2.06761H21.1604C20.6108 1.77972 20.0088 1.62268 19.3283 1.62268H17.7056V0.497274C17.7056 0.235551 17.4963 0 17.2084 0C16.9466 0 16.7111 0.209378 16.7111 0.497274V1.57034H7.31524V0.497274C7.31524 0.235551 7.07969 0 6.81797 0C6.55625 0 6.3207 0.209378 6.3207 0.497274V1.57034H4.69801C4.20074 1.57034 3.70347 1.67503 3.25854 1.85823C2.76126 2.06761 2.31633 2.35551 1.94992 2.72192C1.74054 2.9313 1.55734 3.16685 1.4003 3.4024C1.24327 3.66412 1.11241 3.92585 1.00772 4.21374C0.955374 4.37077 0.903029 4.52781 0.876857 4.68484C0.824512 4.94656 0.79834 5.20829 0.79834 5.47001V8.08724V20.1527C0.79834 21.2257 1.24327 22.1941 1.92375 22.8746C2.6304 23.5812 3.59878 24 4.64567 24H19.3545C20.4276 24 21.3959 23.5551 22.0764 22.8746C22.7831 22.1679 23.2018 21.1996 23.2018 20.1527V8.08724V5.47001C23.2018 5.20829 23.1757 4.94656 23.1233 4.68484ZM1.81906 5.44384C1.81906 5.23446 1.84523 5.05125 1.8714 4.86805C1.89758 4.68484 1.97609 4.50164 2.02844 4.31843C2.13313 4.08288 2.26399 3.8735 2.39485 3.69029C2.47337 3.58561 2.55188 3.50709 2.6304 3.4024C2.78743 3.24537 2.97064 3.1145 3.15385 2.98364C3.59878 2.72192 4.09605 2.56489 4.64567 2.56489H6.26835V3.63795C6.26835 3.89967 6.47773 4.13522 6.76562 4.13522C7.02735 4.13522 7.2629 3.92585 7.2629 3.63795V2.56489H16.7896V3.63795C16.7896 3.89967 16.999 4.13522 17.2869 4.13522C17.5486 4.13522 17.7842 3.92585 17.7842 3.63795V2.56489H19.4068C19.9565 2.56489 20.4799 2.72192 20.8987 2.98364C21.0819 3.1145 21.2651 3.24537 21.4221 3.4024C21.8147 3.79498 22.1026 4.29226 22.2073 4.86805C22.2335 5.05125 22.2596 5.26063 22.2596 5.44384V7.58997H1.81906V5.44384ZM22.2858 20.1265C22.2858 20.9378 21.9717 21.6707 21.4483 22.1941C20.9248 22.7176 20.192 23.0316 19.4068 23.0316H4.69801C3.91284 23.0316 3.18002 22.7176 2.65657 22.1941C2.13313 21.6707 1.81906 20.9378 1.81906 20.1527V8.55834H22.2858V20.1265Z" fill="#333333"/>
</svg>
