<svg width="24" height="24" viewBox="0 0 24 24" fill="none" xmlns="http://www.w3.org/2000/svg">
<g clip-path="url(#clip0_1590_52285)">
<path d="M15.4963 11.6504C16.9041 10.0063 17.7829 7.61575 17.7829 5.8063C17.7829 2.60315 15.1797 0 11.9766 0C8.77342 0 6.17027 2.60315 6.17027 5.8063C6.17027 7.61575 7.04901 10.0063 8.45689 11.6504C-0.0612226 14.5134 0.831691 22.3937 1.20492 24H22.7482C24.0191 18.4961 20.6553 13.1575 15.4963 11.6504ZM11.9766 0.774803C14.0128 0.774803 15.7655 1.98898 16.5545 3.73228C14.6222 5.05039 12.6616 3.5622 12.6616 3.5622C11.2915 2.76378 9.57185 2.83937 8.27736 3.74646L7.10571 4.5685C7.65846 2.39528 9.62854 0.774803 11.9766 0.774803ZM6.94508 5.8063C6.94508 5.74488 6.9498 5.68346 6.95453 5.62205L8.72145 4.37953C9.77027 3.64252 11.164 3.58583 12.2695 4.22835C12.2695 4.22835 14.4285 5.88189 16.8238 4.47874C16.9372 4.89921 17.0081 5.34331 17.0081 5.80157C17.0081 8.55118 14.7545 12.7701 11.9766 12.7701C9.19862 12.7701 6.94508 8.55591 6.94508 5.8063ZM22.1057 23.2252H1.85216C1.26634 19.5921 2.75453 16.1008 5.49468 13.9984C5.66004 15.085 5.9813 16.1291 6.45846 17.1213C5.26319 17.8724 4.70098 19.3795 5.1876 20.7638L5.83012 22.5874L7.28996 22.0724L7.03484 21.3402L6.30256 21.5953L5.91516 20.4992C5.48996 19.2898 6.12775 17.9622 7.3372 17.537C8.54193 17.1118 9.87421 17.7496 10.2994 18.9591L10.6821 20.0551L9.9498 20.3102L10.2049 21.0425L11.6648 20.5276L11.0222 18.6992C10.4648 17.1118 8.74035 16.2661 7.15295 16.7811C6.65216 15.7417 6.3309 14.6362 6.20334 13.4882C7.06319 12.9449 8.02697 12.5291 9.07106 12.2693C9.91673 13.0394 10.8994 13.5307 11.9718 13.5307C13.0443 13.5307 14.027 13.0394 14.8726 12.2693C16.0915 12.5717 17.2018 13.0866 18.1655 13.7764C17.9388 14.8063 17.5608 15.7843 17.0317 16.6913C16.8994 16.6535 16.7624 16.6252 16.6159 16.6252C15.7608 16.6252 15.0663 17.3197 15.0663 18.1748C15.0663 19.0299 15.7608 19.7244 16.6159 19.7244C17.4711 19.7244 18.1655 19.0299 18.1655 18.1748C18.1655 17.7449 17.9907 17.3575 17.7026 17.074C18.2081 16.2 18.586 15.274 18.8364 14.2961C21.3356 16.4457 22.6585 19.7764 22.1057 23.2252ZM17.3955 18.1937C17.3955 18.6189 17.0459 18.9685 16.6207 18.9685C16.1955 18.9685 15.8459 18.6236 15.8459 18.1937C15.8459 17.7638 16.1955 17.4189 16.6207 17.4189C17.0506 17.4189 17.3955 17.7685 17.3955 18.1937Z" fill="#333333"/>
</g>
<defs>
<clipPath id="clip0_1590_52285">
<rect width="24" height="24" fill="white"/>
</clipPath>
</defs>
</svg>
