<svg width="24" height="24" viewBox="0 0 24 24" fill="none" xmlns="http://www.w3.org/2000/svg">
<g clip-path="url(#clip0_1590_52303)">
<path d="M8.48535 6.68359L8.07946 6.83068C7.45302 7.05784 6.98568 7.60581 6.85973 8.26117L6.72201 8.98285C6.65329 9.34032 6.74685 9.70641 6.97883 9.98715C7.21091 10.2682 7.5531 10.4293 7.91751 10.4293H11.4358C11.7974 10.4293 12.1378 10.2703 12.3699 9.99296C12.6017 9.71588 12.6982 9.35312 12.6345 8.99767L12.5061 8.27977C12.3871 7.6141 11.9182 7.05723 11.2823 6.82646L10.852 6.67051V6.03629C10.852 6.01848 10.8502 6.00113 10.8477 5.98402C11.1616 5.66443 11.3414 5.22863 11.3414 4.78276V3.83781C11.3414 2.9154 10.5909 2.16498 9.66847 2.16498C8.74602 2.16498 7.99541 2.9154 7.99541 3.83781V4.8122C7.99541 5.27054 8.18441 5.68899 8.4883 5.99288C8.48652 6.00713 8.48535 6.02152 8.48535 6.03624V6.68359ZM11.8138 8.40352L11.9423 9.12151C11.9692 9.27156 11.9285 9.4247 11.8305 9.5417C11.7325 9.65888 11.5886 9.72615 11.4357 9.72615H7.91741C7.76343 9.72615 7.61887 9.65809 7.5208 9.53935C7.42293 9.42085 7.38341 9.2664 7.41248 9.11513L7.55019 8.39345C7.62955 7.98038 7.92421 7.63487 8.31894 7.49176L8.58482 7.39543C8.59147 7.40227 8.59818 7.40916 8.6054 7.41549C8.90835 7.68038 9.28836 7.81285 9.66861 7.81281C10.0484 7.81281 10.4283 7.68062 10.7313 7.41624C10.7422 7.40673 10.7523 7.39646 10.7618 7.38577L11.0423 7.48745C11.4433 7.63285 11.7388 7.98385 11.8138 8.40352ZM8.69854 3.83781C8.69854 3.30315 9.13358 2.8681 9.66833 2.8681C10.1196 2.8681 10.4989 3.17842 10.6065 3.59654C10.5613 3.61862 10.515 3.63948 10.4675 3.65846C10.0352 3.83152 9.68605 3.80856 9.58625 3.73862C9.42725 3.62715 9.20807 3.66559 9.09655 3.82459C8.98508 3.98359 9.02357 4.20277 9.18252 4.31429C9.35422 4.43471 9.58728 4.4949 9.85325 4.4949C10.0949 4.4949 10.3637 4.4447 10.6382 4.34537V4.78267C10.6382 5.0514 10.527 5.31456 10.3332 5.50463C10.2435 5.59267 10.1407 5.66087 10.0303 5.70793C10.0226 5.71088 10.015 5.71407 10.0075 5.71754C9.89413 5.7624 9.773 5.78495 9.64921 5.78171C9.12496 5.77163 8.69854 5.33668 8.69854 4.81215V3.83781ZM9.63571 6.48479C9.64644 6.48498 9.65708 6.48507 9.66782 6.48507C9.83277 6.48507 9.99439 6.46027 10.1488 6.4127V6.97515C9.85578 7.15581 9.48121 7.15571 9.18857 6.97487V6.41373C9.33079 6.45681 9.48064 6.48179 9.63571 6.48479Z" fill="#333333"/>
<path d="M4.13745 16.4484H15.086C15.2802 16.4484 15.4376 16.291 15.4376 16.0968C15.4376 15.9026 15.2802 15.7452 15.086 15.7452H4.13745C3.94325 15.7452 3.78589 15.9026 3.78589 16.0968C3.78589 16.291 3.94325 16.4484 4.13745 16.4484Z" fill="#333333"/>
<path d="M4.13745 18.3445H15.086C15.2802 18.3445 15.4376 18.1872 15.4376 17.993C15.4376 17.7988 15.2802 17.6414 15.086 17.6414H4.13745C3.94325 17.6414 3.78589 17.7988 3.78589 17.993C3.78589 18.1872 3.94325 18.3445 4.13745 18.3445Z" fill="#333333"/>
<path d="M4.13745 20.2397H15.086C15.2802 20.2397 15.4376 20.0823 15.4376 19.8881C15.4376 19.6939 15.2802 19.5366 15.086 19.5366H4.13745C3.94325 19.5366 3.78589 19.6939 3.78589 19.8881C3.78589 20.0823 3.94325 20.2397 4.13745 20.2397Z" fill="#333333"/>
<path d="M4.13745 22.1359H15.086C15.2802 22.1359 15.4376 21.9786 15.4376 21.7844C15.4376 21.5902 15.2802 21.4328 15.086 21.4328H4.13745C3.94325 21.4328 3.78589 21.5902 3.78589 21.7844C3.78589 21.9786 3.94325 22.1359 4.13745 22.1359Z" fill="#333333"/>
<path d="M3.78589 12.3054C3.78589 12.4996 3.94325 12.657 4.13745 12.657H15.086C15.2802 12.657 15.4376 12.4996 15.4376 12.3054C15.4376 12.1112 15.2802 11.9539 15.086 11.9539H4.13745C3.94325 11.9539 3.78589 12.1113 3.78589 12.3054Z" fill="#333333"/>
<path d="M4.13745 14.5531H15.086C15.2802 14.5531 15.4376 14.3957 15.4376 14.2015C15.4376 14.0073 15.2802 13.85 15.086 13.85H4.13745C3.94325 13.85 3.78589 14.0073 3.78589 14.2015C3.78589 14.3957 3.94325 14.5531 4.13745 14.5531Z" fill="#333333"/>
<path d="M2.8392 16.45C3.03411 16.45 3.19212 16.292 3.19212 16.0971C3.19212 15.9022 3.03411 15.7442 2.8392 15.7442C2.6443 15.7442 2.48633 15.9022 2.48633 16.0971C2.48633 16.292 2.64434 16.45 2.8392 16.45Z" fill="#333333"/>
<path d="M2.8392 12.6586C3.03411 12.6586 3.19212 12.5007 3.19212 12.3058C3.19212 12.1108 3.03411 11.9529 2.8392 11.9529C2.6443 11.9529 2.48633 12.1108 2.48633 12.3058C2.48633 12.5007 2.64434 12.6586 2.8392 12.6586Z" fill="#333333"/>
<path d="M2.8392 14.5547C3.03411 14.5547 3.19212 14.3968 3.19212 14.2019C3.19212 14.007 3.03411 13.849 2.8392 13.849C2.6443 13.849 2.48633 14.007 2.48633 14.2019C2.48633 14.3968 2.64434 14.5547 2.8392 14.5547Z" fill="#333333"/>
<path d="M2.8392 18.3452C3.03411 18.3452 3.19212 18.1872 3.19212 17.9923C3.19212 17.7974 3.03411 17.6394 2.8392 17.6394C2.6443 17.6394 2.48633 17.7974 2.48633 17.9923C2.48633 18.1872 2.64434 18.3452 2.8392 18.3452Z" fill="#333333"/>
<path d="M2.8392 20.2414C3.03411 20.2414 3.19212 20.0834 3.19212 19.8885C3.19212 19.6936 3.03411 19.5356 2.8392 19.5356C2.6443 19.5356 2.48633 19.6936 2.48633 19.8885C2.48633 20.0834 2.64434 20.2414 2.8392 20.2414Z" fill="#333333"/>
<path d="M2.8392 22.1366C3.03411 22.1366 3.19212 21.9786 3.19212 21.7837C3.19212 21.5889 3.03411 21.4308 2.8392 21.4308C2.6443 21.4308 2.48633 21.5888 2.48633 21.7837C2.48633 21.9786 2.64434 22.1366 2.8392 22.1366Z" fill="#333333"/>
<path d="M22.7639 5.53692C22.6221 5.35739 22.488 5.18775 22.4232 5.03147C22.3533 4.86277 22.3257 4.63987 22.2965 4.40381C22.2454 3.99028 22.1875 3.52158 21.8604 3.19453C21.5333 2.86748 21.0645 2.80955 20.651 2.75841C20.4149 2.72925 20.1919 2.70169 20.0232 2.63175C19.8669 2.56692 19.6973 2.43295 19.5177 2.29106C19.2706 2.09583 18.9989 1.88147 18.6776 1.7842V1.67784C18.6777 0.752719 17.9249 0 16.9996 0H2.35381C1.42855 0 0.675781 0.752719 0.675781 1.67789V3.03488C0.675781 3.22908 0.833141 3.38644 1.02734 3.38644C1.22155 3.38644 1.37891 3.22908 1.37891 3.03488V1.67789C1.37891 1.14037 1.81625 0.703125 2.35381 0.703125H16.9996C17.5372 0.703125 17.9745 1.14037 17.9745 1.67789V1.7843C17.6533 1.88161 17.3817 2.09588 17.1346 2.29111C16.955 2.43295 16.7855 2.56697 16.6292 2.6318C16.4605 2.70169 16.2375 2.72925 16.0014 2.75845C15.5878 2.80955 15.1191 2.86748 14.792 3.19453C14.4649 3.52163 14.4069 3.99033 14.3558 4.40386C14.3266 4.63987 14.2991 4.86281 14.2291 5.03152C14.1643 5.1878 14.0303 5.35744 13.8884 5.53697C13.6257 5.86936 13.328 6.24609 13.328 6.72839C13.328 7.21069 13.6258 7.58742 13.8884 7.91981C14.0302 8.09934 14.1643 8.26898 14.2291 8.42527C14.2991 8.59397 14.3266 8.81686 14.3558 9.05297C14.4069 9.46645 14.4649 9.93516 14.792 10.2622C15.119 10.5893 15.5878 10.6472 16.0013 10.6983C16.1246 10.7136 16.2441 10.7285 16.3544 10.7491V16.0632C16.3544 16.2715 16.4706 16.4575 16.6578 16.5486C16.8449 16.6399 17.063 16.6167 17.2272 16.4882L17.9745 15.9031V22.3222C17.9745 22.8597 17.5371 23.2969 16.9996 23.2969H2.35381C1.81625 23.2969 1.37891 22.8597 1.37891 22.3222V4.58302C1.37891 4.38881 1.22155 4.23145 1.02734 4.23145C0.833141 4.23145 0.675781 4.38881 0.675781 4.58302V22.3221C0.675781 23.2473 1.42855 24 2.35381 24H16.9996C17.9249 24 18.6777 23.2473 18.6777 22.3221V15.903L19.425 16.4881C19.5225 16.5645 19.6393 16.6037 19.7573 16.6037C19.8377 16.6037 19.9187 16.5855 19.9947 16.5485C20.1819 16.4574 20.2982 16.2714 20.2982 16.0632V12.1399C20.2982 11.9457 20.1409 11.7883 19.9467 11.7883C19.7525 11.7883 19.5951 11.9457 19.5951 12.1399V15.7284L18.6605 14.9967C18.5661 14.922 18.4473 14.8807 18.326 14.8807C18.2048 14.8807 18.086 14.922 17.993 14.9955L17.0575 15.728V11.105C17.083 11.1249 17.1086 11.1451 17.1346 11.1656C17.467 11.4283 17.8438 11.7259 18.3261 11.7259C18.8084 11.7259 19.1852 11.4283 19.5177 11.1657C19.6972 11.0238 19.8669 10.8898 20.0232 10.8249C20.1919 10.755 20.4148 10.7275 20.651 10.6983C21.0645 10.6472 21.5332 10.5893 21.8604 10.2622C22.1874 9.93511 22.2454 9.46641 22.2965 9.05292C22.3257 8.81686 22.3533 8.59392 22.4232 8.42522C22.488 8.26894 22.622 8.0993 22.7639 7.91977C23.0266 7.58738 23.3243 7.21064 23.3243 6.72834C23.3243 6.24605 23.0266 5.86931 22.7639 5.53692ZM22.2123 7.48383C22.0469 7.69312 21.8759 7.9095 21.7738 8.15588C21.6672 8.41275 21.6324 8.69433 21.5987 8.96663C21.5579 9.29691 21.5194 9.60886 21.3633 9.76495C21.2071 9.92105 20.8951 9.95958 20.5648 10.0004C20.2925 10.0341 20.0109 10.0688 19.754 10.1754C19.5076 10.2775 19.2912 10.4485 19.0819 10.6139C18.8157 10.8241 18.5643 11.0227 18.3262 11.0227C18.0882 11.0227 17.8368 10.8241 17.5706 10.6139C17.3613 10.4485 17.1449 10.2775 16.8985 10.1754C16.8815 10.1684 16.8227 10.146 16.81 10.142C16.5776 10.0612 16.329 10.0302 16.0876 10.0004C15.7573 9.95958 15.4453 9.921 15.2892 9.76491C15.1331 9.60886 15.0945 9.29691 15.0537 8.96667C15.02 8.69433 14.9853 8.41284 14.8787 8.15588C14.7765 7.9095 14.6056 7.69312 14.4402 7.48383C14.23 7.21767 14.0313 6.96633 14.0313 6.72834C14.0313 6.49036 14.2299 6.23902 14.4402 5.97286C14.6056 5.76356 14.7766 5.54719 14.8787 5.30081C14.9853 5.04394 15.0201 4.76236 15.0537 4.49006C15.0945 4.15978 15.1331 3.84783 15.2892 3.69173C15.4453 3.53564 15.7573 3.49711 16.0877 3.45628C16.36 3.42263 16.6415 3.38784 16.8985 3.2813C17.1449 3.17916 17.3613 3.0082 17.5706 2.84283C17.8362 2.63297 18.0872 2.43478 18.3248 2.43403C18.3253 2.43403 18.3257 2.43408 18.3261 2.43408C18.3266 2.43408 18.3271 2.43403 18.3275 2.43403C18.5653 2.43473 18.8162 2.63297 19.0819 2.84283C19.2912 3.00816 19.5076 3.17916 19.754 3.2813C20.0109 3.38784 20.2925 3.42267 20.5648 3.45628C20.8952 3.49711 21.2072 3.53569 21.3633 3.69178C21.5194 3.84788 21.5579 4.15978 21.5988 4.49006C21.6324 4.76236 21.6672 5.04389 21.7738 5.30081C21.8759 5.54719 22.0469 5.76356 22.2123 5.97286C22.4225 6.23902 22.6212 6.49036 22.6212 6.72834C22.6212 6.96633 22.4225 7.21772 22.2123 7.48383Z" fill="#333333"/>
<path d="M20.5833 5.61094L19.3869 5.27245L18.6952 4.23933C18.6126 4.11595 18.4747 4.04236 18.3262 4.04236C18.1778 4.04236 18.0398 4.116 17.9572 4.23933L17.2655 5.27245L16.069 5.61098C15.9262 5.65144 15.8135 5.75995 15.7676 5.90114C15.7218 6.04233 15.7493 6.19631 15.841 6.31284L16.6099 7.28986L16.5622 8.53191C16.5564 8.68031 16.6247 8.82103 16.7448 8.90836C16.8219 8.96437 16.9133 8.99334 17.0057 8.99334C17.0574 8.99334 17.1093 8.9843 17.1592 8.96592L18.3261 8.53664L19.493 8.96587C19.6323 9.01725 19.7872 8.99569 19.9073 8.90845C20.0274 8.82122 20.0958 8.68055 20.0901 8.53209L20.0424 7.28981L20.8113 6.3128C20.9031 6.19612 20.9305 6.04223 20.8846 5.90105C20.8389 5.75986 20.7262 5.65139 20.5833 5.61094ZM19.4308 6.93014C19.3658 7.01283 19.3322 7.11623 19.3362 7.22166L19.3726 8.17247L18.4795 7.84392C18.3806 7.8075 18.2716 7.80755 18.1728 7.84387L17.2796 8.17247L17.3161 7.22133C17.3201 7.11628 17.2864 7.01287 17.2213 6.92991L16.6329 6.18216L17.5487 5.92308C17.65 5.89434 17.7381 5.83031 17.7967 5.74284L18.3261 4.95206L18.8555 5.74275C18.9141 5.83026 19.0022 5.8943 19.1037 5.92312L20.0194 6.18216L19.4308 6.93014Z" fill="#333333"/>
</g>
<defs>
<clipPath id="clip0_1590_52303">
<rect width="24" height="24" fill="white"/>
</clipPath>
</defs>
</svg>
