<svg width="327" height="169" viewBox="0 0 327 169" fill="none" xmlns="http://www.w3.org/2000/svg">
<circle cx="48" cy="70" r="7" fill="#1F56C3"/>
<circle cx="184" cy="26" r="5" fill="#1F56C3" fill-opacity="0.07"/>
<circle cx="250" cy="60" r="3" fill="#1F56C3"/>
<circle cx="114" cy="49" r="3" fill="#1F56C3" fill-opacity="0.2"/>
<circle cx="23" cy="110" r="4" fill="#1F56C3"/>
<circle cx="138" cy="137" r="4" fill="#1F56C3" fill-opacity="0.2"/>
<circle cx="212" cy="87" r="2" fill="#1F56C3" fill-opacity="0.07"/>
<path d="M164 36.5557C155.21 36.5557 146.617 39.1623 139.308 44.0459C131.999 48.9295 126.303 55.8708 122.939 63.992C119.575 72.1131 118.695 81.0494 120.41 89.6708C122.125 98.2922 126.357 106.211 132.573 112.427C138.789 118.643 146.708 122.876 155.329 124.591C163.951 126.305 172.887 125.425 181.008 122.061C189.129 118.698 196.071 113.001 200.954 105.692C205.838 98.3833 208.445 89.7904 208.445 81.0001C208.445 69.2127 203.762 57.9081 195.427 49.5731C187.092 41.2382 175.788 36.5557 164 36.5557ZM164 119.889C156.309 119.889 148.79 117.608 142.395 113.335C135.999 109.062 131.015 102.988 128.071 95.8822C125.128 88.7762 124.358 80.957 125.858 73.4133C127.359 65.8696 131.063 58.9402 136.502 53.5015C141.94 48.0628 148.87 44.359 156.413 42.8585C163.957 41.3579 171.776 42.1281 178.882 45.0715C185.988 48.0149 192.062 52.9994 196.335 59.3946C200.608 65.7898 202.889 73.3086 202.889 81.0001C202.889 91.3141 198.792 101.206 191.499 108.499C184.206 115.792 174.314 119.889 164 119.889Z" fill="#55ADFF"/>
<path d="M191.777 64.61C191.257 64.0926 190.553 63.8022 189.819 63.8022C189.085 63.8022 188.381 64.0926 187.861 64.61L157.027 95.3044L140.361 78.6378C139.852 78.0889 139.147 77.7645 138.399 77.7358C137.652 77.7072 136.924 77.9767 136.375 78.485C135.826 78.9933 135.501 79.6989 135.473 80.4464C135.444 81.194 135.714 81.9223 136.222 82.4711L157.027 103.221L191.777 68.5545C192.038 68.2962 192.244 67.989 192.386 67.6505C192.527 67.312 192.599 66.9489 192.599 66.5822C192.599 66.2155 192.527 65.8525 192.386 65.514C192.244 65.1755 192.038 64.8682 191.777 64.61Z" fill="#55ADFF"/>
</svg>
