<svg width="24" height="24" viewBox="0 0 24 24" fill="none" xmlns="http://www.w3.org/2000/svg">
<rect x="8.42676" y="1.5" width="7.14646" height="13.3565" rx="3.57323" stroke="black"/>
<path d="M6 12.1515C6 12.8935 6.15519 13.6283 6.45672 14.3138C6.75825 14.9994 7.20021 15.6223 7.75736 16.147C8.31451 16.6716 8.97595 17.0879 9.7039 17.3718C10.4319 17.6558 11.2121 17.8019 12 17.8019C12.7879 17.8019 13.5681 17.6558 14.2961 17.3718C15.0241 17.0879 15.6855 16.6716 16.2426 16.147C16.7998 15.6223 17.2417 14.9994 17.5433 14.3138C17.8448 13.6283 18 12.8935 18 12.1515" stroke="black"/>
<line x1="12.5" y1="17.8271" x2="12.5" y2="22.301" stroke="black"/>
<line x1="9" y1="22.5" x2="16" y2="22.5" stroke="black"/>
</svg>
