<svg width="108" height="108" viewBox="0 0 108 108" fill="none" xmlns="http://www.w3.org/2000/svg">
<path d="M70.4635 54.0365V65.0121V92.4512C70.4635 96.4755 67.1709 99.7682 63.1465 99.7682H30.2197V8.30469H63.1465C67.1709 8.30469 70.4635 11.5974 70.4635 15.6217V54.0365Z" fill="#ECF4F7"/>
<path d="M30.2196 8.3049V99.7684V101.598C30.2196 105.622 27.2929 108 23.8171 106.719L6.43898 99.7682C2.23159 98.3047 0.951172 96.4755 0.951172 92.4512V15.6219C0.951172 11.5976 2.41466 9.76817 6.43898 8.3049L23.8171 1.35361C27.2926 0.0731923 30.2196 2.45117 30.2196 6.47549V8.3049Z" fill="#80D6FA"/>
<path d="M6.25841 100.219L6.25845 100.219L6.24828 100.215C4.09532 99.4074 2.68903 98.4916 1.81061 97.2994C0.936477 96.1131 0.536133 94.5861 0.536133 92.4512V15.622C0.536133 13.4871 0.936477 11.9601 1.81061 10.7738C2.68903 9.58163 4.09532 8.66581 6.24828 7.85845L6.24832 7.85856L6.25841 7.85452L23.6365 0.903231C25.3231 0.228653 26.9649 0.406851 28.2727 1.38776L28.2838 1.39609L28.2954 1.4038C29.7684 2.38584 30.6338 4.21905 30.6338 6.47558V101.597C30.6338 103.854 29.7684 105.687 28.2954 106.669L28.2838 106.677L28.2727 106.685C27.6351 107.163 26.6451 107.5 25.646 107.5C24.9964 107.5 24.3352 107.34 23.6051 107.157L6.25841 100.219ZM23.8414 1.7941L23.8275 1.79873L23.8139 1.80417L6.43985 8.75371C4.49931 9.49334 3.15635 10.2654 2.315 11.3617C1.46278 12.4722 1.18269 13.838 1.18269 15.622V92.4512C1.18269 94.3195 1.4602 95.7348 2.315 96.8486C3.16135 97.9515 4.51132 98.6759 6.44951 99.3234L23.8086 106.267C25.2408 106.879 26.6877 106.678 27.7327 106.051L27.7428 106.045L27.7527 106.038C29.0518 105.172 29.6217 103.502 29.6217 101.598V6.47558C29.6217 4.59055 29.0631 2.93452 27.7913 2.06136C27.5298 1.81672 27.1831 1.65826 26.8352 1.55888C26.4637 1.45274 26.0508 1.40248 25.646 1.40248C25.0147 1.40248 24.3995 1.60783 23.8745 1.78306L23.8414 1.7941ZM88.3775 72.1343L88.3776 72.1342L105.024 55.4879L105.877 54.6344H104.67H41.1949C41.0341 54.6344 40.939 54.583 40.8853 54.5293C40.8316 54.4756 40.7802 54.3804 40.7802 54.2197C40.7802 54.0589 40.8316 53.9638 40.8853 53.9101C40.939 53.8564 41.0341 53.805 41.1949 53.805H104.853H106.061L105.207 52.9514L88.5607 36.3052C88.39 36.1344 88.3901 35.9023 88.5606 35.732L88.5607 35.7318C88.7314 35.5611 88.9635 35.5613 89.1339 35.7317L89.134 35.7318L107.423 54.0203L107.423 54.0207L107.429 54.0277C107.437 54.0364 107.446 54.0488 107.456 54.0625C107.459 54.067 107.461 54.071 107.463 54.0744V54.0747V54.0756V54.0765V54.0774V54.0783V54.0793V54.0802V54.0811V54.082V54.0828V54.0837V54.0846V54.0855V54.0864V54.0873V54.0881V54.089V54.0899V54.0907V54.0916V54.0925V54.0933V54.0942V54.095V54.0959V54.0967V54.0975V54.0984V54.0992V54.1V54.1009V54.1017V54.1025V54.1033V54.1041V54.105V54.1058V54.1066V54.1074V54.1082V54.109V54.1098V54.1105V54.1113V54.1121V54.1129V54.1137V54.1145V54.1152V54.116V54.1168V54.1175V54.1183V54.1191V54.1198V54.1206V54.1213V54.1221V54.1228V54.1236V54.1243V54.125V54.1258V54.1265V54.1272V54.128V54.1287V54.1294V54.1301V54.1309V54.1316V54.1323V54.133V54.1337V54.1344V54.1351V54.1358V54.1365V54.1372V54.1379V54.1386V54.1393V54.14V54.1407V54.1413V54.142V54.1427V54.1434V54.1441V54.1447V54.1454V54.1461V54.1467V54.1474V54.1481V54.1487V54.1494V54.15V54.1507V54.1513V54.152V54.1526V54.1533V54.1539V54.1546V54.1552V54.1559V54.1565V54.1571V54.1578V54.1584V54.159V54.1597V54.1603V54.1609V54.1615V54.1622V54.1628V54.1634V54.164V54.1646V54.1652V54.1659V54.1665V54.1671V54.1677V54.1683V54.1689V54.1695V54.1701V54.1707V54.1713V54.1719V54.1725V54.1731V54.1737V54.1743V54.1749V54.1754V54.176V54.1766V54.1772V54.1778V54.1784V54.1789V54.1795V54.1801V54.1807V54.1813V54.1818V54.1824V54.183V54.1836V54.1841V54.1847V54.1853V54.1858V54.1864V54.187V54.1875V54.1881V54.1887V54.1892V54.1898V54.1903V54.1909V54.1915V54.192V54.1926V54.1931V54.1937V54.1942V54.1948V54.1953V54.1959V54.1964V54.197V54.1975V54.1981V54.1986V54.1992V54.1997V54.2003V54.2008V54.2014V54.2019V54.2025V54.203V54.2036V54.2041V54.2046V54.2052V54.2057V54.2063V54.2068V54.2074V54.2079V54.2084V54.209V54.2095V54.21V54.2106V54.2111V54.2117V54.2122V54.2127V54.2133V54.2138V54.2143V54.2149V54.2154V54.216V54.2165V54.217V54.2176V54.2181V54.2186V54.2192V54.2197V54.2202V54.2208V54.2213V54.2219V54.2224V54.2229V54.2235V54.224V54.2245V54.2251V54.2256V54.2262V54.2267V54.2272V54.2278V54.2283V54.2288V54.2294V54.2299V54.2305V54.231V54.2315V54.2321V54.2326V54.2332V54.2337V54.2342V54.2348V54.2353V54.2359V54.2364V54.237V54.2375V54.238V54.2386V54.2391V54.2397V54.2402V54.2408V54.2413V54.2419V54.2424V54.243V54.2435V54.2441V54.2446V54.2452V54.2457V54.2463V54.2469V54.2474V54.248V54.2485V54.2491V54.2496V54.2502V54.2508V54.2513V54.2519V54.2525V54.253V54.2536V54.2542V54.2547V54.2553V54.2559V54.2565V54.257V54.2576V54.2582V54.2588V54.2593V54.2599V54.2605V54.2611V54.2617V54.2622V54.2628V54.2634V54.264V54.2646V54.2652V54.2658V54.2664V54.267V54.2676V54.2682V54.2687V54.2693V54.27V54.2706V54.2712V54.2718V54.2724V54.273V54.2736V54.2742V54.2748V54.2754V54.2761V54.2767V54.2773V54.2779V54.2785V54.2792V54.2798V54.2804V54.2811V54.2817V54.2823V54.283V54.2836V54.2842V54.2849V54.2855V54.2862V54.2868V54.2875V54.2881V54.2888V54.2894V54.2901V54.2907V54.2914V54.2921V54.2927V54.2934V54.2941V54.2947V54.2954V54.2961V54.2968V54.2974V54.2981V54.2988V54.2995V54.3002V54.3009V54.3016V54.3023V54.303V54.3037V54.3044V54.3051V54.3058V54.3065V54.3072V54.3079V54.3086V54.3093V54.3101V54.3108V54.3115V54.3122V54.313V54.3137V54.3144V54.3152V54.3159V54.3167V54.3174V54.3182V54.3189V54.3197V54.3204V54.3212V54.322V54.3227V54.3235V54.3243V54.325V54.3258V54.3266V54.3274V54.3282V54.329V54.3297V54.3305V54.3313V54.3321V54.3329V54.3337V54.3346V54.3354V54.3362V54.337V54.3378V54.3386V54.3395V54.3403V54.3411V54.342V54.3428V54.3437V54.3445V54.3453V54.3462V54.3471V54.3479V54.3488V54.3496V54.3505V54.3514V54.3523V54.3531V54.354V54.3549V54.3558V54.3567V54.3576V54.3585V54.3594V54.3603V54.3612V54.3621V54.363V54.3639V54.3649V54.3658V54.3667V54.3677V54.3686V54.3695V54.3705V54.3714V54.3724V54.3733V54.3743V54.3753V54.3762V54.3772V54.3782V54.3792V54.3801V54.3811V54.3821V54.3831V54.3841V54.3851V54.3861V54.3871V54.3881V54.3892V54.3902V54.3912V54.3922V54.3933V54.3943V54.3953V54.3964V54.3974V54.3985V54.3996V54.4006V54.4017V54.4028V54.4038V54.4049V54.406V54.407V54.4081V54.4091V54.4102V54.4112V54.4122V54.4133V54.4143V54.4153V54.4163V54.4174V54.4184V54.4194V54.4204V54.4214V54.4224V54.4234V54.4244V54.4253V54.4263V54.4273V54.4283V54.4292V54.4302V54.4312V54.4321V54.4331V54.434V54.435V54.4359V54.4369V54.4378V54.4387V54.4397V54.4406V54.4415V54.4424V54.4434V54.4443V54.4452V54.4461V54.447V54.4479V54.4488V54.4497V54.4506V54.4514V54.4523V54.4532V54.4541V54.4549V54.4558V54.4567V54.4575V54.4584V54.4592V54.4601V54.4609V54.4618V54.4626V54.4635V54.4643V54.4651V54.466V54.4668V54.4676V54.4684V54.4693V54.4701V54.4709V54.4717V54.4725V54.4733V54.4741V54.4749V54.4757V54.4765V54.4773V54.478V54.4788V54.4796V54.4804V54.4812V54.4819V54.4827V54.4835V54.4842V54.485V54.4857V54.4865V54.4872V54.488V54.4887V54.4895V54.4902V54.491V54.4917V54.4924V54.4932V54.4939V54.4946V54.4953V54.4961V54.4968V54.4975V54.4982V54.4989V54.4996V54.5003V54.501V54.5017V54.5024V54.5031V54.5038V54.5045V54.5052V54.5059V54.5066V54.5073V54.508V54.5086V54.5093V54.51V54.5107V54.5113V54.512V54.5127V54.5133V54.514V54.5147V54.5153V54.516V54.5166V54.5173V54.5179V54.5186V54.5192V54.5199V54.5205V54.5211V54.5218V54.5224V54.5231V54.5237V54.5243V54.525V54.5256V54.5262V54.5268V54.5275V54.5281V54.5287V54.5293V54.5299V54.5306V54.5312V54.5318V54.5324V54.533V54.5336V54.5342V54.5348V54.5354V54.536V54.5366V54.5372V54.5378V54.5384V54.539V54.5396V54.5402V54.5408V54.5414V54.542V54.5425V54.5431V54.5437V54.5443V54.5449V54.5455V54.546V54.5466V54.5472V54.5478V54.5483V54.5489V54.5495V54.5501V54.5506V54.5512V54.5518V54.5523V54.5529V54.5535V54.554V54.5546V54.5551V54.5557V54.5563V54.5568V54.5574V54.5579V54.5585V54.5591V54.5596V54.5602V54.5607V54.5613V54.5616L107.427 54.598L89.357 72.6676C89.2236 72.6542 89.1073 72.6708 89.0395 72.6821C88.9677 72.6941 88.8927 72.7116 88.8412 72.7236C88.8298 72.7262 88.8195 72.7286 88.8107 72.7306C88.7666 72.7406 88.7488 72.7433 88.7464 72.7439C88.6549 72.7439 88.5601 72.7425 88.4721 72.7279C88.4282 72.7206 88.3979 72.7117 88.3791 72.704C88.3753 72.7024 88.3724 72.7011 88.3704 72.7001C88.207 72.5301 88.2095 72.3022 88.3775 72.1343ZM70.8776 43.0606V43.0608C70.8777 43.2216 70.8263 43.3168 70.7726 43.3704C70.719 43.4241 70.6239 43.4755 70.4631 43.4755C70.3024 43.4755 70.2072 43.4241 70.1535 43.3704C70.0998 43.3167 70.0484 43.2215 70.0484 43.0608V15.6218C70.0484 11.8701 66.8978 8.71926 63.1459 8.71926H37.3532C37.1925 8.71926 37.0973 8.66786 37.0436 8.61415C36.9899 8.56045 36.9385 8.4653 36.9385 8.30456C36.9385 8.14382 36.9899 8.04867 37.0436 7.99497C37.0973 7.94126 37.1925 7.88985 37.3532 7.88985H63.1459C67.4428 7.88985 70.8776 11.3246 70.8776 15.6216V43.0606ZM63.1461 100.183H37.5363C37.3755 100.183 37.2804 100.132 37.2267 100.078C37.173 100.024 37.1216 99.929 37.1216 99.7682C37.1216 99.6075 37.173 99.5123 37.2267 99.4586C37.2804 99.4049 37.3755 99.3535 37.5363 99.3535H63.1461C66.8978 99.3535 70.0486 96.2029 70.0486 92.451V65.012C70.0486 64.8513 70.1 64.7561 70.1537 64.7024C70.2074 64.6487 70.3026 64.5973 70.4633 64.5973C70.6241 64.5973 70.7192 64.6487 70.7729 64.7024C70.8266 64.7561 70.878 64.8513 70.878 65.012V92.451C70.8778 96.7482 67.4431 100.183 63.1461 100.183ZM22.9021 59.9389C22.7413 59.9389 22.6462 59.8875 22.5925 59.8338C22.5388 59.7801 22.4874 59.6849 22.4874 59.5242V48.5486C22.4874 48.3879 22.5388 48.2927 22.5925 48.239C22.6462 48.1853 22.7413 48.1339 22.9021 48.1339C23.0628 48.1339 23.1579 48.1853 23.2117 48.239C23.2654 48.2927 23.3168 48.3879 23.3168 48.5486V59.5242C23.3168 59.6849 23.2654 59.7801 23.2117 59.8338C23.1579 59.8875 23.0628 59.9389 22.9021 59.9389Z" stroke="#97C3F9"/>
</svg>
