<svg width="234" height="123" viewBox="0 0 234 123" fill="none" xmlns="http://www.w3.org/2000/svg">
<path d="M158.828 55.5454C156.917 55.5454 155.371 53.9992 155.371 52.0884V38.2603C155.371 32.5414 150.719 27.8892 145 27.8892C139.281 27.8892 134.629 32.5414 134.629 38.2603V52.0884C134.629 53.9992 133.083 55.5454 131.172 55.5454C129.261 55.5454 127.715 53.9992 127.715 52.0884V38.2603C127.715 28.7297 135.466 20.9751 145 20.9751C154.534 20.9751 162.285 28.7297 162.285 38.2603V52.0884C162.285 53.9992 160.739 55.5454 158.828 55.5454Z" fill="#F3F5F9"/>
<path d="M155.371 38.2603V52.0884C155.371 53.9992 156.917 55.5454 158.828 55.5454C160.739 55.5454 162.285 53.9992 162.285 52.0884V38.2603C162.285 28.7297 154.534 20.9751 145 20.9751V27.8892C150.719 27.8892 155.371 32.5414 155.371 38.2603Z" fill="#E1E6F0"/>
<path d="M162.285 90.1157H127.715C121.996 90.1157 117.344 85.4635 117.344 79.7446V59.0024C117.344 53.2836 121.996 48.6313 127.715 48.6313H162.285C168.004 48.6313 172.656 53.2836 172.656 59.0024V79.7446C172.656 85.4637 168.004 90.1157 162.285 90.1157Z" fill="#FFBE40"/>
<path d="M188.931 98.0425C198.556 87.272 204 73.5414 204 59.0029C204 26.5967 177.403 0.00292969 145 0.00292969C112.597 0.00292969 86 26.5967 86 59.0029C86 89.5626 109.154 115.182 139.544 117.984C141.423 118.16 143.125 116.775 143.305 114.857C143.481 112.957 142.083 111.272 140.179 111.097C113.367 108.629 92.9141 85.9671 92.9141 59.0029C92.9141 30.4082 116.405 6.91699 145 6.91699C173.595 6.91699 197.086 30.4082 197.086 59.0029C197.086 71.6939 192.359 83.6882 184.034 93.1453L179.226 88.3372C178.382 87.4933 177.146 87.1388 175.985 87.4156C174.824 87.6924 173.878 88.5499 173.5 89.6875L166.161 111.689C165.749 112.931 166.073 114.302 166.998 115.227C167.967 116.191 169.354 116.463 170.536 116.061L192.541 108.725C193.676 108.347 194.54 107.408 194.81 106.24C195.087 105.075 194.743 103.85 193.892 103.003L188.931 98.0425Z" fill="#1F56C3"/>
<path d="M162.285 48.6313H145V90.1157H162.285C168.004 90.1157 172.656 85.4635 172.656 79.7446V59.0024C172.656 53.2836 168.004 48.6313 162.285 48.6313V48.6313Z" fill="#FF9F40"/>
<path d="M145 76.2876C143.089 76.2876 141.543 74.7414 141.543 72.8306V65.9165C141.543 64.0057 143.089 62.4595 145 62.4595C146.911 62.4595 148.457 64.0057 148.457 65.9165V72.8306C148.457 74.7414 146.911 76.2876 145 76.2876Z" fill="#1F56C3"/>
<path d="M148.457 72.8306V65.9165C148.457 64.0057 146.911 62.4595 145 62.4595V76.2876C146.911 76.2876 148.457 74.7414 148.457 72.8306Z" fill="#1F56C3"/>
<path d="M197.086 59.002C197.086 71.6929 192.359 83.6872 184.034 93.1443L179.226 88.3363C178.382 87.4923 177.146 87.1378 175.985 87.4146C174.824 87.6914 173.878 88.549 173.5 89.6866L166.161 111.688C165.749 112.93 166.073 114.301 166.998 115.226C167.967 116.19 169.354 116.462 170.536 116.06L192.541 108.724C193.676 108.346 194.54 107.407 194.81 106.239C195.087 105.074 194.743 103.849 193.892 103.002L188.932 98.0417C198.556 87.271 204 73.5404 204 59.002C204 26.5957 177.403 0.00195312 145 0.00195312V6.91602C173.595 6.91602 197.086 30.4072 197.086 59.002Z" fill="#1F56C3"/>
<rect x="165" y="2" width="39" height="38" rx="19" fill="white"/>
<path d="M184.5 3.1875C174.383 3.1875 166.182 11.1623 166.182 21C166.182 30.8377 174.383 38.8125 184.5 38.8125C194.617 38.8125 202.818 30.8377 202.818 21C202.81 11.166 194.613 3.19573 184.5 3.1875ZM195.944 16.4795L182.865 28.6418C182.609 28.8768 182.271 29.0069 181.92 29.0062C181.554 29.0032 181.202 28.867 180.935 28.6231L173.509 21.3831C172.971 20.8593 172.971 20.0102 173.509 19.4872C174.047 18.9635 174.921 18.9635 175.459 19.4872L181.939 25.7883L194.053 14.5455C194.316 14.2979 194.67 14.1624 195.036 14.1692C195.402 14.1767 195.75 14.3255 196.003 14.5837C196.518 15.1253 196.492 15.9693 195.944 16.4795V16.4795Z" fill="#3FB058"/>
<circle cx="29" cy="52" r="7" fill="#1F56C3"/>
<circle cx="165" cy="8" r="5" fill="#1F56C3" fill-opacity="0.07"/>
<circle cx="231" cy="42" r="3" fill="#1F56C3"/>
<circle cx="95" cy="31" r="3" fill="#1F56C3" fill-opacity="0.2"/>
<circle cx="4" cy="92" r="4" fill="#1F56C3"/>
<circle cx="119" cy="119" r="4" fill="#1F56C3" fill-opacity="0.2"/>
<circle cx="193" cy="69" r="2" fill="#1F56C3" fill-opacity="0.07"/>
</svg>
