<svg width="24" height="24" viewBox="0 0 24 24" fill="none" xmlns="http://www.w3.org/2000/svg">
<g clip-path="url(#clip0_1590_52325)">
<path d="M15.5 24.0003H0.5C0.224 24.0003 0 23.7763 0 23.5003V19.5003C0 17.5703 1.57 16.0003 3.5 16.0003H12.5C14.43 16.0003 16 17.5703 16 19.5003V23.5003C16 23.7763 15.776 24.0003 15.5 24.0003ZM1 23.0003H15V19.5003C15 18.1213 13.879 17.0003 12.5 17.0003H3.5C2.121 17.0003 1 18.1213 1 19.5003V23.0003Z" fill="#333333"/>
<path d="M8 13.9997C5.519 13.9997 3.5 11.9807 3.5 9.49969C3.5 7.01869 5.519 4.99969 8 4.99969C10.481 4.99969 12.5 7.01869 12.5 9.49969C12.5 11.9807 10.481 13.9997 8 13.9997ZM8 5.99969C6.07 5.99969 4.5 7.56969 4.5 9.49969C4.5 11.4297 6.07 12.9997 8 12.9997C9.93 12.9997 11.5 11.4297 11.5 9.49969C11.5 7.56969 9.93 5.99969 8 5.99969Z" fill="#333333"/>
<path d="M11.3969 9.58287C10.2089 9.58287 9.35091 8.77587 8.90791 8.23187C6.67591 9.94987 4.03291 9.51187 3.91291 9.49287C3.64191 9.44487 3.46091 9.18687 3.50791 8.91487C3.55491 8.64387 3.81091 8.45687 4.08491 8.50687C4.11291 8.51187 6.72291 8.93287 8.65991 7.13387C8.77091 7.02987 8.92291 6.98387 9.07291 7.00587C9.22291 7.02787 9.35491 7.11787 9.43191 7.24887C9.47191 7.31687 10.4189 8.90687 11.8689 8.51787C12.1399 8.44387 12.4099 8.60387 12.4819 8.86987C12.5539 9.13687 12.3969 9.41087 12.1299 9.48287C11.8739 9.55187 11.6289 9.58287 11.3969 9.58287Z" fill="#333333"/>
<path d="M19.5 11C17.019 11 15 8.981 15 6.5V1.5C15 0.673 15.673 0 16.5 0H22.5C23.327 0 24 0.673 24 1.5V6.5C24 8.981 21.981 11 19.5 11ZM16.5 1C16.225 1 16 1.224 16 1.5V6.5C16 8.43 17.57 10 19.5 10C21.43 10 23 8.43 23 6.5V1.5C23 1.224 22.775 1 22.5 1H16.5Z" fill="#333333"/>
<path d="M17.5 21.0003H15.5C15.224 21.0003 15 20.7763 15 20.5003C15 20.2243 15.224 20.0003 15.5 20.0003H17.5C18.327 20.0003 19 19.3273 19 18.5003V10.5003C19 10.2243 19.224 10.0003 19.5 10.0003C19.776 10.0003 20 10.2243 20 10.5003V18.5003C20 19.8793 18.879 21.0003 17.5 21.0003Z" fill="#333333"/>
<path d="M19.5 6.99999C19.224 6.99999 19 6.77599 19 6.49999V3.5C19 3.224 19.224 3 19.5 3C19.776 3 20 3.224 20 3.5V6.49999C20 6.77599 19.776 6.99999 19.5 6.99999Z" fill="#333333"/>
<path d="M21 5.5H18C17.724 5.5 17.5 5.276 17.5 5C17.5 4.724 17.724 4.5 18 4.5H21C21.276 4.5 21.5 4.724 21.5 5C21.5 5.276 21.276 5.5 21 5.5Z" fill="#333333"/>
</g>
<defs>
<clipPath id="clip0_1590_52325">
<rect width="24" height="24" fill="white"/>
</clipPath>
</defs>
</svg>
