<svg width="335" height="147" viewBox="0 0 335 147" fill="none" xmlns="http://www.w3.org/2000/svg">
<circle cx="52" cy="63" r="7" fill="#1F56C3"/>
<circle cx="188" cy="19" r="5" fill="#1F56C3" fill-opacity="0.07"/>
<circle cx="254" cy="53" r="3" fill="#1F56C3"/>
<circle cx="118" cy="42" r="3" fill="#1F56C3" fill-opacity="0.2"/>
<circle cx="27" cy="103" r="4" fill="#1F56C3"/>
<circle cx="142" cy="130" r="4" fill="#1F56C3" fill-opacity="0.2"/>
<circle cx="216" cy="80" r="2" fill="#1F56C3" fill-opacity="0.07"/>
<path d="M171.92 31C146.596 31 126 51.596 126 76.92C126 102.244 146.596 122.84 171.92 122.84C197.244 122.84 217.84 102.244 217.84 76.92C217.84 51.596 197.244 31 171.92 31V31ZM197.02 62.82L165.66 94.18C165.223 94.6167 164.652 94.8409 164.081 94.8409C163.51 94.8409 162.939 94.6167 162.502 94.18L146.823 78.5004C145.937 77.627 145.937 76.2152 146.823 75.3418C147.696 74.4566 149.108 74.4566 149.981 75.3418L164.081 89.4308L193.861 59.6608C194.735 58.7756 196.146 58.7756 197.02 59.6608C197.905 60.5342 197.905 61.946 197.02 62.8194L197.02 62.82Z" fill="#55ADFF"/>
</svg>
