<svg width="234" height="125" viewBox="0 0 234 125" fill="none" xmlns="http://www.w3.org/2000/svg">
<circle cx="29" cy="54" r="7" fill="#1F56C3"/>
<circle cx="165" cy="10" r="5" fill="#1F56C3" fill-opacity="0.07"/>
<circle cx="231" cy="44" r="3" fill="#1F56C3"/>
<circle cx="95" cy="33" r="3" fill="#1F56C3" fill-opacity="0.2"/>
<circle cx="4" cy="94" r="4" fill="#1F56C3"/>
<circle cx="119" cy="121" r="4" fill="#1F56C3" fill-opacity="0.2"/>
<circle cx="193" cy="71" r="2" fill="#1F56C3" fill-opacity="0.07"/>
<path d="M197.996 48.1709C197.996 45.4095 195.758 43.1709 192.996 43.1709H148.672C146.041 43.1709 143.86 45.2094 143.683 47.8341L141.775 76.1028C141.757 76.3658 141.76 76.6298 141.784 76.8923L143.634 97.2377C143.846 99.5784 145.661 101.455 147.993 101.746L192.376 107.294C195.36 107.667 197.996 105.34 197.996 102.333V48.1709Z" fill="#FFB973"/>
<path d="M95 43.1714C92.2386 43.1714 90 45.41 90 48.1714V102.333C90 105.341 92.6359 107.668 95.6202 107.295L139.618 101.795C142.121 101.482 143.998 99.3552 143.998 96.8336V48.1714C143.998 45.41 141.76 43.1714 138.998 43.1714H95Z" fill="#FDD278"/>
<path d="M197.996 107.996L143.998 62.624L143.998 62.6242L141.748 89.9969L143.998 107.996H197.996Z" fill="#FFDC9E"/>
<path d="M143.998 107.998V62.626L90 107.998H143.998Z" fill="#FFE8BF"/>
<path d="M148.728 0C146.074 0 143.883 2.07306 143.736 4.72264L141.748 40.4987L143.998 90.5492C143.998 90.5493 143.998 90.5494 143.998 90.5494V90.5494C143.998 90.5495 143.998 90.5495 143.998 90.5494L182.502 61.5781C183.758 60.6335 184.496 59.1538 184.496 57.5827V5C184.496 2.23858 182.258 0 179.496 0H148.728Z" fill="#F3E8E5"/>
<path d="M108.499 0.000488281C105.737 0.000488281 103.499 2.23906 103.499 5.00049V57.5823C103.499 59.1534 104.237 60.6331 105.492 61.5777L135.992 84.5258C139.287 87.0052 143.998 84.6543 143.998 80.5305V5.00049C143.998 2.23906 141.759 0.000488281 138.998 0.000488281H108.499Z" fill="#FFF7F7"/>
</svg>
