<svg width="20" height="20" viewBox="0 0 20 20" fill="none" xmlns="http://www.w3.org/2000/svg">
<path fill-rule="evenodd" clip-rule="evenodd" d="M4.16663 7.50033C4.16663 4.27533 6.77496 1.66699 9.99996 1.66699C13.225 1.66699 15.8333 4.27533 15.8333 7.50033C15.8333 10.9753 12.15 15.767 10.6416 17.592C10.3083 17.992 9.69996 17.992 9.36663 17.592C7.84996 15.767 4.16663 10.9753 4.16663 7.50033ZM7.91654 7.50024C7.91654 8.65024 8.84988 9.58358 9.99988 9.58358C11.1499 9.58358 12.0832 8.65024 12.0832 7.50024C12.0832 6.35024 11.1499 5.41691 9.99988 5.41691C8.84988 5.41691 7.91654 6.35024 7.91654 7.50024Z" fill="white"/>
</svg>
