<svg width="87" height="87" viewBox="0 0 87 87" fill="none" xmlns="http://www.w3.org/2000/svg">
<rect width="86.5878" height="86.5878" rx="15.8918" fill="white"/>
<path d="M44.7886 39.6459L46.0234 40.2411C45.0462 41.1607 43.7269 41.7249 42.2779 41.7249C39.2576 41.7249 36.8103 39.2879 36.8103 36.2791C36.8103 34.5668 37.6036 33.0384 38.8453 32.0412L39.6466 32.9995C38.6802 33.7683 38.0605 34.9506 38.0605 36.279C38.0605 38.5984 39.9481 40.478 42.2779 40.478C43.2191 40.4782 44.0867 40.1669 44.7886 39.6459ZM40.3068 30.2176C40.461 30.2844 40.6301 30.3238 40.81 30.3238C41.0488 30.3238 41.2704 30.2535 41.4617 30.1376C41.8233 29.9166 42.0683 29.5242 42.0683 29.0702C42.0683 28.378 41.5046 27.8159 40.81 27.8159C40.1138 27.8159 39.5507 28.378 39.5507 29.0696C39.5506 29.5836 39.8619 30.0234 40.3068 30.2176ZM49.0722 39.3421L47.8385 39.3564L46.2165 34.9392L41.8164 34.9335L41.7638 34.0979L44.8 34.0767L44.8269 32.9424H41.6998L41.5147 30.3911C41.3234 30.507 41.103 30.5785 40.8625 30.5785C40.682 30.5785 40.5135 30.5385 40.3587 30.4711C40.4387 31.253 40.465 32.2302 40.5118 32.8374C40.5923 33.9196 40.6786 34.998 40.7317 36.0666L45.4276 36.0946L47.1148 40.413L49.4724 40.3975C49.4726 40.3976 49.6644 39.3421 49.0722 39.3421ZM55.2028 35.6028C55.2028 42.5605 42.6011 63 42.6011 63C42.6011 63 30 42.5605 30 35.6028C30 28.6435 35.6429 23 42.6011 23C49.5611 23 55.2034 28.6435 55.2028 35.6028ZM52.3517 35.6028C52.3517 30.2261 47.9779 25.8511 42.6011 25.8511C37.2244 25.8511 32.8517 30.226 32.8517 35.6028C32.8517 40.9773 37.2243 45.3511 42.6011 45.3511C47.9779 45.3511 52.3517 40.9773 52.3517 35.6028Z" fill="#72CF90"/>
</svg>
