<svg width="32" height="32" viewBox="0 0 32 32" fill="none" xmlns="http://www.w3.org/2000/svg">
<path d="M27 2H5C3.344 2 2 3.344 2 5V27C2 28.656 3.344 30 5 30H27C28.656 30 30 28.656 30 27V5C30 3.344 28.656 2 27 2ZM9.938 24.031C9.594 24.631 8.825 24.831 8.232 24.487C7.632 24.143 7.432 23.374 7.776 22.781L8.67 21.237C9.676 20.931 10.501 21.168 11.145 21.949L9.938 24.031ZM18.619 20.663H7.25C6.562 20.663 6 20.1 6 19.413C6 18.726 6.563 18.163 7.25 18.163H10.438L14.525 11.088L13.244 8.876C12.9 8.276 13.107 7.513 13.7 7.17C14.3 6.826 15.063 7.033 15.406 7.626L15.962 8.588L16.518 7.626C16.862 7.026 17.631 6.826 18.224 7.17C18.824 7.514 19.024 8.283 18.68 8.876L13.318 18.164H17.199C18.461 18.164 19.168 19.645 18.618 20.664L18.619 20.663ZM24.75 20.663H22.937L24.162 22.782C24.506 23.382 24.299 24.145 23.706 24.488C23.106 24.832 22.343 24.625 22 24.032C19.944 20.476 18.406 17.801 17.375 16.026C16.331 14.213 17.075 12.401 17.819 11.789C18.638 13.208 19.863 15.333 21.5 18.164H24.75C25.438 18.164 26 18.727 26 19.414C26 20.108 25.437 20.664 24.75 20.664V20.663Z" fill="#333333"/>
</svg>
