<svg width="16" height="16" viewBox="0 0 16 16" fill="none" xmlns="http://www.w3.org/2000/svg">
<path d="M3.09604 3.19922H13.696C14.696 3.19922 15.2 3.67122 15.2 4.63122V11.3672C15.2 12.3192 14.696 12.7992 13.696 12.7992H3.09604C2.09604 12.7992 1.59204 12.3192 1.59204 11.3672V4.63122C1.59204 3.67122 2.09604 3.19922 3.09604 3.19922ZM8.39204 10.0792L13.784 5.65522C13.976 5.49522 14.128 5.12722 13.888 4.79922C13.656 4.47122 13.232 4.46322 12.952 4.66322L8.39204 7.75122L3.84004 4.66322C3.56004 4.46322 3.13604 4.47122 2.90404 4.79922C2.66404 5.12722 2.81604 5.49522 3.00804 5.65522L8.39204 10.0792Z" fill="white"/>
</svg>
