<svg width="87" height="87" viewBox="0 0 87 87" fill="none" xmlns="http://www.w3.org/2000/svg">
<rect width="86.5878" height="86.5878" rx="15.7432" fill="white"/>
<path d="M56.8972 31.4785C56.8398 31.066 56.5429 30.7266 56.1416 30.615L43.2803 27.0383C43.0969 26.9872 42.9032 26.9872 42.7197 27.0383L29.8584 30.615C29.4571 30.7266 29.1602 31.0658 29.1028 31.4785C29.0282 32.0149 27.3264 44.6889 31.6914 50.9938C36.0512 57.2912 42.4828 58.905 42.7545 58.9706C42.8352 58.9902 42.9175 58.9998 43 58.9998C43.0825 58.9998 43.1648 58.99 43.2455 58.9706C43.5173 58.905 49.949 57.2912 54.3086 50.9938C58.6736 44.689 56.9718 32.0151 56.8972 31.4785ZM51.2939 38.8777L42.5212 47.6505C42.3171 47.8546 42.0493 47.9568 41.7818 47.9568C41.5142 47.9568 41.2465 47.8547 41.0424 47.6505L35.6183 42.2264C35.4221 42.0303 35.3119 41.7643 35.3119 41.4869C35.3119 41.2096 35.4222 40.9436 35.6183 40.7475L36.6952 39.6705C37.1036 39.2623 37.7658 39.2621 38.1741 39.6705L41.7818 43.2782L48.7381 36.3218C48.9342 36.1256 49.2002 36.0154 49.4775 36.0154C49.7549 36.0154 50.0209 36.1256 50.2169 36.3218L51.2939 37.3987C51.7023 37.8071 51.7023 38.4693 51.2939 38.8777Z" fill="#FF6767"/>
</svg>
