<svg width="87" height="87" viewBox="0 0 87 87" fill="none" xmlns="http://www.w3.org/2000/svg">
<rect width="86.5878" height="86.5878" rx="15.7432" fill="white"/>
<g clip-path="url(#clip0_5773_46377)">
<path d="M51.7077 49.9778C50.1903 50.1985 48.7761 49.1436 48.5554 47.6262L47.8905 43.056C47.6698 41.5386 48.7247 40.1246 50.2421 39.9038L57.4127 38.8606C57.4562 38.8543 57.4995 38.8493 57.5428 38.845L56.8804 34.2924C56.7099 33.1205 55.6217 32.3087 54.4498 32.4792L28.1415 36.3065C26.9695 36.477 26.1577 37.5652 26.3282 38.7371L29.1175 57.9099C29.288 59.0818 30.3762 59.8936 31.5482 59.7231L57.8565 55.8958C59.0284 55.7253 59.8402 54.6371 59.6697 53.4651L59.0074 48.9125C58.9647 48.9207 58.9217 48.9283 58.8783 48.9346L51.7077 49.9778Z" fill="#F79B01"/>
<path d="M57.6321 40.3696L50.4615 41.4128C49.7745 41.5127 49.2986 42.1507 49.3985 42.8377L50.0634 47.4079C50.1633 48.095 50.8013 48.5709 51.4884 48.471L58.659 47.4278C59.346 47.3278 59.8219 46.6899 59.722 46.0028L59.0571 41.4326C58.9572 40.7455 58.3192 40.2696 57.6321 40.3696ZM53.707 46.3778C52.7154 46.5221 51.7945 45.8352 51.6503 44.8435C51.506 43.8519 52.1929 42.9311 53.1846 42.7868C54.1762 42.6425 55.0971 43.3295 55.2413 44.3211C55.3856 45.3128 54.6987 46.2336 53.707 46.3778Z" fill="#F79B01"/>
<path d="M50.1896 29.1297C49.5059 27.7619 47.8427 27.2073 46.475 27.8911L36.2132 33.0208L51.0553 30.8615L50.1896 29.1297Z" fill="#F79B01"/>
</g>
<defs>
<clipPath id="clip0_5773_46377">
<rect width="32" height="32" fill="white" transform="translate(25 29.6074) rotate(-8.27735)"/>
</clipPath>
</defs>
</svg>
