<svg width="40" height="40" viewBox="0 0 40 40" fill="none" xmlns="http://www.w3.org/2000/svg">
<path d="M9.40015 19.4917H21.7669C22.2075 19.4917 22.5648 19.1344 22.5648 18.6939C22.5648 18.2533 22.2075 17.896 21.7669 17.896H9.40015C8.95934 17.896 8.60229 18.2533 8.60229 18.6939C8.60229 19.1344 8.95934 19.4917 9.40015 19.4917Z" fill="#1F56C3"/>
<path d="M16.804 23.082H9.40015C8.95933 23.082 8.60229 23.4393 8.60229 23.8799C8.60229 24.3204 8.95933 24.6777 9.40015 24.6777H16.804C17.2445 24.6777 17.6018 24.3204 17.6018 23.8799C17.6018 23.4393 17.2445 23.082 16.804 23.082Z" fill="#1F56C3"/>
<path d="M30.654 21.3106V7.52393C30.6535 5.32085 28.8676 3.5354 26.6648 3.53465H23.3936V2.01075C23.3936 1.56993 23.0365 1.21289 22.5957 1.21289C22.1551 1.21289 21.7978 1.56993 21.7978 2.01075V3.53465H10.947V2.01075C10.947 1.56993 10.59 1.21289 10.1492 1.21289C9.70859 1.21289 9.3513 1.56993 9.3513 2.01075V3.53465H6.0801C3.87727 3.5354 2.09182 5.32085 2.09082 7.52393V29.1378C2.09182 31.3407 3.87727 33.1261 6.0801 33.1271H20.8486C22.3838 37.0591 26.5007 39.3414 30.6488 38.5605C34.7969 37.7799 37.8023 34.1569 37.8031 29.9357C37.8108 25.6512 34.7231 22.0768 30.654 21.3106ZM6.08832 5.13036H9.35953V6.65427C9.35953 7.09483 9.71657 7.45212 10.1574 7.45212C10.598 7.45212 10.9552 7.09483 10.9552 6.65427V5.13036H21.8061V6.65427C21.8061 7.09483 22.1631 7.45212 22.6039 7.45212C23.0445 7.45212 23.4018 7.09483 23.4018 6.65427V5.13036H26.673C27.9932 5.1341 29.0626 6.20348 29.0666 7.52393V9.45474H3.69476V7.52393C3.69576 6.20223 4.76688 5.13136 6.08832 5.13036ZM6.08832 31.5314C4.76787 31.5277 3.6985 30.4581 3.69476 29.1378V11.0425H29.0583V21.1593H29.0344C26.4286 21.1633 23.959 22.3229 22.292 24.326C20.6247 26.3289 19.9326 28.9683 20.4016 31.5314H6.08832ZM29.0344 37.1164C25.0688 37.1164 21.8537 33.9015 21.8537 29.9357C21.8537 25.9699 25.0688 22.755 29.0344 22.755C33.0002 22.755 36.2151 25.9699 36.2151 29.9357C36.2091 33.8991 32.9977 37.1104 29.0344 37.1164Z" fill="#1F56C3"/>
<path d="M32.729 27.0712L27.99 31.595L25.5403 29.1376C25.2299 28.827 24.7262 28.827 24.4156 29.1376C24.1046 29.4483 24.1046 29.952 24.4156 30.2626L27.4232 33.2705C27.5728 33.4211 27.7773 33.5046 27.99 33.5019C28.1959 33.5036 28.3939 33.4234 28.5402 33.2783L33.838 28.2119C33.9906 28.066 34.0788 27.8658 34.0836 27.6546C34.0878 27.4435 34.0083 27.2393 33.8619 27.0872C33.5513 26.7755 33.0484 26.7683 32.729 27.0712Z" fill="#1F56C3"/>
</svg>
