<svg width="24" height="24" viewBox="0 0 24 24" fill="none" xmlns="http://www.w3.org/2000/svg">
<path d="M12 4.80039C11.3635 4.80039 10.7531 5.05325 10.303 5.50333C9.85291 5.95342 9.60005 6.56387 9.60005 7.20039C9.60005 7.83691 9.85291 8.44736 10.303 8.89745C10.7531 9.34753 11.3635 9.60039 12 9.60039C12.6366 9.60039 13.247 9.34753 13.6971 8.89745C14.1472 8.44736 14.4 7.83691 14.4 7.20039C14.4 6.56387 14.1472 5.95342 13.6971 5.50333C13.247 5.05325 12.6366 4.80039 12 4.80039ZM10.8 7.20039C10.8 6.88213 10.9265 6.57691 11.1515 6.35186C11.3766 6.12682 11.6818 6.00039 12 6.00039C12.3183 6.00039 12.6235 6.12682 12.8486 6.35186C13.0736 6.57691 13.2 6.88213 13.2 7.20039C13.2 7.51865 13.0736 7.82387 12.8486 8.04892C12.6235 8.27396 12.3183 8.40039 12 8.40039C11.6818 8.40039 11.3766 8.27396 11.1515 8.04892C10.9265 7.82387 10.8 7.51865 10.8 7.20039ZM7.80005 17.4004C7.64092 17.4004 7.48831 17.4636 7.37578 17.5761C7.26326 17.6886 7.20005 17.8413 7.20005 18.0004C7.20005 18.1595 7.26326 18.3121 7.37578 18.4247C7.48831 18.5372 7.64092 18.6004 7.80005 18.6004H16.2C16.3592 18.6004 16.5118 18.5372 16.6243 18.4247C16.7368 18.3121 16.8 18.1595 16.8 18.0004C16.8 17.8413 16.7368 17.6886 16.6243 17.5761C16.5118 17.4636 16.3592 17.4004 16.2 17.4004H7.80005ZM4.80005 4.80039C4.80005 4.16387 5.05291 3.55342 5.50299 3.10333C5.95308 2.65325 6.56353 2.40039 7.20005 2.40039H16.8C17.4366 2.40039 18.047 2.65325 18.4971 3.10333C18.9472 3.55342 19.2 4.16387 19.2 4.80039V19.2004C19.2 19.8369 18.9472 20.4474 18.4971 20.8974C18.047 21.3475 17.4366 21.6004 16.8 21.6004H7.20005C6.56353 21.6004 5.95308 21.3475 5.50299 20.8974C5.05291 20.4474 4.80005 19.8369 4.80005 19.2004V4.80039ZM16.8 3.60039H7.20005C6.88179 3.60039 6.57656 3.72682 6.35152 3.95186C6.12648 4.17691 6.00005 4.48213 6.00005 4.80039V14.4004H8.40005V12.0004C8.40005 11.6821 8.52648 11.3769 8.75152 11.1519C8.97656 10.9268 9.28179 10.8004 9.60005 10.8004H14.4C14.7183 10.8004 15.0235 10.9268 15.2486 11.1519C15.4736 11.3769 15.6 11.6821 15.6 12.0004V14.4004H18V4.80039C18 4.48213 17.8736 4.17691 17.6486 3.95186C17.4235 3.72682 17.1183 3.60039 16.8 3.60039ZM14.4 12.0004H9.60005V14.4004H14.4V12.0004ZM6.00005 15.6004V19.2004C6.00005 19.5187 6.12648 19.8239 6.35152 20.0489C6.57656 20.274 6.88179 20.4004 7.20005 20.4004H16.8C17.1183 20.4004 17.4235 20.274 17.6486 20.0489C17.8736 19.8239 18 19.5187 18 19.2004V15.6004H6.00005Z" fill="black"/>
</svg>
