<svg width="40" height="44" viewBox="0 0 40 44" fill="none" xmlns="http://www.w3.org/2000/svg">
<path d="M26.3467 21.1491C28.9025 18.1646 30.4977 13.825 30.4977 10.5403C30.4977 4.72554 25.7721 0 19.9574 0C14.1427 0 9.41714 4.72554 9.41714 10.5403C9.41714 13.825 11.0123 18.1646 13.5681 21.1491C-1.89499 26.3464 -0.274067 40.6516 0.40346 43.5676H39.5113C41.8184 33.5762 35.712 23.885 26.3467 21.1491ZM19.9574 1.40651C23.6538 1.40651 26.8356 3.61062 28.2678 6.77527C24.7601 9.16806 21.201 6.46652 21.201 6.46652C18.7138 5.01713 15.5921 5.15435 13.2422 6.801L11.1152 8.29327C12.1187 4.34818 15.695 1.40651 19.9574 1.40651ZM10.8237 10.5403C10.8237 10.4288 10.8322 10.3173 10.8408 10.2058L14.0483 7.95022C15.9523 6.61232 18.4823 6.50941 20.4891 7.67578C20.4891 7.67578 24.4085 10.6775 28.7567 8.13033C28.9625 8.89362 29.0912 9.69979 29.0912 10.5317C29.0912 15.5231 25.0003 23.1817 19.9574 23.1817C14.9145 23.1817 10.8237 15.5317 10.8237 10.5403ZM38.345 42.1611H1.57841C0.514951 35.5659 3.21648 29.228 8.19073 25.4116C8.4909 27.3841 9.07409 29.2795 9.9403 31.0805C7.77049 32.4441 6.74992 35.18 7.63327 37.6928L8.79965 41.0033L11.4497 40.0684L10.9866 38.7391L9.65728 39.2022L8.95402 37.2125C8.18216 35.017 9.33995 32.6071 11.5355 31.8352C13.7224 31.0633 16.141 32.2211 16.9128 34.4167L17.6075 36.4064L16.2782 36.8695L16.7413 38.1988L19.3914 37.264L18.225 33.945C17.213 31.0633 14.0826 29.5282 11.201 30.463C10.2919 28.5762 9.70874 26.5694 9.47718 24.4853C11.0381 23.499 12.7876 22.7443 14.683 22.2726C16.2181 23.6706 18.002 24.5625 19.9488 24.5625C21.8956 24.5625 23.6795 23.6706 25.2147 22.2726C27.4274 22.8215 29.4428 23.7563 31.1923 25.0085C30.7807 26.8781 30.0946 28.6534 29.134 30.3C28.8939 30.2314 28.6452 30.18 28.3793 30.18C26.827 30.18 25.5663 31.4407 25.5663 32.993C25.5663 34.5453 26.827 35.806 28.3793 35.806C29.9316 35.806 31.1923 34.5453 31.1923 32.993C31.1923 32.2126 30.875 31.5093 30.3519 30.9947C31.2695 29.4081 31.9556 27.7272 32.4102 25.9519C36.947 29.8541 39.3484 35.9004 38.345 42.1611ZM29.7944 33.0273C29.7944 33.7992 29.1598 34.4338 28.3879 34.4338C27.616 34.4338 26.9814 33.8077 26.9814 33.0273C26.9814 32.2469 27.616 31.6208 28.3879 31.6208C29.1683 31.6208 29.7944 32.2554 29.7944 33.0273Z" fill="#1F56C3"/>
</svg>
