<svg width="24" height="25" viewBox="0 0 24 25" fill="none" xmlns="http://www.w3.org/2000/svg">
<g clip-path="url(#clip0_1514_34398)">
<path d="M8.17687 9.15715C8.13312 9.15716 8.08982 9.14831 8.04958 9.13114C8.00934 9.11398 7.97298 9.08884 7.94271 9.05726C7.61838 8.71932 6.55914 7.51121 6.51049 6.15488C6.50761 6.07374 6.53527 5.99446 6.58801 5.93272C6.62685 5.88589 6.6508 5.82851 6.65676 5.76796C6.65449 5.75077 6.62433 5.72807 6.6133 5.71899C6.56965 5.68743 6.53455 5.64549 6.51116 5.59697C6.48778 5.54844 6.47685 5.49485 6.47936 5.44104C6.49137 5.19712 6.59286 4.96619 6.76444 4.7924C6.73162 4.74278 6.69508 4.69572 6.65514 4.65164C6.60653 4.59968 6.57635 4.53318 6.56926 4.46238C6.56217 4.39159 6.57856 4.32042 6.6159 4.25986L6.72357 4.08667C6.76217 3.79023 6.94249 2.78937 7.66411 2.30061C7.85353 2.17642 8.06601 2.09164 8.2889 2.05136C8.51179 2.01107 8.74051 2.01609 8.96141 2.06613C9.13486 1.65769 9.42318 1.30841 9.79136 1.06072C10.4656 0.608937 11.3731 0.492829 12.4907 0.714991C15.3425 1.28548 16.0168 2.32299 16.3781 3.00018C16.6266 3.10247 16.832 3.28781 16.9592 3.52461C17.0489 3.71144 17.0734 3.92287 17.029 4.12526C17.2542 4.35449 17.4096 4.64299 17.4772 4.95715C17.592 5.46115 17.5278 7.78591 16.0229 8.98915C15.972 9.02974 15.9101 9.05408 15.8453 9.05901C15.7804 9.06394 15.7155 9.04924 15.6591 9.01681C15.6026 8.98438 15.5573 8.93573 15.5289 8.87718C15.5005 8.81863 15.4903 8.75289 15.4998 8.6885C15.5186 8.56094 15.5339 8.43532 15.5458 8.31164C15.5694 8.05837 15.5402 7.80297 15.4602 7.56151C15.3802 7.32005 15.2511 7.09776 15.0811 6.90861C14.911 6.71947 14.7036 6.56757 14.472 6.46247C14.2404 6.35737 13.9895 6.30134 13.7351 6.29791C12.8697 6.27298 12.0229 6.04052 11.2661 5.62007L11.1885 5.57921C10.9092 5.43328 10.5967 5.36236 10.2817 5.37339C9.9667 5.38442 9.65995 5.47702 9.39146 5.64213C9.11845 5.8066 8.89285 6.03919 8.73678 6.3171C8.58072 6.59501 8.49953 6.9087 8.50119 7.22742V8.83283C8.50118 8.8976 8.48177 8.96088 8.44547 9.01452C8.40917 9.06816 8.35764 9.10971 8.29752 9.1338C8.25919 9.14932 8.21822 9.15725 8.17687 9.15715ZM7.16498 6.23564C7.24953 6.84645 7.48593 7.42631 7.85255 7.92213V7.22742C7.85191 6.79981 7.96125 6.37921 8.17005 6.00604C8.37885 5.63287 8.68011 5.31966 9.04487 5.0965C9.40964 4.87334 9.82566 4.74773 10.253 4.73174C10.6803 4.71574 11.1045 4.80989 11.485 5.00515L11.5706 5.05023C12.2364 5.42152 12.9816 5.62772 13.7436 5.65153C14.349 5.65981 14.9307 5.88821 15.38 6.29407C15.8293 6.69993 16.1155 7.25548 16.1851 7.85694C16.6917 7.02808 16.9215 6.05953 16.8412 5.09142C16.7801 4.85291 16.6462 4.63935 16.4582 4.4804C16.4042 4.43656 16.3657 4.37664 16.3482 4.30938C16.3307 4.24211 16.3351 4.17102 16.3609 4.10645C16.3859 4.06179 16.4003 4.01199 16.403 3.96089C16.4058 3.90979 16.3968 3.85873 16.3768 3.81164C16.301 3.69811 16.1886 3.61398 16.0583 3.57326C16.0161 3.56102 15.9768 3.54033 15.9429 3.51245C15.9089 3.48458 15.881 3.4501 15.8608 3.4111C15.5445 2.80591 15.0681 1.89359 12.3649 1.35294C11.4243 1.16613 10.6803 1.24883 10.1569 1.60072C9.83361 1.81619 9.59874 2.14086 9.49525 2.51532C9.48647 2.55998 9.46838 2.60229 9.44217 2.6395C9.41596 2.67672 9.38221 2.708 9.34311 2.73131C9.30402 2.75462 9.26045 2.76944 9.21525 2.7748C9.17005 2.78017 9.12423 2.77596 9.08076 2.76245C8.91221 2.6927 8.72975 2.66307 8.54778 2.6759C8.36581 2.68874 8.18932 2.74368 8.03222 2.8364C7.4533 3.22559 7.36314 4.21283 7.36217 4.22288C7.35785 4.27407 7.34151 4.32352 7.31449 4.36721L7.28952 4.40742C7.41236 4.5621 7.46975 4.75873 7.44941 4.95521C7.43508 5.02601 7.40406 5.09237 7.35894 5.14877C7.31381 5.20518 7.25588 5.25001 7.18995 5.27953C7.17385 5.2983 7.16221 5.32048 7.1559 5.3444C7.23617 5.44357 7.28677 5.56343 7.30184 5.69013C7.31784 5.8821 7.2697 6.07395 7.16498 6.23564ZM6.90779 4.69769L6.89838 4.70256L6.90779 4.69769Z" fill="#E5E5E5"/>
<path d="M12.0087 14.4307C10.7237 14.396 9.85874 13.4821 9.02231 12.5983C8.93279 12.5036 8.84328 12.4089 8.75344 12.3158C8.15095 11.6705 7.82762 10.8135 7.85377 9.93104V8.7359C7.85377 8.64988 7.88794 8.56739 7.94876 8.50657C8.00958 8.44575 8.09207 8.41158 8.17809 8.41158C8.26411 8.41158 8.3466 8.44575 8.40742 8.50657C8.46825 8.56739 8.50241 8.64988 8.50241 8.7359V9.95439C8.48689 10.6598 8.74423 11.344 9.22079 11.8643C9.31193 11.959 9.40274 12.055 9.49355 12.151C10.2719 12.9751 11.0101 13.7535 12.0087 13.7811C12.9894 13.7535 13.7276 12.9751 14.506 12.1507C14.5968 12.055 14.6876 11.959 14.7784 11.8643C15.2512 11.3498 15.5089 10.6736 15.4984 9.97482V8.7346C15.4984 8.64859 15.5326 8.56609 15.5934 8.50527C15.6542 8.44445 15.7367 8.41028 15.8227 8.41028C15.9088 8.41028 15.9912 8.44445 16.0521 8.50527C16.1129 8.56609 16.1471 8.64859 16.1471 8.7346V9.95309C16.1677 10.8278 15.8443 11.6757 15.2464 12.3145C15.1566 12.4076 15.0674 12.5023 14.9779 12.5967C14.1408 13.4821 13.2761 14.396 12.0087 14.4307Z" fill="#E5E5E5"/>
<path d="M8.033 10.39C7.37075 10.39 6.83303 9.74133 6.83303 8.94479C6.82904 8.72843 6.86991 8.51358 6.95308 8.3138C7.03625 8.11402 7.15991 7.93364 7.31626 7.78404C7.38043 7.72671 7.46474 7.69722 7.55065 7.70205C7.63656 7.70689 7.71703 7.74565 7.77436 7.80982C7.83168 7.87399 7.86117 7.9583 7.85634 8.04421C7.8515 8.13013 7.81274 8.2106 7.74857 8.26793C7.65998 8.35637 7.59056 8.46211 7.54464 8.57857C7.49872 8.69502 7.47728 8.81969 7.48166 8.94479C7.48166 9.40663 7.78652 9.78804 8.09527 9.73614C8.18012 9.72191 8.26715 9.74196 8.33722 9.7919C8.40728 9.84184 8.45464 9.91756 8.46888 10.0024C8.48311 10.0873 8.46306 10.1743 8.41312 10.2444C8.36319 10.3144 8.28747 10.3618 8.20262 10.376C8.14655 10.3853 8.08982 10.39 8.033 10.39Z" fill="#E5E5E5"/>
<path d="M15.9667 10.39C15.9101 10.39 15.8535 10.3852 15.7977 10.3757C15.7135 10.3607 15.6387 10.3131 15.5894 10.2432C15.5402 10.1733 15.5206 10.0867 15.5348 10.0024C15.549 9.9181 15.596 9.84282 15.6655 9.79295C15.7349 9.74309 15.8213 9.72267 15.9057 9.73614C16.2129 9.78836 16.519 9.40663 16.519 8.94479C16.5235 8.81971 16.5021 8.69505 16.4562 8.5786C16.4104 8.46214 16.341 8.35639 16.2524 8.26793C16.2207 8.23954 16.1948 8.20517 16.1763 8.16679C16.1578 8.1284 16.1471 8.08675 16.1447 8.04421C16.1398 7.9583 16.1693 7.87399 16.2267 7.80982C16.284 7.74565 16.3645 7.70689 16.4504 7.70205C16.5363 7.69722 16.6206 7.72671 16.6848 7.78404C16.841 7.93371 16.9646 8.11411 17.0477 8.31388C17.1308 8.51365 17.1717 8.72846 17.1677 8.94479C17.1677 9.74166 16.629 10.39 15.9667 10.39Z" fill="#E5E5E5"/>
<path d="M10.6026 17.7502C10.5932 17.7502 10.5834 17.7502 10.5737 17.7502C10.5245 17.7458 10.4769 17.7302 10.4346 17.7045C10.3924 17.6789 10.3565 17.6439 10.3298 17.6023L8.85799 15.308C8.82262 15.2529 8.80477 15.1883 8.8068 15.1229C8.80882 15.0574 8.83063 14.9941 8.86934 14.9412L9.42071 14.1914C9.47002 14.1241 9.54338 14.0784 9.62553 14.0637C9.70768 14.0491 9.7923 14.0667 9.8618 14.1129L12.1805 15.6557C12.2192 15.6819 12.2518 15.7161 12.2761 15.7561C12.3004 15.7961 12.3157 15.8408 12.3211 15.8873C12.3265 15.9337 12.3217 15.9808 12.3072 16.0253C12.2926 16.0697 12.2687 16.1105 12.2369 16.1448L10.84 17.6464C10.8097 17.6791 10.7729 17.7052 10.7321 17.7231C10.6913 17.7409 10.6472 17.7502 10.6026 17.7502ZM9.52417 15.1439L10.6499 16.8989L11.5023 15.9826L9.75931 14.8232L9.52417 15.1439Z" fill="#E5E5E5"/>
<path d="M13.3964 17.7462C13.3519 17.7462 13.3078 17.737 13.2669 17.7192C13.2261 17.7014 13.1893 17.6754 13.159 17.6428L11.7624 16.1408C11.7304 16.1064 11.7063 16.0655 11.6916 16.0208C11.677 15.9762 11.6723 15.9289 11.6777 15.8822C11.6832 15.8355 11.6987 15.7906 11.7233 15.7505C11.7478 15.7104 11.7808 15.6762 11.8198 15.6501L14.1385 14.1073C14.208 14.0611 14.2926 14.0435 14.3748 14.0581C14.4569 14.0727 14.5303 14.1185 14.5796 14.1858L15.1309 14.9356C15.1697 14.9884 15.1916 15.0517 15.1937 15.1172C15.1957 15.1827 15.178 15.2473 15.1426 15.3024L13.6695 17.597C13.6428 17.6387 13.607 17.6736 13.5647 17.6992C13.5224 17.7249 13.4748 17.7405 13.4256 17.7449C13.4159 17.7456 13.4061 17.7462 13.3964 17.7462ZM12.497 15.9786L13.3494 16.8946L14.4751 15.1396L14.24 14.8192L12.497 15.9786Z" fill="#E5E5E5"/>
<path d="M19.9057 24.0448H3.76863C3.45037 24.0448 3.14515 23.9184 2.9201 23.6933C2.69506 23.4683 2.56863 23.1631 2.56863 22.8448V19.9508C2.56541 19.0386 2.85606 18.1496 3.39756 17.4154C3.93906 16.6813 4.70261 16.141 5.57512 15.8747L9.09663 14.8447C9.17921 14.8206 9.26798 14.8302 9.34343 14.8715C9.41889 14.9129 9.47483 14.9825 9.49896 15.0651C9.52308 15.1476 9.51342 15.2364 9.47209 15.3119C9.43076 15.3873 9.36115 15.4433 9.27858 15.4674L5.76258 16.4958C5.02373 16.7223 4.37736 17.1805 3.91904 17.8027C3.46073 18.4249 3.21479 19.1781 3.2176 19.9508V22.8448C3.2176 22.991 3.27569 23.1313 3.37909 23.2347C3.48249 23.3381 3.62273 23.3961 3.76895 23.3961H19.9057C20.0519 23.3961 20.1922 23.3381 20.2956 23.2347C20.399 23.1313 20.4571 22.991 20.4571 22.8448V19.6265C20.4598 18.8529 20.2133 18.099 19.7541 17.4764C19.2948 16.8539 18.6472 16.3959 17.9072 16.1702L14.7979 15.4891C14.7139 15.4707 14.6406 15.4197 14.5942 15.3472C14.5478 15.2748 14.5321 15.1869 14.5505 15.1028C14.5689 15.0188 14.6199 14.9455 14.6924 14.8991C14.7648 14.8527 14.8527 14.837 14.9367 14.8554L18.0723 15.542C18.9504 15.8048 19.7201 16.3443 20.2666 17.0801C20.8132 17.8159 21.1074 18.7086 21.1054 19.6252V22.8448C21.1054 23.163 20.979 23.4682 20.754 23.6932C20.5291 23.9182 20.2239 24.0447 19.9057 24.0448Z" fill="#E5E5E5"/>
<path d="M12 16.245C11.9361 16.2452 11.8736 16.2264 11.8204 16.1909L9.50276 14.6506C9.45122 14.6163 9.41058 14.568 9.38564 14.5113C9.3607 14.4546 9.35249 14.392 9.362 14.3308L9.57508 12.9686C9.58119 12.9262 9.59566 12.8853 9.61767 12.8485C9.63968 12.8116 9.66878 12.7795 9.70328 12.754C9.73779 12.7285 9.77701 12.7101 9.81869 12.6998C9.86036 12.6896 9.90365 12.6877 9.94605 12.6943C9.98845 12.7009 10.0291 12.7159 10.0657 12.7383C10.1023 12.7608 10.134 12.7903 10.1591 12.8251C10.1842 12.8599 10.2022 12.8993 10.2119 12.9411C10.2217 12.9829 10.2231 13.0262 10.2159 13.0685L10.0346 14.2274L12 15.5315L13.9667 14.2245L13.7838 13.0659C13.7767 13.0236 13.7781 12.9803 13.7878 12.9385C13.7976 12.8967 13.8155 12.8573 13.8406 12.8225C13.8657 12.7877 13.8975 12.7582 13.934 12.7357C13.9706 12.7133 14.0113 12.6983 14.0537 12.6917C14.0961 12.6851 14.1394 12.687 14.1811 12.6972C14.2227 12.7075 14.262 12.7259 14.2965 12.7514C14.331 12.7769 14.3601 12.809 14.3821 12.8459C14.4041 12.8827 14.4186 12.9236 14.4247 12.966L14.6377 14.3282C14.6473 14.3895 14.6391 14.4522 14.6142 14.5089C14.5893 14.5656 14.5486 14.614 14.497 14.6484L12.1778 16.1893C12.1252 16.2248 12.0635 16.2442 12 16.245Z" fill="#E5E5E5"/>
<path d="M18.7428 21.0187C18.7188 21.0192 18.6947 21.017 18.6711 21.0123L18.1431 20.8926C18.1008 20.884 18.0606 20.867 18.0248 20.8427C17.9891 20.8184 17.9586 20.7871 17.9352 20.7508C17.9117 20.7145 17.8957 20.6739 17.8882 20.6314C17.8806 20.5888 17.8816 20.5452 17.8912 20.503C17.9008 20.4609 17.9186 20.4211 17.9438 20.3859C17.969 20.3508 18.0009 20.321 18.0377 20.2984C18.0745 20.2758 18.1155 20.2607 18.1582 20.2542C18.201 20.2476 18.2446 20.2496 18.2865 20.2602L18.4979 20.3078L18.7295 19.2862C18.7679 19.1313 18.775 18.9702 18.7504 18.8125C18.7257 18.6548 18.6699 18.5035 18.5861 18.3677C18.5023 18.2318 18.3922 18.114 18.2623 18.0212C18.1324 17.9284 17.9853 17.8625 17.8296 17.8272C17.6739 17.792 17.5127 17.7882 17.3555 17.816C17.1983 17.8438 17.0483 17.9027 16.9141 17.9893C16.78 18.0759 16.6645 18.1883 16.5743 18.3201C16.4842 18.4518 16.4213 18.6002 16.3892 18.7566L16.1579 19.7779L16.3694 19.8259C16.4533 19.8449 16.5263 19.8964 16.5722 19.9691C16.6181 20.0419 16.6332 20.1299 16.6143 20.2138C16.5953 20.2977 16.5438 20.3706 16.471 20.4165C16.3983 20.4625 16.3103 20.4776 16.2264 20.4586L15.6974 20.3377C15.6558 20.3283 15.6164 20.3107 15.5815 20.286C15.5467 20.2614 15.517 20.23 15.4943 20.1939C15.4716 20.1577 15.4562 20.1174 15.4491 20.0753C15.442 20.0332 15.4433 19.9901 15.4529 19.9485L15.7558 18.6103C15.8095 18.3735 15.9093 18.1496 16.0495 17.9514C16.1897 17.7532 16.3676 17.5845 16.573 17.455C16.7784 17.3255 17.0073 17.2378 17.2466 17.1967C17.486 17.1557 17.731 17.1622 17.9678 17.2159C18.2046 17.2696 18.4286 17.3694 18.6268 17.5096C18.825 17.6499 18.9937 17.8277 19.1232 18.0331C19.2527 18.2386 19.3404 18.4675 19.3815 18.7068C19.4225 18.9461 19.416 19.1912 19.3623 19.428L19.0594 20.7658C19.0432 20.8376 19.003 20.9017 18.9456 20.9477C18.8881 20.9936 18.8167 21.0187 18.7431 21.0187H18.7428Z" fill="#E5E5E5"/>
<path d="M5.87682 18.3664C5.80306 18.3663 5.73153 18.3411 5.67405 18.2948C5.61656 18.2486 5.57655 18.1842 5.56062 18.1122L5.16464 16.3219C5.15544 16.2803 5.15452 16.2373 5.16194 16.1954C5.16935 16.1534 5.18496 16.1134 5.20786 16.0774C5.23076 16.0415 5.26051 16.0105 5.29542 15.9861C5.33032 15.9616 5.36969 15.9443 5.41128 15.9351C5.45286 15.9259 5.49586 15.925 5.5378 15.9324C5.57974 15.9399 5.61981 15.9555 5.65573 15.9784C5.69164 16.0013 5.72269 16.031 5.7471 16.0659C5.77152 16.1008 5.78882 16.1402 5.79802 16.1818L6.194 17.972C6.21253 18.056 6.19694 18.144 6.15066 18.2165C6.10438 18.289 6.03119 18.3401 5.9472 18.3586C5.92411 18.3639 5.9005 18.3665 5.87682 18.3664Z" fill="#E5E5E5"/>
<path d="M17.9123 17.8574C17.8889 17.8573 17.8655 17.8548 17.8426 17.8499C17.801 17.8408 17.7616 17.8236 17.7266 17.7993C17.6917 17.7749 17.6619 17.7439 17.6389 17.7081C17.6159 17.6722 17.6002 17.6321 17.5927 17.5902C17.5852 17.5483 17.586 17.5053 17.5952 17.4637L17.9422 15.8778C17.9606 15.7937 18.0116 15.7205 18.084 15.674C18.1565 15.6276 18.2444 15.6119 18.3284 15.6303C18.4124 15.6487 18.4857 15.6998 18.5321 15.7722C18.5785 15.8446 18.5943 15.9325 18.5759 16.0166L18.2289 17.6025C18.213 17.6747 18.173 17.7393 18.1155 17.7857C18.0579 17.832 17.9862 17.8573 17.9123 17.8574Z" fill="#E5E5E5"/>
<path d="M6.34459 20.6434C6.04515 20.6435 5.75241 20.5548 5.5034 20.3885C5.25439 20.2221 5.06029 19.9857 4.94566 19.7091C4.83102 19.4325 4.80099 19.1281 4.85937 18.8344C4.91775 18.5407 5.06192 18.2709 5.27363 18.0591C5.48535 17.8474 5.75511 17.7032 6.04879 17.6447C6.34248 17.5863 6.6469 17.6162 6.92356 17.7308C7.20021 17.8454 7.43668 18.0394 7.60305 18.2884C7.76942 18.5374 7.85822 18.8301 7.85822 19.1295C7.85787 19.5309 7.6983 19.9157 7.41453 20.1995C7.13075 20.4834 6.74596 20.643 6.34459 20.6434ZM6.34459 18.2646C6.17343 18.2645 6.00609 18.3152 5.86374 18.4103C5.72139 18.5053 5.61043 18.6404 5.5449 18.7986C5.47937 18.9567 5.4622 19.1307 5.49558 19.2986C5.52896 19.4665 5.61138 19.6207 5.73241 19.7417C5.85344 19.8627 6.00766 19.9451 6.17554 19.9785C6.34342 20.0119 6.51743 19.9947 6.67555 19.9292C6.83368 19.8637 6.96882 19.7527 7.06387 19.6104C7.15893 19.468 7.20963 19.3007 7.20957 19.1295C7.20931 18.9002 7.1181 18.6803 6.95594 18.5182C6.79378 18.356 6.57392 18.2648 6.34459 18.2646Z" fill="#E5E5E5"/>
<path d="M6.34431 19.6211C6.61497 19.6211 6.83438 19.4017 6.83438 19.1311C6.83438 18.8604 6.61497 18.641 6.34431 18.641C6.07366 18.641 5.85425 18.8604 5.85425 19.1311C5.85425 19.4017 6.07366 19.6211 6.34431 19.6211Z" fill="#E5E5E5"/>
<path d="M6.34379 19.7875C6.21471 19.7876 6.08852 19.7494 5.98117 19.6777C5.87381 19.6061 5.79012 19.5042 5.74068 19.3849C5.69124 19.2657 5.67828 19.1345 5.70342 19.0079C5.72856 18.8813 5.79068 18.765 5.88193 18.6737C5.97318 18.5824 6.08945 18.5202 6.21604 18.495C6.34263 18.4698 6.47385 18.4827 6.59311 18.5321C6.71236 18.5814 6.8143 18.6651 6.88601 18.7724C6.95773 18.8797 6.99601 19.0059 6.99601 19.135C6.99584 19.3079 6.92708 19.4738 6.80481 19.5961C6.68254 19.7184 6.51675 19.7873 6.34379 19.7875ZM6.34379 18.8071C6.27885 18.807 6.21534 18.8262 6.16132 18.8623C6.10729 18.8983 6.06517 18.9496 6.04029 19.0095C6.01541 19.0695 6.00888 19.1356 6.02154 19.1993C6.03419 19.263 6.06546 19.3215 6.11138 19.3674C6.1573 19.4133 6.21581 19.4446 6.27951 19.4572C6.34321 19.4699 6.40923 19.4634 6.46922 19.4385C6.52921 19.4136 6.58046 19.3715 6.6165 19.3175C6.65254 19.2634 6.67175 19.1999 6.67168 19.135C6.6716 19.048 6.63702 18.9647 6.57555 18.9032C6.51408 18.8417 6.43073 18.8072 6.34379 18.8071Z" fill="#E5E5E5"/>
</g>
<defs>
<clipPath id="clip0_1514_34398">
<rect width="24" height="24" fill="white" transform="translate(0 0.253906)"/>
</clipPath>
</defs>
</svg>
