<svg width="24" height="24" viewBox="0 0 24 24" fill="none" xmlns="http://www.w3.org/2000/svg">
<g clip-path="url(#clip0_417_28369)">
<path d="M15.496 11.6504C16.9039 10.0063 17.7826 7.61575 17.7826 5.8063C17.7826 2.60315 15.1795 0 11.9763 0C8.77318 0 6.17003 2.60315 6.17003 5.8063C6.17003 7.61575 7.04877 10.0063 8.45664 11.6504C-0.0614668 14.5134 0.831447 22.3937 1.20468 24H22.748C24.0188 18.4961 20.6551 13.1575 15.496 11.6504ZM11.9763 0.774803C14.0126 0.774803 15.7653 1.98898 16.5543 3.73228C14.622 5.05039 12.6614 3.5622 12.6614 3.5622C11.2913 2.76378 9.5716 2.83937 8.27712 3.74646L7.10546 4.5685C7.65822 2.39528 9.6283 0.774803 11.9763 0.774803ZM6.94483 5.8063C6.94483 5.74488 6.94956 5.68346 6.95428 5.62205L8.72121 4.37953C9.77003 3.64252 11.1637 3.58583 12.2692 4.22835C12.2692 4.22835 14.4283 5.88189 16.8236 4.47874C16.937 4.89921 17.0078 5.34331 17.0078 5.80157C17.0078 8.55118 14.7543 12.7701 11.9763 12.7701C9.19838 12.7701 6.94483 8.55591 6.94483 5.8063ZM22.1055 23.2252H1.85192C1.26609 19.5921 2.75428 16.1008 5.49444 13.9984C5.65979 15.085 5.98105 16.1291 6.45822 17.1213C5.26294 17.8724 4.70074 19.3795 5.18735 20.7638L5.82987 22.5874L7.28971 22.0724L7.0346 21.3402L6.30231 21.5953L5.91491 20.4992C5.48972 19.2898 6.12751 17.9622 7.33696 17.537C8.54168 17.1118 9.87397 17.7496 10.2992 18.9591L10.6818 20.0551L9.94956 20.3102L10.2047 21.0425L11.6645 20.5276L11.022 18.6992C10.4645 17.1118 8.74011 16.2661 7.15271 16.7811C6.65192 15.7417 6.33066 14.6362 6.2031 13.4882C7.06294 12.9449 8.02672 12.5291 9.07082 12.2693C9.91649 13.0394 10.8992 13.5307 11.9716 13.5307C13.044 13.5307 14.0267 13.0394 14.8724 12.2693C16.0913 12.5717 17.2015 13.0866 18.1653 13.7764C17.9385 14.8063 17.5606 15.7843 17.0314 16.6913C16.8992 16.6535 16.7622 16.6252 16.6157 16.6252C15.7606 16.6252 15.0661 17.3197 15.0661 18.1748C15.0661 19.0299 15.7606 19.7244 16.6157 19.7244C17.4708 19.7244 18.1653 19.0299 18.1653 18.1748C18.1653 17.7449 17.9905 17.3575 17.7023 17.074C18.2078 16.2 18.5858 15.274 18.8362 14.2961C21.3354 16.4457 22.6582 19.7764 22.1055 23.2252ZM17.3952 18.1937C17.3952 18.6189 17.0456 18.9685 16.6204 18.9685C16.1952 18.9685 15.8456 18.6236 15.8456 18.1937C15.8456 17.7638 16.1952 17.4189 16.6204 17.4189C17.0503 17.4189 17.3952 17.7685 17.3952 18.1937Z" fill="#333333"/>
</g>
<defs>
<clipPath id="clip0_417_28369">
<rect width="24" height="24" fill="white"/>
</clipPath>
</defs>
</svg>
                          