<svg width="24" height="24" viewBox="0 0 24 24" fill="none" xmlns="http://www.w3.org/2000/svg">
<path d="M3 4.5H21C21.3978 4.5 21.7794 4.65804 22.0607 4.93934C22.342 5.22064 22.5 5.60218 22.5 6V18C22.5 18.3978 22.342 18.7794 22.0607 19.0607C21.7794 19.342 21.3978 19.5 21 19.5H3C2.60217 19.5 2.22064 19.342 1.93934 19.0607C1.65804 18.7794 1.5 18.3978 1.5 18V6C1.5 5.60218 1.65804 5.22064 1.93934 4.93934C2.22064 4.65804 2.60217 4.5 3 4.5ZM4.65 6L12 11.085L19.35 6H4.65ZM21 18V6.6825L12.4275 12.615C12.302 12.7021 12.1528 12.7488 12 12.7488C11.8472 12.7488 11.698 12.7021 11.5725 12.615L3 6.6825V18H21Z" fill="#333333"/>
</svg>
