<svg width="29" height="30" viewBox="0 0 29 30" fill="#666666;" xmlns="http://www.w3.org/2000/svg">
<path d="M28.9618 15.2816C28.9614 12.5157 28.1685 9.80795 26.6769 7.47877C25.1854 5.14959 23.0577 3.29655 20.5458 2.13903C18.0338 0.981503 15.2428 0.567969 12.5031 0.947382C9.76344 1.3268 7.18985 2.48327 5.08701 4.27989C2.98417 6.0765 1.44015 8.43803 0.637743 11.0849C-0.164667 13.7318 -0.191866 16.5531 0.559368 19.215C1.3106 21.8768 2.80881 24.2677 4.87662 26.1045C6.94443 27.9413 9.49525 29.1472 12.2271 29.5794V19.4652H8.55269V15.2816H12.2271V12.0929C12.2271 8.46555 14.3881 6.4619 17.6935 6.4619C18.779 6.47696 19.8619 6.57128 20.9337 6.74413V10.3064H19.1082C18.7972 10.2651 18.4808 10.2943 18.1826 10.3919C17.8843 10.4894 17.6119 10.6529 17.3854 10.8701C17.1589 11.0873 16.9842 11.3526 16.8742 11.6465C16.7642 11.9404 16.7218 12.2553 16.75 12.5678V15.2816H20.7645L20.1223 19.4652H16.75V29.5794C20.1547 29.0408 23.2553 27.3047 25.494 24.6836C27.7327 22.0626 28.9624 18.7285 28.9618 15.2816V15.2816Z" fill="#F9F9FB"/>
</svg>
