<svg width="24" height="25" viewBox="0 0 24 25" fill="none" xmlns="http://www.w3.org/2000/svg">
<g clip-path="url(#clip0_1514_34459)">
<path d="M19.5 24.2539H4.5C2.019 24.2539 0 22.2349 0 19.7539V18.2539C0 15.7729 2.019 13.7539 4.5 13.7539C4.776 13.7539 5 13.9779 5 14.2539C5 14.5299 4.776 14.7539 4.5 14.7539C2.57 14.7539 1 16.3239 1 18.2539V19.7539C1 21.6839 2.57 23.2539 4.5 23.2539H19.5C21.43 23.2539 23 21.6839 23 19.7539V18.2539C23 16.3239 21.43 14.7539 19.5 14.7539C19.224 14.7539 19 14.5299 19 14.2539C19 13.9779 19.224 13.7539 19.5 13.7539C21.981 13.7539 24 15.7729 24 18.2539V19.7539C24 22.2349 21.981 24.2539 19.5 24.2539Z" fill="#E5E5E5"/>
<path d="M16.5 18.2541H7.5C5.57 18.2541 4 16.6841 4 14.7541V13.7541C4 11.8241 5.57 10.2542 7.5 10.2542H16.5C18.43 10.2542 20 11.8241 20 13.7541V14.7541C20 16.6841 18.43 18.2541 16.5 18.2541ZM7.5 11.2541C6.121 11.2541 5 12.3761 5 13.7541V14.7541C5 16.1331 6.121 17.2541 7.5 17.2541H16.5C17.879 17.2541 19 16.1331 19 14.7541V13.7541C19 12.3761 17.879 11.2541 16.5 11.2541H7.5Z" fill="#E5E5E5"/>
<path d="M13.5 8.2542C13.495 8.2542 13.49 8.2542 13.485 8.2542C13.291 8.2482 13.117 8.1302 13.04 7.9512L10.465 1.9422L8.947 4.9782C8.862 5.1472 8.689 5.2542 8.5 5.2542H5.5C5.224 5.2542 5 5.0302 5 4.7542C5 4.4782 5.224 4.2542 5.5 4.2542H8.191L10.052 0.530196C10.14 0.356196 10.315 0.249196 10.515 0.254196C10.709 0.260196 10.883 0.378196 10.96 0.557196L13.535 6.5662L15.053 3.5302C15.138 3.3612 15.311 3.2542 15.5 3.2542H18.5C18.776 3.2542 19 3.4782 19 3.7542C19 4.0302 18.776 4.2542 18.5 4.2542H15.809L13.948 7.9782C13.862 8.1482 13.689 8.2542 13.5 8.2542Z" fill="#E5E5E5"/>
<path d="M12 15.2543C12.5523 15.2543 13 14.8066 13 14.2543C13 13.702 12.5523 13.2543 12 13.2543C11.4477 13.2543 11 13.702 11 14.2543C11 14.8066 11.4477 15.2543 12 15.2543Z" fill="#E5E5E5"/>
<path d="M8 15.2543C8.55228 15.2543 9 14.8066 9 14.2543C9 13.702 8.55228 13.2543 8 13.2543C7.44771 13.2543 7 13.702 7 14.2543C7 14.8066 7.44771 15.2543 8 15.2543Z" fill="#E5E5E5"/>
<path d="M16 15.2543C16.5523 15.2543 17 14.8066 17 14.2543C17 13.702 16.5523 13.2543 16 13.2543C15.4477 13.2543 15 13.702 15 14.2543C15 14.8066 15.4477 15.2543 16 15.2543Z" fill="#E5E5E5"/>
</g>
<defs>
<clipPath id="clip0_1514_34459">
<rect width="24" height="24" fill="white" transform="translate(0 0.253906)"/>
</clipPath>
</defs>
</svg>
