<svg width="36" height="36" viewBox="0 0 36 36" fill="none" xmlns="http://www.w3.org/2000/svg">
<g opacity="0.6">
<path d="M24.8204 24.1957C24.543 23.924 24.0979 23.9286 23.8261 24.2059L23.8061 24.2263C23.5343 24.5036 23.5389 24.9488 23.8163 25.2206C23.9531 25.3547 24.1308 25.4215 24.3083 25.4215C24.4907 25.4215 24.6729 25.351 24.8106 25.2105L24.8306 25.1901C25.1024 24.9127 25.0978 24.4676 24.8204 24.1957Z" fill="#333333"/>
<path d="M32.3842 16.8241H30.5157V14.9556C30.5157 14.5672 30.2009 14.2524 29.8126 14.2524C29.4242 14.2524 29.1095 14.5672 29.1095 14.9556V16.8241H27.241C26.8526 16.8241 26.5378 17.1388 26.5378 17.5272C26.5378 17.9155 26.8526 18.2303 27.241 18.2303H29.1095V20.0988C29.1095 20.4871 29.4242 20.8019 29.8126 20.8019C30.2009 20.8019 30.5157 20.4871 30.5157 20.0988V18.2303H32.3842C32.7725 18.2303 33.0873 17.9155 33.0873 17.5272C33.0873 17.1388 32.7725 16.8241 32.3842 16.8241Z" fill="#333333"/>
<path d="M32.1114 11.7823C31.4546 6.92863 27.397 3.29712 22.5808 3.29712C20.1496 3.29712 17.8754 4.20338 16.1016 5.86452C14.3277 4.20338 12.0535 3.29712 9.62236 3.29712C4.31656 3.29712 0 7.71648 0 13.1486C0 14.2219 0.313102 15.4249 0.936002 16.7528H0.703126C0.31479 16.7528 0 17.0676 0 17.4559C0 17.8442 0.31479 18.159 0.703126 18.159H1.68483C2.99806 20.3823 5.07481 22.9105 7.90659 25.7263C11.7443 29.5422 15.6356 32.5276 15.6745 32.5574C15.8005 32.6538 15.9511 32.7019 16.1016 32.7019C16.2521 32.7019 16.4026 32.6538 16.5287 32.5574C16.5583 32.5347 19.5345 30.2525 22.8328 27.1428C23.1154 26.8764 23.1284 26.4314 22.862 26.1489C22.5957 25.8664 22.1507 25.8532 21.8681 26.1196C19.3527 28.4912 17.0305 30.3716 16.1017 31.1062C14.9979 30.2329 11.9251 27.7401 8.88808 24.7191C6.45667 22.3004 4.59535 20.0963 3.33697 18.159H9.63178C9.94544 18.159 10.2211 17.9513 10.3076 17.6498L11.5361 13.3676L14.9381 24.2674C15.0298 24.561 15.3017 24.761 15.6093 24.761C15.917 24.761 16.1889 24.561 16.2805 24.2674L18.1645 18.2294H21.3035C21.6919 18.2294 22.0067 17.9146 22.0067 17.5263C22.0067 17.138 21.6919 16.8232 21.3035 16.8232H17.6473C17.3397 16.8232 17.0678 17.0231 16.9761 17.3168L15.6091 21.6977L12.1789 10.7074C12.0863 10.4109 11.8108 10.2095 11.4995 10.2138C11.1889 10.2174 10.9174 10.4244 10.8317 10.723L9.10183 16.7528H2.50482C1.778 15.3806 1.40625 14.1712 1.40625 13.1486C1.40625 8.49189 5.09197 4.70337 9.62236 4.70337C11.8994 4.70337 14.0169 5.63937 15.5848 7.33883C15.718 7.48311 15.9053 7.56517 16.1016 7.56517C16.2979 7.56517 16.4853 7.48311 16.6184 7.33883C18.1863 5.63937 20.3038 4.70337 22.5808 4.70337C26.4977 4.70337 29.8278 7.52811 30.6193 11.3919C30.3552 11.3573 30.0859 11.3393 29.8125 11.3393C26.4007 11.3393 23.625 14.115 23.625 17.5268C23.625 20.9386 26.4007 23.7143 29.8125 23.7143C33.2243 23.7143 36 20.9386 36 17.5268C36.0001 14.9269 34.3882 12.6967 32.1114 11.7823ZM29.8126 22.308C27.1762 22.308 25.0313 20.1632 25.0313 17.5268C25.0313 14.8904 27.1762 12.7455 29.8126 12.7455C32.4489 12.7455 34.5938 14.8904 34.5938 17.5268C34.5938 20.1632 32.4489 22.308 29.8126 22.308Z" fill="#333333"/>
</g>
</svg>
