<svg width="24" height="25" viewBox="0 0 24 25" fill="none" xmlns="http://www.w3.org/2000/svg">
<g clip-path="url(#clip0_1514_34329)">
<path d="M19 24.2537H5C3.897 24.2537 3 23.3567 3 22.2537V13.2538H1C0.439 13.2538 0 12.8148 0 12.2538C0 11.9888 0.108 11.7288 0.296 11.5408L11.65 0.396772C11.844 0.206773 12.156 0.206773 12.35 0.396772L23.7 11.5368C23.892 11.7288 24 11.9888 24 12.2538C24 12.8148 23.561 13.2538 23 13.2538H21V22.2537C21 23.3567 20.103 24.2537 19 24.2537ZM12 1.45477L1 12.2508L3.5 12.2538C3.776 12.2538 4 12.4778 4 12.7538V22.2537C4 22.8047 4.449 23.2537 5 23.2537H19C19.551 23.2537 20 22.8047 20 22.2537V12.7538C20 12.4778 20.224 12.2538 20.5 12.2538H23C23 12.2518 22.998 12.2488 22.997 12.2478L12 1.45477Z" fill="#E5E5E5"/>
</g>
<defs>
<clipPath id="clip0_1514_34329">
<rect width="24" height="24" fill="white" transform="translate(0 0.253906)"/>
</clipPath>
</defs>
</svg>
