<svg width="24" height="24" viewBox="0 0 24 24" fill="none" xmlns="http://www.w3.org/2000/svg">
<g clip-path="url(#clip0_417_28388)">
<path d="M18.3051 2.06259H14.8463V0.705882C14.8463 0.316047 14.5302 0 14.1404 0H9.85804C9.4682 0 9.15215 0.316047 9.15215 0.705882V2.06259H5.69333C4.52566 2.06259 3.57568 3.01256 3.57568 4.18024V21.8824C3.57568 23.05 4.52566 24 5.69333 24H18.3051C19.4728 24 20.4227 23.05 20.4227 21.8824V4.18024C20.4227 3.01256 19.4728 2.06259 18.3051 2.06259ZM10.5639 1.41176H13.4345V4.02353C13.4345 4.81492 12.7906 5.45882 11.9992 5.45882C11.2078 5.45882 10.5639 4.81492 10.5639 4.02353V1.41176ZM19.011 21.8824C19.011 22.2716 18.6943 22.5882 18.3051 22.5882H5.69333C5.30411 22.5882 4.98745 22.2716 4.98745 21.8824V4.18024C4.98745 3.79101 5.30411 3.47435 5.69333 3.47435H9.15215V4.02353C9.15215 5.59336 10.4294 6.87059 11.9992 6.87059C13.569 6.87059 14.8463 5.59336 14.8463 4.02353V3.47435H18.3051C18.6943 3.47435 19.011 3.79101 19.011 4.18024V21.8824Z" fill="#333333"/>
<path d="M9.09675 17.7488H14.9049C15.2948 17.7488 15.6108 17.4328 15.6108 17.0429V15.1939C15.6108 14.0795 14.9869 13.1082 14.0701 12.6107C14.3759 12.1894 14.5569 11.6719 14.5569 11.1127C14.5569 9.70327 13.4102 8.55664 12.0008 8.55664C10.5914 8.55664 9.4448 9.70327 9.4448 11.1127C9.4448 11.6719 9.62578 12.1894 9.93162 12.6107C9.01477 13.1082 8.39087 14.0795 8.39087 15.1939V17.0429C8.39087 17.4328 8.70692 17.7488 9.09675 17.7488ZM12.0008 9.9684C12.6318 9.9684 13.1451 10.4817 13.1451 11.1127C13.1451 11.7436 12.6318 12.257 12.0008 12.257C11.3699 12.257 10.8566 11.7437 10.8566 11.1127C10.8566 10.4818 11.3699 9.9684 12.0008 9.9684ZM9.80263 15.1939C9.80263 14.353 10.4868 13.6688 11.3278 13.6688H12.6739C13.5149 13.6688 14.199 14.353 14.199 15.1939V16.3371H9.80263V15.1939Z" fill="#333333"/>
<path d="M15.4231 19.4355H8.576C8.18616 19.4355 7.87012 19.7516 7.87012 20.1414C7.87012 20.5313 8.18616 20.8473 8.576 20.8473H15.4231C15.8129 20.8473 16.129 20.5313 16.129 20.1414C16.129 19.7516 15.8129 19.4355 15.4231 19.4355Z" fill="#333333"/>
</g>
<defs>
<clipPath id="clip0_417_28388">
<rect width="24" height="24" fill="white"/>
</clipPath>
</defs>
</svg>
