<svg width="25" height="25" viewBox="0 0 25 25" fill="#666666" xmlns="http://www.w3.org/2000/svg">
<path d="M24.9109 7.34239C24.8974 6.32956 24.7078 5.32679 24.3506 4.37895C24.0408 3.57946 23.5676 2.85337 22.9614 2.24709C22.3551 1.6408 21.629 1.16765 20.8295 0.857869C19.8938 0.506639 18.9054 0.316723 17.9062 0.296207C16.6197 0.238704 16.2118 0.222656 12.9462 0.222656C9.68051 0.222656 9.26194 0.222656 7.98483 0.296207C6.98609 0.316874 5.99808 0.506788 5.06285 0.857869C4.26323 1.16744 3.53703 1.64051 2.93072 2.24682C2.32441 2.85313 1.85134 3.57933 1.54177 4.37895C1.18983 5.3139 1.00033 6.30212 0.981443 7.30093C0.92394 8.58874 0.906555 8.99662 0.906555 12.2623C0.906555 15.5279 0.906555 15.9452 0.981443 17.2236C1.0015 18.2239 1.19006 19.2108 1.54177 20.1483C1.85186 20.9477 2.32528 21.6736 2.93179 22.2796C3.53831 22.8857 4.26457 23.3585 5.06419 23.668C5.99686 24.0334 6.98503 24.2369 7.98617 24.2698C9.27398 24.3273 9.68185 24.3447 12.9475 24.3447C16.2132 24.3447 16.6317 24.3447 17.9089 24.2698C18.908 24.2501 19.8966 24.0607 20.8322 23.7095C21.6315 23.3993 22.3574 22.9261 22.9636 22.3198C23.5698 21.7136 24.0431 20.9877 24.3533 20.1884C24.705 19.2523 24.8935 18.2654 24.9136 17.2637C24.9711 15.9773 24.9885 15.5694 24.9885 12.3024C24.9858 9.03673 24.9858 8.62217 24.9109 7.34239V7.34239ZM12.9382 18.4379C9.52271 18.4379 6.75586 15.671 6.75586 12.2556C6.75586 8.84015 9.52271 6.0733 12.9382 6.0733C14.5778 6.0733 16.1503 6.72465 17.3097 7.88405C18.4691 9.04346 19.1204 10.6159 19.1204 12.2556C19.1204 13.8952 18.4691 15.4677 17.3097 16.6271C16.1503 17.7865 14.5778 18.4379 12.9382 18.4379V18.4379ZM19.3665 7.28622C19.1771 7.2864 18.9896 7.24923 18.8146 7.17684C18.6396 7.10446 18.4806 6.99828 18.3467 6.86438C18.2128 6.73048 18.1067 6.57149 18.0343 6.39651C17.9619 6.22152 17.9247 6.03399 17.9249 5.84462C17.9249 5.6554 17.9622 5.46802 18.0346 5.2932C18.107 5.11838 18.2131 4.95953 18.3469 4.82573C18.4807 4.69193 18.6396 4.58579 18.8144 4.51338C18.9892 4.44096 19.1766 4.40369 19.3658 4.40369C19.5551 4.40369 19.7424 4.44096 19.9173 4.51338C20.0921 4.58579 20.2509 4.69193 20.3847 4.82573C20.5185 4.95953 20.6247 5.11838 20.6971 5.2932C20.7695 5.46802 20.8068 5.6554 20.8068 5.84462C20.8068 6.64165 20.1622 7.28622 19.3665 7.28622Z" fill="#F9F9FB"/>
<path d="M12.9388 16.274C15.1567 16.274 16.9547 14.476 16.9547 12.2581C16.9547 10.0402 15.1567 8.24219 12.9388 8.24219C10.7209 8.24219 8.92293 10.0402 8.92293 12.2581C8.92293 14.476 10.7209 16.274 12.9388 16.274Z" fill="#F9F9FB"/>
</svg>
