<svg width="30" height="31" viewBox="0 0 30 31" fill="none" xmlns="http://www.w3.org/2000/svg">
<circle cx="15" cy="15.5664" r="15" fill="#FEA250" fill-opacity="0.12"/>
<g clip-path="url(#clip0_404_25604)">
<path d="M9.39948 23.5664H19.5328C19.6801 23.5664 19.7995 23.447 19.7995 23.2997V19.6685C20.0577 19.3671 20.8661 18.2717 20.8661 16.3664C20.8661 14.4611 20.0577 13.3658 19.7995 13.0645V12.0997C19.7995 11.9525 19.6801 11.8331 19.5328 11.8331H17.5099L19.188 10.1549C19.2922 10.0509 19.2922 9.88203 19.188 9.77786L19.1099 9.69974L19.7214 9.08828C19.8255 8.98411 19.8255 8.81536 19.7214 8.7112L18.6547 7.64453C18.5506 7.54036 18.3818 7.54036 18.2776 7.64453L17.6661 8.25599L17.588 8.17786C17.4839 8.0737 17.3151 8.0737 17.2109 8.17786L12.9443 12.4445C12.8401 12.5487 12.8401 12.7176 12.9443 12.8216L13.0224 12.8997L12.1443 13.7779C12.0401 13.882 12.0401 14.0509 12.1443 14.1549L13.2109 15.2216C13.3151 15.3258 13.4839 15.3258 13.588 15.2216L14.4661 14.3435L14.5443 14.4216C14.6484 14.5258 14.8173 14.5258 14.9214 14.4216L15.5987 13.7443C16.176 14.1297 16.9533 14.0021 17.377 13.4522C17.7201 13.632 18.9995 14.4324 18.9995 16.3664C18.9995 18.1199 17.612 19.112 17.3227 19.2997H16.0661V17.4331C16.0661 17.2858 15.9467 17.1664 15.7995 17.1664H10.9995C10.8522 17.1664 10.7328 17.2858 10.7328 17.4331V18.4997C10.7328 18.647 10.8522 18.7664 10.9995 18.7664H14.4661V19.2997H13.6661C13.5189 19.2997 13.3995 19.4191 13.3995 19.5664V21.4331H10.4661C9.73008 21.434 9.13372 22.0305 9.13281 22.7664V23.2997C9.13281 23.447 9.25221 23.5664 9.39948 23.5664ZM18.4661 8.21016L19.1557 8.89974L18.7328 9.32266L18.0432 8.63307L18.4661 8.21016ZM13.3995 14.656L12.7099 13.9664L13.3995 13.2768L14.0891 13.9664L13.3995 14.656ZM16.3328 13.4331C15.891 13.4331 15.5328 13.0749 15.5328 12.6331C15.5328 12.1913 15.891 11.8331 16.3328 11.8331C16.7746 11.8331 17.1328 12.1913 17.1328 12.6331C17.1323 13.0747 16.7745 13.4326 16.3328 13.4331ZM17.0669 11.5219C16.5391 11.1715 15.8374 11.2417 15.3895 11.6897C14.9414 12.1376 14.8712 12.8393 15.2216 13.3672L14.7328 13.856L13.5099 12.6331L17.3995 8.74349L18.6224 9.96641L17.0669 11.5219ZM17.6392 12.8997C17.6751 12.7238 17.6751 12.5424 17.6392 12.3664H19.2661V12.8997H17.6392ZM19.5328 16.3664C19.5701 15.2501 19.1087 14.1751 18.274 13.4331H19.4121C20.0432 14.2779 20.368 15.3125 20.3328 16.3664C20.368 17.4203 20.0432 18.4549 19.4122 19.2997H18.1883C19.0323 18.5569 19.521 17.4906 19.5328 16.3664ZM11.2661 18.2331V17.6997H15.5328V18.2331H11.2661ZM15.5328 18.7664V20.6331C15.5328 20.7803 15.4134 20.8997 15.2661 20.8997C15.1189 20.8997 14.9995 20.7803 14.9995 20.6331V18.7664H15.5328ZM13.9328 19.8331H14.4661V20.6331C14.4661 21.0749 14.8243 21.4331 15.2661 21.4331C15.7079 21.4331 16.0661 21.0749 16.0661 20.6331V19.8331H19.2661V21.4331H13.9328V19.8331ZM9.66615 22.7664C9.66667 22.3247 10.0245 21.9669 10.4661 21.9664H19.2661V23.0331H9.66615V22.7664Z" fill="#EA7022"/>
<path d="M18.1992 20.3672H18.7326V20.9005H18.1992V20.3672Z" fill="#EA7022"/>
<path d="M17.1328 20.3672H17.6661V20.9005H17.1328V20.3672Z" fill="#EA7022"/>
</g>
<defs>
<clipPath id="clip0_404_25604">
<rect width="16" height="16" fill="white" transform="translate(7 7.56641)"/>
</clipPath>
</defs>
</svg>
