<svg width="24" height="25" viewBox="0 0 24 25" fill="none" xmlns="http://www.w3.org/2000/svg">
<g clip-path="url(#clip0_1514_34377)">
<path d="M15.5 24.2539H4.5C3.122 24.2539 2 23.1329 2 21.7539V2.75391C2 1.37591 3.122 0.253906 4.5 0.253906H15.5C16.878 0.253906 18 1.37591 18 2.75391V3.75391C18 4.02991 17.776 4.25391 17.5 4.25391C17.224 4.25391 17 4.02991 17 3.75391V2.75391C17 1.92691 16.327 1.25391 15.5 1.25391H4.5C3.673 1.25391 3 1.92691 3 2.75391V21.7539C3 22.5809 3.673 23.2539 4.5 23.2539H15.5C16.327 23.2539 17 22.5809 17 21.7539V18.7539C17 18.4779 17.224 18.2539 17.5 18.2539C17.776 18.2539 18 18.4779 18 18.7539V21.7539C18 23.1329 16.878 24.2539 15.5 24.2539Z" fill="#E5E5E5"/>
<path d="M12 3.25391H8C7.173 3.25391 6.5 2.58091 6.5 1.75391C6.5 1.47791 6.276 1.25391 6 1.25391H5C4.724 1.25391 4.5 1.02991 4.5 0.753906C4.5 0.477906 4.724 0.253906 5 0.253906H6C6.827 0.253906 7.5 0.926906 7.5 1.75391C7.5 2.02991 7.724 2.25391 8 2.25391H12C12.276 2.25391 12.5 2.02991 12.5 1.75391C12.5 0.926906 13.173 0.253906 14 0.253906H15C15.276 0.253906 15.5 0.477906 15.5 0.753906C15.5 1.02991 15.276 1.25391 15 1.25391H14C13.724 1.25391 13.5 1.47791 13.5 1.75391C13.5 2.58091 12.827 3.25391 12 3.25391Z" fill="#E5E5E5"/>
<path d="M12.5 19.2539C10.57 19.2539 9 17.6839 9 15.7539C9 14.8189 9.364 13.9409 10.025 13.2789L16.025 7.27891C16.686 6.61791 17.565 6.25391 18.5 6.25391C20.43 6.25391 22 7.82391 22 9.75391C22 10.6889 21.636 11.5679 20.975 12.2289L14.975 18.2289C14.314 18.8899 13.435 19.2539 12.5 19.2539ZM18.5 7.25391C17.832 7.25391 17.205 7.51391 16.732 7.98591L10.732 13.9859C10.26 14.4589 10 15.0869 10 15.7539C10 17.1329 11.122 18.2539 12.5 18.2539C13.168 18.2539 13.795 17.9939 14.268 17.5219L20.268 11.5219C20.74 11.0489 21 10.4219 21 9.75391C21 8.37591 19.878 7.25391 18.5 7.25391Z" fill="#E5E5E5"/>
<path d="M13.0225 10.9865L13.7296 10.2793L17.9715 14.5213L17.2644 15.2284L13.0225 10.9865Z" fill="#E5E5E5"/>
</g>
<defs>
<clipPath id="clip0_1514_34377">
<rect width="24" height="24" fill="white" transform="translate(0 0.253906)"/>
</clipPath>
</defs>
</svg>
