<svg width="24" height="25" viewBox="0 0 24 25" fill="none" xmlns="http://www.w3.org/2000/svg">
<g clip-path="url(#clip0_1514_34444)">
<path d="M9.5 24.2535C9.436 24.2535 9.371 24.2415 9.309 24.2155C9.122 24.1385 9 23.9555 9 23.7535V21.2535H7.5C6.122 21.2535 5 20.1315 5 18.7535V14.7535C5 14.4775 5.224 14.2535 5.5 14.2535C5.776 14.2535 6 14.4775 6 14.7535V18.7535C6 19.5805 6.673 20.2535 7.5 20.2535H9.5C9.776 20.2535 10 20.4775 10 20.7535V22.5465L12.146 20.4005C12.24 20.3065 12.367 20.2535 12.5 20.2535H21.5C22.327 20.2535 23 19.5805 23 18.7535V10.7535C23 9.92654 22.327 9.25354 21.5 9.25354H20.5C20.224 9.25354 20 9.02954 20 8.75354C20 8.47754 20.224 8.25354 20.5 8.25354H21.5C22.878 8.25354 24 9.37554 24 10.7535V18.7535C24 20.1315 22.878 21.2535 21.5 21.2535H12.707L9.853 24.1075C9.758 24.2025 9.63 24.2535 9.5 24.2535Z" fill="#E5E5E5"/>
<path d="M17.079 13.2539H1.921C0.862 13.2539 0 12.3569 0 11.2539V2.25391C0 1.15091 0.862 0.253906 1.921 0.253906H17.079C18.138 0.253906 19 1.15091 19 2.25391V11.2539C19 12.3569 18.138 13.2539 17.079 13.2539ZM1.921 1.25391C1.413 1.25391 1 1.70291 1 2.25391V11.2539C1 11.8049 1.413 12.2539 1.921 12.2539H17.079C17.587 12.2539 18 11.8049 18 11.2539V2.25391C18 1.70291 17.587 1.25391 17.079 1.25391H1.921Z" fill="#E5E5E5"/>
<path d="M9.49999 8.24916C9.16999 8.24916 8.84099 8.16916 8.54099 8.00916L0.264986 3.59516C0.0209859 3.46516 -0.0710141 3.16216 0.0589859 2.91816C0.188986 2.67516 0.491986 2.58316 0.735986 2.71216L9.01199 7.12616C9.31799 7.28916 9.68399 7.28916 9.98999 7.12616L18.266 2.71216C18.51 2.58416 18.812 2.67516 18.943 2.91816C19.073 3.16216 18.981 3.46416 18.737 3.59516L10.461 8.00916C10.159 8.16916 9.82999 8.24916 9.49999 8.24916Z" fill="#E5E5E5"/>
</g>
<defs>
<clipPath id="clip0_1514_34444">
<rect width="24" height="24" fill="white" transform="translate(0 0.253906)"/>
</clipPath>
</defs>
</svg>
