<svg width="24" height="25" viewBox="0 0 24 25" fill="none" xmlns="http://www.w3.org/2000/svg">
<path d="M17.581 23.282H3.14854C3.06253 23.282 2.98003 23.2478 2.91921 23.187C2.85839 23.1262 2.82422 23.0437 2.82422 22.9576V19.9845C2.82422 19.8985 2.85839 19.816 2.91921 19.7552C2.98003 19.6943 3.06253 19.6602 3.14854 19.6602H17.581C17.667 19.6602 17.7495 19.6943 17.8103 19.7552C17.8711 19.816 17.9053 19.8985 17.9053 19.9845V22.9576C17.9053 23.0437 17.8711 23.1262 17.8103 23.187C17.7495 23.2478 17.667 23.282 17.581 23.282ZM3.47287 22.6333H17.2567V20.3088H3.47287V22.6333Z" fill="white"/>
<path d="M15.5001 20.3085H11.6351C11.5491 20.3085 11.4666 20.2743 11.4058 20.2135C11.345 20.1527 11.3108 20.0702 11.3108 19.9841V16.268C11.3108 15.6695 11.5486 15.0955 11.9718 14.6722C12.395 14.249 12.9691 14.0112 13.5676 14.0112C14.1662 14.0112 14.7402 14.249 15.1634 14.6722C15.5867 15.0955 15.8245 15.6695 15.8245 16.268V19.9841C15.8245 20.0702 15.7903 20.1527 15.7295 20.2135C15.6686 20.2743 15.5861 20.3085 15.5001 20.3085ZM11.9594 19.6598H15.1758V16.268C15.1758 15.8415 15.0064 15.4325 14.7048 15.1309C14.4032 14.8293 13.9941 14.6599 13.5676 14.6599C13.1411 14.6599 12.7321 14.8293 12.4305 15.1309C12.1289 15.4325 11.9594 15.8415 11.9594 16.268V19.6598Z" fill="white"/>
<path d="M15.8301 16.9714H15.5C15.414 16.9714 15.3315 16.9372 15.2706 16.8764C15.2098 16.8155 15.1757 16.7331 15.1757 16.647C15.1757 16.561 15.2098 16.4785 15.2706 16.4177C15.3315 16.3569 15.414 16.3227 15.5 16.3227H15.8301C17.075 16.3217 18.2686 15.8269 19.1491 14.9469C20.0296 14.0669 20.5252 12.8736 20.527 11.6287C20.5261 10.3833 20.031 9.18905 19.1504 8.30834C18.2697 7.42764 17.0756 6.93244 15.8301 6.93149H10.4464C10.3604 6.93149 10.2779 6.89732 10.2171 6.8365C10.1562 6.77568 10.1221 6.69318 10.1221 6.60716C10.1221 6.52115 10.1562 6.43865 10.2171 6.37783C10.2779 6.31701 10.3604 6.28284 10.4464 6.28284H15.8301C16.5319 6.28284 17.2269 6.42107 17.8753 6.68964C18.5236 6.95822 19.1128 7.35187 19.609 7.84813C20.1053 8.3444 20.4989 8.93354 20.7675 9.58194C21.0361 10.2303 21.1743 10.9253 21.1743 11.6271C21.1743 12.3289 21.0361 13.0239 20.7675 13.6723C20.4989 14.3207 20.1053 14.9098 19.609 15.4061C19.1128 15.9023 18.5236 16.296 17.8753 16.5646C17.2269 16.8331 16.5319 16.9714 15.8301 16.9714Z" fill="white"/>
<path d="M11.6348 16.9744H7.47276C7.38675 16.9744 7.30425 16.9402 7.24343 16.8794C7.18261 16.8186 7.14844 16.7361 7.14844 16.65C7.14844 16.564 7.18261 16.4815 7.24343 16.4207C7.30425 16.3599 7.38675 16.3257 7.47276 16.3257H11.6348C11.7208 16.3257 11.8033 16.3599 11.8641 16.4207C11.925 16.4815 11.9591 16.564 11.9591 16.65C11.9591 16.7361 11.925 16.8186 11.8641 16.8794C11.8033 16.9402 11.7208 16.9744 11.6348 16.9744Z" fill="white"/>
<path d="M13.7167 17.0394H13.4193C13.3333 17.0394 13.2508 17.0053 13.19 16.9444C13.1291 16.8836 13.095 16.8011 13.095 16.7151C13.095 16.6291 13.1291 16.5466 13.19 16.4857C13.2508 16.4249 13.3333 16.3907 13.4193 16.3907H13.7167C13.8027 16.3907 13.8852 16.4249 13.946 16.4857C14.0068 16.5466 14.041 16.6291 14.041 16.7151C14.041 16.8011 14.0068 16.8836 13.946 16.9444C13.8852 17.0053 13.8027 17.0394 13.7167 17.0394Z" fill="white"/>
<path d="M10.4461 10.7934H6.28404C6.19802 10.7934 6.11553 10.7592 6.05471 10.6984C5.99389 10.6376 5.95972 10.5551 5.95972 10.4691V3.63133C5.95972 3.54532 5.99389 3.46282 6.05471 3.402C6.11553 3.34118 6.19802 3.30701 6.28404 3.30701H10.4461C10.5321 3.30701 10.6146 3.34118 10.6754 3.402C10.7363 3.46282 10.7704 3.54532 10.7704 3.63133V10.4691C10.7704 10.5551 10.7363 10.6376 10.6754 10.6984C10.6146 10.7592 10.5321 10.7934 10.4461 10.7934ZM6.60837 10.1447H10.1218V3.95566H6.60837V10.1447Z" fill="white"/>
<path d="M10.4453 12.8742H6.28328C6.23202 12.8742 6.18148 12.8621 6.13582 12.8388C6.09017 12.8155 6.05068 12.7817 6.02062 12.7401C5.99055 12.6986 5.97076 12.6506 5.96286 12.5999C5.95496 12.5492 5.95918 12.4974 5.97517 12.4487L6.65885 10.3675C6.68016 10.3026 6.72143 10.2461 6.77675 10.2061C6.83208 10.166 6.89865 10.1444 6.96696 10.1444H9.76166C9.82997 10.1444 9.89654 10.166 9.95187 10.2061C10.0072 10.2461 10.0485 10.3026 10.0698 10.3675L10.7534 12.4471C10.7694 12.4958 10.7737 12.5476 10.7658 12.5983C10.7579 12.6489 10.7381 12.697 10.708 12.7385C10.6779 12.78 10.6385 12.8138 10.5928 12.8372C10.5471 12.8605 10.4966 12.8726 10.4453 12.8726V12.8742ZM6.73117 12.2256H9.99744L9.52717 10.7931H7.20177L6.73117 12.2256Z" fill="white"/>
<path d="M9.55436 3.9564H7.17613C7.09011 3.9564 7.00762 3.92223 6.9468 3.86141C6.88598 3.80059 6.85181 3.71809 6.85181 3.63208V1.55089C6.85181 1.46487 6.88598 1.38238 6.9468 1.32155C7.00762 1.26073 7.09011 1.22656 7.17613 1.22656H9.55436C9.64038 1.22656 9.72287 1.26073 9.78369 1.32155C9.84451 1.38238 9.87868 1.46487 9.87868 1.55089V3.63208C9.87868 3.71809 9.84451 3.80059 9.78369 3.86141C9.72287 3.92223 9.64038 3.9564 9.55436 3.9564ZM7.50045 3.30775H9.23004V1.87521H7.50045V3.30775Z" fill="white"/>
</svg>
