<svg width="14" height="22" viewBox="0 0 14 22" fill="none" xmlns="http://www.w3.org/2000/svg">
<rect x="3.42676" y="0.5" width="7.14646" height="13.3565" rx="3.57323" stroke="black"/>
<path d="M1 11.1522C1 11.8943 1.15519 12.629 1.45672 13.3146C1.75825 14.0001 2.20021 14.623 2.75736 15.1477C3.31451 15.6724 3.97595 16.0887 4.7039 16.3726C5.43185 16.6566 6.21207 16.8027 7 16.8027C7.78793 16.8027 8.56815 16.6566 9.2961 16.3726C10.0241 16.0887 10.6855 15.6724 11.2426 15.1477C11.7998 14.623 12.2417 14.0001 12.5433 13.3146C12.8448 12.629 13 11.8943 13 11.1522" stroke="black"/>
<line x1="7.5" y1="16.8281" x2="7.5" y2="21.302" stroke="black"/>
<line x1="4" y1="21.5" x2="11" y2="21.5" stroke="black"/>
</svg>
