<svg width="40" height="40" viewBox="0 0 40 40" fill="none" xmlns="http://www.w3.org/2000/svg">
<g clip-path="url(#clip0_406_32511)">
<path d="M37.6626 27.3004C37.6773 27.2827 37.6923 27.2656 37.7067 27.2479C37.7479 27.1967 37.788 27.1445 37.8274 27.092C37.8342 27.0831 37.8412 27.0743 37.8479 27.0651C38.52 26.1578 38.8848 25.0635 38.8848 23.9182V3.22357C38.8848 1.44592 37.4361 0 35.6552 0H16.7637C14.9828 0 13.5338 1.44592 13.5338 3.22357V10.5716C12.6428 10.5194 11.738 10.6717 10.9127 11.0217C9.74893 11.5155 8.79919 12.3553 8.16563 13.4509L5.07671 18.7897L1.9878 24.129C1.68844 24.6466 1.47868 25.1917 1.35362 25.7465C1.31173 25.9311 1.27963 26.1173 1.25669 26.3034C1.24507 26.3965 1.2359 26.4899 1.22887 26.5833C1.21511 26.7697 1.21052 26.9562 1.2148 27.1423C1.21694 27.2443 1.22275 27.3456 1.2304 27.4472C1.27168 27.9901 1.38879 28.5248 1.57806 29.0341C1.63371 29.1837 1.69639 29.3305 1.76428 29.4751C1.77681 29.5017 1.78813 29.5288 1.80097 29.5554C2.28929 30.5573 3.07146 31.4294 4.10864 32.0273C4.1383 32.0444 4.16796 32.0602 4.19792 32.0767C4.22391 32.0911 4.2499 32.106 4.2762 32.1201C4.29699 32.1311 4.31809 32.1414 4.33888 32.1524C4.37527 32.171 4.41135 32.1899 4.44805 32.208C4.46119 32.2144 4.47434 32.2202 4.48749 32.2266C4.53244 32.2482 4.57769 32.2699 4.62325 32.2904C4.62662 32.2919 4.62998 32.2931 4.63334 32.2946C5.37668 32.6279 6.18453 32.8021 7.00003 32.8021C7.84518 32.8021 8.67413 32.6172 9.43092 32.2696C9.43673 32.2669 9.44254 32.2644 9.44866 32.2617C9.45416 32.2592 9.45966 32.2571 9.46517 32.2543C9.64068 34.227 10.4913 36.0608 11.9055 37.4829C13.5005 39.0866 15.625 39.9802 17.8883 39.9991H17.895H17.8953H17.9057C17.9238 39.9994 17.9415 39.9997 17.9592 39.9997C21.8643 39.9997 25.1645 37.367 26.172 33.7866H29.1472C29.9085 33.7866 30.6577 33.6185 31.3426 33.3084C31.3619 33.3011 31.3811 33.2941 31.3998 33.2855C31.501 33.2382 31.5995 33.187 31.697 33.1339C31.6976 33.1336 31.6979 33.1332 31.6985 33.1329C31.7741 33.0917 31.8484 33.0487 31.9214 33.0042C31.9257 33.0017 31.9297 32.999 31.934 32.9965C32.0031 32.9541 32.0713 32.9099 32.1385 32.8644C32.1456 32.8595 32.1526 32.8546 32.1596 32.85C32.2229 32.8064 32.2853 32.7618 32.3468 32.7158C32.3569 32.7081 32.367 32.7005 32.377 32.6929C32.4342 32.6492 32.4902 32.6044 32.5455 32.5583C32.5587 32.5476 32.5718 32.5372 32.5847 32.5263C32.6369 32.4823 32.6877 32.4365 32.7385 32.3904C32.7525 32.3773 32.7672 32.3648 32.7813 32.3517C32.8415 32.2952 32.9008 32.2376 32.9586 32.178C32.9608 32.1756 32.9632 32.1735 32.9653 32.171L37.3914 27.6047C37.4278 27.5671 37.462 27.5284 37.4972 27.4899C37.5156 27.4698 37.5345 27.4503 37.5529 27.4301C37.5902 27.3877 37.6262 27.3441 37.6626 27.3004ZM9.52143 14.2319C10.2837 12.9138 11.7123 12.1228 13.1987 12.1228C13.5112 12.1228 13.8267 12.1579 14.1389 12.2305C14.5441 12.3248 14.9333 12.4786 15.2956 12.6874C16.6001 13.4393 17.4101 14.8416 17.4101 16.347C17.4101 17.0828 17.2144 17.8107 16.8435 18.4515L14.1462 23.114L6.8239 18.8947L9.52143 14.2319ZM9.33277 30.5423C9.29791 30.5649 9.26305 30.5878 9.22758 30.6094C9.2126 30.6189 9.19701 30.6274 9.18172 30.6366C9.15145 30.6549 9.12087 30.6729 9.08998 30.6906C9.07133 30.701 9.05237 30.7111 9.03372 30.7214C9.0062 30.7364 8.97868 30.7513 8.95086 30.7657C8.92884 30.777 8.90652 30.788 8.8842 30.799C8.86004 30.8112 8.83558 30.8228 8.81112 30.8344C8.78513 30.8466 8.75914 30.8585 8.73284 30.8701C8.71236 30.8792 8.69217 30.8881 8.67169 30.8969C8.64111 30.91 8.61053 30.9226 8.57965 30.9348C8.56467 30.9409 8.54938 30.9467 8.5344 30.9528C8.49801 30.9665 8.46162 30.9802 8.42493 30.9934C8.41728 30.9961 8.40964 30.9985 8.402 31.0013C7.50119 31.3144 6.50896 31.3187 5.59683 30.9979C5.59561 30.9976 5.59408 30.997 5.59286 30.9967C5.54944 30.9815 5.50633 30.9653 5.46352 30.9485C5.45496 30.9451 5.44639 30.9418 5.43814 30.9384C5.40206 30.9241 5.36628 30.9091 5.33051 30.8939C5.31828 30.8884 5.30604 30.8832 5.29381 30.8777C5.2611 30.8637 5.22899 30.8484 5.19688 30.8334C5.18312 30.827 5.16936 30.8206 5.15591 30.8139C5.1238 30.7983 5.0917 30.7822 5.0602 30.7657C5.04736 30.7593 5.03452 30.7529 5.02168 30.7462C4.97795 30.723 4.93453 30.6989 4.89142 30.6741C2.8727 29.5105 2.1786 26.9247 3.34359 24.91L6.04112 20.2475L13.2402 24.3961C13.2143 24.4135 13.1889 24.4315 13.1629 24.4492C13.1326 24.4696 13.102 24.4904 13.0721 24.5111C13.0601 24.5194 13.0485 24.5273 13.0369 24.5358C13.0152 24.5511 12.9938 24.567 12.9724 24.5822C12.9712 24.5831 12.9702 24.584 12.969 24.5847C12.9391 24.6063 12.9091 24.6277 12.8797 24.6497C12.866 24.6597 12.8522 24.6701 12.8385 24.6805C12.8149 24.6982 12.7917 24.7162 12.7681 24.7342C12.7427 24.7537 12.7171 24.773 12.6917 24.7928C12.6758 24.8053 12.6602 24.8178 12.6446 24.8303C12.6198 24.8499 12.5957 24.8694 12.5715 24.8892C12.5504 24.9066 12.529 24.9234 12.5079 24.9408C12.4902 24.9554 12.4728 24.9707 12.4553 24.9854C12.4302 25.0067 12.4052 25.0281 12.3801 25.0494C12.3633 25.0641 12.3459 25.0787 12.329 25.0934C12.3095 25.1105 12.2902 25.1285 12.2709 25.1459C12.2453 25.1688 12.2196 25.1917 12.1942 25.2148C12.181 25.2268 12.1679 25.2387 12.1547 25.2506C12.1333 25.2704 12.1126 25.2908 12.0915 25.311C12.0652 25.3357 12.0392 25.3604 12.0135 25.3851C11.9798 25.4181 11.9465 25.4511 11.9135 25.4843C11.8887 25.5093 11.864 25.5341 11.8392 25.5591C11.8346 25.564 11.8297 25.5689 11.8248 25.5737C11.7961 25.6036 11.7679 25.6342 11.7395 25.6644C11.7172 25.6882 11.6943 25.7117 11.6722 25.7355C11.6701 25.7379 11.6677 25.7407 11.6655 25.7431C11.6352 25.7761 11.6059 25.8096 11.5762 25.8429C11.5567 25.8649 11.5368 25.8865 11.5175 25.9085C11.5129 25.914 11.5083 25.9192 11.5038 25.9247C11.4772 25.9555 11.4512 25.9869 11.4249 26.0181C11.4041 26.0428 11.3833 26.0672 11.3628 26.0919C11.3457 26.113 11.3289 26.134 11.3117 26.1551C11.3004 26.1691 11.2897 26.1832 11.2784 26.1969C11.2579 26.2232 11.2368 26.2491 11.2163 26.2753C11.2096 26.2842 11.2023 26.293 11.1955 26.3019C11.1744 26.3294 11.154 26.3571 11.1335 26.3849C11.1145 26.4099 11.0955 26.4349 11.0769 26.4603C11.0677 26.4731 11.0582 26.4856 11.0491 26.4981C11.0295 26.5253 11.0102 26.553 10.991 26.5802C10.9748 26.6031 10.9583 26.626 10.9424 26.6492C10.931 26.6653 10.9197 26.6815 10.9087 26.6977C10.8904 26.7249 10.8723 26.752 10.8543 26.7792C10.8405 26.7999 10.8268 26.8207 10.8133 26.8411C10.8002 26.8613 10.787 26.8811 10.7742 26.9013C10.7571 26.9278 10.7402 26.9547 10.7234 26.9815C10.7118 27.0001 10.7005 27.0184 10.6892 27.0367C10.6745 27.0606 10.6601 27.0844 10.6458 27.1082C10.6299 27.1344 10.614 27.161 10.5984 27.1875C10.5892 27.2034 10.58 27.2195 10.5705 27.2357C10.5546 27.2632 10.539 27.2907 10.5234 27.3181C10.5088 27.3444 10.4941 27.3703 10.4797 27.3966C10.4757 27.4036 10.4721 27.4109 10.4681 27.4182C10.4638 27.4258 10.4595 27.4338 10.4556 27.4417C10.4394 27.4716 10.4232 27.5015 10.4073 27.5314C10.3849 27.5739 10.3632 27.6166 10.3415 27.6593C10.3265 27.6886 10.3122 27.7179 10.2978 27.7472C10.2761 27.7914 10.2547 27.8357 10.2339 27.8803C10.2204 27.9086 10.2076 27.937 10.1944 27.9654C10.1929 27.9688 10.1914 27.9721 10.1899 27.9755C10.184 27.9886 10.1779 28.0014 10.1718 28.0145C10.1587 28.0444 10.1455 28.074 10.1327 28.1039C10.1217 28.1293 10.111 28.1546 10.1003 28.1799C10.0926 28.1979 10.085 28.2159 10.0776 28.234C10.0642 28.266 10.051 28.2983 10.0379 28.3307C10.0293 28.3521 10.0214 28.3734 10.0128 28.3948C10.0052 28.4149 9.99721 28.4348 9.98957 28.4549C9.97612 28.49 9.96297 28.5248 9.94982 28.5599C9.9437 28.5773 9.93759 28.5947 9.93117 28.6121C9.92352 28.634 9.91557 28.6563 9.90793 28.6783C9.89478 28.7158 9.88133 28.7537 9.86848 28.7915C9.8642 28.8049 9.85992 28.8187 9.85564 28.8321C9.848 28.8553 9.84035 28.8791 9.83301 28.9026C9.8162 28.9548 9.79968 29.007 9.78409 29.0598C9.77767 29.0817 9.77125 29.104 9.76483 29.1263C9.74923 29.1809 9.73364 29.2352 9.71896 29.2902C9.71437 29.3076 9.71009 29.3253 9.70551 29.343C9.67707 29.4516 9.65077 29.5612 9.62692 29.6713C9.62325 29.6884 9.61897 29.7052 9.6153 29.7223C9.60429 29.7751 9.5942 29.8285 9.58411 29.8816C9.57861 29.9091 9.57311 29.9362 9.56821 29.9637C9.5673 29.9677 9.56668 29.9716 9.56577 29.9759C9.55782 30.0208 9.55048 30.0659 9.54314 30.1111C9.53855 30.1395 9.53366 30.1675 9.52938 30.1959C9.52816 30.2036 9.52693 30.2118 9.52602 30.2194C9.5196 30.2615 9.51409 30.304 9.50828 30.3461C9.50706 30.3565 9.50553 30.3668 9.504 30.3772C9.50186 30.3946 9.49911 30.4117 9.49697 30.4288C9.45294 30.4608 9.40829 30.4919 9.36335 30.5222C9.35326 30.5292 9.34286 30.5356 9.33277 30.5423ZM10.9962 31.4874C10.9962 31.2924 11.0044 31.0971 11.0216 30.9027C11.0274 30.8322 11.0341 30.7623 11.0423 30.6924C11.0573 30.5603 11.0763 30.4291 11.0989 30.2991C11.1001 30.2914 11.1011 30.2838 11.1026 30.2762C11.1115 30.2258 11.1212 30.1758 11.1313 30.1257C11.135 30.1071 11.1384 30.0885 11.142 30.0702C11.1512 30.0259 11.1616 29.982 11.1717 29.9381C11.1772 29.9139 11.1821 29.8898 11.1879 29.866C11.1971 29.827 11.2075 29.7888 11.2172 29.7501C11.2249 29.7214 11.2316 29.6924 11.2396 29.6637C11.249 29.6283 11.2598 29.5932 11.2701 29.5578C11.279 29.5264 11.2879 29.4946 11.2974 29.4635C11.3075 29.4305 11.3182 29.3982 11.3289 29.3659C11.3396 29.3323 11.3496 29.2984 11.361 29.2651C11.3717 29.2343 11.383 29.2035 11.394 29.1727C11.4059 29.1385 11.4178 29.1037 11.4304 29.0695C11.4417 29.0396 11.4536 29.0103 11.4649 28.9804C11.4787 28.9456 11.4918 28.9108 11.5056 28.876C11.5172 28.8477 11.5297 28.8196 11.5417 28.7915C11.5567 28.7561 11.571 28.7204 11.5866 28.6856C11.5985 28.6585 11.6114 28.6316 11.6236 28.6047C11.6401 28.5687 11.6563 28.5327 11.6732 28.4973C11.6857 28.4717 11.6985 28.4464 11.7111 28.4207C11.7291 28.3844 11.7468 28.3478 11.7652 28.3118C11.778 28.2867 11.7918 28.2623 11.8049 28.2376C11.8242 28.2013 11.8432 28.1653 11.8627 28.1293C11.8762 28.1052 11.8903 28.0814 11.904 28.0576C11.9245 28.0216 11.9447 27.9855 11.9658 27.9498C11.9798 27.926 11.9945 27.9028 12.0089 27.8793C12.0303 27.8439 12.0517 27.8085 12.0737 27.7734C12.0887 27.7502 12.104 27.7274 12.1193 27.7042C12.1416 27.6697 12.1639 27.6349 12.1872 27.6004C12.2028 27.5775 12.2187 27.5552 12.2346 27.5327C12.2581 27.4985 12.2813 27.4646 12.3055 27.4307C12.3217 27.4085 12.3385 27.3865 12.355 27.3642C12.3795 27.3309 12.404 27.2974 12.429 27.2647C12.4461 27.2424 12.4636 27.2211 12.481 27.1991C12.5064 27.1668 12.5315 27.1341 12.5575 27.1021C12.5758 27.0801 12.5944 27.0584 12.6128 27.0364C12.6388 27.0053 12.6645 26.9742 12.6911 26.9434C12.71 26.9214 12.7296 26.9 12.7489 26.8784C12.7755 26.8482 12.8021 26.8182 12.8293 26.7886C12.8489 26.767 12.8693 26.7462 12.8892 26.7249C12.917 26.6956 12.9443 26.6663 12.9724 26.6376C12.9929 26.6165 13.014 26.5961 13.0348 26.5753C13.0629 26.5469 13.091 26.5186 13.1201 26.4908C13.1415 26.47 13.1635 26.4499 13.1852 26.4294C13.2143 26.4023 13.2427 26.3748 13.272 26.3483C13.2947 26.3278 13.3176 26.308 13.3402 26.2878C13.3699 26.2619 13.3989 26.2357 13.4289 26.21C13.4524 26.1896 13.4766 26.17 13.5008 26.1502C13.5304 26.1255 13.5598 26.1005 13.59 26.0761C13.6145 26.0565 13.6399 26.0373 13.6647 26.0178C13.6949 25.9943 13.7249 25.9702 13.7558 25.947C13.7812 25.9277 13.8071 25.9091 13.8328 25.8902C13.8637 25.8676 13.8943 25.8447 13.9255 25.8225C13.9518 25.8038 13.9787 25.7858 14.0053 25.7675C14.0368 25.7459 14.068 25.7239 14.0998 25.7025C14.127 25.6845 14.1548 25.6668 14.1826 25.6491C14.2141 25.6287 14.2456 25.6079 14.2777 25.5881C14.3062 25.5704 14.3352 25.5533 14.364 25.5359C14.3955 25.517 14.4266 25.4974 14.4587 25.4791C14.4624 25.477 14.4664 25.4749 14.4701 25.4727C14.5593 25.4208 14.6502 25.372 14.7419 25.3244C14.7654 25.3122 14.7893 25.3 14.8128 25.2881C14.9055 25.2414 14.9987 25.1959 15.0932 25.1532C15.0941 25.1529 15.0951 25.1523 15.096 25.152C15.7344 24.8648 16.4151 24.675 17.1119 24.5902V38.3856C13.6744 37.9648 10.9962 35.0214 10.9962 31.4874ZM18.6775 38.4009V24.5749C18.6793 24.5749 18.6812 24.5752 18.683 24.5755C18.7864 24.5862 18.8891 24.5993 18.9909 24.6143C18.9967 24.6152 19.0025 24.6161 19.0083 24.6167C19.1071 24.6317 19.205 24.6491 19.3025 24.6683C19.3138 24.6704 19.3251 24.6726 19.3367 24.6747C19.4306 24.6936 19.5233 24.7147 19.6156 24.7372C19.63 24.7406 19.6444 24.744 19.6587 24.7476C19.7489 24.7702 19.8385 24.7949 19.9275 24.8212C19.9428 24.8257 19.9584 24.8303 19.974 24.8349C20.0617 24.8615 20.1492 24.8898 20.2354 24.9197C20.2507 24.9249 20.266 24.9304 20.2813 24.9359C20.3678 24.9664 20.4537 24.9985 20.5387 25.0327C20.5525 25.0382 20.566 25.0436 20.5797 25.0491C20.6662 25.0842 20.7519 25.1209 20.8366 25.1593C20.847 25.1642 20.857 25.1691 20.8674 25.174C20.9552 25.2142 21.042 25.256 21.1277 25.3C21.1322 25.3024 21.1371 25.3049 21.142 25.3076C21.2261 25.3507 21.309 25.3958 21.3909 25.4425C21.3992 25.4471 21.4074 25.4514 21.4154 25.4562C21.4964 25.5023 21.5759 25.5505 21.6548 25.6C21.6667 25.6076 21.679 25.6149 21.6909 25.6226C21.7667 25.6708 21.8416 25.7208 21.9156 25.7721C21.9294 25.7816 21.9432 25.791 21.9569 25.8005C22.0294 25.8514 22.1006 25.9039 22.1713 25.9573C22.185 25.968 22.1991 25.9787 22.2132 25.9894C22.2829 26.0434 22.3517 26.0986 22.4192 26.1548C22.4324 26.1661 22.4458 26.1774 22.459 26.1884C22.5269 26.246 22.5935 26.3046 22.6593 26.3644C22.6706 26.3748 22.6819 26.3855 22.6932 26.3962C22.7599 26.4578 22.8259 26.521 22.8901 26.5854C22.8984 26.5936 22.9066 26.6025 22.9149 26.6107C22.9813 26.6779 23.0467 26.7462 23.1106 26.8161C23.1143 26.8204 23.1179 26.8243 23.1216 26.8286C23.1843 26.8976 23.2454 26.9681 23.3054 27.0398C23.3118 27.0474 23.3182 27.0551 23.3246 27.0627C23.3836 27.1338 23.4408 27.2061 23.4971 27.2797C23.5057 27.291 23.5145 27.3019 23.5231 27.3132C23.5772 27.3853 23.6298 27.4582 23.6815 27.532C23.6906 27.5458 23.7001 27.5589 23.7093 27.5723C23.7597 27.6459 23.8087 27.7203 23.8561 27.7957C23.8652 27.8101 23.8741 27.8244 23.8833 27.8391C23.9301 27.9147 23.9759 27.9913 24.02 28.0692C24.0282 28.0835 24.0362 28.0978 24.0441 28.1122C24.0885 28.1912 24.1313 28.2712 24.1722 28.3521C24.1787 28.3646 24.1848 28.3771 24.1912 28.3896C24.2331 28.4732 24.2734 28.5574 24.312 28.6429C24.3163 28.652 24.3202 28.6612 24.3242 28.6704C24.364 28.7598 24.4025 28.8504 24.4389 28.942C24.4398 28.9441 24.4404 28.9462 24.4413 28.9484C24.4774 29.0396 24.5113 29.1321 24.5434 29.2252C24.5462 29.2334 24.5493 29.2413 24.552 29.2496C24.5829 29.3402 24.6116 29.4318 24.6392 29.5239C24.6428 29.5361 24.6465 29.5483 24.6502 29.5609C24.6761 29.6509 24.7003 29.7418 24.7226 29.8334C24.7263 29.848 24.73 29.8624 24.7333 29.8773C24.755 29.968 24.7749 30.0592 24.793 30.1514C24.796 30.1669 24.7991 30.1822 24.8018 30.1978C24.8193 30.2902 24.8348 30.383 24.8486 30.4767C24.8507 30.4913 24.8529 30.5063 24.855 30.5212C24.8682 30.6165 24.8798 30.712 24.8893 30.8081C24.8905 30.8209 24.8914 30.8337 24.8926 30.8466C24.9018 30.9457 24.9091 31.0452 24.914 31.1456C24.9143 31.1539 24.9147 31.1621 24.915 31.1704C24.9199 31.2753 24.9226 31.3812 24.9226 31.4877C24.9226 31.6013 24.9199 31.7148 24.914 31.828C24.9131 31.8518 24.9104 31.8753 24.9091 31.8988C24.904 31.9879 24.8981 32.077 24.8893 32.1658C24.8856 32.2028 24.8804 32.2394 24.8761 32.2763C24.8679 32.3499 24.8596 32.4237 24.8489 32.497C24.8413 32.5491 24.8315 32.6004 24.8226 32.6523C24.8131 32.7087 24.8043 32.7652 24.7933 32.8214C24.2132 35.7886 21.7358 38.0866 18.6775 38.4009ZM26.4564 32.2241C26.457 32.2177 26.457 32.2113 26.4576 32.2046C26.4668 32.0956 26.4738 31.9858 26.479 31.8756C26.4796 31.8588 26.4802 31.842 26.4808 31.8253C26.4851 31.7133 26.4882 31.6007 26.4882 31.4877C26.4882 30.6924 26.3781 29.9225 26.1726 29.1919H27.5834C28.0158 29.1919 28.3662 28.8422 28.3662 28.4107C28.3662 27.9794 28.0158 27.6294 27.5834 27.6294H25.5604C24.1484 24.8697 21.2714 22.9755 17.9592 22.9755C17.9424 22.9755 17.9256 22.9758 17.9088 22.9761L17.8935 22.9764H17.888C17.7984 22.977 17.7088 22.9794 17.6192 22.9831C17.6 22.9837 17.5807 22.9852 17.5617 22.9861C17.4942 22.9892 17.4269 22.9929 17.3596 22.9974C17.3211 23.0002 17.2829 23.0038 17.2443 23.0069C17.1969 23.0109 17.1495 23.0148 17.1025 23.0197C17.0551 23.0243 17.0077 23.0301 16.9603 23.0356C16.9227 23.0402 16.8847 23.0444 16.8468 23.0493C16.7942 23.0563 16.742 23.064 16.6894 23.0719C16.6573 23.0768 16.6251 23.0814 16.593 23.0869C16.5374 23.0957 16.4814 23.1055 16.4258 23.1155C16.3973 23.1207 16.3692 23.1259 16.3408 23.1314C16.283 23.1427 16.2252 23.1543 16.1674 23.1668C16.1414 23.1723 16.1154 23.1781 16.0894 23.1839C16.0307 23.197 15.9717 23.2108 15.9133 23.2251C15.9041 23.2272 15.8953 23.2291 15.8864 23.2315L18.199 19.2328C18.7072 18.3548 18.9756 17.3569 18.9756 16.347C18.9756 14.2853 17.8657 12.3648 16.0787 11.3345C16.0075 11.2936 15.935 11.2546 15.8626 11.2164C15.8396 11.2045 15.8164 11.1932 15.7934 11.1816C15.7421 11.1557 15.6907 11.1307 15.6387 11.1063C15.6127 11.0941 15.587 11.0822 15.5608 11.0703C15.5075 11.0464 15.454 11.0233 15.3999 11.001C15.3776 10.9918 15.3553 10.9821 15.3326 10.9729C15.2568 10.9427 15.1807 10.9137 15.1036 10.8865C15.1024 10.8862 15.1009 10.8856 15.0993 10.885V3.22357C15.0993 2.30743 15.846 1.5625 16.7637 1.5625H35.6552C36.5729 1.5625 37.3193 2.30743 37.3193 3.22357V23.9179C37.3193 24.277 37.2682 24.6292 37.1703 24.9655H33.1115C31.553 24.9655 30.2849 26.2311 30.2849 27.7869V32.0456C29.9192 32.1622 29.5355 32.2241 29.1472 32.2241H26.4564ZM31.8505 31.0742V27.7869C31.8505 27.0926 32.4162 26.528 33.1115 26.528H36.2561L32.2086 30.7047L31.8505 31.0742Z" fill="#1F56C3"/>
<path d="M19.9655 8.54785H32.3998C32.8322 8.54785 33.1826 8.19812 33.1826 7.7666C33.1826 7.33508 32.8322 6.98535 32.3998 6.98535H19.9655C19.5332 6.98535 19.1827 7.33508 19.1827 7.7666C19.1827 8.19812 19.5332 8.54785 19.9655 8.54785Z" fill="#1F56C3"/>
<path d="M32.5895 13.8672H32.5876C32.1553 13.8672 31.8058 14.2172 31.8058 14.6484C31.8058 15.08 32.1571 15.4297 32.5895 15.4297C33.0218 15.4297 33.3723 15.08 33.3723 14.6484C33.3723 14.2172 33.0218 13.8672 32.5895 13.8672Z" fill="#1F56C3"/>
<path d="M30.045 14.6484C30.045 14.2172 29.6946 13.8672 29.2623 13.8672H19.9655C19.5332 13.8672 19.1827 14.2172 19.1827 14.6484C19.1827 15.08 19.5332 15.4297 19.9655 15.4297H29.2623C29.6946 15.4297 30.045 15.08 30.045 14.6484Z" fill="#1F56C3"/>
<path d="M33.1832 21.5298C33.1832 21.0983 32.8328 20.7485 32.4004 20.7485H23.7748C23.3428 20.7485 22.9921 21.0983 22.9921 21.5298C22.9921 21.961 23.3428 22.311 23.7748 22.311H32.4004C32.8328 22.311 33.1832 21.9613 33.1832 21.5298Z" fill="#1F56C3"/>
</g>
<defs>
<clipPath id="clip0_406_32511">
<rect width="40" height="39.9998" fill="white"/>
</clipPath>
</defs>
</svg>
