<svg
     xmlns="http://www.w3.org/2000/svg"
     width="36"
     height="32"
     fill="none"
     viewBox="0 0 36 32"
   >
     <path
       fill="#CACCCF"
       d="M20.222 26.381a.863.863 0 01-.029-.585c.483-1.368.977-2.729 1.49-4.087.548-1.443.973-2.895.76-4.471-.243-1.79-.978-3.341-2.3-4.565-.646-.595-1.402-1.063-2.15-1.62.057-.159.15-.406.242-.653.149-.408.034-.727-.31-.854-.352-.13-.648.016-.813.412-.108.255-.204.511-.31.775-.998-.244-1.984-.343-2.985-.199-2.983.427-5.136 1.992-6.3 4.784-.713 1.716-1.301 3.484-1.935 5.231a.695.695 0 01-.408.437c-1.06.476-2.114.965-3.175 1.447-.283.128-.494.308-.487.644.007.348.252.487.54.59 1.98.71 3.955 1.428 5.94 2.124.298.106.4.223.384.552-.1 2.203 1.966 3.845 4.104 3.286.866-.226 1.526-.732 2.023-1.486.103.036.197.07.29.1 2.012.72 4.023 1.44 6.034 2.166.302.108.58.153.83-.104.26-.268.152-.544.017-.828a117.382 117.382 0 01-1.452-3.096zM11.12 28.46c-.957-.276-1.591-1.135-1.524-2.114 1.253.446 2.48.885 3.71 1.324-.35.672-1.355 1.03-2.186.79z"
     ></path>
     <circle
       cx="26"
       cy="10"
       r="9"
       fill="#FF6760"
       stroke="#F6F8FB"
       strokeWidth="2"
     ></circle>
     <path
       fill="#fff"
       d="M8.75 8.94c0 .403.103.712.31.925.21.21.506.315.89.315.2 0 .378-.032.535-.095a1.064 1.064 0 00.635-.65 1.36 1.36 0 00.085-.485c0-.197-.03-.372-.09-.525a1.078 1.078 0 00-.255-.395 1.115 1.115 0 00-.395-.245A1.39 1.39 0 009.97 7.7c-.187 0-.355.032-.505.095a1.095 1.095 0 00-.63.65 1.39 1.39 0 00-.085.495zm1.64 2.255a6.931 6.931 0 00.305-.405c-.167.107-.35.188-.55.245-.2.053-.41.08-.63.08-.25 0-.495-.043-.735-.13a1.86 1.86 0 01-.64-.39 2.051 2.051 0 01-.455-.65 2.262 2.262 0 01-.17-.91A2.309 2.309 0 018.2 7.38c.216-.213.476-.382.78-.505a2.645 2.645 0 011.005-.185c.37 0 .701.058.995.175.296.117.548.28.755.49.21.21.37.462.48.755.113.293.17.615.17.965 0 .223-.02.435-.06.635-.037.2-.09.393-.16.58-.07.183-.155.363-.255.54-.1.177-.212.352-.335.525l-1.655 2.36a.672.672 0 01-.255.205.894.894 0 01-.385.08H8.145l2.245-2.805z"
     ></path>
   </svg>
