<svg width="30" height="31" viewBox="0 0 30 31" fill="none" xmlns="http://www.w3.org/2000/svg">
<circle cx="15" cy="15.5664" r="15" fill="#7367F0" fill-opacity="0.12"/>
<g clip-path="url(#clip0_404_25583)">
<path d="M19.5007 16.5469C17.5715 16.5469 16.002 18.1164 16.002 20.0456C16.002 21.9749 17.5715 23.5444 19.5007 23.5444C21.4299 23.5444 22.9995 21.9748 22.9995 20.0456C22.9994 18.1164 21.4299 16.5469 19.5007 16.5469ZM19.5007 22.8628C17.9473 22.8628 16.6835 21.599 16.6835 20.0456C16.6835 18.4922 17.9473 17.2284 19.5007 17.2284C21.0541 17.2284 22.3179 18.4922 22.3179 20.0456C22.3178 21.599 21.0541 22.8628 19.5007 22.8628Z" fill="#1F56C3"/>
<path d="M20.5677 18.3203C20.4075 18.2215 20.1975 18.2713 20.0988 18.4315L18.3261 21.3071C18.2274 21.4673 18.2772 21.6773 18.4374 21.776C18.4932 21.8104 18.5549 21.8268 18.6159 21.8268C18.7302 21.8268 18.842 21.7693 18.9064 21.6648L20.679 18.7892C20.7778 18.629 20.7279 18.4191 20.5677 18.3203Z" fill="#1F56C3"/>
<path d="M9.76991 21.1446L9.71788 21.1121C9.43534 20.9352 9.23846 20.6584 9.16344 20.3325C9.08846 20.0065 9.14453 19.6714 9.32138 19.3888C9.42126 19.2293 9.37287 19.019 9.21333 18.9192C9.0537 18.8193 8.84346 18.8677 8.74367 19.0272C8.47022 19.4641 8.38343 19.9819 8.49926 20.4853C8.61508 20.9886 8.91948 21.4164 9.35633 21.6898L9.4084 21.7224C9.46461 21.7576 9.52709 21.7743 9.58884 21.7743C9.70239 21.7743 9.8134 21.7176 9.87806 21.6143C9.97789 21.4547 9.92949 21.2444 9.76991 21.1446Z" fill="#1F56C3"/>
<path d="M16.7245 9.9149L16.7765 9.94743C17.3609 10.3132 17.5388 11.0863 17.173 11.6707C17.0731 11.8302 17.1215 12.0405 17.2811 12.1403C17.3373 12.1755 17.3998 12.1923 17.4616 12.1923C17.5751 12.1923 17.6861 12.1356 17.7508 12.0323C18.316 11.1293 18.0411 9.93489 17.1381 9.36968L17.0861 9.3371C16.9264 9.23727 16.7162 9.28566 16.6164 9.4452C16.5166 9.60473 16.565 9.81507 16.7245 9.9149Z" fill="#1F56C3"/>
<path d="M16.1394 17.3382C16.1394 17.3382 16.1395 17.3382 16.1395 17.3381L18.9792 12.8011C19.4583 12.0357 19.6106 11.1295 19.4081 10.2494C19.2057 9.36941 18.6726 8.6209 17.9072 8.14183L17.8551 8.10921C17.3164 7.77201 16.6971 7.59375 16.0643 7.59375C14.8903 7.59375 13.8179 8.18723 13.1958 9.18125L7.51627 18.2554C7.03716 19.0209 6.88485 19.9271 7.08733 20.8071C7.2898 21.6871 7.82289 22.4356 8.58826 22.9147L8.64038 22.9473C9.17911 23.2845 9.79835 23.4627 10.4311 23.4627C11.6052 23.4627 12.6775 22.8692 13.2997 21.8752L16.1394 17.3382C16.1394 17.3383 16.1394 17.3383 16.1394 17.3382ZM13.7735 9.5429C14.2703 8.74922 15.1267 8.27538 16.0644 8.27538C16.5691 8.27538 17.0633 8.41774 17.4934 8.68697L17.5455 8.71959C18.1567 9.1021 18.5823 9.69966 18.744 10.4023C18.9056 11.1049 18.784 11.8284 18.4015 12.4395L15.7425 16.6878L11.1146 13.7911L13.7735 9.5429ZM12.7219 21.5137C12.2252 22.3074 11.3688 22.7812 10.4311 22.7812C9.92635 22.7812 9.4322 22.6389 9.00203 22.3697L8.94991 22.337C8.33876 21.9545 7.91318 21.3569 7.75151 20.6544C7.58983 19.9517 7.71147 19.2283 8.09398 18.6171L10.7529 14.3689L15.3809 17.2655L12.7219 21.5137Z" fill="#1F56C3"/>
</g>
<defs>
<clipPath id="clip0_404_25583">
<rect width="16" height="16" fill="white" transform="translate(7 7.56641)"/>
</clipPath>
</defs>
</svg>
