<svg width="24" height="24" viewBox="0 0 24 24" fill="none" xmlns="http://www.w3.org/2000/svg">
<path d="M18.4866 23.6266C18.2624 23.626 18.0389 23.6014 17.8199 23.5533C13.651 22.6909 9.81031 20.6689 6.7399 17.72C3.73502 14.7646 1.65097 11.0017 0.739905 6.88664C0.63248 6.37378 0.658846 5.8419 0.816468 5.34218C0.97409 4.84246 1.25766 4.39172 1.63991 4.03331L4.30657 1.46664C4.44278 1.33783 4.60461 1.23919 4.78152 1.17716C4.95842 1.11513 5.14642 1.0911 5.33324 1.10664C5.52695 1.12685 5.71388 1.18925 5.88088 1.28945C6.04789 1.38966 6.19092 1.52523 6.2999 1.68664L9.63324 6.61331C9.75824 6.80447 9.81858 7.03071 9.80538 7.25873C9.79218 7.48675 9.70613 7.70451 9.55991 7.87997L7.88657 9.87997C8.55301 11.3549 9.4968 12.688 10.6666 13.8066C11.8288 14.9658 13.2025 15.8914 14.7132 16.5333L16.7866 14.8866C16.9607 14.749 17.1726 14.6677 17.3941 14.6534C17.6156 14.6391 17.8362 14.6925 18.0266 14.8066L23.0599 18.06C23.2326 18.1631 23.3798 18.304 23.4903 18.4721C23.6009 18.6401 23.672 18.8311 23.6983 19.0305C23.7246 19.2299 23.7054 19.4328 23.6422 19.6237C23.5789 19.8147 23.4733 19.9889 23.3332 20.1333L20.7332 22.7066C20.4379 23.0005 20.0874 23.2331 19.7018 23.391C19.3162 23.5489 18.9032 23.629 18.4866 23.6266ZM5.22657 2.42664L2.55991 4.99331C2.34487 5.19367 2.1857 5.44656 2.09803 5.7271C2.01036 6.00763 1.99722 6.30615 2.05991 6.59331C2.90705 10.4547 4.85438 13.9882 7.66657 16.7666C10.556 19.541 14.1703 21.4429 18.0932 22.2533C18.3902 22.3154 18.6979 22.3028 18.9888 22.2167C19.2796 22.1306 19.5446 21.9737 19.7599 21.76L22.3599 19.1866L17.4999 16.0466L15.2732 17.82C15.188 17.8874 15.0875 17.933 14.9806 17.9528C14.8737 17.9725 14.7636 17.9659 14.6599 17.9333C12.811 17.2521 11.1355 16.1708 9.75324 14.7666C8.32347 13.4314 7.21365 11.7906 6.50657 9.96664C6.47666 9.85622 6.47566 9.73995 6.50369 9.62903C6.53171 9.51812 6.5878 9.41627 6.66657 9.33331L8.46657 7.17997L5.22657 2.42664Z" fill="#333333"/>
</svg>
