<svg width="24" height="24" viewBox="0 0 24 24" fill="none" xmlns="http://www.w3.org/2000/svg">
<g clipPath="url(#clip0_2242_15948)">
<path d="M15.5 19C15.224 19 15 18.776 15 18.5V13H14.5C14.224 13 14 12.776 14 12.5C14 12.224 14.224 12 14.5 12H15.5C15.776 12 16 12.224 16 12.5V18.5C16 18.776 15.776 19 15.5 19Z" fill="black"/>
<path d="M10 18.5214C9.724 18.5214 9.5 18.2974 9.5 18.0214V13.0214C9.5 12.7454 9.724 12.5214 10 12.5214C10.276 12.5214 10.5 12.7454 10.5 13.0214V18.0214C10.5 18.2974 10.276 18.5214 10 18.5214Z" fill="black"/>
<path d="M12.5 16.0217H7.5C7.224 16.0217 7 15.7977 7 15.5217C7 15.2457 7.224 15.0217 7.5 15.0217H12.5C12.776 15.0217 13 15.2457 13 15.5217C13 15.7977 12.776 16.0217 12.5 16.0217Z" fill="black"/>
<path d="M21.5 23.9996H2.5C1.121 23.9996 0 22.8776 0 21.4996V4.49963C0 3.12163 1.121 1.99963 2.5 1.99963H21.5C22.879 1.99963 24 3.12163 24 4.49963V21.4996C24 22.8776 22.879 23.9996 21.5 23.9996ZM2.5 2.99963C1.673 2.99963 1 3.67263 1 4.49963V21.4996C1 22.3266 1.673 22.9996 2.5 22.9996H21.5C22.327 22.9996 23 22.3266 23 21.4996V4.49963C23 3.67263 22.327 2.99963 21.5 2.99963H2.5Z" fill="black"/>
<path d="M23.5 8.00025H0.5C0.224 8.00025 0 7.77625 0 7.50025C0 7.22425 0.224 7.00024 0.5 7.00024H23.5C23.776 7.00024 24 7.22425 24 7.50025C24 7.77625 23.776 8.00025 23.5 8.00025Z" fill="black"/>
<path d="M5.5 5C5.224 5 5 4.776 5 4.5V0.5C5 0.224 5.224 0 5.5 0C5.776 0 6.00001 0.224 6.00001 0.5V4.5C6.00001 4.776 5.776 5 5.5 5Z" fill="black"/>
<path d="M18.5 5C18.224 5 18 4.776 18 4.5V0.5C18 0.224 18.224 0 18.5 0C18.776 0 19 0.224 19 0.5V4.5C19 4.776 18.776 5 18.5 5Z" fill="black"/>
</g>
<defs>
<clipPath id="clip0_2242_15948">
<rect width="24" height="24" fill="white"/>
</clipPath>
</defs>
</svg>
