<svg width="24" height="25" viewBox="0 0 24 25" fill="none" xmlns="http://www.w3.org/2000/svg">
<g clip-path="url(#clip0_1514_34343)">
<path d="M15.5 19.2539C15.224 19.2539 15 19.0299 15 18.7539V13.2539H14.5C14.224 13.2539 14 13.0299 14 12.7539C14 12.4779 14.224 12.2539 14.5 12.2539H15.5C15.776 12.2539 16 12.4779 16 12.7539V18.7539C16 19.0299 15.776 19.2539 15.5 19.2539Z" fill="#E5E5E5"/>
<path d="M10 18.7753C9.724 18.7753 9.5 18.5513 9.5 18.2753V13.2753C9.5 12.9993 9.724 12.7753 10 12.7753C10.276 12.7753 10.5 12.9993 10.5 13.2753V18.2753C10.5 18.5513 10.276 18.7753 10 18.7753Z" fill="#E5E5E5"/>
<path d="M12.5 16.2756H7.5C7.224 16.2756 7 16.0516 7 15.7756C7 15.4996 7.224 15.2756 7.5 15.2756H12.5C12.776 15.2756 13 15.4996 13 15.7756C13 16.0516 12.776 16.2756 12.5 16.2756Z" fill="#E5E5E5"/>
<path d="M21.5 24.2535H2.5C1.121 24.2535 0 23.1315 0 21.7535V4.75354C0 3.37554 1.121 2.25354 2.5 2.25354H21.5C22.879 2.25354 24 3.37554 24 4.75354V21.7535C24 23.1315 22.879 24.2535 21.5 24.2535ZM2.5 3.25354C1.673 3.25354 1 3.92654 1 4.75354V21.7535C1 22.5805 1.673 23.2535 2.5 23.2535H21.5C22.327 23.2535 23 22.5805 23 21.7535V4.75354C23 3.92654 22.327 3.25354 21.5 3.25354H2.5Z" fill="#E5E5E5"/>
<path d="M23.5 8.25416H0.5C0.224 8.25416 0 8.03015 0 7.75415C0 7.47815 0.224 7.25415 0.5 7.25415H23.5C23.776 7.25415 24 7.47815 24 7.75415C24 8.03015 23.776 8.25416 23.5 8.25416Z" fill="#E5E5E5"/>
<path d="M5.5 5.25391C5.224 5.25391 5 5.02991 5 4.75391V0.753906C5 0.477906 5.224 0.253906 5.5 0.253906C5.776 0.253906 6.00001 0.477906 6.00001 0.753906V4.75391C6.00001 5.02991 5.776 5.25391 5.5 5.25391Z" fill="#E5E5E5"/>
<path d="M18.5 5.25391C18.224 5.25391 18 5.02991 18 4.75391V0.753906C18 0.477906 18.224 0.253906 18.5 0.253906C18.776 0.253906 19 0.477906 19 0.753906V4.75391C19 5.02991 18.776 5.25391 18.5 5.25391Z" fill="#E5E5E5"/>
</g>
<defs>
<clipPath id="clip0_1514_34343">
<rect width="24" height="24" fill="white" transform="translate(0 0.253906)"/>
</clipPath>
</defs>
</svg>
