<svg width="24" height="24" viewBox="0 0 24 24" fill="none" xmlns="http://www.w3.org/2000/svg">
<g clip-path="url(#clip0_416_28979)">
<path d="M22.5001 0H1.50023C0.671817 0 0.000244141 0.671573 0.000244141 1.49999V18.4999C0.000244141 19.3283 0.671817 19.9999 1.50023 19.9999H13.5001V18.9999H1.50023C1.22409 18.9999 1.00022 18.776 1.00022 18.4999V1.49999C1.00022 1.22385 1.22409 0.999977 1.50023 0.999977H22.5001C22.7762 0.999977 23.0001 1.22385 23.0001 1.49999V18.4999C23.0001 18.776 22.7762 18.9999 22.5001 18.9999H21.5001V19.9999H22.5001C23.3285 19.9999 24.0001 19.3283 24.0001 18.4999V1.49999C24.0001 0.671573 23.3285 0 22.5001 0Z" fill="#333333"/>
<path d="M20.9991 5.00001C19.8946 5.00001 18.9991 4.10457 18.9991 3.00001C18.9991 2.72387 18.7753 2.5 18.4991 2.5H5.49929C5.22315 2.5 4.99928 2.72387 4.99928 3.00001C4.99928 4.10457 4.10383 5.00001 2.99928 5.00001C2.72314 5.00001 2.49927 5.22388 2.49927 5.50002V14.5C2.49927 14.7761 2.72314 15 2.99928 15C4.10383 15 4.99928 15.8954 4.99928 17C4.99928 17.2761 5.22315 17.5 5.49929 17.5H11.9993V16.4999H5.95777C5.74271 15.2419 4.75731 14.2565 3.49929 14.0414V5.9585C4.75731 5.74344 5.74271 4.75804 5.95777 3.50002H18.0407C18.2558 4.75804 19.2412 5.74344 20.4992 5.9585V9.99999H21.4991V5.50002C21.4991 5.22384 21.2753 5.00001 20.9991 5.00001Z" fill="#333333"/>
<path d="M17.5 10.5C15.0147 10.5 13 12.5147 13 15C13 17.4852 15.0147 19.4999 17.5 19.4999C19.984 19.4969 21.9969 17.484 21.9999 15C21.9999 12.5147 19.9852 10.5 17.5 10.5ZM17.5 18.5C15.567 18.5 14 16.933 14 15C14 13.067 15.5669 11.5 17.5 11.5C19.432 11.5022 20.9977 13.0679 21 15C20.9999 16.9329 19.4329 18.5 17.5 18.5Z" fill="#333333"/>
<path d="M19.4999 18V22.4595L17.8124 21.1095C17.6298 20.9632 17.3701 20.9632 17.1875 21.1095L15.5 22.4595V18H14.5V23.5C14.5 23.6136 14.5386 23.7239 14.6097 23.8127C14.7823 24.0282 15.0969 24.0631 15.3125 23.8905L17.5 22.1405L19.6875 23.8905C19.7762 23.9614 19.8864 24 20 24C20.2761 24 20.5 23.7761 20.5 23.5V18H19.4999Z" fill="#333333"/>
<path d="M16.9992 5H6.99928C6.72314 5 6.49927 5.22387 6.49927 5.50001V7.49996C6.49927 7.7761 6.72314 7.99997 6.99928 7.99997H16.9992C17.2753 7.99997 17.4992 7.7761 17.4992 7.49996V5.49996C17.4992 5.22383 17.2753 5 16.9992 5ZM16.4992 6.99995H7.49924V5.99997H16.4992V6.99995Z" fill="#333333"/>
<path d="M6.99998 9.5H6V10.5H6.99998V9.5Z" fill="#333333"/>
<path d="M8.99924 9.5H7.99927V10.5H8.99924V9.5Z" fill="#333333"/>
<path d="M12 11.5H6V12.5H12V11.5Z" fill="#333333"/>
<path d="M17.4992 12.5C16.1185 12.5 14.9993 13.6193 14.9993 15C14.9993 16.3807 16.1185 17.4999 17.4992 17.4999C18.8793 17.4983 19.9976 16.38 19.9992 15C19.9992 13.6193 18.8799 12.5 17.4992 12.5ZM17.4992 16.5C16.6708 16.5 15.9992 15.8284 15.9992 15C15.9992 14.1716 16.6708 13.5 17.4992 13.5C18.3276 13.5 18.9992 14.1716 18.9992 15C18.9992 15.8284 18.3276 16.5 17.4992 16.5Z" fill="#333333"/>
<path d="M3.50022 16.5H2.50024V17.5H3.50022V16.5Z" fill="#333333"/>
<path d="M21.5 2.5H20.5V3.49998H21.5V2.5Z" fill="#333333"/>
<path d="M3.50022 2.5H2.50024V3.49998H3.50022V2.5Z" fill="#333333"/>
</g>
<defs>
<clipPath id="clip0_416_28979">
<rect width="24" height="24" fill="white"/>
</clipPath>
</defs>
</svg>
