<svg
xmlns="http://www.w3.org/2000/svg"
x="0"
y="0"
enableBackground="new 0 0 488.8 488.8"
version="1.1"
viewBox="0 0 488.8 488.8"
xmlSpace="preserve"
fill="#0a2a6a"
>
<path  d="M43 204.8h118.8c23.7 0 43-19.3 43-43V43c0-23.7-19.3-43-43-43H43C19.3 0 0 19.3 0 43v118.7c0 23.8 19.3 43.1 43 43.1zM24.5 43c0-10.2 8.3-18.5 18.5-18.5h118.8c10.2 0 18.5 8.3 18.5 18.5v118.7c0 10.2-8.3 18.5-18.5 18.5H43c-10.2 0-18.5-8.3-18.5-18.5V43zM346.8 109c0-16.2-13.2-29.4-29.5-29.4h-66.4c-16.2 0-29.5 13.2-29.5 29.4v66.4c0 16.2 13.2 29.5 29.5 29.5h66.4c16.2 0 29.5-13.2 29.5-29.5V109zm-24.5 66.3c0 2.7-2.2 5-5 5h-66.4c-2.7 0-5-2.2-5-5v-66.4c0-2.7 2.2-4.9 5-4.9h66.4c2.7 0 5 2.2 5 4.9v66.4zM488.8 109c0-16.2-13.2-29.4-29.4-29.4H393c-16.2 0-29.5 13.2-29.5 29.4v66.4c0 16.2 13.2 29.5 29.5 29.5h66.4c16.2 0 29.4-13.2 29.4-29.5V109zm-24.5 66.3c0 2.7-2.2 5-4.9 5H393c-2.7 0-5-2.2-5-5v-66.4c0-2.7 2.2-4.9 5-4.9h66.4c2.7 0 4.9 2.2 4.9 4.9v66.4zM346.8 251c0-16.2-13.2-29.4-29.5-29.4h-66.4c-16.2 0-29.5 13.2-29.5 29.4v66.4c0 16.2 13.2 29.5 29.5 29.5h66.4c16.2 0 29.5-13.2 29.5-29.5V251zm-24.5 66.3c0 2.7-2.2 5-5 5h-66.4c-2.7 0-5-2.2-5-5v-66.4c0-2.7 2.2-4.9 5-4.9h66.4c2.7 0 5 2.2 5 4.9v66.4zM488.8 251c0-16.2-13.2-29.4-29.4-29.4H393c-16.2 0-29.5 13.2-29.5 29.4v66.4c0 16.2 13.2 29.5 29.5 29.5h66.4c16.2 0 29.4-13.2 29.4-29.5V251zm-24.5 66.3c0 2.7-2.2 5-4.9 5H393c-2.7 0-5-2.2-5-5v-66.4c0-2.7 2.2-4.9 5-4.9h66.4c2.7 0 4.9 2.2 4.9 4.9v66.4zM109 221.5c-16.2 0-29.5 13.2-29.5 29.4v66.4c0 16.2 13.2 29.5 29.5 29.5h66.4c16.2 0 29.5-13.2 29.5-29.5v-66.4c0-16.2-13.2-29.4-29.5-29.4H109zm71.3 29.5v66.4c0 2.7-2.2 5-5 5h-66.4c-2.7 0-5-2.2-5-5V251c0-2.7 2.2-4.9 5-4.9h66.4c2.8-.1 5 2.1 5 4.9zM317.3 363.5h-66.4c-16.2 0-29.5 13.2-29.5 29.5v66.4c0 16.2 13.2 29.4 29.5 29.4h66.4c16.2 0 29.5-13.2 29.5-29.4V393c0-16.3-13.2-29.5-29.5-29.5zm5 95.9c0 2.7-2.2 4.9-5 4.9h-66.4c-2.7 0-5-2.2-5-4.9V393c0-2.7 2.2-5 5-5h66.4c2.7 0 5 2.2 5 5v66.4zM459.4 363.5H393c-16.2 0-29.5 13.2-29.5 29.5v66.4c0 16.2 13.2 29.4 29.5 29.4h66.4c16.2 0 29.4-13.2 29.4-29.4V393c0-16.3-13.2-29.5-29.4-29.5zm4.9 95.9c0 2.7-2.2 4.9-4.9 4.9H393c-2.7 0-5-2.2-5-4.9V393c0-2.7 2.2-5 5-5h66.4c2.7 0 4.9 2.2 4.9 5v66.4zM109 488.8h66.4c16.2 0 29.5-13.2 29.5-29.4V393c0-16.2-13.2-29.5-29.5-29.5H109c-16.2 0-29.5 13.2-29.5 29.5v66.4c0 16.2 13.2 29.4 29.5 29.4zm-5-95.8c0-2.7 2.2-5 5-5h66.4c2.7 0 5 2.2 5 5v66.4c0 2.7-2.2 4.9-5 4.9H109c-2.7 0-5-2.2-5-4.9V393z" fill="#0a2a6a"></path>
</svg>