<svg width="30" height="25" viewBox="0 0 30 25" fill="none" xmlns="http://www.w3.org/2000/svg">
<path d="M29.5038 3.32764C28.4183 3.77993 27.3328 4.14176 26.0664 4.23222C27.3328 3.50855 28.2374 2.3326 28.6897 0.975728C27.5137 1.69939 26.2473 2.15168 24.8905 2.42306C23.805 1.2471 22.2672 0.523438 20.6389 0.523438C17.3824 0.523438 14.6687 3.14672 14.6687 6.49367C14.6687 6.94596 14.7592 7.39825 14.8496 7.85054C9.87442 7.57916 5.53243 5.22725 2.54732 1.60893C2.00457 2.51351 1.7332 3.50855 1.7332 4.59405C1.7332 6.67458 2.81869 8.48374 4.35648 9.56924C3.36144 9.56924 2.45686 9.29787 1.64274 8.84557V8.93603C1.64274 11.8307 3.72327 14.1826 6.43701 14.7253C5.89427 14.8158 5.44198 14.9063 4.89923 14.9063C4.5374 14.9063 4.17556 14.9063 3.81373 14.8158C4.5374 17.1677 6.79885 18.8864 9.33167 18.9769C7.34159 20.6051 4.71831 21.5097 1.91411 21.5097C1.46182 21.5097 0.919076 21.5097 0.466785 21.4192C3.18053 23.0475 6.34656 24.0425 9.6935 24.0425C20.6389 24.0425 26.6092 14.9967 26.6092 7.12687C26.6092 6.8555 26.6092 6.58412 26.6092 6.40321C27.6946 5.49863 28.6897 4.50359 29.5038 3.32764Z" fill="#F9F9FB"/>
</svg>
