<svg width="19" height="18" viewBox="0 0 19 18" fill="none" xmlns="http://www.w3.org/2000/svg">
<path d="M6.875 4.24069H8.60703V12.1696C8.60703 12.2727 8.69141 12.3571 8.79453 12.3571H10.2008C10.3039 12.3571 10.3883 12.2727 10.3883 12.1696V4.24069H12.125C12.282 4.24069 12.3687 4.06022 12.2727 3.93835L9.64766 0.61491C9.63012 0.592499 9.60771 0.574375 9.58212 0.561911C9.55654 0.549446 9.52846 0.542969 9.5 0.542969C9.47154 0.542969 9.44346 0.549446 9.41788 0.561911C9.39229 0.574375 9.36988 0.592499 9.35234 0.61491L6.72734 3.936C6.63125 4.06022 6.71797 4.24069 6.875 4.24069ZM18.0781 11.4665H16.6719C16.5688 11.4665 16.4844 11.5508 16.4844 11.654V15.2633H2.51562V11.654C2.51562 11.5508 2.43125 11.4665 2.32812 11.4665H0.921875C0.81875 11.4665 0.734375 11.5508 0.734375 11.654V16.2946C0.734375 16.7094 1.06953 17.0446 1.48438 17.0446H17.5156C17.9305 17.0446 18.2656 16.7094 18.2656 16.2946V11.654C18.2656 11.5508 18.1812 11.4665 18.0781 11.4665Z" fill="#1F56C3"/>
</svg>
