<svg width="24" height="25" viewBox="0 0 24 25" fill="none" xmlns="http://www.w3.org/2000/svg">
<g clip-path="url(#clip0_5123_20712)">
<path d="M12 0.253906C5.38332 0.253906 0 5.63722 0 12.2539C0 18.8705 5.38332 24.2539 12 24.2539C18.6166 24.2539 23.9999 18.8705 23.9999 12.2539C23.9999 5.63722 18.6167 0.253906 12 0.253906ZM12 23.2104C5.95824 23.2104 1.04346 18.2956 1.04346 12.2539C1.04346 6.21215 5.95824 1.29737 12 1.29737C18.0417 1.29737 22.9565 6.21215 22.9565 12.2539C22.9565 18.2956 18.0417 23.2104 12 23.2104Z" fill="#E5E5E5"/>
<path d="M11.9994 11.7305C8.25958 11.7305 5.2168 14.7733 5.2168 18.5131C5.2168 18.8011 5.45055 19.0349 5.73855 19.0349C6.02655 19.0349 6.26031 18.8011 6.26031 18.5131C6.26031 15.3482 8.83455 12.7739 11.9994 12.7739C15.1643 12.7739 17.7385 15.3482 17.7385 18.5131C17.7385 18.8011 17.9723 19.0348 18.2603 19.0348C18.5483 19.0348 18.782 18.8011 18.782 18.5131C18.782 14.7733 15.7393 11.7305 11.9994 11.7305Z" fill="#E5E5E5"/>
<path d="M11.9998 3.38281C9.98594 3.38281 8.34766 5.02106 8.34766 7.035C8.34766 9.04894 9.9859 10.6872 11.9998 10.6872C14.0138 10.6872 15.652 9.04889 15.652 7.035C15.652 5.0211 14.0138 3.38281 11.9998 3.38281ZM11.9998 9.64367C10.5619 9.64367 9.39116 8.47289 9.39116 7.035C9.39116 5.5971 10.5619 4.42632 11.9998 4.42632C13.4377 4.42632 14.6085 5.5971 14.6085 7.035C14.6085 8.47289 13.4378 9.64367 11.9998 9.64367Z" fill="#E5E5E5"/>
</g>
<defs>
<clipPath id="clip0_5123_20712">
<rect width="24" height="24" fill="white" transform="translate(0 0.253906)"/>
</clipPath>
</defs>
</svg>
