<svg width="24" height="25" viewBox="0 0 24 25" fill="none" xmlns="http://www.w3.org/2000/svg">
<g clip-path="url(#clip0_5123_20731)">
<path d="M11.9998 4.42969C9.98594 4.42969 8.34766 6.06793 8.34766 8.08188C8.34766 10.0958 9.9859 11.7341 11.9998 11.7341C14.0138 11.7341 15.652 10.0958 15.652 8.08188C15.652 6.06798 14.0138 4.42969 11.9998 4.42969ZM11.9998 10.6906C10.5619 10.6906 9.39116 9.51977 9.39116 8.08188C9.39116 6.64398 10.5619 5.4732 11.9998 5.4732C13.4377 5.4732 14.6085 6.64398 14.6085 8.08188C14.6085 9.51977 13.4378 10.6906 11.9998 10.6906Z" fill="#E5E5E5"/>
<path d="M19.304 8.60156C17.8661 8.60156 16.6953 9.77235 16.6953 11.2102C16.6953 12.6481 17.8661 13.8189 19.304 13.8189C20.7419 13.8189 21.9127 12.6481 21.9127 11.2102C21.9127 9.77235 20.7419 8.60156 19.304 8.60156ZM19.304 12.7755C18.441 12.7755 17.7388 12.0732 17.7388 11.2102C17.7388 10.3473 18.441 9.64503 19.304 9.64503C20.167 9.64503 20.8692 10.3473 20.8692 11.2102C20.8692 12.0732 20.1669 12.7755 19.304 12.7755Z" fill="#E5E5E5"/>
<path d="M4.76883 8.60156C3.32986 8.60156 2.16016 9.77235 2.16016 11.2102C2.16016 12.6481 3.33094 13.8189 4.76883 13.8189C6.20672 13.8189 7.3775 12.6481 7.3775 11.2102C7.3775 9.77235 6.20775 8.60156 4.76883 8.60156ZM4.76883 12.7755C3.90586 12.7755 3.20362 12.0732 3.20362 11.2102C3.20362 10.3473 3.90586 9.64503 4.76883 9.64503C5.6318 9.64503 6.33404 10.3473 6.33404 11.2102C6.33404 12.0732 5.63175 12.7755 4.76883 12.7755Z" fill="#E5E5E5"/>
<path d="M11.9994 12.7773C8.25958 12.7773 5.2168 15.8201 5.2168 19.56C5.2168 19.8479 5.45055 20.0817 5.73855 20.0817C6.02655 20.0817 6.26031 19.8479 6.26031 19.56C6.26031 16.3951 8.83455 13.8209 11.9994 13.8209C15.1643 13.8209 17.7385 16.3951 17.7385 19.56C17.7385 19.8479 17.9723 20.0817 18.2603 20.0817C18.5483 20.0817 18.782 19.8479 18.782 19.56C18.782 15.8201 15.7393 12.7773 11.9994 12.7773Z" fill="#E5E5E5"/>
<path d="M19.3042 14.8633C18.4454 14.8633 17.6043 15.0981 16.8718 15.5416C16.6266 15.6918 16.5473 16.0122 16.6965 16.2584C16.8478 16.5047 17.1671 16.583 17.4134 16.4337C17.982 16.0883 18.6353 15.9067 19.3042 15.9067C21.3181 15.9067 22.9564 17.545 22.9564 19.5589C22.9564 19.8469 23.1901 20.0807 23.4781 20.0807C23.7661 20.0807 23.9999 19.8469 23.9999 19.5589C23.9998 16.9701 21.893 14.8633 19.3042 14.8633Z" fill="#E5E5E5"/>
<path d="M7.12697 15.5405C6.39547 15.0981 5.55446 14.8633 4.69565 14.8633C2.10678 14.8633 0 16.9701 0 19.5589C0 19.8469 0.233755 20.0807 0.521755 20.0807C0.809755 20.0807 1.04351 19.8469 1.04351 19.5589C1.04346 17.545 2.68175 15.9067 4.69565 15.9067C5.36453 15.9067 6.01772 16.0883 6.5854 16.4327C6.8306 16.5819 7.15201 16.5036 7.30227 16.2574C7.45253 16.0111 7.3732 15.6907 7.12697 15.5405Z" fill="#E5E5E5"/>
</g>
<defs>
<clipPath id="clip0_5123_20731">
<rect width="24" height="24" fill="white" transform="translate(0 0.253906)"/>
</clipPath>
</defs>
</svg>
