<svg width="24" height="16" viewBox="0 0 24 16" fill="none" xmlns="http://www.w3.org/2000/svg">
<path d="M17.3635 10.8554C17.362 10.9958 17.2538 11.1082 17.1217 11.1066C16.9896 11.105 16.8839 10.9899 16.8855 10.8496C16.894 10.1223 16.4054 9.63948 15.9407 9.18068C15.4498 8.69574 14.9818 8.23351 14.9818 7.50566V5.46531C14.9818 4.88749 14.8051 4.34787 14.502 3.89598C14.1862 3.42518 13.7338 3.04835 13.2002 2.82015C13.1068 2.78038 13.0498 2.68484 13.0498 2.58396H13.0493V1.48702C13.0493 1.22306 12.9384 0.981798 12.7594 0.805379C12.5748 0.623358 12.3197 0.509934 12.038 0.508062H11.9983C11.7166 0.50993 11.4615 0.623358 11.277 0.805379C11.098 0.981791 10.987 1.22306 10.987 1.48702V2.58396C10.987 2.69765 10.9172 2.79373 10.8205 2.82683C10.2938 3.05555 9.84692 3.42973 9.53403 3.89596C9.23099 4.3478 9.05424 4.88747 9.05424 5.46528V7.50564C9.05424 8.23342 8.58625 8.6957 8.0954 9.18066C7.63091 9.63972 7.14234 10.1222 7.15063 10.8495C7.15214 10.9899 7.04643 11.105 6.91437 11.1066C6.78231 11.1082 6.6741 10.9958 6.67259 10.8554C6.66154 9.90209 7.22922 9.34108 7.76904 8.80781C8.18131 8.40081 8.57421 8.01245 8.57421 7.50542V5.46507C8.57421 4.77835 8.7841 4.13727 9.14389 3.60086C9.48208 3.09671 9.9531 2.68546 10.5067 2.41667V1.48713C10.5067 1.07585 10.6764 0.702771 10.9503 0.432892C11.219 0.168137 11.5891 0.00266463 11.9961 0H12.0395C12.4465 0.00266886 12.8166 0.167871 13.0853 0.432892C13.3592 0.702982 13.5289 1.07583 13.5289 1.48713V2.41667C14.0825 2.68543 14.5535 3.09671 14.8917 3.60086C15.2517 4.13758 15.4614 4.77835 15.4614 5.46507V7.50542C15.4614 8.01252 15.8543 8.4006 16.2665 8.80781C16.8063 9.34106 17.3743 9.90209 17.363 10.8554L17.3635 10.8554ZM15.1217 15.4897C15.2542 15.4897 15.3617 15.6039 15.3617 15.7448C15.3617 15.8858 15.2542 16 15.1217 16H1.42483C1.03692 16 0.683428 15.8433 0.425817 15.5911C0.162948 15.3336 0 14.9773 0 14.5839V7.86117C0 7.46777 0.163199 7.11145 0.425817 6.85394C0.683164 6.60173 1.03692 6.44506 1.42483 6.44506H7.36165C7.49422 6.44506 7.60167 6.55929 7.60167 6.70021C7.60167 6.84113 7.49422 6.95536 7.36165 6.95536H1.42483C1.16095 6.95536 0.922187 7.05997 0.750209 7.22865C0.583494 7.39199 0.480058 7.61618 0.480058 7.86118V14.5839C0.480058 14.8292 0.583501 15.0531 0.750209 15.2164C0.922194 15.3851 1.16096 15.4897 1.42483 15.4897L15.1217 15.4897ZM16.7247 6.95537C16.5922 6.95537 16.4847 6.84114 16.4847 6.70022C16.4847 6.5593 16.5922 6.44507 16.7247 6.44507H22.5752C22.9631 6.44507 23.3166 6.60174 23.5742 6.85395C23.8371 7.1115 24 7.4678 24 7.86118V14.5839C24 14.9773 23.8368 15.3336 23.5742 15.5911C23.3168 15.8433 22.9631 16 22.5752 16H19.9256C19.793 16 19.6856 15.8858 19.6856 15.7449C19.6856 15.6039 19.793 15.4897 19.9256 15.4897H22.5752C22.839 15.4897 23.0778 15.3851 23.2498 15.2164C23.4165 15.0531 23.5199 14.8289 23.5199 14.5839V7.86117C23.5199 7.6159 23.4165 7.39197 23.2498 7.22864C23.0778 7.05996 22.839 6.95534 22.5752 6.95534L16.7247 6.95537ZM8.50534 11.1664C8.37278 11.1664 8.26532 11.0521 8.26532 10.9112C8.26532 10.7703 8.37278 10.6561 8.50534 10.6561H15.5305C15.6631 10.6561 15.7705 10.7703 15.7705 10.9112C15.7705 11.0521 15.6631 11.1664 15.5305 11.1664H8.50534ZM13.0698 11.9137C13.0698 11.7728 13.1773 11.6585 13.3099 11.6585C13.4424 11.6585 13.5499 11.7728 13.5499 11.9137C13.5499 12.325 13.3802 12.6981 13.1063 12.9679C12.8376 13.233 12.4675 13.3982 12.0605 13.4008H12.0417V13.4019H12.0357V13.4008H12.0168C11.6098 13.3984 11.2398 13.233 10.9711 12.9679C10.6972 12.6978 10.5274 12.325 10.5274 11.9137C10.5274 11.7728 10.6349 11.6585 10.7675 11.6585C10.9 11.6585 11.0075 11.7728 11.0075 11.9137C11.0075 12.1776 11.1185 12.4189 11.2975 12.5953C11.482 12.7774 11.7371 12.8908 12.0188 12.8926H12.0357V12.8916H12.0417V12.8926H12.0585C12.3402 12.8908 12.5953 12.7774 12.7799 12.5953C12.9589 12.4189 13.0698 12.1776 13.0698 11.9137H13.0698Z" fill="black"/>
</svg>
