<svg width="24" height="24" viewBox="0 0 24 24" fill="none" xmlns="http://www.w3.org/2000/svg">
<g clip-path="url(#clip0_1590_52507)">
<path d="M24 9.11914V6.38135L22.1912 6.07959C22.0593 5.61084 21.8718 5.15967 21.6311 4.73193L22.6983 3.23828L20.7617 1.30225L19.2681 2.36914C18.8408 2.12842 18.3897 1.94092 17.9207 1.80908L17.6191 0H14.8809L14.5794 1.80908C14.1104 1.94092 13.6592 2.12842 13.2319 2.36914L11.7383 1.30225L9.80176 3.23828L10.8689 4.73193C10.6282 5.15967 10.4407 5.61084 10.3088 6.07959L8.5 6.38135V9.11914L10.3088 9.4209C10.4407 9.88965 10.6282 10.3408 10.8689 10.7686L9.80176 12.2622L11.7383 14.1982L13.2319 13.1313C13.6592 13.3721 14.1104 13.5596 14.5794 13.6914L14.8809 15.5H17.6191L17.9207 13.6914C18.3897 13.5596 18.8408 13.3721 19.2681 13.1313L20.7617 14.1982L22.6983 12.2622L21.6311 10.7686C21.8718 10.3408 22.0593 9.88965 22.1912 9.4209L24 9.11914ZM21.3921 12.1538L20.6538 12.8926L19.3079 11.9312L19.0232 12.1128C18.5127 12.438 17.9575 12.6689 17.3733 12.7979L17.0435 12.8706L16.772 14.5H15.728L15.4565 12.8706L15.1267 12.7979C14.5425 12.6689 13.9873 12.438 13.4768 12.1128L13.1921 11.9312L11.8462 12.8926L11.1079 12.1538L12.0691 10.8086L11.8877 10.5239C11.562 10.0127 11.3315 9.45752 11.2022 8.87354L11.1292 8.54395L9.5 8.27246V7.22803L11.1292 6.95654L11.2022 6.62695C11.3315 6.04297 11.562 5.48779 11.8877 4.97656L12.0691 4.69189L11.1079 3.34668L11.8462 2.60791L13.1921 3.56934L13.4768 3.3877C13.9873 3.0625 14.5425 2.83154 15.1267 2.70264L15.4565 2.62988L15.728 1H16.772L17.0435 2.62988L17.3733 2.70264C17.9575 2.83154 18.5127 3.0625 19.0232 3.3877L19.3079 3.56934L20.6538 2.60791L21.3921 3.34668L20.4309 4.69189L20.6123 4.97656C20.938 5.48779 21.1685 6.04297 21.2979 6.62695L21.3709 6.95654L23 7.22803V8.27246L21.3709 8.54395L21.2979 8.87354C21.1685 9.45752 20.938 10.0127 20.6123 10.5239L20.4309 10.8086L21.3921 12.1538Z" fill="#333333"/>
<path d="M16.25 4.41211C14.4099 4.41211 12.9131 5.90918 12.9131 7.74902C12.9131 9.58887 14.4099 11.0859 16.25 11.0859C18.0901 11.0859 19.5869 9.58887 19.5869 7.74902C19.5869 5.90918 18.0901 4.41211 16.25 4.41211ZM16.25 10.0859C14.9614 10.0859 13.9131 9.0376 13.9131 7.74902C13.9131 6.46045 14.9614 5.41211 16.25 5.41211C17.5386 5.41211 18.5869 6.46045 18.5869 7.74902C18.5869 9.0376 17.5386 10.0859 16.25 10.0859Z" fill="#333333"/>
<path d="M19.707 18.001H8.73745C8.11772 16.2561 6.45469 15.001 4.5 15.001C2.0188 15.001 0 17.0195 0 19.501C0 21.9824 2.0188 24.001 4.5 24.001C6.2623 24.001 7.78711 22.9802 8.5252 21.501H11.3274L12.0198 20.728L12.7927 21.501H13.793L15.25 22.958L17 21.208L17.793 22.001H19.707L21.707 20.001L19.707 18.001ZM4.5 23.001C2.57007 23.001 1 21.4307 1 19.501C1 17.5713 2.57007 16.001 4.5 16.001C6.42993 16.001 8 17.5713 8 19.501C8 21.4307 6.42993 23.001 4.5 23.001ZM19.293 21.001H18.207L17 19.7939L15.25 21.5439L14.207 20.501H13.2068L11.9802 19.2739L10.8806 20.501H8.88413C8.95762 20.1788 9 19.8451 9 19.501C9 19.3318 8.98882 19.1653 8.97051 19.001H19.293L20.293 20.001L19.293 21.001Z" fill="#333333"/>
<path d="M3 17.9995C2.17285 17.9995 1.5 18.6724 1.5 19.4995C1.5 20.3267 2.17285 20.9995 3 20.9995C3.82715 20.9995 4.5 20.3267 4.5 19.4995C4.5 18.6724 3.82715 17.9995 3 17.9995ZM3 19.9995C2.72437 19.9995 2.5 19.7754 2.5 19.4995C2.5 19.2236 2.72437 18.9995 3 18.9995C3.27564 18.9995 3.5 19.2236 3.5 19.4995C3.5 19.7754 3.27564 19.9995 3 19.9995Z" fill="#333333"/>
</g>
<defs>
<clipPath id="clip0_1590_52507">
<rect width="24" height="24" fill="white"/>
</clipPath>
</defs>
</svg>
