<svg width="17" height="19" viewBox="0 0 17 19" fill="none" xmlns="http://www.w3.org/2000/svg">
<path d="M0.000116722 10.939C0.00193687 13.0665 0.88897 15.107 2.46822 16.6167C4.04751 18.1263 6.19103 18.9827 8.43209 18.9997C10.6735 19.0167 12.8311 18.1927 14.4356 16.7071C16.0399 15.2214 16.9612 13.1945 16.9988 11.0674C17.0363 8.94027 16.1873 6.88501 14.6362 5.34924C13.0853 3.81353 10.958 2.92122 8.71741 2.86682V0.412894H11.5138V0H5.48623V0.412894H8.2826V2.86682C6.06611 2.92282 3.96006 3.79772 2.41308 5.30534C0.8661 6.81296 0.000310639 8.83428 0 10.9387L0.000116722 10.939ZM16.563 10.939C16.5607 12.969 15.709 14.915 14.1954 16.3491C12.6817 17.783 10.6299 18.5876 8.49131 18.586C6.35264 18.5845 4.30235 17.7766 2.79109 16.3403C1.27991 14.9039 0.431555 12.9567 0.432642 10.9269C0.433855 8.89711 1.28434 6.95054 2.79719 5.51575C4.31003 4.08096 6.36134 3.27533 8.50012 3.27592C10.6398 3.27808 12.6914 4.08645 14.2034 5.52327C15.7157 6.9602 16.5651 8.90824 16.5651 10.9392L16.563 10.939Z" fill="black"/>
<path d="M12.7837 10.7246H14.7385V11.1374H12.7837V10.7246Z" fill="black"/>
<path d="M2.2616 10.7246H4.21645V11.1374H2.2616V10.7246Z" fill="black"/>
<path d="M8.28247 5.00977H8.71733V6.86523H8.28247V5.00977Z" fill="black"/>
<path d="M8.28247 14.9941H8.71733V16.8496H8.28247V14.9941Z" fill="black"/>
<path d="M11.3749 13.952L11.6823 13.6602L13.0646 14.9721L12.7571 15.264L11.3749 13.952Z" fill="black"/>
<path d="M3.93469 6.8885L4.24215 6.59668L5.62441 7.90867L5.31696 8.20049L3.93469 6.8885Z" fill="black"/>
<path d="M11.3754 7.90867L12.7576 6.59668L13.0651 6.8885L11.6828 8.20049L11.3754 7.90867Z" fill="black"/>
<path d="M3.93445 14.9702L5.31671 13.6582L5.62417 13.95L4.2419 15.262L3.93445 14.9702Z" fill="black"/>
</svg>
