<svg width="24" height="24" viewBox="0 0 24 24" fill="none" xmlns="http://www.w3.org/2000/svg">
<path d="M1.69542 19.4546C1.86731 19.5484 5.95233 21.7504 10.125 21.7504C10.5382 21.7504 10.9607 21.7313 11.3873 21.6942L11.1342 22.7911C11.1199 22.853 11.1216 22.9176 11.1391 22.9788C11.1567 23.0399 11.1895 23.0956 11.2345 23.1405C11.2794 23.1855 11.3351 23.2183 11.3962 23.2358C11.4574 23.2534 11.522 23.2551 11.5839 23.2408L15.0311 22.4453C15.0341 22.4446 15.0369 22.4435 15.0398 22.4428C15.0473 22.4409 15.0547 22.4388 15.062 22.4365C15.0667 22.4349 15.0714 22.4332 15.0761 22.4315C15.0828 22.429 15.0894 22.4264 15.096 22.4236C15.1012 22.4214 15.1062 22.4189 15.1113 22.4165C15.1163 22.414 15.1227 22.4108 15.1283 22.4077C15.1338 22.4046 15.1393 22.4013 15.1448 22.3979C15.1502 22.3945 15.1541 22.3919 15.1588 22.3885C15.1647 22.3845 15.1704 22.3803 15.176 22.3759C15.18 22.3728 15.1839 22.3697 15.1878 22.3665C15.1937 22.3615 15.1993 22.3564 15.2048 22.3511C15.207 22.349 15.2095 22.3472 15.2117 22.345L21.5758 15.9812L21.841 15.716C22.2611 15.2936 22.4965 14.7219 22.4957 14.1263C22.4949 13.5306 22.2579 12.9595 21.8367 12.5383C21.4155 12.1171 20.8445 11.8801 20.2488 11.8793C19.6531 11.8785 19.0814 12.1139 18.6591 12.534L18.394 12.799L17.5013 13.6917C16.7896 12.3205 15.7922 11.1767 14.595 10.3675C13.8519 9.8646 13.029 9.49115 12.1613 9.26293C13.0631 8.80529 13.7846 8.05718 14.2092 7.13927C14.6338 6.22136 14.7368 5.18718 14.5016 4.20355C14.2664 3.21992 13.7068 2.34419 12.9129 1.71762C12.119 1.09106 11.1372 0.750186 10.1258 0.75C9.11446 0.749814 8.13252 1.09032 7.3384 1.7166C6.54429 2.34287 5.98429 3.21839 5.74874 4.20194C5.51319 5.18549 5.61583 6.2197 6.0401 7.13777C6.46437 8.05583 7.18553 8.80421 8.08725 9.26219C6.53288 9.67 5.12686 10.5469 4.0087 11.8296C2.39095 13.6852 1.5 16.2763 1.5 19.1254C1.5 19.1928 1.51815 19.2589 1.55254 19.3169C1.58692 19.3748 1.63628 19.4224 1.69542 19.4546ZM12 22.3751L12.5084 20.172L14.2031 21.8667L12 22.3751ZM19.1894 13.0645C19.3285 12.9243 19.4939 12.813 19.6761 12.7369C19.8583 12.6608 20.0537 12.6215 20.2512 12.6211C20.4487 12.6207 20.6443 12.6593 20.8268 12.7347C21.0093 12.8101 21.1751 12.9208 21.3147 13.0604C21.4544 13.2001 21.5651 13.3659 21.6405 13.5484C21.7158 13.7309 21.7545 13.9265 21.7541 14.124C21.7537 14.3215 21.7143 14.5169 21.6382 14.6991C21.5621 14.8813 21.4508 15.0467 21.3106 15.1858L19.1894 13.0645ZM18.659 13.5947L20.7803 15.716L14.9467 21.5496L12.8253 19.4283L18.659 13.5947ZM6.375 5.25043C6.375 4.50875 6.59493 3.78373 7.00699 3.16705C7.41904 2.55036 8.00471 2.06971 8.68994 1.78589C9.37516 1.50206 10.1292 1.42779 10.8566 1.57249C11.584 1.71718 12.2522 2.07434 12.7767 2.59878C13.3011 3.12323 13.6583 3.79142 13.8029 4.51885C13.9476 5.24627 13.8734 6.00027 13.5895 6.6855C13.3057 7.37072 12.8251 7.95639 12.2084 8.36845C11.5917 8.7805 10.8667 9.00043 10.125 9.00043C9.13078 8.99931 8.17761 8.60386 7.4746 7.90084C6.77158 7.19782 6.37613 6.24465 6.375 5.25043ZM4.57402 12.3222C6.01978 10.6638 7.99116 9.75043 10.125 9.75043C13.035 9.75043 15.5711 11.4295 16.9426 14.2504L12.0301 19.1629C12.0279 19.1651 12.0261 19.1676 12.024 19.1697C12.0188 19.1751 12.0137 19.1807 12.0088 19.1864C12.0058 19.19 12.003 19.1936 12.0001 19.1973C11.9954 19.2033 11.9907 19.2093 11.9865 19.2156C11.9839 19.2195 11.9813 19.2234 11.9788 19.2274C11.9749 19.2337 11.971 19.24 11.9674 19.2466C11.9649 19.251 11.9627 19.2556 11.9603 19.2602C11.9573 19.2663 11.9542 19.2726 11.9514 19.2789C11.9491 19.2843 11.947 19.2898 11.945 19.2953C11.9429 19.3007 11.9406 19.3069 11.9386 19.3129C11.9367 19.3189 11.9348 19.3258 11.9331 19.3323C11.9321 19.3361 11.9308 19.3398 11.9299 19.3437L11.5653 20.9234C11.0869 20.9738 10.6061 20.9996 10.125 21.0004C6.64744 21.0004 3.11283 19.3325 2.25202 18.8984C2.29753 16.3206 3.11798 13.9926 4.57402 12.3222Z" fill="#333333"/>
</svg>
